<?xml version="1.0" standalone="no"?>
<!DOCTYPE svg PUBLIC "-//W3C//DTD SVG 1.1//EN" "http://www.w3.org/Graphics/SVG/1.1/DTD/svg11.dtd" >
<svg xmlns="http://www.w3.org/2000/svg" xmlns:xlink="http://www.w3.org/1999/xlink" version="1.1">
<metadata>
Created by FontForge 20141024 at Thu Jan 29 23:48:40 2015
 By System Administrator
Typeface (c) StudioTypo. 2015. All Rights Reserved
</metadata>
<defs>
<font id="MindBlue-Bold" horiz-adv-x="833" >
  <font-face 
    font-family="MindBlue"
    font-weight="700"
    font-stretch="normal"
    units-per-em="2048"
    panose-1="2 0 5 0 0 0 0 0 0 0"
    ascent="1638"
    descent="-410"
    x-height="1048"
    cap-height="1575"
    bbox="-458 -740 1969 1963"
    underline-thickness="150"
    underline-position="-142"
    unicode-range="U+001D-F002"
  />
<missing-glyph horiz-adv-x="1263" 
d="M70 1575h1093v-2005h-1093v2005zM219 -282h796v1708h-796v-1708z" />
    <glyph glyph-name=".notdef" horiz-adv-x="1263" 
d="M70 1575h1093v-2005h-1093v2005zM219 -282h796v1708h-796v-1708z" />
    <glyph glyph-name=".null" horiz-adv-x="200" 
 />
    <glyph glyph-name=".null" horiz-adv-x="200" 
 />
    <glyph glyph-name="nonmarkingreturn" horiz-adv-x="200" 
 />
    <glyph glyph-name="space" unicode=" " horiz-adv-x="530" 
 />
    <glyph glyph-name="space" unicode="&#xa0;" horiz-adv-x="530" 
 />
    <glyph glyph-name="exclam" unicode="!" horiz-adv-x="357" 
d="M89 1575h149v-1223h-149v1223zM80 137h167v-167h-167v167z" />
    <glyph glyph-name="quotedbl" unicode="&#x22;" horiz-adv-x="557" 
d="M70 1574h167v-279l-24 -175h-119l-24 175v279zM320 1574h167v-279l-24 -175h-119l-24 175v279z" />
    <glyph glyph-name="numbersign" unicode="#" horiz-adv-x="1043" 
d="M573 597l51 348h-177l-50 -348h176zM151 -30l74 479h-185v148h206l51 348h-257v148h279l73 482h151l-73 -482h175l74 482h150l-73 -482h187v-148h-209l-52 -348h261v-148h-282l-73 -479h-151l74 479h-177l-73 -479h-150z" />
    <glyph glyph-name="dollar" unicode="$" horiz-adv-x="828" 
d="M492 1577q106 0 175 -128q61 -118 61 -292v-73h-148v73q0 123 -38 208q-29 65 -50 65h-20v-582h20q106 0 175 -127q61 -119 61 -292v-37q0 -174 -61 -293q-69 -128 -175 -128h-20v-96h-147v96h-19q-107 0 -175 128q-61 119 -61 293v74h147v-74q0 -124 38 -209
q29 -63 51 -63h19v581h-19q-107 0 -175 128q-61 118 -61 292v36q0 174 61 292q68 128 175 128h19v96h147v-96h20zM472 701v-581h20q21 0 50 63q38 85 38 209v37q0 122 -38 207q-29 65 -50 65h-20zM325 1430h-19q-22 0 -51 -65q-38 -85 -38 -208v-36q0 -123 38 -208
q29 -65 51 -65h19v582z" />
    <glyph glyph-name="percent" unicode="%" horiz-adv-x="1001" 
d="M438 1076q0 -88 -53 -151q-52 -67 -131 -67q-77 0 -131 67q-53 63 -53 151v287q0 88 53 151q54 66 131 66q78 0 131 -66q53 -63 53 -151v-287zM289 1363q0 30 -14 52q-11 16 -21 16t-21 -16q-14 -22 -14 -52v-287q0 -31 14 -52q11 -17 21 -17t21 17q14 21 14 52v287z
M717 695q77 0 132 -65q52 -63 52 -152v-286q0 -88 -52 -152q-55 -65 -132 -65q-78 0 -132 65q-52 64 -52 152v286q0 89 52 152q54 65 132 65zM753 478q0 31 -15 52q-11 18 -21 18q-11 0 -22 -17q-14 -22 -14 -53v-286q0 -31 14 -53q11 -16 22 -16q10 0 21 16q15 22 15 53
v286zM726 1575l-327 -1605h-151l326 1605h152z" />
    <glyph glyph-name="ampersand" unicode="&#x26;" horiz-adv-x="897" 
d="M753 224q47 -69 93 -138l41 -61l-125 -83l-40 62q-33 49 -48 71q-75 -104 -257 -104q-138 0 -237 88q-110 98 -110 258v236q0 185 117 267q-117 198 -117 330v80q0 160 110 258q89 88 217 88q129 0 218 -88q108 -98 108 -258v-73h-147v73q0 95 -64 149q-45 49 -115 49
q-71 0 -116 -49q-62 -54 -62 -149v-80q0 -96 123 -304l15 -22q72 -120 259 -408v212h147v-311q0 -56 -10 -93zM417 119q127 0 169 87q-8 12 -45 68q-221 329 -277 418q-45 -34 -45 -139v-236q0 -96 62 -150q55 -48 136 -48z" />
    <glyph glyph-name="quotesingle" unicode="'" horiz-adv-x="337" 
d="M70 1574h167v-279l-24 -175h-119l-24 175v279z" />
    <glyph glyph-name="parenleft" unicode="(" horiz-adv-x="510" 
d="M70 1228q0 143 101 246q102 101 244 101h75v-149h-75q-81 0 -139 -57q-59 -59 -59 -141v-1413q0 -80 59 -139q58 -58 139 -58h75v-148h-75q-142 0 -244 102q-101 101 -101 243v1413z" />
    <glyph glyph-name="parenright" unicode=")" horiz-adv-x="510" 
d="M410 -185q0 -142 -101 -243q-102 -102 -244 -102h-75v148h75q81 0 139 58q59 59 59 139v1413q0 82 -59 141q-58 57 -139 57h-75v149h75q142 0 244 -101q101 -103 101 -246v-1413z" />
    <glyph glyph-name="asterisk" unicode="*" horiz-adv-x="792" 
d="M633 1390l59 -136l-212 -90l132 -235l-130 -71l-106 190l-106 -191l-130 72l131 235l-210 90l57 136l184 -77v262h148v-262z" />
    <glyph glyph-name="plus" unicode="+" horiz-adv-x="867" 
d="M493 804h274v-148h-274v-486h-148v486h-275v148h275v486h148v-486z" />
    <glyph glyph-name="comma" unicode="," horiz-adv-x="416" 
d="M237 0q0 -80 -15 -127q-31 -73 -132 -90l-27 97q42 40 42 90h-35v167h167v-137z" />
    <glyph glyph-name="hyphen" unicode="-" horiz-adv-x="867" 
d="M70 809h697v-149h-697v149z" />
    <glyph glyph-name="hyphen" unicode="&#xad;" horiz-adv-x="867" 
d="M70 809h697v-149h-697v149z" />
    <glyph glyph-name="period" unicode="." horiz-adv-x="1547" 
d="M100 -82v1710h1335v-1710h-1335zM165 -22h1204v1590h-1204v-1590zM262 1374h28q30 0 42 -53q2 -23 2 -35v-4h-23v2q-5 34 -20 34h-32q-12 0 -19 -28q6 -28 16 -28q0 -3 14 -3h24q28 0 46 -55q4 -21 4 -50q0 -76 -39 -99q-9 -3 -14 -3h-20q-35 0 -49 60v54h17
q0 -27 16 -50q9 -8 15 -8h23q8 0 19 16q10 19 10 30v3q-7 46 -31 46q0 1 -7 1h-23q-30 0 -39 44v81q10 45 40 45zM378 1374h22v-85h20v-56h-20v-164q0 -40 19 -52q4 -1 9 -1v-55h-5q-34 0 -44 68q-1 6 -1 19v185h-18v56h18v85zM651 1374h21v-322h-21v7q-11 -7 -17 -7h-24
q-36 0 -41 64v111q0 40 30 61l8 1h23q13 0 21 -8v93zM699 1374h22v-56h-22v56zM865 1374h138v-56h-59v-266h-22v266h-57v56zM797 1290h6q28 0 36 -21q13 -17 13 -53v-89q0 -56 -30 -72q-4 -3 -9 -3h-24q-35 0 -41 66v106q0 44 29 64q9 2 20 2zM1290 1290h6q28 0 36 -21
q8 -9 8 -19v-157q-11 -41 -35 -41h-23q-35 0 -42 64v108q0 44 30 64q9 2 20 2zM443 1289h23v-149q0 -26 18 -32h24q15 0 18 38v143h22v-237h-22v7q-10 -7 -18 -7h-23q-32 0 -42 56v181zM699 1289h22v-237h-22v237zM990 1289h22v-140q0 -42 23 -42h16q19 0 23 32v150h22v-253
q-2 -66 -37 -75h-69v56h57q27 0 27 35v6q-9 -8 -29 -8h-4q-31 0 -40 23q-11 15 -11 67v149zM1117 1289h21v-7q9 7 17 7h23q36 0 42 -68v-87q0 -60 -28 -76q-5 -3 -17 -3h-13q-15 0 -24 6v-94h-21v322zM769 1201v-61q0 -25 19 -32h24q18 6 18 34v57q0 35 -25 35h-14
q-11 0 -16 -10q-6 -10 -6 -23zM1138 1140q0 -27 22 -30h13q17 0 23 17q1 10 1 15v59q-2 33 -19 33h-18q-18 0 -22 -29v-65zM1262 1201v-61q0 -25 19 -32h24q18 6 18 34v57q0 35 -25 35h-14q-12 0 -16 -10q-6 -10 -6 -23zM590 1201v-62q4 -31 19 -31h24q17 0 18 42v37
q0 35 -14 44l-6 2h-22q-19 -6 -19 -32zM471 1026h8v-18h6q10 0 10 -15v-33h-8v30q0 6 -3 7h-2q-3 0 -3 -9v-28h-8v66zM781 1026h8v-18h6q10 0 10 -21v-27h-9v36l-5 1l-2 -4v-33h-8v66zM916 1026h8v-18h5v-11h-5v-16q0 -8 6 -8v-13h-1q-10 0 -13 18v19h-3v11h3v18zM450 1008
h11q3 0 5 -10v-3l-8 -2q0 4 -2 4h-1q-2 0 -3 -4v-14v-6h4q2 0 2 5l8 -3v-3q-1 -12 -10 -12q-13 1 -13 13v22q0 9 7 13zM508 1008h6q11 0 11 -24t-14 -24q-10 2 -10 15v21q0 9 7 12zM537 1008h9q8 -4 8 -13v-22q0 -12 -13 -13q-12 0 -12 20v10q0 15 8 18zM564 1008h10
q4 -5 4 -17h-3q5 -7 5 -15q-1 -16 -11 -16q-11 2 -11 15v6h6v1q-6 1 -6 9v6q0 9 6 11zM590 1008h11q6 -4 6 -11v-15h-14v-7q0 -2 2 -2h3l1 6h8v-4q0 -15 -12 -15q-11 0 -11 26v1q0 17 6 21zM628 1008h8v-24l1 -11h6l2 6v29h7v-51q0 -10 -7 -14h-9q-6 0 -6 20h3q-5 5 -5 18
v27zM665 1008h10q8 -3 8 -18v-10q0 -20 -12 -20q-13 1 -13 13v22q0 9 7 13zM687 1008h9v-33q1 -2 2 -2h4l1 6v29h8v-48h-10q-14 0 -14 24v24zM716 1008h17v-11q-8 0 -8 -7v-30h-9v48zM759 1008h10q8 -3 8 -12q-5 -3 -9 -3q0 4 -3 4h-2q-1 0 -1 -2v-20q0 -2 1 -2h5v5h3
q6 -3 6 -6q0 -11 -14 -12q-11 0 -11 26v1q0 17 7 21zM815 1008h9q8 0 8 -22v-10q2 -8 2 -9l-2 -8h-3q-2 0 -2 2q-4 -2 -7 -2h-2q-9 5 -9 17q0 9 4 14v1h-3v6q0 9 5 11zM837 1008h16v-11q-8 0 -8 -8v-29h-8v48zM863 1008h11q6 -2 6 -15v-17q0 -4 3 -6q-2 -11 -4 -11h-3
q0 2 -1 2q-4 -2 -7 -2q-9 0 -10 14v7q0 7 4 11h-4v5q2 12 5 12zM892 1008h11q6 -3 6 -12q-4 -3 -8 -3q0 4 -3 4h-1q-2 0 -2 -2v-20q0 -2 2 -2h3q1 0 1 5h3q5 -3 5 -6q0 -12 -12 -12q-11 0 -11 27q0 17 6 21zM942 1008h6q10 0 10 -12v-14h-15v-7q0 -2 2 -2h2q3 0 3 6h9
q0 -19 -14 -19q-10 2 -10 15v21q0 9 7 12zM964 1008h16v-11q-9 0 -9 -8v-29h-7v48zM511 997l-3 -4v-18q1 -2 3 -2h2q3 0 3 2v21zM537 988v-6q0 -8 4 -9h4l1 6v14q0 2 -4 4h-1q-4 0 -4 -9zM566 997v-4h4v4h-4zM593 995h5q0 2 -2 2h-1q-2 0 -2 -2zM666 993v-14l1 -6h4q3 1 3 9
v6q0 9 -3 9h-2q-1 0 -3 -4zM818 995v-2h4v4h-2q-2 0 -2 -2zM866 995v-2h5v4h-3q-2 0 -2 -2zM945 997l-1 -2h6v1zM566 981v-6q0 -2 3 -2h2q0 3 1 3q-1 3 -1 5h-5zM818 979v-4q0 -3 2 -3t2 3v6h-2q-2 0 -2 -2zM866 979v-1l1 -6h1q3 1 3 9h-3q-2 0 -2 -2zM637 960v-3q1 -2 3 -2
v0q2 0 5 3v2h-8zM725 791h3l11 -1v-18q2 -70 2 -126l-7 -2h-6q-3 71 -3 138v3v6zM1224 791h1l14 -1q-1 -9 -1 -13q0 -55 3 -131l-11 -2h-4q-2 58 -3 129q1 12 1 18zM790 786h4q0 -2 7 -12q-4 -18 -4 -30v-18q0 -44 15 -58h1q21 0 35 117h2q12 -4 13 -4q-6 -58 -6 -86
q0 -31 12 -31q2 -16 2 -20h-8q-13 0 -20 32h-1q-11 -28 -27 -28h-5q-20 0 -27 61q-1 4 -1 22v11q0 25 8 44zM1094 786h6q12 0 28 -28q12 -22 12 -44v-9q0 -37 -40 -58q-7 -3 -14 -3h-7q-30 0 -35 43v9q0 50 40 88q8 2 10 2zM249 782h9q28 -5 28 -40q0 -34 -33 -49
q-12 -5 -27 -7v-37h-1q-5 0 -14 3v34h-5l-5 1q0 11 5 19h5v0q0 41 -6 41q-6 7 -6 11q18 24 50 24zM1059 696v-8q0 -21 25 -24q22 0 37 27q5 8 5 18v3q0 27 -26 53q-3 0 -3 2q-17 0 -35 -50q-3 -11 -3 -21zM224 755q1 -35 1 -47q1 0 1 -2q29 6 37 17q8 10 8 18q0 18 -15 21
h-6q-26 -3 -26 -7zM404 758q19 0 28 -49q-1 0 -15 -4q-6 33 -13 33q-17 -9 -20 -75q1 -14 1 -15q-10 -2 -15 -2q-13 69 -13 87q12 2 15 2v-1q0 -4 3 -19h1q10 43 28 43zM537 752q20 0 33 -32q2 -9 2 -17v-3q0 -36 -35 -53q-5 -1 -9 -1q-27 4 -27 38q0 50 25 65q2 1 11 3z
M614 752q19 0 36 -89q1 0 1 -7q-8 -7 -12 -7q-15 62 -23 80q-9 -13 -18 -70q-1 0 -5 -10h-7q-7 0 -9 57q-2 14 -2 23q7 2 14 2q3 -17 3 -20h1q7 41 21 41zM1185 752q16 0 35 -96q-9 -7 -13 -7q-15 66 -24 80q-6 -12 -19 -74q-3 -6 -4 -6h-6q-7 0 -10 80q6 2 15 2
q1 -19 1 -22h1q7 43 24 43zM472 750q18 -5 18 -17v-1q0 -2 -10 -8h-1q-4 7 -13 7q-13 0 -16 -11q0 -5 29 -6q20 -11 20 -34q0 -25 -20 -34l-8 -2h-5q-24 0 -34 23v1q1 3 9 11h1q12 -15 28 -15q14 4 14 16q-4 15 -21 15q-28 0 -28 22v3q0 30 37 30zM912 750q13 0 20 -18v-1
q-11 -7 -14 -7q0 6 -11 7q-12 0 -17 -10v-1q0 -5 29 -6q19 -9 19 -36q0 -26 -24 -34h-8q-23 0 -35 23v1q8 11 10 11h1q12 -15 27 -15q14 4 14 16t-16 15q-25 0 -30 11q-2 11 -2 14q0 30 37 30zM1249 749v0q13 -2 14 -2q-1 -18 -1 -26v-9q2 -35 13 -35h1q18 13 18 67v0h15v-3
q7 -78 7 -88q0 -46 -30 -56h-5h-5q-18 0 -23 19q-1 5 -1 10v0q0 15 3 15h1q9 -6 12 -6l-1 -9q0 -8 9 -9h2q23 0 23 42q0 5 -1 21h-1q-8 -24 -26 -24h-1q-19 0 -25 47v17q0 10 2 29zM331 748q23 -4 23 -22v-6q0 -20 -39 -36h-10q0 -11 17 -16q11 0 21 18h4q8 -12 8 -15
q-17 -22 -30 -22h-7q-26 0 -30 45q0 40 32 53zM681 748h11q27 -9 27 -45q-1 -21 -1 -35l2 -16q-9 -8 -13 -8h-1l-2 11q-12 -8 -23 -8h-7q-22 3 -22 21v8q0 30 32 35q11 -1 20 -6v1q-4 25 -17 25q-9 0 -18 -10h-3q-2 1 -8 11v2q12 14 23 14zM983 748q24 -4 24 -23
q0 -29 -42 -41h-7v-2q7 -14 16 -14q10 0 23 18h1q1 0 9 -12q0 -9 -21 -22q-4 -3 -9 -3h-7q-24 0 -29 44q0 40 30 54zM516 685q2 -18 12 -18h3q24 7 26 35v3q-6 26 -20 26h-2q-13 0 -18 -32q-1 -7 -1 -14zM305 705q19 0 33 18v2q-7 2 -9 2q-16 0 -24 -19v-3zM958 705h3
q17 0 31 19q-6 3 -9 3h-3q-16 0 -22 -21v-1zM667 674v-3q0 -3 10 -6q17 0 25 17q-8 7 -19 7q-16 -3 -16 -15zM618 544q13 0 15 -34v-3l-6 -1h-2q-3 21 -8 21q-6 0 -8 -19q1 -2 1 -4q0 -10 2 -39q5 3 9 3h3v-15l-11 -3q5 -57 5 -69h-11q-4 54 -4 65h-1q-5 -2 -10 -2v17
q6 0 10 2q-3 21 -3 52q3 29 17 29h2zM816 544q12 0 16 -37l-8 -1h-2v1q0 15 -7 20q-8 -5 -8 -15q0 -8 3 -46v-1q5 3 10 3h1l1 -8v-7q-1 0 -12 -3l2 -3q0 -12 4 -66h-11q0 6 -4 65q-9 -2 -12 -2v17l11 1q-3 46 -3 52q0 30 19 30zM709 527h4h6v-9q0 -61 3 -132h-11
q-2 65 -2 102v39zM735 527h1h8v-30q0 -32 3 -111h-11q-3 66 -3 136v3q0 2 2 2zM529 524q8 -2 10 -2q-2 -29 -2 -42h2l12 2v-17q-1 0 -14 -2l4 -74l-2 -2h-8q-3 29 -5 75h-13v16l11 1h2v18q0 27 3 27zM994 524q3 0 12 -2q-3 -13 -3 -29v-13h3l12 2v-17h-3l-12 -2l5 -74l-5 -2
h-6q-3 62 -3 75h-15l1 8v8l11 1h1v1q0 21 2 44zM1140 524q3 0 12 -2q-2 -18 -2 -34v-8h2l12 2v-8v-9q-1 0 -14 -2v-6q0 -15 4 -68l-2 -2h-9l-4 75h-13v16l11 1h1zM404 521h10q14 0 23 -23q-6 -6 -6 -9h-3q-9 15 -21 15q-17 0 -35 -26q-9 -19 -9 -34v-5q0 -29 24 -35
q2 -1 8 -1q31 3 31 20v10q-4 3 -12 3h-10v17q28 0 33 -9q2 -7 2 -9q-2 -25 -2 -29q0 -11 4 -26q-1 0 -8 -5h-1q-4 0 -6 22q-6 -8 -29 -12h-2q-38 0 -43 51v4q0 58 45 79zM866 489q23 0 34 -38v-14q0 -34 -34 -50l-7 -1q-16 0 -24 20q-2 11 -2 17v4q0 41 19 57q8 5 14 5z
M943 489q15 0 34 -94h-1q-5 -4 -9 -4q-15 67 -24 79q-7 -7 -23 -79l-2 -1h-4q-6 0 -9 76l8 2h2q3 -16 3 -33h1q9 54 24 54zM487 485q20 -4 20 -20q1 0 1 -2q0 -23 -35 -36q-5 -3 -15 -3v-1q0 -11 17 -17h1q10 0 23 16h3q0 -2 6 -9v-1q-14 -22 -29 -22h-6q-19 0 -27 32v15
q0 33 26 46q5 2 15 2zM1083 485h11q16 0 24 -28q2 -16 3 -18q-1 -6 -3 -26q2 -4 2 -23l-6 -4h-3l-3 12q-10 -11 -25 -11h-4q-21 3 -21 20v8q3 32 30 32q12 0 21 -8v3q0 25 -18 29h-3q-6 0 -17 -8h-1q-1 0 -6 7v2q10 13 19 13zM634 483q2 0 11 -3q0 -74 14 -74q19 12 28 66
q1 5 1 11h1q3 0 10 -3q-3 -24 -3 -45v-12q0 -9 5 -19q-5 -7 -5 -11h-2q-7 4 -8 26h-2q-4 -15 -19 -29h-9q-20 0 -20 75v10zM843 427q2 -23 15 -23h1q16 0 27 25q3 8 3 11q-6 31 -22 31h-4q-15 0 -20 -44zM457 440q23 0 39 22q-2 6 -11 6h-3q-19 0 -25 -28zM1068 412
q3 -8 11 -8h6q14 0 22 18q-9 8 -17 8h-2q-20 -3 -20 -18zM507 295q1 0 17 -4q-4 -38 -5 -92q0 -34 10 -69q-11 -10 -12 -10h-1q-3 0 -6 13h-2q0 -8 -21 -16q-33 0 -47 42q-3 12 -3 28q0 48 34 58h4q14 0 29 -16v1q0 8 3 65zM316 289l15 -5q-2 -23 -2 -36v-14q13 3 15 3
q2 -20 2 -24h-2q-9 -1 -15 -1q3 -63 5 -91q-12 -2 -17 -2v1q-5 61 -5 88l-2 2h-14v24h15v9q0 46 5 46zM674 289h1l15 -5q-2 -28 -2 -45v-5q14 3 16 3l1 -14v-10q-16 -1 -16 -2q0 -23 5 -90q-13 -2 -17 -2v1q-5 75 -5 90h-18v24h17q0 34 3 55zM546 286q9 0 11 -14v-1
q0 -11 -8 -16h-7q-8 5 -8 17q2 14 12 14zM607 245q25 0 41 -38q2 -11 2 -17v-9q0 -40 -39 -60q-4 -2 -13 -2q-27 0 -32 41v14q0 51 30 69q10 2 11 2zM800 245h5q11 0 11 -3v-2q9 5 19 5q25 0 33 -44q0 -11 1 -14q-3 -52 -31 -64l-8 -1h-10l1 -8q0 -6 1 -40h-17
q-5 132 -5 171zM915 245q23 0 39 -35q4 -13 4 -24q0 -43 -38 -65q-8 -2 -14 -2q-22 0 -31 27q-2 12 -2 23q0 54 30 74q11 2 12 2zM1117 245q24 0 39 -35q4 -8 4 -19v-8q0 -43 -39 -62q-4 -2 -13 -2q-28 0 -32 41v14q0 51 30 69q10 2 11 2zM1211 245q17 0 27 -58h1
q8 58 27 58h1q24 0 40 -118h-2q-11 -5 -13 -5h-1q-19 98 -25 98q-10 -22 -17 -82q-3 -10 -10 -10q-8 0 -11 15q-13 76 -19 76q-16 -58 -16 -93q-10 -4 -17 -4v1l-12 104q13 6 17 6q2 -8 4 -31h2q9 43 24 43zM258 244q24 -5 24 -21v-1q-1 -2 -12 -9h-3q0 7 -13 8h-1
q-13 0 -20 -10v-4q0 -6 31 -6q27 -12 27 -38v-5q0 -28 -22 -38q-5 -3 -10 -3h-9q-23 0 -39 25q0 5 11 16h3q8 -18 30 -18q18 0 18 20q0 15 -21 18q-27 0 -32 12q-4 8 -4 12v8q0 34 42 34zM713 243q12 -4 15 -4q-1 -23 -1 -34v-6q0 -33 12 -44h5q22 18 22 72v10h17v-1
q8 -89 8 -103v-10q0 -44 -28 -60q-10 -4 -16 -4q-22 0 -29 20q-2 4 -2 9v9q0 15 4 15l14 -7l-1 -8v-4q0 -8 11 -10h4q20 0 25 33q1 4 1 12v20l-1 13h-1q-10 -30 -29 -30h-2q-23 0 -30 50q-1 8 -1 20v9q0 33 3 33zM1033 242h8q6 0 15 -9q11 -12 11 -18q-11 -13 -12 -13v0
q-11 15 -18 15h-2q-12 -5 -18 -28l-4 -21q0 -22 14 -24h3q11 0 34 16h1q6 -20 6 -22q-25 -18 -47 -18q-23 0 -28 46q0 34 19 64q12 12 18 12zM537 240h12l6 -1q0 -3 -1 -8q1 -67 4 -109h-18l-1 8q-2 68 -2 110zM350 239q17 -5 17 -6v-20q0 -67 12 -67h5q17 19 24 55
q5 10 6 38h2q15 -2 15 -6q-3 -42 -3 -59v-10q0 -10 5 -20q0 -6 -10 -18v0q-12 12 -12 25h-1q-11 -29 -28 -29h-3q-29 0 -29 93v24zM454 183q0 -34 30 -40h3q12 0 15 26v3q0 36 -21 48l-6 1h-2q-17 0 -19 -35v-3zM583 168q0 -22 15 -25h4q15 0 29 29q2 4 2 9v9q-7 31 -24 31
h-2q-21 0 -24 -53zM816 213q0 -3 3 -67l7 -1q22 0 26 42q-3 34 -17 34h-1q-10 0 -18 -8zM890 168v-5q0 -17 15 -20h2q16 0 30 26q4 8 4 18q-6 34 -28 34q-19 0 -23 -53zM1092 168q0 -25 17 -25h3q14 0 29 30q2 6 2 10v7q-8 31 -25 31h-1q-20 0 -25 -53zM977 154q9 0 12 -14
v-5q-3 -13 -12 -13t-11 15q1 17 11 17z" />
    <glyph glyph-name="slash" unicode="/" horiz-adv-x="555" 
d="M-27 -530l419 2105h153l-418 -2105h-154z" />
    <glyph glyph-name="zero" unicode="0" horiz-adv-x="862" 
d="M417 1575q142 0 244 -101q101 -103 101 -246v-913q0 -142 -101 -243q-102 -102 -244 -102q-144 0 -246 102q-101 101 -101 243v913q0 143 101 246q102 101 246 101zM615 1228q0 82 -59 141q-58 57 -139 57q-83 0 -141 -57q-59 -59 -59 -141v-913q0 -80 59 -139
q58 -58 141 -58q81 0 139 58q59 59 59 139v913z" />
    <glyph glyph-name="one" unicode="1" horiz-adv-x="458" 
d="M338 1575v-1605h-149v1352l-117 -117l-105 103l267 267h104z" />
    <glyph glyph-name="two" unicode="2" horiz-adv-x="862" 
d="M415 1575q142 0 240 -103q107 -112 107 -295v-41q0 -154 -93 -255q-55 -60 -192 -139q-135 -77 -183 -134q-77 -89 -77 -241v-249h545v-148h-692v397q0 206 109 336q66 75 224 167q115 67 153 107q59 63 59 159v41q0 123 -66 192q-54 57 -134 57q-78 0 -133 -58
q-65 -69 -65 -191v-75h-147v75q0 183 107 295q98 103 238 103z" />
    <glyph glyph-name="three" unicode="3" horiz-adv-x="862" 
d="M415 1575q141 0 238 -88q109 -98 109 -259v-154q0 -202 -119 -271q119 -70 119 -273v-215q0 -159 -109 -257q-97 -88 -238 -88q-139 0 -236 88q-109 98 -109 257v75h147v-75q0 -95 63 -149q55 -48 135 -48q81 0 136 48q64 54 64 149v215q0 95 -62 149q-54 48 -133 49
h-186v148l186 1q79 1 133 48q62 54 62 149v154q0 96 -64 150q-55 48 -136 48q-80 0 -135 -48q-63 -54 -63 -150v-73h-147v73q0 161 109 259q97 88 236 88z" />
    <glyph glyph-name="four" unicode="4" horiz-adv-x="1044" 
d="M788 431h156v-149h-156v-312h-148v312h-587l614 1293h121v-1144zM640 431v742l-353 -742h353z" />
    <glyph glyph-name="five" unicode="5" horiz-adv-x="863" 
d="M70 1575h693v-149h-544v-424q49 48 198 48q138 0 236 -87q110 -96 110 -257v-392q0 -159 -110 -257q-98 -87 -236 -87t-237 87q-110 98 -110 257v73h149v-73q0 -95 62 -148q55 -48 136 -48q80 0 136 48q62 53 62 148v392q0 93 -61 146q-55 49 -137 49q-81 0 -136 -47
q-62 -54 -62 -178h-149v899z" />
    <glyph glyph-name="six" unicode="6" horiz-adv-x="862" 
d="M417 1575q139 0 236 -88q109 -98 109 -259v-73h-147v73q0 96 -63 150q-55 48 -135 48q-82 0 -137 -48q-63 -54 -63 -150v-227q51 53 200 53q142 0 244 -102q101 -101 101 -243v-394q0 -142 -101 -243q-102 -102 -244 -102q-144 0 -246 102q-101 101 -101 243v913
q0 161 109 259q97 88 238 88zM417 906q-83 0 -141 -57q-59 -59 -59 -140v-394q0 -80 59 -139q58 -58 141 -58q81 0 139 58q59 59 59 139v394q0 81 -59 140q-58 57 -139 57z" />
    <glyph glyph-name="seven" unicode="7" horiz-adv-x="921" 
d="M140 -30l548 1456h-668v149h881l-604 -1605h-157z" />
    <glyph glyph-name="eight" unicode="8" horiz-adv-x="863" 
d="M417 1575q139 0 236 -88q110 -98 110 -259v-131q0 -203 -120 -273q120 -69 120 -272v-237q0 -159 -110 -257q-97 -88 -236 -88q-141 0 -238 88q-109 98 -109 257v237q0 203 119 272q-119 70 -119 273v131q0 161 109 259q97 88 238 88zM615 552q0 96 -63 150
q-54 48 -134 48h-3q-80 0 -135 -48q-63 -54 -63 -150v-237q0 -95 64 -149q55 -48 136 -48q80 0 135 48q63 54 63 149v237zM615 1228q0 96 -63 150q-55 48 -135 48q-81 0 -136 -48q-64 -54 -64 -150v-131q0 -96 63 -150q55 -48 135 -48h3q80 0 134 48q63 54 63 150v131z" />
    <glyph glyph-name="nine" unicode="9" horiz-adv-x="863" 
d="M417 1575q142 0 244 -101q102 -103 102 -246v-913q0 -159 -110 -257q-97 -88 -236 -88q-141 0 -237 88q-110 98 -110 257v75h149v-75q0 -95 62 -149q55 -48 136 -48q80 0 135 48q63 54 63 149v228q-51 -53 -198 -53q-143 0 -246 101q-101 103 -101 246v391q0 143 101 246
q103 101 246 101zM615 1228q0 83 -58 141q-59 57 -140 57q-83 0 -141 -57q-57 -58 -57 -141v-391q0 -83 57 -141q58 -57 141 -57q81 0 140 57q58 58 58 141v391z" />
    <glyph glyph-name="colon" unicode=":" horiz-adv-x="307" 
d="M70 137h167v-167h-167v167zM70 1048h167v-167h-167v167z" />
    <glyph glyph-name="semicolon" unicode=";" horiz-adv-x="307" 
d="M237 0q0 -80 -15 -127q-31 -73 -132 -90l-27 97q42 40 42 90h-35v167h167v-137zM70 1048h167v-167h-167v167z" />
    <glyph glyph-name="semicolon" unicode="&#x37e;" horiz-adv-x="307" 
d="M237 0q0 -80 -15 -127q-31 -73 -132 -90l-27 97q42 40 42 90h-35v167h167v-137zM70 1048h167v-167h-167v167z" />
    <glyph glyph-name="less" unicode="&#x3c;" horiz-adv-x="954" 
d="M914 246l-946 524l946 526v-172l-640 -354l640 -353v-171z" />
    <glyph glyph-name="equal" unicode="=" horiz-adv-x="867" 
d="M70 1049h697v-149h-697v149zM70 549h697v-149h-697v149z" />
    <glyph glyph-name="greater" unicode="&#x3e;" horiz-adv-x="986" 
d="M10 417l640 353l-640 354v172l946 -526l-946 -524v171z" />
    <glyph glyph-name="question" unicode="?" horiz-adv-x="863" 
d="M417 1575q139 0 236 -88q110 -98 110 -259v-184q0 -138 -68 -217q-39 -45 -131 -90q-74 -36 -98 -67q-40 -53 -40 -170v-233h-148v233q0 173 75 266q43 54 147 104q65 31 85 55q30 37 30 119v184q0 96 -63 150q-55 48 -135 48q-81 0 -136 -48q-64 -54 -64 -150v-73h-147
v73q0 161 109 259q97 88 238 88zM270 137h167v-167h-167v167z" />
    <glyph glyph-name="at" unicode="@" horiz-adv-x="1230" 
d="M985 1327q145 -231 145 -554q0 -154 -34 -289v-2l-18 -68h-5q-56 -154 -198 -154q-9 0 -18 1q-97 10 -121 72q-22 -23 -94 -23h-124q-88 0 -146 83q-54 79 -54 191q0 111 54 190q58 84 146 84h124q41 0 46 4t5 37v83q0 84 -35 120q-7 8 -16 8h-124q-13 0 -30 -29
q-22 -42 -22 -98v-74h-148v74q0 113 54 191q58 83 146 83h124q72 0 122 -52q74 -69 78 -141v-538q0 -115 30 -118h2q12 0 30 18q30 27 43 72l4 17l10 42q22 104 22 216q0 279 -122 475q-113 178 -261 178q-147 0 -259 -178q-122 -196 -122 -475q0 -281 122 -476
q112 -179 259 -179q50 0 97 21l66 32l63 -133l-66 -32q-78 -36 -160 -36q-230 0 -385 248q-145 231 -145 555q0 323 145 554q155 248 385 248t385 -248zM642 458q14 0 30 28q21 40 21 98v125h-175q-14 0 -30 -29q-22 -40 -22 -96q0 -57 22 -97q16 -29 30 -29h124z" />
    <glyph glyph-name="A" unicode="A" horiz-adv-x="919" 
d="M572 679l-132 512l-132 -512h264zM494 1575l415 -1605h-154l-145 561h-342l-144 -561h-153l415 1605h108z" />
    <glyph glyph-name="B" unicode="B" horiz-adv-x="864" 
d="M415 849q81 3 136 62q64 69 64 190v80q0 132 -38 186q-42 61 -160 61h-199v-579h197zM615 449q0 121 -64 190q-55 59 -136 62h-197v-583l199 1q118 0 160 63q38 54 38 187v80zM764 1101q0 -245 -137 -326q137 -81 137 -326v-80q0 -149 -43 -234q-81 -163 -304 -165h-347
v1607h347q223 0 304 -162q43 -85 43 -234v-80z" />
    <glyph glyph-name="C" unicode="C" horiz-adv-x="862" 
d="M417 1571q140 0 238 -101q107 -111 107 -293v-75h-147v75q0 121 -65 188q-55 59 -133 59q-80 0 -134 -59q-66 -67 -66 -188v-811q0 -122 66 -190q54 -57 134 -57q78 0 133 57q65 68 65 190v73h147v-73q0 -182 -107 -294q-98 -102 -238 -102q-143 0 -242 104
q-105 110 -105 292v811q0 182 107 293q98 101 240 101z" />
    <glyph glyph-name="D" unicode="D" horiz-adv-x="862" 
d="M417 1575q142 0 244 -101q101 -103 101 -246v-913q0 -142 -101 -243q-102 -102 -244 -102h-347v1605h347zM615 1228q0 83 -58 141q-59 57 -140 57h-200v-1308h200q81 0 140 58q58 58 58 139v913z" />
    <glyph glyph-name="E" unicode="E" horiz-adv-x="863" 
d="M70 1575h693v-149h-544v-578h544v-149h-544v-581h544v-148h-693v1605z" />
    <glyph glyph-name="F" unicode="F" horiz-adv-x="863" 
d="M70 1575h693v-149h-544v-578h544v-149h-544v-729h-149v1605z" />
    <glyph glyph-name="G" unicode="G" horiz-adv-x="862" 
d="M417 1575q142 0 244 -101q101 -103 101 -246v-243h-147v243q0 82 -59 141q-58 57 -139 57q-83 0 -141 -57q-59 -59 -59 -141v-913q0 -80 59 -139q58 -58 141 -58q81 0 139 58q59 59 59 139v384h-273v149h420v-533q0 -142 -101 -243q-102 -102 -244 -102q-144 0 -246 102
q-101 101 -101 243v913q0 143 101 246q102 101 246 101z" />
    <glyph glyph-name="H" unicode="H" horiz-adv-x="863" 
d="M763 -30h-148v729h-396v-729h-149v1605h149v-727h396v727h148v-1605z" />
    <glyph glyph-name="I" unicode="I" horiz-adv-x="319" 
d="M70 1575h149v-1605h-149v1605z" />
    <glyph glyph-name="J" unicode="J" horiz-adv-x="862" 
d="M615 1575h147v-1260q0 -142 -101 -243q-102 -102 -246 -102q-142 0 -244 102q-101 101 -101 243v75h147v-75q0 -80 59 -139q58 -58 139 -58q83 0 141 58q59 59 59 139v1260z" />
    <glyph glyph-name="K" unicode="K" horiz-adv-x="954" 
d="M88 -30v1605h148v-712l529 712h184l-525 -709l518 -896h-170l-445 767l-91 -124v-643h-148z" />
    <glyph glyph-name="L" unicode="L" horiz-adv-x="782" 
d="M217 118h545v-148h-692v1605h147v-1457z" />
    <glyph glyph-name="M" unicode="M" horiz-adv-x="1080" 
d="M450 190l-215 821l-33 165l25 -137v-1069h-147v1605h165l285 -1121l285 1121h165v-1605h-147v1065l23 110l-246 -955h-160z" />
    <glyph glyph-name="N" unicode="N" horiz-adv-x="863" 
d="M70 -30v1605h187l367 -1069l-9 38v1031h148v-1605h-112l-421 1234l-11 32v-1266h-149z" />
    <glyph glyph-name="O" unicode="O" horiz-adv-x="863" 
d="M417 1575q142 0 244 -101q102 -103 102 -246v-913q0 -143 -102 -243q-102 -102 -244 -102q-143 0 -246 102q-101 101 -101 243v913q0 143 101 246q103 101 246 101zM615 1228q0 83 -58 141q-58 57 -140 57q-83 0 -141 -57q-57 -58 -57 -141v-913q0 -81 57 -139
q58 -58 141 -58q82 0 140 58t58 139v913z" />
    <glyph glyph-name="P" unicode="P" horiz-adv-x="862" 
d="M417 1575q221 0 303 -162q42 -85 42 -234v-183q0 -168 -91 -277q-81 -96 -206 -119q-33 -4 -68 -4h-180v-626h-147v1605h347zM615 1179q0 132 -39 186q-42 61 -159 61h-200v-683h197q81 3 137 63q64 69 64 190v183z" />
    <glyph glyph-name="Q" unicode="Q" horiz-adv-x="892" 
d="M762 313q0 -115 -54 -187l84 -85l-103 -104l-86 84q-72 -53 -186 -53q-144 0 -246 101q-101 101 -101 244v913q0 142 101 245q102 102 246 102q142 0 244 -102q101 -103 101 -245v-913zM417 115q60 0 80 13l-53 53l104 106l53 -54q14 20 14 80v913q0 82 -59 140
q-58 58 -139 58q-83 0 -141 -58q-59 -58 -59 -140v-913q0 -81 59 -139q59 -59 141 -59z" />
    <glyph glyph-name="R" unicode="R" horiz-adv-x="889" 
d="M219 847h188l36 2q71 13 118 72q54 67 54 178v79q0 131 -39 186q-42 61 -159 61h-198v-578zM637 -30l-273 728h-145v-729h-149v1605h347q221 0 304 -163q42 -85 42 -233v-79q0 -163 -86 -269q-75 -96 -160 -115l279 -745h-159z" />
    <glyph glyph-name="S" unicode="S" horiz-adv-x="863" 
d="M417 1575q140 0 238 -103q108 -112 108 -295v-75h-148v75q0 123 -65 192q-55 57 -133 57q-79 0 -134 -58q-64 -69 -64 -191v-41q0 -121 60 -176q39 -37 162 -78q149 -50 211 -107q111 -99 111 -287v-121q0 -183 -108 -295q-98 -102 -238 -102q-143 0 -242 104
q-105 111 -105 293v75h149v-75q0 -123 64 -191q55 -58 134 -58q78 0 133 58q65 69 65 191v121q0 122 -61 178q-39 35 -161 77q-148 50 -212 107q-111 99 -111 286v41q0 183 108 295q99 103 239 103z" />
    <glyph glyph-name="T" unicode="T" horiz-adv-x="702" 
d="M682 1575v-149h-272v-1456h-148v1456h-272v149h692z" />
    <glyph glyph-name="U" unicode="U" horiz-adv-x="863" 
d="M615 1575h148v-1260q0 -143 -102 -243q-102 -102 -244 -102q-143 0 -246 102q-101 101 -101 243v1260h147v-1260q0 -80 59 -139q58 -58 141 -58q81 0 140 58q58 58 58 139v1260z" />
    <glyph glyph-name="V" unicode="V" horiz-adv-x="909" 
d="M377 -30l-406 1605h154l311 -1230l310 1230h153l-404 -1605h-118z" />
    <glyph glyph-name="W" unicode="W" horiz-adv-x="1262" 
d="M284 -30l-310 1605h153l213 -1135l206 1135h134l206 -1135l213 1135h153l-310 -1605h-114l-215 1171l-215 -1171h-114z" />
    <glyph glyph-name="X" unicode="X" horiz-adv-x="772" 
d="M-23 -30l308 826l-290 779h158l212 -567l212 567h158l-291 -779l308 -826h-158l-229 614l-229 -614h-159z" />
    <glyph glyph-name="Y" unicode="Y" horiz-adv-x="936" 
d="M127 1575l316 -610l317 610h166l-409 -789v-817h-147v817l-409 789h166z" />
    <glyph glyph-name="Z" unicode="Z" horiz-adv-x="794" 
d="M754 1575l-544 -1457h512v-148h-725l545 1456h-514v149h726z" />
    <glyph glyph-name="bracketleft" unicode="[" horiz-adv-x="528" 
d="M70 1575h358v-149h-211v-1808h211v-148h-358v2105z" />
    <glyph glyph-name="backslash" unicode="\" horiz-adv-x="555" 
d="M391 -530l-418 2105h153l419 -2105h-154z" />
    <glyph glyph-name="bracketright" unicode="]" horiz-adv-x="528" 
d="M428 -530h-358v148h211v1808h-211v149h358v-2105z" />
    <glyph glyph-name="asciicircum" unicode="^" horiz-adv-x="933" 
d="M516 1576l310 -681h-163l-221 485l-220 -485h-161l307 681h148z" />
    <glyph glyph-name="underscore" unicode="_" horiz-adv-x="1047" 
d="M-40 30h1097v-149h-1097v149z" />
    <glyph glyph-name="grave" unicode="`" horiz-adv-x="734" 
d="M407 1066h-152l-228 290h210z" />
    <glyph glyph-name="a" unicode="a" horiz-adv-x="863" 
d="M417 1048q137 0 233 -70q113 -80 113 -212v-796h-148v70q-52 -60 -198 -70q-139 0 -234 69q-113 80 -113 212v155q0 132 112 213q96 67 235 67q126 -5 198 -76v156q0 58 -53 95q-57 39 -145 39q-83 0 -140 -35q-58 -37 -58 -99v-24h-149v24q0 137 118 218q95 64 229 64z
M417 118q83 0 139 35q59 37 59 98v155q0 68 -59 102q-51 32 -139 32q-84 0 -140 -34q-58 -37 -58 -100v-155q0 -62 58 -99q56 -34 140 -34z" />
    <glyph glyph-name="b" unicode="b" horiz-adv-x="863" 
d="M417 1048q140 0 238 -102q108 -111 108 -293v-288q0 -182 -108 -293q-98 -102 -238 -102q-151 10 -198 85v-85h-149v1605h149v-632q47 95 198 105zM615 653q0 121 -65 189q-55 58 -133 58q-79 0 -134 -58q-64 -68 -64 -188v-290q0 -122 64 -189q55 -57 134 -57
q78 0 133 58q65 68 65 189v288z" />
    <glyph glyph-name="c" unicode="c" horiz-adv-x="863" 
d="M417 1048q141 0 240 -102q106 -111 106 -293v-14h-147v14q0 121 -66 189q-55 58 -133 58q-79 0 -134 -58q-64 -68 -64 -189v-288q0 -121 64 -189q55 -58 134 -58t133 57q66 67 66 190v14h147v-14q0 -182 -106 -293q-99 -102 -240 -102q-140 0 -238 102q-109 111 -109 293
v288q0 182 109 293q98 102 238 102z" />
    <glyph glyph-name="d" unicode="d" horiz-adv-x="863" 
d="M763 -30h-148v75q-48 -65 -198 -75q-140 0 -238 102q-109 111 -109 293v288q0 182 109 293q98 102 238 102q150 -10 198 -95v622h148v-1605zM417 118q78 0 133 57q65 67 65 189v290q0 120 -65 188q-55 58 -133 58q-79 0 -134 -58q-64 -68 -64 -189v-288q0 -121 64 -189
q55 -58 134 -58z" />
    <glyph glyph-name="e" unicode="e" horiz-adv-x="863" 
d="M615 653q0 121 -65 189q-55 58 -133 58q-79 0 -134 -58q-64 -68 -64 -189v-18h396v18zM763 360q-1 -179 -108 -288q-97 -102 -238 -102q-140 0 -238 102q-109 111 -109 293v288q0 182 109 293q98 102 238 102q141 0 238 -102q108 -111 108 -293v-167h-544v-121
q0 -121 64 -189q55 -58 134 -58t133 57q64 66 65 185h148z" />
    <glyph glyph-name="f" unicode="f" horiz-adv-x="594" 
d="M279 1496q79 79 256 79h54v-151l-56 4q-113 0 -150 -37q-46 -46 -46 -209v-134h203v-148h-203v-930h-149v930h-118v148h118v134q0 223 91 314z" />
    <glyph glyph-name="g" unicode="g" horiz-adv-x="863" 
d="M763 -256q0 -182 -108 -293q-98 -103 -238 -103q-143 0 -242 104q-105 110 -105 292v24h149v-24q0 -122 64 -190q55 -57 134 -57q78 0 133 57q65 68 65 190v311q-48 -75 -198 -85q-140 0 -238 102q-109 111 -109 293v288q0 182 109 293q98 102 238 102q150 -10 198 -85
v85h148v-1304zM417 118q78 0 133 57q65 68 65 189v290q0 120 -65 188q-55 58 -133 58q-79 0 -134 -58q-64 -68 -64 -189v-288q0 -121 64 -189q55 -58 134 -58z" />
    <glyph glyph-name="h" unicode="h" horiz-adv-x="863" 
d="M417 1048q140 0 238 -102q108 -111 108 -293v-683h-148v683q0 121 -65 189q-55 58 -133 58q-79 0 -134 -58q-64 -68 -64 -188v-684h-149v1605h149v-612q47 75 198 85z" />
    <glyph glyph-name="i" unicode="i" horiz-adv-x="357" 
d="M90 1048h147v-1078h-147v1078zM80 1373h167v-167h-167v167z" />
    <glyph glyph-name="j" unicode="j" horiz-adv-x="367" 
d="M247 1048v-1321q-1 -263 -137 -341q-74 -44 -210 -44h-73v149h73q104 0 142 26q24 18 37 55q19 55 20 162v1314h148zM90 1373h167v-167h-167v167z" />
    <glyph glyph-name="k" unicode="k" horiz-adv-x="927" 
d="M917 1048l-481 -394l468 -684h-180l-402 590l-104 -85v-505h-148v1605h148v-909l465 382h234z" />
    <glyph glyph-name="l" unicode="l" horiz-adv-x="361" 
d="M239 158q0 -37 6 -48q1 -1 20 -1h56v-139h-73q-103 4 -139 80q-19 41 -19 108v1417h149v-1417z" />
    <glyph glyph-name="m" unicode="m" horiz-adv-x="1408" 
d="M961 1051q143 0 241 -102q106 -111 106 -292v-683h-149v683q0 121 -65 189q-53 58 -133 58q-78 0 -133 -59q-65 -67 -65 -188v-687h-148v687q0 121 -65 188q-55 59 -133 59q-79 0 -134 -59q-64 -67 -64 -187v-684h-149v1077h149v-84q47 84 198 84q202 0 272 -135
q71 135 272 135z" />
    <glyph glyph-name="n" unicode="n" horiz-adv-x="863" 
d="M417 1048q141 0 238 -102q108 -111 108 -293v-683h-148v683q0 121 -65 189q-55 58 -133 58q-79 0 -134 -58q-64 -68 -64 -188v-684h-149v1078h149v-85q47 85 198 85z" />
    <glyph glyph-name="o" unicode="o" horiz-adv-x="862" 
d="M417 1048q140 0 238 -102q107 -111 107 -293v-288q0 -182 -107 -293q-98 -102 -238 -102q-142 0 -240 102q-107 111 -107 293v288q0 182 107 293q98 102 240 102zM615 653q0 121 -65 189q-55 58 -133 58q-80 0 -134 -58q-66 -68 -66 -189v-288q0 -121 66 -189
q54 -58 134 -58q78 0 133 58q65 68 65 189v288z" />
    <glyph glyph-name="p" unicode="p" horiz-adv-x="862" 
d="M417 1048q140 0 238 -101q107 -112 107 -294v-288q0 -182 -107 -293q-98 -102 -238 -102q-151 10 -200 76v-703h-147v1705h147v-86q49 76 200 86zM615 653q0 121 -65 189q-55 59 -133 59q-80 0 -135 -59q-65 -68 -65 -189v-288q0 -121 65 -188q55 -59 135 -59
q78 0 133 59q65 67 65 188v288z" />
    <glyph glyph-name="q" unicode="q" horiz-adv-x="863" 
d="M615 1047h148v-1705h-148v722q-56 -85 -198 -95q-140 0 -238 102q-109 111 -109 293v288q0 182 109 294q98 101 238 101q150 -10 198 -85v85zM550 174q65 68 65 190v288q0 121 -65 189q-55 59 -133 59q-79 0 -134 -59q-64 -68 -64 -189v-288q0 -121 64 -188
q55 -59 134 -59t133 57z" />
    <glyph glyph-name="r" unicode="r" horiz-adv-x="788" 
d="M417 1051q141 0 238 -101q108 -111 108 -293v-75h-148v75q0 121 -65 189q-54 58 -133 58t-134 -59q-64 -67 -64 -188v-687h-149v1081h149v-91q66 88 198 91z" />
    <glyph glyph-name="s" unicode="s" horiz-adv-x="863" 
d="M417 1048q137 0 233 -70q113 -80 113 -210v-15h-148v15q0 58 -53 93q-57 39 -145 39q-84 0 -140 -34q-58 -37 -58 -98v-26q0 -57 48 -85q41 -24 165 -50q151 -33 215 -71q116 -70 116 -208v-78q0 -133 -113 -212q-96 -68 -233 -68q-136 0 -234 68q-113 79 -113 212v15
h149v-15q0 -61 58 -98q56 -34 140 -34q83 0 139 35q59 37 59 97v78q0 56 -48 83q-41 24 -165 52q-150 31 -215 69q-117 71 -117 210v26q0 130 113 210q97 70 234 70z" />
    <glyph glyph-name="t" unicode="t" horiz-adv-x="582" 
d="M351 158q0 -37 6 -48q1 -1 20 -1h56v-139h-73q-103 4 -139 80q-19 41 -19 108v741h-182v148h182v527h149v-527h181v-148h-181v-741z" />
    <glyph glyph-name="u" unicode="u" horiz-adv-x="862" 
d="M762 -30h-147v75q-48 -65 -198 -75q-143 0 -242 103q-105 111 -105 292v683h147v-683q0 -121 66 -189q55 -58 134 -58q78 0 133 57q65 67 65 189v684h147v-1078z" />
    <glyph glyph-name="v" unicode="v" horiz-adv-x="910" 
d="M366 -30l-399 1078h161l306 -850l307 850h159l-398 -1078h-136z" />
    <glyph glyph-name="w" unicode="w" horiz-adv-x="1225" 
d="M285 -30l-315 1078h154l208 -729l215 729h92l215 -729l207 729h154l-315 -1078h-91l-216 751l-217 -751h-91z" />
    <glyph glyph-name="x" unicode="x" horiz-adv-x="769" 
d="M-39 -30l315 538l-319 540h169l235 -398l230 398h167l-313 -540l314 -538h-168l-230 394l-231 -394h-169z" />
    <glyph glyph-name="y" unicode="y" horiz-adv-x="863" 
d="M763 -256q0 -182 -108 -293q-98 -103 -238 -103q-143 0 -242 104q-105 110 -105 292v74h149v-74q0 -122 64 -190q55 -57 134 -57q78 0 133 57q65 68 65 190v301q-48 -65 -198 -75q-143 0 -242 103q-105 111 -105 292v683h149v-683q0 -121 64 -189q55 -58 134 -58
q78 0 133 57q65 68 65 189v684h148v-1304z" />
    <glyph glyph-name="z" unicode="z" horiz-adv-x="829" 
d="M789 1048l-544 -930h490v-148h-747l545 930h-491v148h747z" />
    <glyph glyph-name="braceleft" unicode="{" horiz-adv-x="660" 
d="M486 1575h74v-149h-74q-14 1 -26 1q-112 0 -113 -89v-41q2 -77 2 -128q0 -576 -102 -649q102 -79 102 -669q0 -40 -1 -107q-1 -9 -1 -17q0 -109 108 -109h105v-148h-122q-142 7 -188 52q-44 45 -51 202v21q2 66 2 106q0 528 -144 674q144 134 144 644q0 48 -2 126v36
q8 148 52 190q46 50 235 54z" />
    <glyph glyph-name="bar" unicode="|" horiz-adv-x="319" 
d="M70 1575h149v-2105h-149v2105z" />
    <glyph glyph-name="braceright" unicode="}" horiz-adv-x="673" 
d="M366 1521q44 -42 52 -190v-36q-2 -78 -2 -126q0 -510 144 -644q-144 -146 -144 -674q0 -40 2 -106v-21q-7 -157 -51 -202q-46 -45 -188 -52h-122v148h105q108 0 108 109q0 8 -1 17q-1 67 -1 107q0 590 102 669q-102 73 -102 649q0 51 2 128v41q-1 89 -113 89
q-12 0 -26 -1h-74v149h74q189 -4 235 -54z" />
    <glyph glyph-name="asciitilde" unicode="~" horiz-adv-x="1030" 
d="M865 682q-123 -102 -235 -102h-16q-81 4 -198 72q-73 41 -100 41h-3q-42 -2 -170 -116v174q85 90 173 91q66 0 175 -62q88 -50 132 -52h4q73 0 238 128v-174z" />
    <glyph glyph-name="exclamdown" unicode="&#xa1;" horiz-adv-x="327" 
d="M238 -557h-149v1223h149v-1223zM247 881h-167v167h167v-167z" />
    <glyph glyph-name="cent" unicode="&#xa2;" horiz-adv-x="860" 
d="M600 841q-19 126 -60 157l-114 -723q52 2 104 59q56 62 70 159l12 72l148 -22l-13 -74q-24 -147 -116 -242q-95 -99 -219 -99q-14 0 -14 -1l3 -1l-25 -160l-146 23l29 183q-75 40 -131 146q-58 105 -58 233v233q0 172 98 296q102 127 244 127q13 0 13 1l-3 1l25 162
l147 -25l-29 -184q147 -78 182 -297l13 -73l-148 -23zM285 337l114 723q-63 -2 -120 -80q-60 -82 -60 -196v-233q0 -164 66 -214z" />
    <glyph glyph-name="sterling" unicode="&#xa3;" horiz-adv-x="1017" 
d="M131 103l22 34q72 115 105 223q34 110 36 204v9q0 58 -12 140h-173v147h151q-34 190 -34 320v25q4 146 78 251q82 119 209 119q122 0 201 -116q69 -102 76 -268l3 -44l-147 -9l-3 44q-7 126 -52 193q-35 51 -78 51q-49 0 -87 -54q-48 -70 -51 -169v-25q0 -117 34 -319v1
h198v-147h-175q10 -68 10 -133v-18q-3 -117 -42 -246q-24 -79 -40 -111q49 -7 142 -43q123 -44 157 -44q36 0 110 54l61 44l87 -121l-60 -43q-114 -82 -198 -82q-60 0 -208 54q-69 26 -122 26q-37 0 -85 -21l-53 -22z" />
    <glyph glyph-name="currency" unicode="&#xa4;" horiz-adv-x="1262" 
d="M1054 1098l107 -104l-136 -141q105 -130 105 -326q0 -195 -105 -325l137 -143l-108 -101l-132 138q-124 -107 -313 -107t-312 107l-133 -138l-106 101l135 143q-106 130 -106 325q0 196 106 326l-135 141l106 104l133 -139q123 107 312 107t313 -107zM866 244
q117 116 117 283q0 168 -117 284l-11 10q-105 98 -246 98t-245 -98l-11 -10q-117 -116 -117 -284q0 -167 117 -283l11 -10q104 -98 245 -98t246 98z" />
    <glyph glyph-name="yen" unicode="&#xa5;" horiz-adv-x="1084" 
d="M849 1599l135 -61l-348 -772h179v-148h-219v-127h219v-148h-219v-373h-148v373h-219v148h219v127h-219v148h179l-348 772l135 61l328 -726z" />
    <glyph glyph-name="brokenbar" unicode="&#xa6;" horiz-adv-x="317" 
d="M70 679h147v-709h-147v709zM70 1575h147v-717h-147v717z" />
    <glyph glyph-name="section" unicode="&#xa7;" horiz-adv-x="763" 
d="M383 1276q129 -46 185 -106q95 -103 95 -309q0 -135 -47 -230q47 -82 47 -242q0 -172 -82 -293q-87 -126 -214 -126q-128 0 -214 126q-83 121 -83 293v75h149v-75q0 -114 49 -196q44 -74 99 -74t99 74q49 82 49 196q0 140 -46 197q-45 47 -136 80q-113 41 -163 89
q-84 84 -84 243q0 161 75 236q-75 63 -75 236q0 141 78 237q82 100 203 100q178 0 261 -180l32 -66l-134 -66l-30 70q-44 93 -129 93q-56 0 -93 -50q-39 -53 -39 -138q0 -116 47 -146q44 -28 101 -48zM235 998q0 -96 39 -137q25 -25 108 -57q106 -36 122 -50q11 28 11 107
q0 145 -53 204q-33 37 -129 73q-39 13 -45 16q-53 -42 -53 -156z" />
    <glyph glyph-name="dieresis" unicode="&#xa8;" horiz-adv-x="637" 
d="M90 1313h167v-167h-167v167zM350 1313h167v-167h-167v167z" />
    <glyph glyph-name="copyright" unicode="&#xa9;" horiz-adv-x="1774" 
d="M873 1277q96 0 161 -69q75 -75 75 -195v-75h-149v75q0 58 -29 89q-23 26 -58 26t-58 -26q-29 -31 -29 -89v-481q0 -59 29 -91q23 -25 58 -25t58 25q29 32 29 91v75h149v-75q0 -121 -75 -196q-65 -68 -161 -68t-161 68q-75 75 -75 196v481q0 120 75 195q65 69 161 69z
M1439 1340q235 -235 235 -567t-235 -567t-567 -235t-567 235t-235 567t235 567t567 235t567 -235zM872 1433q-274 0 -467 -193t-193 -467t193 -467.5t467 -193.5t467.5 193.5t193.5 467.5t-193.5 467t-467.5 193z" />
    <glyph glyph-name="guillemotleft" unicode="&#xab;" horiz-adv-x="908" 
d="M538 968l-344 -462l346 -465h-181l-346 465l344 462h181zM916 968l-344 -462l346 -465h-181l-346 465l344 462h181z" />
    <glyph glyph-name="logicalnot" unicode="&#xac;" horiz-adv-x="1124" 
d="M97 797h900v-533l-19 -19h-140v392h-741v160z" />
    <glyph glyph-name="registered" unicode="&#xae;" horiz-adv-x="1774" 
d="M1131 956q0 -198 -137 -245l158 -424l-140 -50l-169 452h-35v-432h-148v1010h235q236 0 236 -264v-47zM902 838l14 3q66 21 66 115v47q0 73 -18 95q-17 21 -69 21h-87v-282h79zM1439 1340q235 -235 235 -567t-235 -567t-567 -235t-567 235t-235 567t235 567t567 235
t567 -235zM872 1433q-274 0 -467 -193t-193 -467t193 -467.5t467 -193.5t467.5 193.5t193.5 467.5t-193.5 467t-467.5 193z" />
    <glyph glyph-name="macron" unicode="&#xaf;" horiz-adv-x="837" 
d="M70 1393h697v-149h-697v149z" />
    <glyph glyph-name="degree" unicode="&#xb0;" horiz-adv-x="795" 
d="M603 1484q92 -92 92 -220q0 -129 -92 -221t-220 -92q-129 0 -221 92t-92 221q0 128 92 220t221 92q128 0 220 -92zM383 1406q-60 0 -101.5 -42t-41.5 -100q0 -61 41 -102t102 -41q58 0 100 41.5t42 101.5q0 58 -42 100t-100 42z" />
    <glyph glyph-name="plusminus" unicode="&#xb1;" horiz-adv-x="837" 
d="M493 804h274v-148h-274v-486h-148v486h-275v148h275v486h148v-486zM70 119h697v-149h-697v149z" />
    <glyph glyph-name="uni00B2" unicode="&#xb2;" horiz-adv-x="692" 
d="M331 1782q107 0 181 -78q80 -84 80 -220v-29q0 -115 -70 -191q-40 -44 -139 -101q-91 -52 -123 -90q-49 -57 -49 -156v-155h381v-142h-522v297q0 151 81 247q48 55 162 121q78 46 102 71q37 40 37 99v29q0 78 -42 121q-32 34 -79 34t-80 -35q-40 -42 -40 -120v-72h-141
v72q0 136 80 220q74 78 181 78z" />
    <glyph glyph-name="uni00B3" unicode="&#xb3;" horiz-adv-x="692" 
d="M331 1782q106 0 179 -67q82 -74 82 -195v-129q0 -152 -65 -190q65 -38 65 -191v-129q0 -120 -82 -194q-73 -67 -179 -67q-105 0 -178 67q-83 74 -83 194v71h141v-71q0 -58 38 -90q33 -29 82 -29t83 29q38 32 38 90v129q0 58 -37 90q-33 29 -81 30h-149v141l149 1
q48 1 82 29q36 32 36 90v129q0 58 -38 90q-34 29 -83 29t-82 -29q-38 -32 -38 -90v-70h-141v70q0 121 83 195q73 67 178 67z" />
    <glyph glyph-name="acute" unicode="&#xb4;" horiz-adv-x="744" 
d="M445 1356h210l-228 -290h-152z" />
    <glyph glyph-name="mu" unicode="&#xb5;" horiz-adv-x="1064" 
d="M815 1575h149v-1119h-149v345q-80 -99 -297 -99q-218 0 -299 100v-832h-149v1605h149v-443q0 -116 87 -198q87 -83 212 -83q123 0 210 83q87 82 87 198v443z" />
    <glyph glyph-name="paragraph" unicode="&#xb6;" horiz-adv-x="1002" 
d="M902 1426h-87v-1456h-149v1456h-52v-1456h-149v689q-171 26 -283 155t-112 299q0 168 112 298q112 128 283 154v10h90l55 2v-2h292v-149z" />
    <glyph glyph-name="periodcentered" unicode="&#xb7;" horiz-adv-x="530" 
d="M74 843h142v-141h-142v141z" />
    <glyph glyph-name="periodcentered" unicode="&#x2219;" horiz-adv-x="530" 
d="M74 843h142v-141h-142v141z" />
    <glyph glyph-name="cedilla" unicode="&#xb8;" horiz-adv-x="712" 
d="M160 -295q42 -2 60 -2q19 0 40 1q58 3 96 21q32 19 32 48v2q-2 14 -19 26t-45.5 18t-100.5 8l30 226h154l-14 -114q67 -15 107.5 -61t40.5 -110q-4 -84 -67 -141.5t-212 -68.5q-58 0 -132 9z" />
    <glyph glyph-name="uni00B9" unicode="&#xb9;" horiz-adv-x="373" 
d="M273 1782v-1162h-143v919l-62 -62l-101 99l206 206h100z" />
    <glyph glyph-name="guillemotright" unicode="&#xbb;" horiz-adv-x="908" 
d="M172 968l345 -462l-347 -465h-180l346 465l-344 462h180zM550 968l345 -462l-347 -465h-180l346 465l-344 462h180z" />
    <glyph glyph-name="onequarter" unicode="&#xbc;" horiz-adv-x="1604" 
d="M340 1782v-1162h-143v919l-62 -62l-101 99l206 206h100zM-48 -34l1144 1608h170l-1144 -1608h-170zM1424 331h110v-143h-110v-218h-141v218h-422l448 944h115v-801zM1283 331v416l-198 -416h198z" />
    <glyph glyph-name="onehalf" unicode="&#xbd;" horiz-adv-x="1517" 
d="M340 1782v-1162h-143v919l-62 -62l-101 99l206 206h100zM-48 -34l1144 1608h170l-1144 -1608h-170zM1200 1132q107 0 181 -78q80 -84 80 -220v-29q0 -115 -70 -191q-40 -44 -139 -101q-91 -52 -123 -90q-49 -57 -49 -156v-155h381v-142h-522v297q0 151 81 247
q48 55 162 121q78 46 102 71q37 40 37 99v29q0 78 -42 121q-32 34 -79 34t-80 -35q-40 -42 -40 -120v-72h-141v72q0 136 80 220q74 78 181 78z" />
    <glyph glyph-name="threequarters" unicode="&#xbe;" horiz-adv-x="1856" 
d="M331 1782q106 0 179 -67q82 -74 82 -195v-129q0 -152 -65 -190q65 -38 65 -191v-129q0 -120 -82 -194q-73 -67 -179 -67q-105 0 -178 67q-83 74 -83 194v71h141v-71q0 -58 38 -90q33 -29 82 -29t83 29q38 32 38 90v129q0 58 -37 90q-33 29 -81 30h-149v141l149 1
q48 1 82 29q36 32 36 90v129q0 58 -38 90q-34 29 -83 29t-82 -29q-38 -32 -38 -90v-70h-141v70q0 121 83 195q73 67 178 67zM204 -34l1144 1608h170l-1144 -1608h-170zM1676 331h110v-143h-110v-218h-141v218h-422l448 944h115v-801zM1535 331v416l-198 -416h198z" />
    <glyph glyph-name="questiondown" unicode="&#xbf;" 
d="M416 -557q-139 0 -236 88q-110 98 -110 259v184q0 138 68 217q39 45 131 90q74 36 98 67q40 53 40 170v233h148v-233q0 -173 -75 -266q-43 -54 -147 -104q-65 -31 -85 -55q-30 -37 -30 -119v-184q0 -96 63 -150q55 -48 135 -48q81 0 136 48q64 54 64 150v73h147v-73
q0 -161 -109 -259q-97 -88 -238 -88zM563 881h-167v167h167v-167z" />
    <glyph glyph-name="Agrave" unicode="&#xc0;" horiz-adv-x="880" 
d="M572 679l-132 512l-132 -512h264zM494 1575l415 -1605h-154l-145 561h-342l-144 -561h-153l415 1605h108zM561 1673h-152l-228 290h210z" />
    <glyph glyph-name="Aacute" unicode="&#xc1;" horiz-adv-x="880" 
d="M572 679l-132 512l-132 -512h264zM494 1575l415 -1605h-154l-145 561h-342l-144 -561h-153l415 1605h108zM489 1963h210l-228 -290h-152z" />
    <glyph glyph-name="Acircumflex" unicode="&#xc2;" horiz-adv-x="880" 
d="M572 679l-132 512l-132 -512h264zM494 1575l415 -1605h-154l-145 561h-342l-144 -561h-153l415 1605h108zM523 1883l170 -290h-152l-101 129l-101 -129h-152l170 290h166z" />
    <glyph glyph-name="Atilde" unicode="&#xc3;" horiz-adv-x="880" 
d="M572 679l-132 512l-132 -512h264zM494 1575l415 -1605h-154l-145 561h-342l-144 -561h-153l415 1605h108zM175 1630q10 57 28 90q45 81 129 101q9 3 21 3q43 0 103 -32q31 -16 53 -16h1q19 3 49 51h154q-27 -74 -47 -104q-78 -96 -156 -96q-8 0 -14 1q-49 4 -97 35
q-21 10 -35 10h-2q-4 0 -10 -6q-4 -4 -6 -37h-171z" />
    <glyph glyph-name="Adieresis" unicode="&#xc4;" horiz-adv-x="880" 
d="M572 679l-132 512l-132 -512h264zM494 1575l415 -1605h-154l-145 561h-342l-144 -561h-153l415 1605h108zM227 1840h167v-167h-167v167zM487 1840h167v-167h-167v167z" />
    <glyph glyph-name="Aring" unicode="&#xc5;" horiz-adv-x="880" 
d="M572 679l-132 512l-132 -512h264zM440 1784q-19 0 -32.5 -13.5t-13.5 -32.5q0 -20 13 -33t33 -13q19 0 32.5 13.5t13.5 32.5t-13.5 32.5t-32.5 13.5zM497 1562l412 -1592h-154l-145 561h-342l-144 -561h-153l412 1592q-41 13 -73 46q-55 54 -55 130t54.5 130.5
t130.5 54.5t130.5 -54.5t54.5 -130.5t-54 -130q-33 -33 -74 -46z" />
    <glyph glyph-name="AE" unicode="&#xc6;" horiz-adv-x="1644" 
d="M1544 1587v-148h-541v-652h541v-149h-541v-508h541v-148h-688v656h-425l-229 -676l-140 47l533 1578h949zM856 1439h-154l-221 -652h375v652z" />
    <glyph glyph-name="Ccedilla" unicode="&#xc7;" horiz-adv-x="832" 
d="M332 -20q-89 22 -157 94q-105 110 -105 292v811q0 182 107 293q98 101 240 101q140 0 238 -101q107 -111 107 -293v-75h-147v75q0 121 -65 188q-55 59 -133 59q-80 0 -134 -59q-66 -67 -66 -188v-811q0 -122 66 -190q54 -57 134 -57q78 0 133 57q65 68 65 190v73h147v-73
q0 -182 -107 -294q-73 -76 -168 -95l-5 -38q67 -15 107.5 -61t40.5 -110q-4 -84 -67 -141.5t-212 -68.5q-58 0 -132 9l30 138q42 -2 60 -2q19 0 40 1q58 3 96 21q32 19 32 48v2q-2 14 -19 26t-45.5 18t-100.5 8z" />
    <glyph glyph-name="Egrave" unicode="&#xc8;" 
d="M70 1575h693v-149h-544v-578h544v-149h-544v-581h544v-148h-693v1605zM557 1673h-152l-228 290h210z" />
    <glyph glyph-name="Eacute" unicode="&#xc9;" 
d="M70 1575h693v-149h-544v-578h544v-149h-544v-581h544v-148h-693v1605zM446 1963h210l-228 -290h-152z" />
    <glyph glyph-name="Ecircumflex" unicode="&#xca;" 
d="M70 1575h693v-149h-544v-578h544v-149h-544v-581h544v-148h-693v1605zM500 1963l170 -290h-152l-101 129l-101 -129h-152l170 290h166z" />
    <glyph glyph-name="Edieresis" unicode="&#xcb;" 
d="M70 1575h693v-149h-544v-578h544v-149h-544v-581h544v-148h-693v1605zM203 1840h167v-167h-167v167zM463 1840h167v-167h-167v167z" />
    <glyph glyph-name="Igrave" unicode="&#xcc;" horiz-adv-x="490" 
d="M175 1575h149v-1605h-149v1605zM390 1673h-152l-228 290h210z" />
    <glyph glyph-name="Iacute" unicode="&#xcd;" horiz-adv-x="500" 
d="M166 1575h149v-1605h-149v1605zM270 1963h210l-228 -290h-152z" />
    <glyph glyph-name="Icircumflex" unicode="&#xce;" horiz-adv-x="526" 
d="M188 1575h149v-1605h-149v1605zM346 1883l170 -290h-152l-101 129l-101 -129h-152l170 290h166z" />
    <glyph glyph-name="Idieresis" unicode="&#xcf;" horiz-adv-x="477" 
d="M164 1575h149v-1605h-149v1605zM25 1840h167v-167h-167v167zM285 1840h167v-167h-167v167z" />
    <glyph glyph-name="Eth" unicode="&#xd0;" horiz-adv-x="958" 
d="M512 1575q144 0 245 -101q101 -103 101 -246v-913q0 -142 -101 -243q-100 -102 -245 -102h-346v728h-156v149h156v728h346zM711 1228q0 82 -59 141q-57 57 -140 57h-198v-579h165v-149h-165v-580h198q82 0 140 58q59 59 59 139v913z" />
    <glyph glyph-name="Ntilde" unicode="&#xd1;" 
d="M70 -30v1605h187l367 -1069l-9 38v1031h148v-1605h-112l-421 1234l-11 32v-1266h-149zM151 1630q10 57 28 90q45 81 129 101q9 3 21 3q43 0 103 -32q31 -16 53 -16h1q19 3 49 51h154q-27 -74 -47 -104q-78 -96 -156 -96q-8 0 -14 1q-49 4 -97 35q-21 10 -35 10h-2
q-4 0 -10 -6q-4 -4 -6 -37h-171z" />
    <glyph glyph-name="Ograve" unicode="&#xd2;" 
d="M417 1575q142 0 244 -101q102 -103 102 -246v-913q0 -143 -102 -243q-102 -102 -244 -102q-143 0 -246 102q-101 101 -101 243v913q0 143 101 246q103 101 246 101zM615 1228q0 83 -58 141q-58 57 -140 57q-83 0 -141 -57q-57 -58 -57 -141v-913q0 -81 57 -139
q58 -58 141 -58q82 0 140 58t58 139v913zM557 1673h-152l-228 290h210z" />
    <glyph glyph-name="Oacute" unicode="&#xd3;" 
d="M417 1575q142 0 244 -101q102 -103 102 -246v-913q0 -143 -102 -243q-102 -102 -244 -102q-143 0 -246 102q-101 101 -101 243v913q0 143 101 246q103 101 246 101zM615 1228q0 83 -58 141q-58 57 -140 57q-83 0 -141 -57q-57 -58 -57 -141v-913q0 -81 57 -139
q58 -58 141 -58q82 0 140 58t58 139v913zM446 1963h210l-228 -290h-152z" />
    <glyph glyph-name="Ocircumflex" unicode="&#xd4;" 
d="M417 1575q142 0 244 -101q102 -103 102 -246v-913q0 -143 -102 -243q-102 -102 -244 -102q-143 0 -246 102q-101 101 -101 243v913q0 143 101 246q103 101 246 101zM615 1228q0 83 -58 141q-58 57 -140 57q-83 0 -141 -57q-57 -58 -57 -141v-913q0 -81 57 -139
q58 -58 141 -58q82 0 140 58t58 139v913zM500 1883l170 -290h-152l-101 129l-101 -129h-152l170 290h166z" />
    <glyph glyph-name="Otilde" unicode="&#xd5;" 
d="M417 1575q142 0 244 -101q102 -103 102 -246v-913q0 -143 -102 -243q-102 -102 -244 -102q-143 0 -246 102q-101 101 -101 243v913q0 143 101 246q103 101 246 101zM615 1228q0 83 -58 141q-58 57 -140 57q-83 0 -141 -57q-57 -58 -57 -141v-913q0 -81 57 -139
q58 -58 141 -58q82 0 140 58t58 139v913zM151 1630q10 57 28 90q45 81 129 101q9 3 21 3q43 0 103 -32q31 -16 53 -16h1q19 3 49 51h154q-27 -74 -47 -104q-78 -96 -156 -96q-8 0 -14 1q-49 4 -97 35q-21 10 -35 10h-2q-4 0 -10 -6q-4 -4 -6 -37h-171z" />
    <glyph glyph-name="Odieresis" unicode="&#xd6;" 
d="M417 1575q142 0 244 -101q102 -103 102 -246v-913q0 -143 -102 -243q-102 -102 -244 -102q-143 0 -246 102q-101 101 -101 243v913q0 143 101 246q103 101 246 101zM615 1228q0 83 -58 141q-58 57 -140 57q-83 0 -141 -57q-57 -58 -57 -141v-913q0 -81 57 -139
q58 -58 141 -58q82 0 140 58t58 139v913zM203 1840h167v-167h-167v167zM463 1840h167v-167h-167v167z" />
    <glyph glyph-name="multiply" unicode="&#xd7;" horiz-adv-x="1095" 
d="M877 1347l118 -93l-375 -477l375 -478l-118 -91l-351 449l-352 -449l-116 91l374 478l-374 477l116 94l352 -450z" />
    <glyph glyph-name="Oslash" unicode="&#xd8;" horiz-adv-x="897" 
d="M657 1610l140 -52l-59 -158q38 -67 38 -158v-913q0 -144 -102 -244q-102 -101 -245 -101q-132 0 -199 59l-29 -82l-139 52l58 159q-38 67 -38 157v913q0 144 103 245q100 102 244 102q133 0 199 -60zM231 468l341 912q-49 60 -143 60q-82 0 -140 -58t-58 -140v-774z
M627 1081l-341 -889q49 -61 143 -61q82 0 140 58t58 140v752z" />
    <glyph glyph-name="Ugrave" unicode="&#xd9;" 
d="M615 1575h148v-1260q0 -143 -102 -243q-102 -102 -244 -102q-143 0 -246 102q-101 101 -101 243v1260h147v-1260q0 -80 59 -139q58 -58 141 -58q81 0 140 58q58 58 58 139v1260zM557 1673h-152l-228 290h210z" />
    <glyph glyph-name="Uacute" unicode="&#xda;" 
d="M615 1575h148v-1260q0 -143 -102 -243q-102 -102 -244 -102q-143 0 -246 102q-101 101 -101 243v1260h147v-1260q0 -80 59 -139q58 -58 141 -58q81 0 140 58q58 58 58 139v1260zM446 1963h210l-228 -290h-152z" />
    <glyph glyph-name="Ucircumflex" unicode="&#xdb;" 
d="M615 1575h148v-1260q0 -143 -102 -243q-102 -102 -244 -102q-143 0 -246 102q-101 101 -101 243v1260h147v-1260q0 -80 59 -139q58 -58 141 -58q81 0 140 58q58 58 58 139v1260zM500 1963l170 -290h-152l-101 129l-101 -129h-152l170 290h166z" />
    <glyph glyph-name="Udieresis" unicode="&#xdc;" 
d="M615 1575h148v-1260q0 -143 -102 -243q-102 -102 -244 -102q-143 0 -246 102q-101 101 -101 243v1260h147v-1260q0 -80 59 -139q58 -58 141 -58q81 0 140 58q58 58 58 139v1260zM203 1840h167v-167h-167v167zM463 1840h167v-167h-167v167z" />
    <glyph glyph-name="Yacute" unicode="&#xdd;" horiz-adv-x="887" 
d="M127 1575l316 -610l317 610h166l-409 -789v-817h-147v817l-409 789h166zM473 1883h210l-228 -290h-152z" />
    <glyph glyph-name="Thorn" unicode="&#xde;" horiz-adv-x="853" 
d="M441 1212q153 0 239 -146q73 -122 73 -293q0 -169 -69 -289q-88 -152 -243 -152h-222v-362h-149v1605h149v-363h222zM556 558q49 86 49 215q0 121 -46 206t-118 85h-222v-583h222q70 0 115 77z" />
    <glyph glyph-name="germandbls" unicode="&#xdf;" horiz-adv-x="1041" 
d="M393 1576h31q162 0 259 -130q53 -76 53 -174v-2q0 -127 -67 -296q-19 -80 -19 -126v-13q-1 -7 -1 -13q0 -81 80 -148q84 -68 125 -115q99 -114 99 -253v-37q-13 -118 -77 -201q-97 -107 -218 -107h-28q-120 0 -234 110q-59 70 -89 156l158 54q65 -161 171 -161h2
q104 0 139 111q12 41 12 71q0 6 -1 12q0 92 -107 177q-77 71 -123 129q-68 91 -68 226q0 109 75 295q19 67 19 126q0 108 -94 144q-31 9 -54 9h-6q-104 0 -174 -108q-35 -53 -35 -142v-1201h-151v1236q0 152 124 280q104 91 199 91z" />
    <glyph glyph-name="agrave" unicode="&#xe0;" 
d="M417 1048q137 0 233 -70q113 -80 113 -212v-796h-148v70q-52 -60 -198 -70q-139 0 -234 69q-113 80 -113 212v155q0 132 112 213q96 67 235 67q126 -5 198 -76v156q0 58 -53 95q-57 39 -145 39q-83 0 -140 -35q-58 -37 -58 -99v-24h-149v24q0 137 118 218q95 64 229 64z
M417 118q83 0 139 35q59 37 59 98v155q0 68 -59 102q-51 32 -139 32q-84 0 -140 -34q-58 -37 -58 -100v-155q0 -62 58 -99q56 -34 140 -34zM557 1066h-152l-228 290h210z" />
    <glyph glyph-name="aacute" unicode="&#xe1;" 
d="M417 1048q137 0 233 -70q113 -80 113 -212v-796h-148v70q-52 -60 -198 -70q-139 0 -234 69q-113 80 -113 212v155q0 132 112 213q96 67 235 67q126 -5 198 -76v156q0 58 -53 95q-57 39 -145 39q-83 0 -140 -35q-58 -37 -58 -99v-24h-149v24q0 137 118 218q95 64 229 64z
M417 118q83 0 139 35q59 37 59 98v155q0 68 -59 102q-51 32 -139 32q-84 0 -140 -34q-58 -37 -58 -100v-155q0 -62 58 -99q56 -34 140 -34zM446 1356h210l-228 -290h-152z" />
    <glyph glyph-name="acircumflex" unicode="&#xe2;" 
d="M417 1048q137 0 233 -70q113 -80 113 -212v-796h-148v70q-52 -60 -198 -70q-139 0 -234 69q-113 80 -113 212v155q0 132 112 213q96 67 235 67q126 -5 198 -76v156q0 58 -53 95q-57 39 -145 39q-83 0 -140 -35q-58 -37 -58 -99v-24h-149v24q0 137 118 218q95 64 229 64z
M417 118q83 0 139 35q59 37 59 98v155q0 68 -59 102q-51 32 -139 32q-84 0 -140 -34q-58 -37 -58 -100v-155q0 -62 58 -99q56 -34 140 -34zM500 1356l170 -290h-152l-101 129l-101 -129h-152l170 290h166z" />
    <glyph glyph-name="atilde" unicode="&#xe3;" 
d="M417 1048q137 0 233 -70q113 -80 113 -212v-796h-148v70q-52 -60 -198 -70q-139 0 -234 69q-113 80 -113 212v155q0 132 112 213q96 67 235 67q126 -5 198 -76v156q0 58 -53 95q-57 39 -145 39q-83 0 -140 -35q-58 -37 -58 -99v-24h-149v24q0 137 118 218q95 64 229 64z
M417 118q83 0 139 35q59 37 59 98v155q0 68 -59 102q-51 32 -139 32q-84 0 -140 -34q-58 -37 -58 -100v-155q0 -62 58 -99q56 -34 140 -34zM151 1103q10 57 28 90q45 81 129 101q9 3 21 3q43 0 103 -32q31 -16 53 -16h1q19 3 49 51h154q-27 -74 -47 -104q-78 -96 -156 -96
q-8 0 -14 1q-49 4 -97 35q-21 10 -35 10h-2q-4 0 -10 -6q-4 -4 -6 -37h-171z" />
    <glyph glyph-name="adieresis" unicode="&#xe4;" 
d="M417 1048q137 0 233 -70q113 -80 113 -212v-796h-148v70q-52 -60 -198 -70q-139 0 -234 69q-113 80 -113 212v155q0 132 112 213q96 67 235 67q126 -5 198 -76v156q0 58 -53 95q-57 39 -145 39q-83 0 -140 -35q-58 -37 -58 -99v-24h-149v24q0 137 118 218q95 64 229 64z
M417 118q83 0 139 35q59 37 59 98v155q0 68 -59 102q-51 32 -139 32q-84 0 -140 -34q-58 -37 -58 -100v-155q0 -62 58 -99q56 -34 140 -34zM203 1313h167v-167h-167v167zM463 1313h167v-167h-167v167z" />
    <glyph glyph-name="aring" unicode="&#xe5;" 
d="M417 118q83 0 139 35q59 37 59 98v155q0 68 -59 102q-51 32 -139 32q-84 0 -140 -34q-58 -37 -58 -100v-155q0 -62 58 -99q56 -34 140 -34zM417 1257q-19 0 -32.5 -13.5t-13.5 -32.5q0 -20 13 -33t33 -13q19 0 32.5 13.5t13.5 32.5t-13.5 32.5t-32.5 13.5zM493 1042
q89 -14 157 -64q113 -80 113 -212v-796h-148v70q-52 -60 -198 -70q-139 0 -234 69q-113 80 -113 212v155q0 132 112 213q96 67 235 67q126 -5 198 -76v156q0 58 -53 95q-57 39 -145 39q-83 0 -140 -35q-58 -37 -58 -99v-24h-149v24q0 137 118 218q67 45 152 58
q-29 14 -53 39q-55 54 -55 130t54.5 130.5t130.5 54.5t130.5 -54.5t54.5 -130.5t-54 -130q-25 -25 -55 -39z" />
    <glyph glyph-name="ae" unicode="&#xe6;" horiz-adv-x="1389" 
d="M946 1048q145 0 245 -126q97 -125 97 -297v-190h-535v-42q0 -114 61 -196q56 -79 132 -79q57 0 105 46q52 48 75 129l20 72l143 -42l-20 -70q-37 -126 -123 -203q-90 -80 -200 -80q-169 0 -240 117q-48 -117 -206 -117h-177q-106 0 -181 91q-72 89 -72 215t72 215
q75 92 181 92h282v161q0 87 -44 131q-25 25 -61 25h-177q-56 0 -88 -77l-29 -67l-136 56l28 68q69 168 225 168h177q97 0 166 -68q40 -42 42 -46q70 114 238 114zM606 350q-1 4 -1 43v42h-282q-39 0 -71 -43q-33 -49 -33 -116t33 -115q32 -43 71 -43h177q40 0 70 43
q35 49 35 115v74h1zM1139 625q0 114 -60 196q-56 79 -133 79q-76 0 -132 -79q-61 -82 -61 -196v-42h386v42z" />
    <glyph glyph-name="ccedilla" unicode="&#xe7;" 
d="M346 -23q-95 20 -167 95q-109 111 -109 293v288q0 182 109 293q98 102 238 102q141 0 240 -102q106 -111 106 -293v-14h-147v14q0 121 -66 189q-55 58 -133 58q-79 0 -134 -58q-64 -68 -64 -189v-288q0 -121 64 -189q55 -58 134 -58t133 57q66 67 66 190v14h147v-14
q0 -182 -106 -293q-68 -70 -156 -92l-5 -41q67 -15 107.5 -61t40.5 -110q-4 -84 -67 -141.5t-212 -68.5q-58 0 -132 9l30 138q42 -2 60 -2q19 0 40 1q58 3 96 21q32 19 32 48v2q-2 14 -19 26t-45.5 18t-100.5 8z" />
    <glyph glyph-name="egrave" unicode="&#xe8;" 
d="M615 653q0 121 -65 189q-55 58 -133 58q-79 0 -134 -58q-64 -68 -64 -189v-18h396v18zM763 360q-1 -179 -108 -288q-97 -102 -238 -102q-140 0 -238 102q-109 111 -109 293v288q0 182 109 293q98 102 238 102q141 0 238 -102q108 -111 108 -293v-167h-544v-121
q0 -121 64 -189q55 -58 134 -58t133 57q64 66 65 185h148zM557 1066h-152l-228 290h210z" />
    <glyph glyph-name="eacute" unicode="&#xe9;" 
d="M615 653q0 121 -65 189q-55 58 -133 58q-79 0 -134 -58q-64 -68 -64 -189v-18h396v18zM763 360q-1 -179 -108 -288q-97 -102 -238 -102q-140 0 -238 102q-109 111 -109 293v288q0 182 109 293q98 102 238 102q141 0 238 -102q108 -111 108 -293v-167h-544v-121
q0 -121 64 -189q55 -58 134 -58t133 57q64 66 65 185h148zM446 1356h210l-228 -290h-152z" />
    <glyph glyph-name="ecircumflex" unicode="&#xea;" 
d="M615 653q0 121 -65 189q-55 58 -133 58q-79 0 -134 -58q-64 -68 -64 -189v-18h396v18zM763 360q-1 -179 -108 -288q-97 -102 -238 -102q-140 0 -238 102q-109 111 -109 293v288q0 182 109 293q98 102 238 102q141 0 238 -102q108 -111 108 -293v-167h-544v-121
q0 -121 64 -189q55 -58 134 -58t133 57q64 66 65 185h148zM500 1356l170 -290h-152l-101 129l-101 -129h-152l170 290h166z" />
    <glyph glyph-name="edieresis" unicode="&#xeb;" 
d="M615 653q0 121 -65 189q-55 58 -133 58q-79 0 -134 -58q-64 -68 -64 -189v-18h396v18zM763 360q-1 -179 -108 -288q-97 -102 -238 -102q-140 0 -238 102q-109 111 -109 293v288q0 182 109 293q98 102 238 102q141 0 238 -102q108 -111 108 -293v-167h-544v-121
q0 -121 64 -189q55 -58 134 -58t133 57q64 66 65 185h148zM203 1313h167v-167h-167v167zM463 1313h167v-167h-167v167z" />
    <glyph glyph-name="igrave" unicode="&#xec;" horiz-adv-x="410" 
d="M141 1048h147v-1078h-147v1078zM355 1066h-152l-228 290h210z" />
    <glyph glyph-name="iacute" unicode="&#xed;" horiz-adv-x="405" 
d="M117 1048h147v-1078h-147v1078zM220 1356h210l-228 -290h-152z" />
    <glyph glyph-name="icircumflex" unicode="&#xee;" horiz-adv-x="546" 
d="M199 1048h147v-1078h-147v1078zM356 1356l170 -290h-152l-101 129l-101 -129h-152l170 290h166z" />
    <glyph glyph-name="idieresis" unicode="&#xef;" horiz-adv-x="467" 
d="M160 1048h147v-1078h-147v1078zM20 1313h167v-167h-167v167zM280 1313h167v-167h-167v167z" />
    <glyph glyph-name="eth" unicode="&#xf0;" horiz-adv-x="900" 
d="M735 1501l65 -135l-164 -82q141 -248 141 -633v-243q0 -180 -102 -307q-103 -131 -251 -131q-149 0 -252 131q-102 127 -102 307v243q0 178 101 307q104 132 253 132q120 0 143 -22q-15 64 -64 151l-176 -87l-65 133l157 77q-44 55 -128 90l-69 29l57 138l68 -30
q129 -53 208 -160zM629 658l-1 9q-5 116 -68 197q-60 77 -136 77q-81 0 -142 -83q-63 -87 -63 -207v-243q0 -121 63 -208q61 -82 142 -82q80 0 141 82q64 87 64 208v250z" />
    <glyph glyph-name="ntilde" unicode="&#xf1;" 
d="M417 1048q141 0 238 -102q108 -111 108 -293v-683h-148v683q0 121 -65 189q-55 58 -133 58q-79 0 -134 -58q-64 -68 -64 -188v-684h-149v1078h149v-85q47 85 198 85zM151 1103q10 57 28 90q45 81 129 101q9 3 21 3q43 0 103 -32q31 -16 53 -16h1q19 3 49 51h154
q-27 -74 -47 -104q-78 -96 -156 -96q-8 0 -14 1q-49 4 -97 35q-21 10 -35 10h-2q-4 0 -10 -6q-4 -4 -6 -37h-171z" />
    <glyph glyph-name="ograve" unicode="&#xf2;" horiz-adv-x="832" 
d="M417 1048q140 0 238 -102q107 -111 107 -293v-288q0 -182 -107 -293q-98 -102 -238 -102q-142 0 -240 102q-107 111 -107 293v288q0 182 107 293q98 102 240 102zM615 653q0 121 -65 189q-55 58 -133 58q-80 0 -134 -58q-66 -68 -66 -189v-288q0 -121 66 -189
q54 -58 134 -58q78 0 133 58q65 68 65 189v288zM557 1066h-152l-228 290h210z" />
    <glyph glyph-name="oacute" unicode="&#xf3;" horiz-adv-x="832" 
d="M417 1048q140 0 238 -102q107 -111 107 -293v-288q0 -182 -107 -293q-98 -102 -238 -102q-142 0 -240 102q-107 111 -107 293v288q0 182 107 293q98 102 240 102zM615 653q0 121 -65 189q-55 58 -133 58q-80 0 -134 -58q-66 -68 -66 -189v-288q0 -121 66 -189
q54 -58 134 -58q78 0 133 58q65 68 65 189v288zM445 1356h210l-228 -290h-152z" />
    <glyph glyph-name="ocircumflex" unicode="&#xf4;" horiz-adv-x="832" 
d="M417 1048q140 0 238 -102q107 -111 107 -293v-288q0 -182 -107 -293q-98 -102 -238 -102q-142 0 -240 102q-107 111 -107 293v288q0 182 107 293q98 102 240 102zM615 653q0 121 -65 189q-55 58 -133 58q-80 0 -134 -58q-66 -68 -66 -189v-288q0 -121 66 -189
q54 -58 134 -58q78 0 133 58q65 68 65 189v288zM499 1356l170 -290h-152l-101 129l-101 -129h-152l170 290h166z" />
    <glyph glyph-name="otilde" unicode="&#xf5;" horiz-adv-x="832" 
d="M417 1048q140 0 238 -102q107 -111 107 -293v-288q0 -182 -107 -293q-98 -102 -238 -102q-142 0 -240 102q-107 111 -107 293v288q0 182 107 293q98 102 240 102zM615 653q0 121 -65 189q-55 58 -133 58q-80 0 -134 -58q-66 -68 -66 -189v-288q0 -121 66 -189
q54 -58 134 -58q78 0 133 58q65 68 65 189v288zM151 1103q10 57 28 90q45 81 129 101q9 3 21 3q43 0 103 -32q31 -16 53 -16h1q19 3 49 51h154q-27 -74 -47 -104q-78 -96 -156 -96q-8 0 -14 1q-49 4 -97 35q-21 10 -35 10h-2q-4 0 -10 -6q-4 -4 -6 -37h-171z" />
    <glyph glyph-name="odieresis" unicode="&#xf6;" horiz-adv-x="832" 
d="M417 1048q140 0 238 -102q107 -111 107 -293v-288q0 -182 -107 -293q-98 -102 -238 -102q-142 0 -240 102q-107 111 -107 293v288q0 182 107 293q98 102 240 102zM615 653q0 121 -65 189q-55 58 -133 58q-80 0 -134 -58q-66 -68 -66 -189v-288q0 -121 66 -189
q54 -58 134 -58q78 0 133 58q65 68 65 189v288zM203 1313h167v-167h-167v167zM463 1313h167v-167h-167v167z" />
    <glyph glyph-name="divide" unicode="&#xf7;" horiz-adv-x="837" 
d="M70 809h697v-149h-697v149zM335 362h167v-167h-167v167zM335 1273h167v-167h-167v167z" />
    <glyph glyph-name="oslash" unicode="&#xf8;" horiz-adv-x="906" 
d="M679 1091l127 -76l-77 -132q50 -80 50 -214v-288q0 -182 -106 -293q-99 -102 -240 -102q-127 0 -194 61l-52 -88l-128 74l77 133q-49 82 -49 215v288q0 182 107 293q99 102 239 102q126 0 195 -61zM235 328l317 547q-40 41 -119 41t-134 -58q-64 -68 -64 -189v-341z
M632 720l-318 -545q40 -41 119 -41q78 0 133 58q66 68 66 189v339z" />
    <glyph glyph-name="ugrave" unicode="&#xf9;" horiz-adv-x="832" 
d="M762 -30h-147v75q-48 -65 -198 -75q-143 0 -242 103q-105 111 -105 292v683h147v-683q0 -121 66 -189q55 -58 134 -58q78 0 133 57q65 67 65 189v684h147v-1078zM557 1066h-152l-228 290h210z" />
    <glyph glyph-name="uacute" unicode="&#xfa;" horiz-adv-x="832" 
d="M762 -30h-147v75q-48 -65 -198 -75q-143 0 -242 103q-105 111 -105 292v683h147v-683q0 -121 66 -189q55 -58 134 -58q78 0 133 57q65 67 65 189v684h147v-1078zM445 1356h210l-228 -290h-152z" />
    <glyph glyph-name="ucircumflex" unicode="&#xfb;" horiz-adv-x="832" 
d="M762 -30h-147v75q-48 -65 -198 -75q-143 0 -242 103q-105 111 -105 292v683h147v-683q0 -121 66 -189q55 -58 134 -58q78 0 133 57q65 67 65 189v684h147v-1078zM499 1356l170 -290h-152l-101 129l-101 -129h-152l170 290h166z" />
    <glyph glyph-name="udieresis" unicode="&#xfc;" horiz-adv-x="832" 
d="M762 -30h-147v75q-48 -65 -198 -75q-143 0 -242 103q-105 111 -105 292v683h147v-683q0 -121 66 -189q55 -58 134 -58q78 0 133 57q65 67 65 189v684h147v-1078zM203 1313h167v-167h-167v167zM463 1313h167v-167h-167v167z" />
    <glyph glyph-name="yacute" unicode="&#xfd;" 
d="M763 -256q0 -182 -108 -293q-98 -103 -238 -103q-143 0 -242 104q-105 110 -105 292v74h149v-74q0 -122 64 -190q55 -57 134 -57q78 0 133 57q65 68 65 190v301q-48 -65 -198 -75q-143 0 -242 103q-105 111 -105 292v683h149v-683q0 -121 64 -189q55 -58 134 -58
q78 0 133 57q65 68 65 189v684h148v-1304zM446 1356h210l-228 -290h-152z" />
    <glyph glyph-name="thorn" unicode="&#xfe;" horiz-adv-x="892" 
d="M445 1061q142 0 240 -103q107 -111 107 -293v-284q0 -182 -107 -293q-98 -103 -240 -103q-150 0 -198 75v-690h-147v2206h147v-590q48 75 198 75zM645 665q0 121 -65 188q-55 59 -135 59q-78 0 -132 -57q-66 -68 -66 -189v-286q0 -121 66 -188q54 -58 132 -58
q80 0 135 58q65 68 65 189v284z" />
    <glyph glyph-name="ydieresis" unicode="&#xff;" 
d="M763 -256q0 -182 -108 -293q-98 -103 -238 -103q-143 0 -242 104q-105 110 -105 292v74h149v-74q0 -122 64 -190q55 -57 134 -57q78 0 133 57q65 68 65 190v301q-48 -65 -198 -75q-143 0 -242 103q-105 111 -105 292v683h149v-683q0 -121 64 -189q55 -58 134 -58
q78 0 133 57q65 68 65 189v684h148v-1304zM203 1313h167v-167h-167v167zM463 1313h167v-167h-167v167z" />
    <glyph glyph-name="dotlessi" unicode="&#x131;" horiz-adv-x="357" 
d="M90 1048h147v-1078h-147v1078z" />
    <glyph glyph-name="circumflex" unicode="&#x2c6;" horiz-adv-x="654" 
d="M384 1356l170 -290h-152l-101 129l-101 -129h-152l170 290h166z" />
    <glyph glyph-name="caron" unicode="&#x2c7;" horiz-adv-x="654" 
d="M218 1066l-170 290h152l101 -129l101 129h152l-170 -290h-166z" />
    <glyph glyph-name="uni02C9" unicode="&#x2c9;" horiz-adv-x="627" 
d="M70 1270h457v-149h-457v149z" />
    <glyph glyph-name="breve" unicode="&#x2d8;" horiz-adv-x="649" 
d="M300 1135q-184 1 -269 170h158q28 -33 111 -33q84 0 111 33h158q-85 -169 -269 -170z" />
    <glyph glyph-name="dotaccent" unicode="&#x2d9;" horiz-adv-x="357" 
d="M80 1373h167v-167h-167v167z" />
    <glyph glyph-name="ring" unicode="&#x2da;" horiz-adv-x="540" 
d="M385.5 1291.5q54.5 -54.5 54.5 -130.5t-54.5 -130.5t-130.5 -54.5t-130.5 54.5t-54.5 130.5t54.5 130.5t130.5 54.5t130.5 -54.5zM255 1207q-19 0 -32.5 -13.5t-13.5 -32.5q0 -20 13 -33t33 -13q19 0 32.5 13.5t13.5 32.5t-13.5 32.5t-32.5 13.5z" />
    <glyph glyph-name="ogonek" unicode="&#x2db;" horiz-adv-x="603" 
d="M412 -152l113 -70q-10 -29 -13 -35q-29 -51 -76 -81q-45 -30 -98 -34h-10q-47 0 -89 20q-121 56 -121 181v3q5 56 39 93q28 39 163 107h180q-170 -141 -207 -186q-8 -8 -13 -15q-5 -6 -5 -13v-3q0 -19 13 -30q14 -12 39 -12q26 0 46 16q20 15 39 59z" />
    <glyph glyph-name="tilde" unicode="&#x2dc;" horiz-adv-x="666" 
d="M35 1103q10 57 28 90q45 81 129 101q9 3 21 3q43 0 103 -32q31 -16 53 -16h1q19 3 49 51h154q-27 -74 -47 -104q-78 -96 -156 -96q-8 0 -14 1q-49 4 -97 35q-21 10 -35 10h-2q-4 0 -10 -6q-4 -4 -6 -37h-171z" />
    <glyph glyph-name="hungarumlaut" unicode="&#x2dd;" horiz-adv-x="1024" 
d="M412 1356h210l-228 -290h-152zM678 1356h210l-228 -290h-152z" />
    <glyph glyph-name="endash" unicode="&#x2013;" horiz-adv-x="767" 
d="M-30 609h797v-149h-797v149z" />
    <glyph glyph-name="emdash" unicode="&#x2014;" horiz-adv-x="967" 
d="M-30 609h997v-149h-997v149z" />
    <glyph glyph-name="quoteleft" unicode="&#x2018;" horiz-adv-x="339" 
d="M70 1352q0 89 15 135q31 75 154 94v-100q-37 -6 -37 -99h35v-167h-167v137z" />
    <glyph glyph-name="quoteright" unicode="&#x2019;" horiz-adv-x="339" 
d="M239 1444q0 -89 -15 -135q-31 -75 -154 -94v100q37 6 37 99h-35v167h167v-137z" />
    <glyph glyph-name="quotesinglbase" unicode="&#x201a;" horiz-adv-x="339" 
d="M239 46q0 -89 -15 -135q-31 -75 -154 -94v100q37 6 37 99h-35v167h167v-137z" />
    <glyph glyph-name="quotedblleft" unicode="&#x201c;" horiz-adv-x="576" 
d="M70 1352q0 89 15 135q31 75 154 94v-100q-37 -6 -37 -99h35v-167h-167v137zM307 1352q0 89 15 135q31 75 154 94v-100q-37 -6 -37 -99h35v-167h-167v137z" />
    <glyph glyph-name="quotedblright" unicode="&#x201d;" horiz-adv-x="576" 
d="M239 1444q0 -89 -15 -135q-31 -75 -154 -94v100q37 6 37 99h-35v167h167v-137zM476 1444q0 -89 -15 -135q-31 -75 -154 -94v100q37 6 37 99h-35v167h167v-137z" />
    <glyph glyph-name="quotedblbase" unicode="&#x201e;" horiz-adv-x="576" 
d="M239 46q0 -89 -15 -135q-31 -75 -154 -94v100q37 6 37 99h-35v167h167v-137zM476 46q0 -89 -15 -135q-31 -75 -154 -94v100q37 6 37 99h-35v167h167v-137z" />
    <glyph glyph-name="dagger" unicode="&#x2020;" horiz-adv-x="875" 
d="M348 998h-328v149h328v428h149v-428h328v-149h-328v-1028h-149v1028z" />
    <glyph glyph-name="daggerdbl" unicode="&#x2021;" horiz-adv-x="948" 
d="M348 998h-328v149h328v428h149v-428h328v-149h-328v-411h328v-149h-328v-468h-149v468h-328v149h328v411z" />
    <glyph glyph-name="bullet" unicode="&#x2022;" horiz-adv-x="863" 
d="M661.5 948.5q101.5 -101.5 101.5 -244.5q0 -144 -101.5 -245.5t-245.5 -101.5q-143 0 -244.5 101.5t-101.5 245.5q0 143 101.5 244.5t244.5 101.5q144 0 245.5 -101.5z" />
    <glyph glyph-name="ellipsis" unicode="&#x2026;" horiz-adv-x="2048" 
d="M70 137h167v-167h-167v167zM753 137h167v-167h-167v167zM1436 137h167v-167h-167v167z" />
    <glyph glyph-name="guilsinglleft" unicode="&#x2039;" horiz-adv-x="590" 
d="M538 968l-344 -462l346 -465h-181l-346 465l344 462h181z" />
    <glyph glyph-name="guilsinglright" unicode="&#x203a;" horiz-adv-x="567" 
d="M172 968l345 -462l-347 -465h-180l346 465l-344 462h180z" />
    <glyph glyph-name="fraction" unicode="&#x2044;" horiz-adv-x="456" 
d="M-458 -34l1144 1608h170l-1144 -1608h-170z" />
    <glyph glyph-name="fraction" unicode="&#x2215;" horiz-adv-x="456" 
d="M-458 -34l1144 1608h170l-1144 -1608h-170z" />
    <glyph glyph-name="franc" unicode="&#x20a3;" horiz-adv-x="883" 
d="M180 461v1114h693v-149h-544v-578h544v-149h-544v-238h248v-149h-248v-342h-149v342h-200v149h200z" />
    <glyph glyph-name="lira" unicode="&#x20a4;" horiz-adv-x="1017" 
d="M110 73l41 64q74 115 106 223q30 97 34 153h-188v149h185q-4 44 -23 159h-153v149h129q-15 104 -15 204v31q4 146 77 251q83 119 210 119q120 0 200 -116q69 -102 77 -268l5 -74l-150 -9l-3 75q-7 125 -52 192q-35 51 -77 51q-50 0 -87 -54q-50 -70 -52 -169v-20
q0 -97 17 -213h218v-149h-194q18 -104 22 -159h164v-149h-162q-3 -79 -39 -197q-26 -79 -42 -111q51 -7 144 -43q122 -44 157 -44t110 54l61 44l87 -121l-60 -43q-114 -82 -198 -82q-61 0 -208 54q-69 26 -123 26q-37 0 -85 -21l-80 -34z" />
    <glyph glyph-name="peseta" unicode="&#x20a7;" horiz-adv-x="1712" 
d="M561 1179q0 133 -35 187q-38 60 -141 60h-177v-683h175q70 3 120 62q58 69 58 191v183zM692 899q-11 -93 -75 -179q-73 -96 -188 -120q-30 -4 -62 -4h-159v-626h-138v1605h315q202 0 276 -163q38 -85 38 -233v-132h49v527h149v-527h337q15 1 32 1q137 0 233 -70
q113 -80 113 -210v-75h-148v75q0 58 -53 93q-57 39 -145 39l-28 -1q-65 -4 -112 -33q-58 -37 -58 -98v-26q0 -57 48 -85q41 -24 165 -50q151 -33 215 -71q116 -70 116 -208v-78q0 -133 -113 -212q-96 -68 -233 -68h-360q-103 4 -139 80q-19 41 -19 108v741h-56zM942 899h-45
v-732q0 -37 6 -48q1 -1 20 -1h343q83 0 139 35q59 37 59 97v78q0 56 -48 83q-41 24 -165 52q-150 31 -215 69q-117 71 -117 210v26q0 109 23 131z" />
    <glyph glyph-name="Euro" unicode="&#x20ac;" horiz-adv-x="989" 
d="M726 275l20 70l143 -37l-20 -72q-35 -131 -134 -202q-88 -64 -198 -64q-21 0 -42 3q-124 16 -209 113q-94 109 -94 279v194h-122v149h122v126h-122v147h122v194q0 172 93 279q79 92 196 112q30 5 61 5q87 0 166 -46q103 -63 149 -183l25 -70l-138 -52l-25 71
q-29 77 -93 111q-42 22 -87 22q-16 0 -33 -3q-67 -13 -112 -67q-53 -66 -53 -179v-194h390v-147h-390v-126h338v-149h-338v-194q0 -116 58 -182q46 -55 115 -63q13 -2 26 -2q52 0 98 29q64 41 88 128z" />
    <glyph glyph-name="uni2116" unicode="&#x2116;" horiz-adv-x="1581" 
d="M70 -30v1605h187l367 -1069l-9 28v1041h148v-1605h-112l-421 1234l-11 32v-1266h-149zM1173 1257q140 0 238 -102q107 -111 107 -293v-288q0 -182 -107 -293q-98 -102 -238 -102q-142 0 -240 102q-107 111 -107 293v288q0 182 107 293q98 102 240 102zM1371 862
q0 121 -65 189q-55 58 -133 58q-80 0 -134 -58q-66 -68 -66 -189v-288q0 -121 66 -189q54 -58 134 -58q78 0 133 58q65 68 65 189v288zM823 118h677v-148h-677v148z" />
    <glyph glyph-name="trademark" unicode="&#x2122;" horiz-adv-x="782" 
d="M291 1386h-95v-582h-67v582h-123v60h359l129 -448l128 448h74v-642h-66v426l10 44l-110 -382h-72l-97 328l-15 66l11 -54v-428h-66v582z" />
    <glyph glyph-name="partialdiff" unicode="&#x2202;" horiz-adv-x="1007" 
d="M697 663q-8 33 -35 55q-27 21 -61 21h-205q-40 0 -69 -28q-29 -29 -29 -69v-386q0 -40 29 -69t69 -29h205q40 0 69 29t29 69v392zM521 1099q-107 131 -252 139l-84 5l10 168l84 -5q169 -9 302 -128q36 -32 69 -74q107 -132 171 -336q44 -144 46 -253v-359
q0 -110 -78 -188t-188 -78h-205q-110 0 -188 78t-78 188v386q0 109 78 187q77 79 188 79h205q23 0 27 -1q-40 109 -107 192z" />
    <glyph glyph-name="Delta" unicode="&#x2206;" horiz-adv-x="1296" 
d="M35 -10l605 1436l606 -1436h-1211zM1015 143l-375 888l-374 -888h749z" />
    <glyph glyph-name="product" unicode="&#x220f;" horiz-adv-x="1242" 
d="M1177 1410v-169h-223v-1251h-168v1251h-340v-1251h-168v1251h-223v169h1122z" />
    <glyph glyph-name="summation" unicode="&#x2211;" horiz-adv-x="1348" 
d="M379 1241l761 -541l-761 -541h879v-169h-1178v163l769 547l-769 547v163h1178v-169h-879z" />
    <glyph glyph-name="minus" unicode="&#x2212;" horiz-adv-x="867" 
d="M70 809h697v-149h-697v149z" />
    <glyph glyph-name="radical" unicode="&#x221a;" horiz-adv-x="1021" 
d="M507 1686h464v-143h-344l-256 -1553h-142l-187 542l136 46l99 -287z" />
    <glyph glyph-name="infinity" unicode="&#x221e;" horiz-adv-x="2109" 
d="M523 315q-59 0 -116 19q-56 19 -106 56q-50 38 -89 92q-37 55 -60 127q-22 72 -22 163t22 165q23 71 61 127q39 55 90 93q51 37 106 55q57 20 114 20q99 -2 189 -41q90 -40 169 -108q82 -69 148 -154l20 -27l21 27q66 85 148 154q79 68 169 108q88 39 189 41
q57 0 113 -20q56 -18 106 -55q51 -38 89 -93q39 -54 62 -127q22 -72 23 -165q-1 -93 -23 -165q-23 -72 -60 -126q-41 -57 -91 -92q-49 -37 -107 -56q-56 -18 -112 -18q-101 1 -189 39q-90 39 -169 107q-82 69 -148 154l-21 27l-20 -27q-67 -85 -148 -154q-80 -68 -169 -107
q-89 -38 -189 -39zM519 481q105 0 210 65q102 65 207 201l19 25l-19 25q-54 70 -117 131q-68 61 -139 96q-77 38 -161 39q-68 -1 -122 -36q-56 -36 -87 -101q-33 -66 -33 -154t33 -154q31 -65 87 -102q54 -34 122 -35zM1163 796l-18 -24l18 -25q56 -74 118 -132
q65 -61 138 -96q76 -37 161 -38q68 1 122 35q55 37 87 102q32 66 33 154q-1 92 -35 157q-33 66 -88 101q-54 33 -119 33q-85 -1 -161 -38q-73 -36 -139 -96q-62 -60 -117 -133z" />
    <glyph glyph-name="integral" unicode="&#x222b;" horiz-adv-x="950" 
d="M570 1476q124 169 343 169q38 0 88 -6l-32 -180h-51q-127 0 -196 -89q-48 -63 -59 -137q-34 -198 -103 -602q-69 -400 -103 -601q-16 -113 -91 -213q-124 -169 -343 -169q-38 0 -88 6l32 180h51q127 0 196 89q48 63 59 137q35 201 103 601q69 402 103 602q16 113 91 213z
" />
    <glyph glyph-name="approxequal" unicode="&#x2248;" horiz-adv-x="1000" 
d="M865 611q-123 -102 -235 -112h-16q-81 4 -164 49q-81 44 -132 44h-5q-81 -8 -170 -76v164q85 80 173 81q66 0 175 -62q88 -50 132 -52h4q73 0 238 128v-164zM865 359q-123 -102 -235 -102h-16q-81 4 -159.5 48.5t-141.5 44.5q-45 0 -170 -96v174q85 90 173 91
q66 0 175 -62q78 -42 124 -42h12q125 11 238 108v-164z" />
    <glyph glyph-name="lessequal" unicode="&#x2264;" horiz-adv-x="917" 
d="M20 119h847v-149h-847v149zM21 714l843 469v-172l-640 -354l640 -353v-171l-843 467v114z" />
    <glyph glyph-name="greaterequal" unicode="&#x2265;" horiz-adv-x="917" 
d="M867 -30h-847v149h847v-149zM866 600l-843 -467v171l640 353l-640 354v172l843 -469v-114z" />
    <glyph glyph-name="uniF001" unicode="&#xf001;" horiz-adv-x="891" 
d="M279 1496q79 79 256 79h54v-151l-56 4q-113 0 -150 -37q-46 -46 -46 -209v-134h203v-148h-203v-930h-149v930h-118v148h118v134q0 223 91 314zM654 1048h147v-1078h-147v1078zM644 1373h167v-167h-167v167z" />
    <glyph glyph-name="uniF001" unicode="&#xfb01;" horiz-adv-x="891" 
d="M279 1496q79 79 256 79h54v-151l-56 4q-113 0 -150 -37q-46 -46 -46 -209v-134h203v-148h-203v-930h-149v930h-118v148h118v134q0 223 91 314zM654 1048h147v-1078h-147v1078zM644 1373h167v-167h-167v167z" />
    <glyph glyph-name="uniF002" unicode="&#xf002;" horiz-adv-x="895" 
d="M279 1496q79 79 256 79h54v-151l-56 4q-113 0 -150 -37q-46 -46 -46 -209v-134h203v-148h-203v-930h-149v930h-118v148h118v134q0 223 91 314zM803 158q0 -37 6 -48q1 -1 20 -1h56v-139h-73q-103 4 -139 80q-19 41 -19 108v1417h149v-1417z" />
    <glyph glyph-name="uniF002" unicode="&#xfb02;" horiz-adv-x="895" 
d="M279 1496q79 79 256 79h54v-151l-56 4q-113 0 -150 -37q-46 -46 -46 -209v-134h203v-148h-203v-930h-149v930h-118v148h118v134q0 223 91 314zM803 158q0 -37 6 -48q1 -1 20 -1h56v-139h-73q-103 4 -139 80q-19 41 -19 108v1417h149v-1417z" />
    <glyph glyph-name="Amacron" unicode="&#x100;" horiz-adv-x="880" 
d="M572 679l-132 512l-132 -512h264zM494 1575l415 -1605h-154l-145 561h-342l-144 -561h-153l415 1605h108zM212 1797h457v-149h-457v149z" />
    <glyph glyph-name="amacron" unicode="&#x101;" 
d="M417 1048q137 0 233 -70q113 -80 113 -212v-796h-148v70q-52 -60 -198 -70q-139 0 -234 69q-113 80 -113 212v155q0 132 112 213q96 67 235 67q126 -5 198 -76v156q0 58 -53 95q-57 39 -145 39q-83 0 -140 -35q-58 -37 -58 -99v-24h-149v24q0 137 118 218q95 64 229 64z
M417 118q83 0 139 35q59 37 59 98v155q0 68 -59 102q-51 32 -139 32q-84 0 -140 -34q-58 -37 -58 -100v-155q0 -62 58 -99q56 -34 140 -34zM188 1270h457v-149h-457v149z" />
    <glyph glyph-name="Abreve" unicode="&#x102;" horiz-adv-x="880" 
d="M572 679l-132 512l-132 -512h264zM494 1575l415 -1605h-154l-145 561h-342l-144 -561h-153l415 1605h108zM440 1662q-184 1 -269 170h158q28 -33 111 -33q84 0 111 33h158q-85 -169 -269 -170z" />
    <glyph glyph-name="abreve" unicode="&#x103;" 
d="M417 1048q137 0 233 -70q113 -80 113 -212v-796h-148v70q-52 -60 -198 -70q-139 0 -234 69q-113 80 -113 212v155q0 132 112 213q96 67 235 67q126 -5 198 -76v156q0 58 -53 95q-57 39 -145 39q-83 0 -140 -35q-58 -37 -58 -99v-24h-149v24q0 137 118 218q95 64 229 64z
M417 118q83 0 139 35q59 37 59 98v155q0 68 -59 102q-51 32 -139 32q-84 0 -140 -34q-58 -37 -58 -100v-155q0 -62 58 -99q56 -34 140 -34zM417 1135q-184 1 -269 170h158q28 -33 111 -33q84 0 111 33h158q-85 -169 -269 -170z" />
    <glyph glyph-name="Aogonek" unicode="&#x104;" horiz-adv-x="880" 
d="M572 679l-132 512l-132 -512h264zM754 -26l-144 557h-342l-144 -561h-153l415 1605h108l414 -1601q-181 -122 -197 -169q-7 -21 -7 -38q0 -19 10 -30q19 -22 44 -22q26 0 46 16q20 15 39 59l113 -70q-10 -29 -13 -35q-29 -51 -76 -81q-45 -30 -98 -34h-10q-47 0 -89 20
q-121 56 -121 181v3q5 56 39 93q28 39 166 107z" />
    <glyph glyph-name="aogonek" unicode="&#x105;" 
d="M417 118q83 0 139 35q59 37 59 98v155q0 68 -59 102q-51 32 -139 32q-84 0 -140 -34q-58 -37 -58 -100v-155q0 -62 58 -99q56 -34 140 -34zM615 -21v61q-52 -60 -198 -70q-139 0 -234 69q-113 80 -113 212v155q0 132 112 213q96 67 235 67q126 -5 198 -76v156
q0 58 -53 95q-57 39 -145 39q-83 0 -140 -35q-58 -37 -58 -99v-24h-149v24q0 137 118 218q95 64 229 64q137 0 233 -70q113 -80 113 -212v-796h-1q-206 -172 -210 -199q-2 -7 -2 -12q0 -18 11 -27q14 -12 39 -12q26 0 46 16q20 15 39 59l113 -70q-10 -29 -13 -35
q-29 -51 -76 -81q-45 -30 -98 -34h-10q-47 0 -89 20q-121 56 -121 181v3q5 56 39 93q28 39 185 107z" />
    <glyph glyph-name="Cacute" unicode="&#x106;" horiz-adv-x="832" 
d="M417 1571q140 0 238 -101q107 -111 107 -293v-75h-147v75q0 121 -65 188q-55 59 -133 59q-80 0 -134 -59q-66 -67 -66 -188v-811q0 -122 66 -190q54 -57 134 -57q78 0 133 57q65 68 65 190v73h147v-73q0 -182 -107 -294q-98 -102 -238 -102q-143 0 -242 104
q-105 110 -105 292v811q0 182 107 293q98 101 240 101zM445 1883h210l-228 -290h-152z" />
    <glyph glyph-name="cacute" unicode="&#x107;" 
d="M417 1048q141 0 240 -102q106 -111 106 -293v-14h-147v14q0 121 -66 189q-55 58 -133 58q-79 0 -134 -58q-64 -68 -64 -189v-288q0 -121 64 -189q55 -58 134 -58t133 57q66 67 66 190v14h147v-14q0 -182 -106 -293q-99 -102 -240 -102q-140 0 -238 102q-109 111 -109 293
v288q0 182 109 293q98 102 238 102zM446 1356h210l-228 -290h-152z" />
    <glyph glyph-name="Ccircumflex" unicode="&#x108;" horiz-adv-x="832" 
d="M417 1571q140 0 238 -101q107 -111 107 -293v-75h-147v75q0 121 -65 188q-55 59 -133 59q-80 0 -134 -59q-66 -67 -66 -188v-811q0 -122 66 -190q54 -57 134 -57q78 0 133 57q65 68 65 190v73h147v-73q0 -182 -107 -294q-98 -102 -238 -102q-143 0 -242 104
q-105 110 -105 292v811q0 182 107 293q98 101 240 101zM499 1883l170 -290h-152l-101 129l-101 -129h-152l170 290h166z" />
    <glyph glyph-name="ccircumflex" unicode="&#x109;" 
d="M417 1048q141 0 240 -102q106 -111 106 -293v-14h-147v14q0 121 -66 189q-55 58 -133 58q-79 0 -134 -58q-64 -68 -64 -189v-288q0 -121 64 -189q55 -58 134 -58t133 57q66 67 66 190v14h147v-14q0 -182 -106 -293q-99 -102 -240 -102q-140 0 -238 102q-109 111 -109 293
v288q0 182 109 293q98 102 238 102zM500 1356l170 -290h-152l-101 129l-101 -129h-152l170 290h166z" />
    <glyph glyph-name="Cdotaccent" unicode="&#x10a;" horiz-adv-x="832" 
d="M417 1571q140 0 238 -101q107 -111 107 -293v-75h-147v75q0 121 -65 188q-55 59 -133 59q-80 0 -134 -59q-66 -67 -66 -188v-811q0 -122 66 -190q54 -57 134 -57q78 0 133 57q65 68 65 190v73h147v-73q0 -182 -107 -294q-98 -102 -238 -102q-143 0 -242 104
q-105 110 -105 292v811q0 182 107 293q98 101 240 101zM333 1900h167v-167h-167v167z" />
    <glyph glyph-name="cdotaccent" unicode="&#x10b;" 
d="M417 1048q141 0 240 -102q106 -111 106 -293v-14h-147v14q0 121 -66 189q-55 58 -133 58q-79 0 -134 -58q-64 -68 -64 -189v-288q0 -121 64 -189q55 -58 134 -58t133 57q66 67 66 190v14h147v-14q0 -182 -106 -293q-99 -102 -240 -102q-140 0 -238 102q-109 111 -109 293
v288q0 182 109 293q98 102 238 102zM333 1373h167v-167h-167v167z" />
    <glyph glyph-name="Ccaron" unicode="&#x10c;" horiz-adv-x="832" 
d="M417 1571q140 0 238 -101q107 -111 107 -293v-75h-147v75q0 121 -65 188q-55 59 -133 59q-80 0 -134 -59q-66 -67 -66 -188v-811q0 -122 66 -190q54 -57 134 -57q78 0 133 57q65 68 65 190v73h147v-73q0 -182 -107 -294q-98 -102 -238 -102q-143 0 -242 104
q-105 110 -105 292v811q0 182 107 293q98 101 240 101zM333 1593l-170 290h152l101 -129l101 129h152l-170 -290h-166z" />
    <glyph glyph-name="ccaron" unicode="&#x10d;" 
d="M417 1048q141 0 240 -102q106 -111 106 -293v-14h-147v14q0 121 -66 189q-55 58 -133 58q-79 0 -134 -58q-64 -68 -64 -189v-288q0 -121 64 -189q55 -58 134 -58t133 57q66 67 66 190v14h147v-14q0 -182 -106 -293q-99 -102 -240 -102q-140 0 -238 102q-109 111 -109 293
v288q0 182 109 293q98 102 238 102zM334 1066l-170 290h152l101 -129l101 129h152l-170 -290h-166z" />
    <glyph glyph-name="Dcaron" unicode="&#x10e;" horiz-adv-x="832" 
d="M417 1575q142 0 244 -101q101 -103 101 -246v-913q0 -142 -101 -243q-102 -102 -244 -102h-347v1605h347zM615 1228q0 83 -58 141q-59 57 -140 57h-200v-1308h200q81 0 140 58q58 58 58 139v913zM333 1593l-170 290h152l101 -129l101 129h152l-170 -290h-166z" />
    <glyph glyph-name="dcaron" unicode="&#x10f;" horiz-adv-x="1018" 
d="M763 -30h-148v75q-48 -65 -198 -75q-140 0 -238 102q-109 111 -109 293v288q0 182 109 293q98 102 238 102q150 -10 198 -95v622h148v-1605zM417 118q78 0 133 57q65 67 65 189v290q0 120 -65 188q-55 58 -133 58q-79 0 -134 -58q-64 -68 -64 -189v-288q0 -121 64 -189
q55 -58 134 -58zM1001 1444q0 -89 -15 -135q-31 -75 -154 -94v100q37 6 37 99h-35v167h167v-137z" />
    <glyph glyph-name="Dcroat" unicode="&#x110;" horiz-adv-x="988" 
d="M572 1575q144 0 245 -101q101 -103 101 -246v-913q0 -142 -101 -243q-100 -102 -245 -102h-346v728h-156v149h156v728h346zM771 1228q0 82 -59 141q-57 57 -140 57h-198v-579h165v-149h-165v-580h198q82 0 140 58q59 59 59 139v913z" />
    <glyph glyph-name="dcroat" unicode="&#x111;" horiz-adv-x="973" 
d="M417 118q78 0 133 57q65 67 65 189v290q0 120 -65 188q-55 58 -133 58q-79 0 -134 -58q-64 -68 -64 -189v-288q0 -121 64 -189q55 -58 134 -58zM763 1208v-1238h-148v55q-48 -55 -198 -55q-140 0 -238 102q-109 111 -109 293v288q0 182 109 293q98 102 238 102
q150 0 198 -55v215h-210v149h210v218h148v-218h200v-149h-200z" />
    <glyph glyph-name="Emacron" unicode="&#x112;" 
d="M70 1575h693v-149h-544v-578h544v-149h-544v-581h544v-148h-693v1605zM188 1797h457v-149h-457v149z" />
    <glyph glyph-name="emacron" unicode="&#x113;" 
d="M615 653q0 121 -65 189q-55 58 -133 58q-79 0 -134 -58q-64 -68 -64 -189v-18h396v18zM763 360q-1 -179 -108 -288q-97 -102 -238 -102q-140 0 -238 102q-109 111 -109 293v288q0 182 109 293q98 102 238 102q141 0 238 -102q108 -111 108 -293v-167h-544v-121
q0 -121 64 -189q55 -58 134 -58t133 57q64 66 65 185h148zM188 1270h457v-149h-457v149z" />
    <glyph glyph-name="Ebreve" unicode="&#x114;" 
d="M70 1575h693v-149h-544v-578h544v-149h-544v-581h544v-148h-693v1605zM417 1662q-184 1 -269 170h158q28 -33 111 -33q84 0 111 33h158q-85 -169 -269 -170z" />
    <glyph glyph-name="ebreve" unicode="&#x115;" 
d="M615 653q0 121 -65 189q-55 58 -133 58q-79 0 -134 -58q-64 -68 -64 -189v-18h396v18zM763 360q-1 -179 -108 -288q-97 -102 -238 -102q-140 0 -238 102q-109 111 -109 293v288q0 182 109 293q98 102 238 102q141 0 238 -102q108 -111 108 -293v-167h-544v-121
q0 -121 64 -189q55 -58 134 -58t133 57q64 66 65 185h148zM417 1135q-184 1 -269 170h158q28 -33 111 -33q84 0 111 33h158q-85 -169 -269 -170z" />
    <glyph glyph-name="Edotaccent" unicode="&#x116;" 
d="M70 1575h693v-149h-544v-578h544v-149h-544v-581h544v-148h-693v1605zM333 1900h167v-167h-167v167z" />
    <glyph glyph-name="edotaccent" unicode="&#x117;" 
d="M615 653q0 121 -65 189q-55 58 -133 58q-79 0 -134 -58q-64 -68 -64 -189v-18h396v18zM763 360q-1 -179 -108 -288q-97 -102 -238 -102q-140 0 -238 102q-109 111 -109 293v288q0 182 109 293q98 102 238 102q141 0 238 -102q108 -111 108 -293v-167h-544v-121
q0 -121 64 -189q55 -58 134 -58t133 57q64 66 65 185h148zM333 1373h167v-167h-167v167z" />
    <glyph glyph-name="Eogonek" unicode="&#x118;" 
d="M565 -30h-495v1605h693v-149h-544v-578h544v-149h-544v-581h544v-148h-13q-164 -136 -200 -180q-8 -8 -13 -15q-5 -6 -5 -13v-3q0 -19 13 -30q14 -12 39 -12q26 0 46 16q20 15 39 59l113 -70q-10 -29 -13 -35q-29 -51 -76 -81q-45 -30 -98 -34h-10q-47 0 -89 20
q-121 56 -121 181v3q5 56 39 93q27 37 151 101z" />
    <glyph glyph-name="eogonek" unicode="&#x119;" 
d="M615 653q0 121 -65 189q-55 58 -133 58q-79 0 -134 -58q-64 -68 -64 -189v-18h396v18zM327 -18q-83 23 -148 90q-109 111 -109 293v288q0 182 109 293q98 102 238 102q141 0 238 -102q108 -111 108 -293v-167h-544v-121q0 -121 64 -189q55 -58 134 -58t133 57
q64 66 65 185h148q-1 -179 -108 -288q-43 -45 -95 -71q-61 -54 -82 -79q-8 -8 -13 -15q-5 -6 -5 -13v-3q0 -19 13 -30q14 -12 39 -12q26 0 46 16q20 15 39 59l113 -70q-10 -29 -13 -35q-29 -51 -76 -81q-45 -30 -98 -34h-10q-47 0 -89 20q-121 56 -121 181v3q4 42 24 74z
" />
    <glyph glyph-name="Ecaron" unicode="&#x11a;" 
d="M70 1575h693v-149h-544v-578h544v-149h-544v-581h544v-148h-693v1605zM334 1593l-170 290h152l101 -129l101 129h152l-170 -290h-166z" />
    <glyph glyph-name="ecaron" unicode="&#x11b;" 
d="M615 653q0 121 -65 189q-55 58 -133 58q-79 0 -134 -58q-64 -68 -64 -189v-18h396v18zM763 360q-1 -179 -108 -288q-97 -102 -238 -102q-140 0 -238 102q-109 111 -109 293v288q0 182 109 293q98 102 238 102q141 0 238 -102q108 -111 108 -293v-167h-544v-121
q0 -121 64 -189q55 -58 134 -58t133 57q64 66 65 185h148zM334 1066l-170 290h152l101 -129l101 129h152l-170 -290h-166z" />
    <glyph glyph-name="Gcircumflex" unicode="&#x11c;" horiz-adv-x="832" 
d="M417 1575q142 0 244 -101q101 -103 101 -246v-243h-147v243q0 82 -59 141q-58 57 -139 57q-83 0 -141 -57q-59 -59 -59 -141v-913q0 -80 59 -139q58 -58 141 -58q81 0 139 58q59 59 59 139v384h-273v149h420v-533q0 -142 -101 -243q-102 -102 -244 -102q-144 0 -246 102
q-101 101 -101 243v913q0 143 101 246q102 101 246 101zM499 1883l170 -290h-152l-101 129l-101 -129h-152l170 290h166z" />
    <glyph glyph-name="gcircumflex" unicode="&#x11d;" 
d="M763 -256q0 -182 -108 -293q-98 -103 -238 -103q-143 0 -242 104q-105 110 -105 292v24h149v-24q0 -122 64 -190q55 -57 134 -57q78 0 133 57q65 68 65 190v311q-48 -75 -198 -85q-140 0 -238 102q-109 111 -109 293v288q0 182 109 293q98 102 238 102q150 -10 198 -85
v85h148v-1304zM417 118q78 0 133 57q65 68 65 189v290q0 120 -65 188q-55 58 -133 58q-79 0 -134 -58q-64 -68 -64 -189v-288q0 -121 64 -189q55 -58 134 -58zM500 1356l170 -290h-152l-101 129l-101 -129h-152l170 290h166z" />
    <glyph glyph-name="Gbreve" unicode="&#x11e;" horiz-adv-x="832" 
d="M417 1575q142 0 244 -101q101 -103 101 -246v-243h-147v243q0 82 -59 141q-58 57 -139 57q-83 0 -141 -57q-59 -59 -59 -141v-913q0 -80 59 -139q58 -58 141 -58q81 0 139 58q59 59 59 139v384h-273v149h420v-533q0 -142 -101 -243q-102 -102 -244 -102q-144 0 -246 102
q-101 101 -101 243v913q0 143 101 246q102 101 246 101zM416 1662q-184 1 -269 170h158q28 -33 111 -33q84 0 111 33h158q-85 -169 -269 -170z" />
    <glyph glyph-name="gbreve" unicode="&#x11f;" 
d="M763 -256q0 -182 -108 -293q-98 -103 -238 -103q-143 0 -242 104q-105 110 -105 292v24h149v-24q0 -122 64 -190q55 -57 134 -57q78 0 133 57q65 68 65 190v311q-48 -75 -198 -85q-140 0 -238 102q-109 111 -109 293v288q0 182 109 293q98 102 238 102q150 -10 198 -85
v85h148v-1304zM417 118q78 0 133 57q65 68 65 189v290q0 120 -65 188q-55 58 -133 58q-79 0 -134 -58q-64 -68 -64 -189v-288q0 -121 64 -189q55 -58 134 -58zM417 1135q-184 1 -269 170h158q28 -33 111 -33q84 0 111 33h158q-85 -169 -269 -170z" />
    <glyph glyph-name="Gdotaccent" unicode="&#x120;" horiz-adv-x="832" 
d="M417 1575q142 0 244 -101q101 -103 101 -246v-243h-147v243q0 82 -59 141q-58 57 -139 57q-83 0 -141 -57q-59 -59 -59 -141v-913q0 -80 59 -139q58 -58 141 -58q81 0 139 58q59 59 59 139v384h-273v149h420v-533q0 -142 -101 -243q-102 -102 -244 -102q-144 0 -246 102
q-101 101 -101 243v913q0 143 101 246q102 101 246 101zM333 1900h167v-167h-167v167z" />
    <glyph glyph-name="gdotaccent" unicode="&#x121;" 
d="M763 -256q0 -182 -108 -293q-98 -103 -238 -103q-143 0 -242 104q-105 110 -105 292v24h149v-24q0 -122 64 -190q55 -57 134 -57q78 0 133 57q65 68 65 190v311q-48 -75 -198 -85q-140 0 -238 102q-109 111 -109 293v288q0 182 109 293q98 102 238 102q150 -10 198 -85
v85h148v-1304zM417 118q78 0 133 57q65 68 65 189v290q0 120 -65 188q-55 58 -133 58q-79 0 -134 -58q-64 -68 -64 -189v-288q0 -121 64 -189q55 -58 134 -58zM333 1373h167v-167h-167v167z" />
    <glyph glyph-name="uni0122" unicode="&#x122;" horiz-adv-x="832" 
d="M417 1575q142 0 244 -101q101 -103 101 -246v-243h-147v243q0 82 -59 141q-58 57 -139 57q-83 0 -141 -57q-59 -59 -59 -141v-913q0 -80 59 -139q58 -58 141 -58q81 0 139 58q59 59 59 139v384h-273v149h420v-533q0 -142 -101 -243q-102 -102 -244 -102q-144 0 -246 102
q-101 101 -101 243v913q0 143 101 246q102 101 246 101zM230 -306h59q18 -1 33 -1q163 0 163 67q0 57 -157 57h-42v121q44 6 76 6q140 0 205.5 -57.5t65.5 -134.5q0 -82 -73.5 -142.5t-229.5 -60.5q-37 0 -100 6v139z" />
    <glyph glyph-name="uni0123" unicode="&#x123;" 
d="M763 -256q0 -182 -108 -293q-98 -103 -238 -103q-143 0 -242 104q-105 110 -105 292v24h149v-24q0 -122 64 -190q55 -57 134 -57q78 0 133 57q65 68 65 190v311q-48 -75 -198 -85q-140 0 -238 102q-109 111 -109 293v288q0 182 109 293q98 102 238 102q150 -10 198 -85
v85h148v-1304zM417 118q78 0 133 57q65 68 65 189v290q0 120 -65 188q-55 58 -133 58q-79 0 -134 -58q-64 -68 -64 -189v-288q0 -121 64 -189q55 -58 134 -58zM328 1352q0 89 15 135q31 75 154 94v-100q-37 -6 -37 -99h35v-167h-167v137z" />
    <glyph glyph-name="Hcircumflex" unicode="&#x124;" 
d="M763 -30h-148v729h-396v-729h-149v1605h149v-727h396v727h148v-1605zM500 1933l170 -290h-152l-101 129l-101 -129h-152l170 290h166z" />
    <glyph glyph-name="hcircumflex" unicode="&#x125;" 
d="M417 1048q140 0 238 -102q108 -111 108 -293v-683h-148v683q0 121 -65 189q-55 58 -133 58q-79 0 -134 -58q-64 -68 -64 -188v-684h-149v1605h149v-612q47 75 198 85zM499 1916l170 -290h-152l-101 129l-101 -129h-152l170 290h166z" />
    <glyph glyph-name="Hbar" unicode="&#x126;" horiz-adv-x="1031" 
d="M847 1226v-1256h-148v729h-396v-729h-149v1256h-174v149h174v200h149v-200h396v200h148v-200h174v-149h-174zM303 1226v-378h396v378h-396z" />
    <glyph glyph-name="hbar" unicode="&#x127;" horiz-adv-x="973" 
d="M329 1208v-215q47 55 198 55q140 0 238 -102q108 -111 108 -293v-683h-148v683q0 121 -65 189q-55 58 -133 58q-79 0 -134 -58q-64 -68 -64 -188v-684h-149v1238h-200v149h200v218h149v-218h404v-149h-404z" />
    <glyph glyph-name="Itilde" unicode="&#x128;" horiz-adv-x="558" 
d="M201 1575h149v-1605h-149v1605zM10 1630q10 57 28 90q45 81 129 101q9 3 21 3q43 0 103 -32q31 -16 53 -16h1q19 3 49 51h154q-27 -74 -47 -104q-78 -96 -156 -96q-8 0 -14 1q-49 4 -97 35q-21 10 -35 10h-2q-4 0 -10 -6q-4 -4 -6 -37h-171z" />
    <glyph glyph-name="itilde" unicode="&#x129;" horiz-adv-x="558" 
d="M202 1048h147v-1078h-147v1078zM10 1103q10 57 28 90q45 81 129 101q9 3 21 3q43 0 103 -32q31 -16 53 -16h1q19 3 49 51h154q-27 -74 -47 -104q-78 -96 -156 -96q-8 0 -14 1q-49 4 -97 35q-21 10 -35 10h-2q-4 0 -10 -6q-4 -4 -6 -37h-171z" />
    <glyph glyph-name="Imacron" unicode="&#x12a;" horiz-adv-x="477" 
d="M164 1575h149v-1605h-149v1605zM10 1797h457v-149h-457v149z" />
    <glyph glyph-name="imacron" unicode="&#x12b;" horiz-adv-x="477" 
d="M165 1048h147v-1078h-147v1078zM10 1270h457v-149h-457v149z" />
    <glyph glyph-name="Ibreve" unicode="&#x12c;" horiz-adv-x="558" 
d="M204 1575h149v-1605h-149v1605zM279 1662q-184 1 -269 170h158q28 -33 111 -33q84 0 111 33h158q-85 -169 -269 -170z" />
    <glyph glyph-name="ibreve" unicode="&#x12d;" horiz-adv-x="558" 
d="M205 1048h147v-1078h-147v1078zM279 1135q-184 1 -269 170h158q28 -33 111 -33q84 0 111 33h158q-85 -169 -269 -170z" />
    <glyph glyph-name="Iogonek" unicode="&#x12e;" horiz-adv-x="562" 
d="M218 -22v1597h149v-1597q-150 -141 -187 -186q-8 -8 -13 -15q-5 -6 -5 -13v-3q0 -19 13 -30q14 -12 39 -12q26 0 46 16q20 15 39 59l113 -70q-10 -29 -13 -35q-29 -51 -76 -81q-45 -30 -98 -34h-10q-47 0 -89 20q-121 56 -121 181v3q5 56 39 93q28 39 174 107z" />
    <glyph glyph-name="iogonek" unicode="&#x12f;" horiz-adv-x="508" 
d="M199 1373h167v-167h-167v167zM209 -21v1069h147v-1069q-143 -141 -189 -173q-8 -8 -13 -15q-8 -12 -8 -25v-5q4 -20 21.5 -30.5t42.5 -10.5q26 0 46 16q20 15 39 59l113 -70q-10 -29 -13 -35q-29 -51 -76 -81q-45 -30 -98 -34h-10q-47 0 -89 20q-121 56 -121 181v3
q5 56 39 93q28 39 169 107z" />
    <glyph glyph-name="Idotaccent" unicode="&#x130;" horiz-adv-x="367" 
d="M109 1575h149v-1605h-149v1605zM100 1900h167v-167h-167v167z" />
    <glyph glyph-name="IJ" unicode="&#x132;" horiz-adv-x="1121" 
d="M70 1575h149v-1605h-149v1605zM904 1575h147v-1260q0 -142 -101 -243q-102 -102 -246 -102q-142 0 -244 102q-101 101 -101 243v75h147v-75q0 -80 59 -139q58 -58 139 -58q83 0 141 58q59 59 59 139v1260z" />
    <glyph glyph-name="ij" unicode="&#x133;" horiz-adv-x="664" 
d="M90 1048h147v-1078h-147v1078zM80 1373h167v-167h-167v167zM574 1048v-1321q-1 -263 -137 -341q-74 -44 -210 -44h-73v149h73q104 0 142 26q24 18 37 55q19 55 20 162v1314h148zM417 1373h167v-167h-167v167z" />
    <glyph glyph-name="Jcircumflex" unicode="&#x134;" horiz-adv-x="832" 
d="M615 1575h147v-1260q0 -142 -101 -243q-102 -102 -246 -102q-142 0 -244 102q-101 101 -101 243v75h147v-75q0 -80 59 -139q58 -58 139 -58q83 0 141 58q59 59 59 139v1260zM759 1883l170 -290h-152l-101 129l-101 -129h-152l170 290h166z" />
    <glyph glyph-name="jcircumflex" unicode="&#x135;" horiz-adv-x="570" 
d="M332 1048v-1321q-1 -263 -137 -341q-74 -44 -210 -44h-73v149h73q104 0 142 26q24 18 37 55q19 55 20 162v1314h148zM340 1356l170 -290h-152l-101 129l-101 -129h-152l170 290h166z" />
    <glyph glyph-name="uni0136" unicode="&#x136;" horiz-adv-x="895" 
d="M88 -30v1605h148v-712l529 712h184l-525 -709l518 -896h-170l-445 767l-91 -124v-643h-148zM250 -286h59q18 -1 33 -1q163 0 163 67q0 57 -157 57h-42v121q44 6 76 6q140 0 205.5 -57.5t65.5 -134.5q0 -82 -73.5 -142.5t-229.5 -60.5q-37 0 -100 6v139z" />
    <glyph glyph-name="uni0137" unicode="&#x137;" horiz-adv-x="857" 
d="M917 1048l-481 -394l468 -684h-180l-402 590l-104 -85v-505h-148v1605h148v-909l465 382h234zM270 -286h59q18 -1 33 -1q163 0 163 67q0 57 -157 57h-42v121q44 6 76 6q140 0 205.5 -57.5t65.5 -134.5q0 -82 -73.5 -142.5t-229.5 -60.5q-37 0 -100 6v139z" />
    <glyph glyph-name="kgreenlandic" unicode="&#x138;" horiz-adv-x="927" 
d="M917 1048l-481 -394l468 -684h-180l-402 590l-104 -85v-505h-148v1079h148v-383l465 382h234z" />
    <glyph glyph-name="Lacute" unicode="&#x139;" horiz-adv-x="752" 
d="M217 118h545v-148h-692v1605h147v-1457zM445 1883h210l-228 -290h-152z" />
    <glyph glyph-name="lacute" unicode="&#x13a;" horiz-adv-x="400" 
d="M251 158q0 -37 6 -48q1 -1 20 -1h56v-139h-73q-103 4 -139 80q-19 41 -19 108v1417h149v-1417zM180 1903h210l-228 -290h-152z" />
    <glyph glyph-name="uni013B" unicode="&#x13b;" horiz-adv-x="752" 
d="M217 118h545v-148h-692v1605h147v-1457zM221 -286h59q18 -1 33 -1q163 0 163 67q0 57 -157 57h-42v121q44 6 76 6q140 0 205.5 -57.5t65.5 -134.5q0 -82 -73.5 -142.5t-229.5 -60.5q-37 0 -100 6v139z" />
    <glyph glyph-name="uni013C" unicode="&#x13c;" horiz-adv-x="331" 
d="M239 158q0 -37 6 -48q1 -1 20 -1h56v-139h-73q-103 4 -139 80q-19 41 -19 108v1417h149v-1417zM20 -306h59q18 -1 33 -1q163 0 163 67q0 57 -157 57h-42v121q44 6 76 6q140 0 205.5 -57.5t65.5 -134.5q0 -82 -73.5 -142.5t-229.5 -60.5q-37 0 -100 6v139z" />
    <glyph glyph-name="Lcaron" unicode="&#x13d;" horiz-adv-x="752" 
d="M217 118h545v-148h-692v1605h147v-1457zM732 1444q0 -89 -15 -135q-31 -75 -154 -94v100q37 6 37 99h-35v167h167v-137z" />
    <glyph glyph-name="lcaron" unicode="&#x13e;" horiz-adv-x="458" 
d="M239 158q0 -37 6 -48q1 -1 20 -1h56v-139h-73q-103 4 -139 80q-19 41 -19 108v1417h149v-1417zM439 1444q0 -89 -15 -135q-31 -75 -154 -94v100q37 6 37 99h-35v167h167v-137z" />
    <glyph glyph-name="Ldot" unicode="&#x13f;" horiz-adv-x="752" 
d="M217 118h545v-148h-692v1605h147v-1457zM588 843h142v-141h-142v141z" />
    <glyph glyph-name="ldot" unicode="&#x140;" horiz-adv-x="438" 
d="M239 158q0 -37 6 -48q1 -1 20 -1h56v-139h-73q-103 4 -139 80q-19 41 -19 108v1417h149v-1417zM305 843h142v-141h-142v141z" />
    <glyph glyph-name="Lslash" unicode="&#x141;" horiz-adv-x="782" 
d="M217 781v-663h545v-148h-692v711l-173 -119v172l173 119v722h147v-622l177 122v-172z" />
    <glyph glyph-name="lslash" unicode="&#x142;" horiz-adv-x="487" 
d="M312 790v-632q0 -37 6 -48q1 -1 20 -1h56v-139h-73q-103 4 -139 80q-19 41 -19 108v530l-183 -126v172l183 126v715h149v-613l165 113v-172z" />
    <glyph glyph-name="Nacute" unicode="&#x143;" 
d="M70 -30v1605h187l367 -1069l-9 38v1031h148v-1605h-112l-421 1234l-11 32v-1266h-149zM446 1883h210l-228 -290h-152z" />
    <glyph glyph-name="nacute" unicode="&#x144;" 
d="M417 1048q141 0 238 -102q108 -111 108 -293v-683h-148v683q0 121 -65 189q-55 58 -133 58q-79 0 -134 -58q-64 -68 -64 -188v-684h-149v1078h149v-85q47 85 198 85zM446 1356h210l-228 -290h-152z" />
    <glyph glyph-name="uni0145" unicode="&#x145;" 
d="M70 -30v1605h187l367 -1069l-9 38v1031h148v-1605h-112l-421 1234l-11 32v-1266h-149zM246 -286h59q18 -1 33 -1q163 0 163 67q0 57 -157 57h-42v121q44 6 76 6q140 0 205.5 -57.5t65.5 -134.5q0 -82 -73.5 -142.5t-229.5 -60.5q-37 0 -100 6v139z" />
    <glyph glyph-name="uni0146" unicode="&#x146;" 
d="M417 1048q141 0 238 -102q108 -111 108 -293v-683h-148v683q0 121 -65 189q-55 58 -133 58q-79 0 -134 -58q-64 -68 -64 -188v-684h-149v1078h149v-85q47 85 198 85zM210 -286h59q18 -1 33 -1q163 0 163 67q0 57 -157 57h-42v121q44 6 76 6q140 0 205.5 -57.5
t65.5 -134.5q0 -82 -73.5 -142.5t-229.5 -60.5q-37 0 -100 6v139z" />
    <glyph glyph-name="Ncaron" unicode="&#x147;" 
d="M70 -30v1605h187l367 -1069l-9 38v1031h148v-1605h-112l-421 1234l-11 32v-1266h-149zM334 1593l-170 290h152l101 -129l101 129h152l-170 -290h-166z" />
    <glyph glyph-name="ncaron" unicode="&#x148;" 
d="M417 1048q141 0 238 -102q108 -111 108 -293v-683h-148v683q0 121 -65 189q-55 58 -133 58q-79 0 -134 -58q-64 -68 -64 -188v-684h-149v1078h149v-85q47 85 198 85zM334 1066l-170 290h152l101 -129l101 129h152l-170 -290h-166z" />
    <glyph glyph-name="napostrophe" unicode="&#x149;" horiz-adv-x="927" 
d="M527 1048q141 0 238 -102q108 -111 108 -293v-683h-148v683q0 121 -65 189q-55 58 -133 58q-79 0 -134 -58q-64 -68 -64 -188v-684h-149v1078h149v-85q47 85 198 85zM166 916q0 -89 -15 -135q-31 -75 -154 -94v100q37 6 37 99h-35v167h167v-137z" />
    <glyph glyph-name="Eng" unicode="&#x14a;" horiz-adv-x="1423" 
d="M674 140q87 -15 152 -15q126 0 194 73q49 55 69 140q7 43 20 220l1 1v580q0 116 -83 199t-199 83h-243q-115 0 -197 -82q-83 -81 -85 -196v-1172h-173v1603h153v-99l50 31q106 68 232 68h283q179 0 307 -128t128 -307v-583q-10 -292 -78 -405q-95 -158 -364 -170
q-20 -1 -42 -1q-101 0 -200 27z" />
    <glyph glyph-name="eng" unicode="&#x14b;" horiz-adv-x="967" 
d="M702 -155q1 110 1 475q1 276 1 411q0 63 -45 108t-108 45h-165q-63 0 -108 -44q-44 -45 -45 -107v-762h-163v1076h163v-39q61 39 153 39h145q150 0 243 -93t93 -223v-832q-4 -197 -56 -283q-72 -116 -262 -125q-19 -1 -35 -1q-100 0 -176 37l87 117q64 -13 100 -13
q112 0 150 57q27 39 27 157z" />
    <glyph glyph-name="Omacron" unicode="&#x14c;" 
d="M417 1575q142 0 244 -101q102 -103 102 -246v-913q0 -143 -102 -243q-102 -102 -244 -102q-143 0 -246 102q-101 101 -101 243v913q0 143 101 246q103 101 246 101zM615 1228q0 83 -58 141q-58 57 -140 57q-83 0 -141 -57q-57 -58 -57 -141v-913q0 -81 57 -139
q58 -58 141 -58q82 0 140 58t58 139v913zM188 1797h457v-149h-457v149z" />
    <glyph glyph-name="omacron" unicode="&#x14d;" horiz-adv-x="832" 
d="M417 1048q140 0 238 -102q107 -111 107 -293v-288q0 -182 -107 -293q-98 -102 -238 -102q-142 0 -240 102q-107 111 -107 293v288q0 182 107 293q98 102 240 102zM615 653q0 121 -65 189q-55 58 -133 58q-80 0 -134 -58q-66 -68 -66 -189v-288q0 -121 66 -189
q54 -58 134 -58q78 0 133 58q65 68 65 189v288zM188 1270h457v-149h-457v149z" />
    <glyph glyph-name="Obreve" unicode="&#x14e;" 
d="M417 1575q142 0 244 -101q102 -103 102 -246v-913q0 -143 -102 -243q-102 -102 -244 -102q-143 0 -246 102q-101 101 -101 243v913q0 143 101 246q103 101 246 101zM615 1228q0 83 -58 141q-58 57 -140 57q-83 0 -141 -57q-57 -58 -57 -141v-913q0 -81 57 -139
q58 -58 141 -58q82 0 140 58t58 139v913zM417 1662q-184 1 -269 170h158q28 -33 111 -33q84 0 111 33h158q-85 -169 -269 -170z" />
    <glyph glyph-name="obreve" unicode="&#x14f;" horiz-adv-x="832" 
d="M417 1048q140 0 238 -102q107 -111 107 -293v-288q0 -182 -107 -293q-98 -102 -238 -102q-142 0 -240 102q-107 111 -107 293v288q0 182 107 293q98 102 240 102zM615 653q0 121 -65 189q-55 58 -133 58q-80 0 -134 -58q-66 -68 -66 -189v-288q0 -121 66 -189
q54 -58 134 -58q78 0 133 58q65 68 65 189v288zM416 1135q-184 1 -269 170h158q28 -33 111 -33q84 0 111 33h158q-85 -169 -269 -170z" />
    <glyph glyph-name="Ohungarumlaut" unicode="&#x150;" 
d="M417 1575q142 0 244 -101q102 -103 102 -246v-913q0 -143 -102 -243q-102 -102 -244 -102q-143 0 -246 102q-101 101 -101 243v913q0 143 101 246q103 101 246 101zM615 1228q0 83 -58 141q-58 57 -140 57q-83 0 -141 -57q-57 -58 -57 -141v-913q0 -81 57 -139
q58 -58 141 -58q82 0 140 58t58 139v913zM269 1883h210l-228 -290h-152zM535 1883h210l-228 -290h-152z" />
    <glyph glyph-name="ohungarumlaut" unicode="&#x151;" horiz-adv-x="832" 
d="M417 1048q140 0 238 -102q107 -111 107 -293v-288q0 -182 -107 -293q-98 -102 -238 -102q-142 0 -240 102q-107 111 -107 293v288q0 182 107 293q98 102 240 102zM615 653q0 121 -65 189q-55 58 -133 58q-80 0 -134 -58q-66 -68 -66 -189v-288q0 -121 66 -189
q54 -58 134 -58q78 0 133 58q65 68 65 189v288zM268 1356h210l-228 -290h-152zM534 1356h210l-228 -290h-152z" />
    <glyph glyph-name="OE" unicode="&#x152;" horiz-adv-x="1180" 
d="M615 1228q0 83 -58 141q-58 57 -140 57q-83 0 -141 -57q-57 -58 -57 -141v-913q0 -81 57 -139q58 -58 141 -58q82 0 140 58t58 139v913zM616 27q-57 -57 -199 -57q-143 0 -246 102q-101 101 -101 243v913q0 143 101 246q103 101 246 101q142 0 199 -56v56h693v-149h-544
v-578h544v-149h-544v-581h544v-148h-693v57z" />
    <glyph glyph-name="oe" unicode="&#x153;" horiz-adv-x="1368" 
d="M615 653q0 121 -65 189q-55 58 -133 58q-80 0 -134 -58q-66 -68 -66 -189v-288q0 -121 66 -189q54 -58 134 -58q78 0 133 58q65 68 65 189v288zM1162 653q0 121 -65 189q-55 58 -133 58q-79 0 -134 -58q-64 -68 -64 -189v-18h396v18zM655 72q-98 -102 -238 -102
q-142 0 -240 102q-107 111 -107 293v288q0 182 107 293q98 102 240 102q140 0 238 -102q33 -34 34 -34q2 0 37 34q98 102 238 102q141 0 238 -102q108 -111 108 -293v-167h-544v-121q0 -121 64 -189q55 -58 134 -58t133 57q65 67 65 190v74h148v-74q0 -182 -108 -293
q-97 -102 -238 -102q-140 0 -238 102q-35 34 -37 34q-1 0 -34 -34z" />
    <glyph glyph-name="Racute" unicode="&#x154;" horiz-adv-x="846" 
d="M219 847h188l36 2q71 13 118 72q54 67 54 178v79q0 131 -39 186q-42 61 -159 61h-198v-578zM637 -30l-273 728h-145v-729h-149v1605h347q221 0 304 -163q42 -85 42 -233v-79q0 -163 -86 -269q-75 -96 -160 -115l279 -745h-159zM456 1883h210l-228 -290h-152z" />
    <glyph glyph-name="racute" unicode="&#x155;" 
d="M417 1051q141 0 238 -101q108 -111 108 -293v-75h-148v75q0 121 -65 189q-54 58 -133 58t-134 -59q-64 -67 -64 -188v-687h-149v1081h149v-91q66 88 198 91zM446 1356h210l-228 -290h-152z" />
    <glyph glyph-name="uni0156" unicode="&#x156;" horiz-adv-x="846" 
d="M219 847h188l36 2q71 13 118 72q54 67 54 178v79q0 131 -39 186q-42 61 -159 61h-198v-578zM637 -30l-273 728h-145v-729h-149v1605h347q221 0 304 -163q42 -85 42 -233v-79q0 -163 -86 -269q-75 -96 -160 -115l279 -745h-159zM212 -286h59q18 -1 33 -1q163 0 163 67
q0 57 -157 57h-42v121q44 6 76 6q140 0 205.5 -57.5t65.5 -134.5q0 -82 -73.5 -142.5t-229.5 -60.5q-37 0 -100 6v139z" />
    <glyph glyph-name="uni0157" unicode="&#x157;" 
d="M417 1051q141 0 238 -101q108 -111 108 -293v-75h-148v75q0 121 -65 189q-54 58 -133 58t-134 -59q-64 -67 -64 -188v-687h-149v1081h149v-91q66 88 198 91zM210 -286h59q18 -1 33 -1q163 0 163 67q0 57 -157 57h-42v121q44 6 76 6q140 0 205.5 -57.5t65.5 -134.5
q0 -82 -73.5 -142.5t-229.5 -60.5q-37 0 -100 6v139z" />
    <glyph glyph-name="Rcaron" unicode="&#x158;" horiz-adv-x="846" 
d="M219 847h188l36 2q71 13 118 72q54 67 54 178v79q0 131 -39 186q-42 61 -159 61h-198v-578zM637 -30l-273 728h-145v-729h-149v1605h347q221 0 304 -163q42 -85 42 -233v-79q0 -163 -86 -269q-75 -96 -160 -115l279 -745h-159zM344 1593l-170 290h152l101 -129l101 129
h152l-170 -290h-166z" />
    <glyph glyph-name="rcaron" unicode="&#x159;" 
d="M417 1051q141 0 238 -101q108 -111 108 -293v-75h-148v75q0 121 -65 189q-54 58 -133 58t-134 -59q-64 -67 -64 -188v-687h-149v1081h149v-91q66 88 198 91zM334 1066l-170 290h152l101 -129l101 129h152l-170 -290h-166z" />
    <glyph glyph-name="Sacute" unicode="&#x15a;" 
d="M417 1575q140 0 238 -103q108 -112 108 -295v-75h-148v75q0 123 -65 192q-55 57 -133 57q-79 0 -134 -58q-64 -69 -64 -191v-41q0 -121 60 -176q39 -37 162 -78q149 -50 211 -107q111 -99 111 -287v-121q0 -183 -108 -295q-98 -102 -238 -102q-143 0 -242 104
q-105 111 -105 293v75h149v-75q0 -123 64 -191q55 -58 134 -58q78 0 133 58q65 69 65 191v121q0 122 -61 178q-39 35 -161 77q-148 50 -212 107q-111 99 -111 286v41q0 183 108 295q99 103 239 103zM446 1963h210l-228 -290h-152z" />
    <glyph glyph-name="sacute" unicode="&#x15b;" 
d="M417 1048q137 0 233 -70q113 -80 113 -210v-15h-148v15q0 58 -53 93q-57 39 -145 39q-84 0 -140 -34q-58 -37 -58 -98v-26q0 -57 48 -85q41 -24 165 -50q151 -33 215 -71q116 -70 116 -208v-78q0 -133 -113 -212q-96 -68 -233 -68q-136 0 -234 68q-113 79 -113 212v15
h149v-15q0 -61 58 -98q56 -34 140 -34q83 0 139 35q59 37 59 97v78q0 56 -48 83q-41 24 -165 52q-150 31 -215 69q-117 71 -117 210v26q0 130 113 210q97 70 234 70zM446 1436h210l-228 -290h-152z" />
    <glyph glyph-name="Scircumflex" unicode="&#x15c;" 
d="M417 1575q140 0 238 -103q108 -112 108 -295v-75h-148v75q0 123 -65 192q-55 57 -133 57q-79 0 -134 -58q-64 -69 -64 -191v-41q0 -121 60 -176q39 -37 162 -78q149 -50 211 -107q111 -99 111 -287v-121q0 -183 -108 -295q-98 -102 -238 -102q-143 0 -242 104
q-105 111 -105 293v75h149v-75q0 -123 64 -191q55 -58 134 -58q78 0 133 58q65 69 65 191v121q0 122 -61 178q-39 35 -161 77q-148 50 -212 107q-111 99 -111 286v41q0 183 108 295q99 103 239 103zM500 1883l170 -290h-152l-101 129l-101 -129h-152l170 290h166z" />
    <glyph glyph-name="scircumflex" unicode="&#x15d;" 
d="M417 1048q137 0 233 -70q113 -80 113 -210v-15h-148v15q0 58 -53 93q-57 39 -145 39q-84 0 -140 -34q-58 -37 -58 -98v-26q0 -57 48 -85q41 -24 165 -50q151 -33 215 -71q116 -70 116 -208v-78q0 -133 -113 -212q-96 -68 -233 -68q-136 0 -234 68q-113 79 -113 212v15
h149v-15q0 -61 58 -98q56 -34 140 -34q83 0 139 35q59 37 59 97v78q0 56 -48 83q-41 24 -165 52q-150 31 -215 69q-117 71 -117 210v26q0 130 113 210q97 70 234 70zM500 1356l170 -290h-152l-101 129l-101 -129h-152l170 290h166z" />
    <glyph glyph-name="Scedilla" unicode="&#x15e;" 
d="M343 -22q-96 20 -168 96q-105 111 -105 293v75h149v-75q0 -123 64 -191q55 -58 134 -58q78 0 133 58q65 69 65 191v121q0 122 -61 178q-39 35 -161 77q-148 50 -212 107q-111 99 -111 286v41q0 183 108 295q99 103 239 103t238 -103q108 -112 108 -295v-75h-148v75
q0 123 -65 192q-55 57 -133 57q-79 0 -134 -58q-64 -69 -64 -191v-41q0 -121 60 -176q39 -37 162 -78q149 -50 211 -107q111 -99 111 -287v-121q0 -183 -108 -295q-68 -71 -157 -93l-5 -40q67 -15 107.5 -61t40.5 -110q-4 -84 -67 -141.5t-212 -68.5q-58 0 -132 9l30 138
q42 -2 60 -2q19 0 40 1q58 3 96 21q32 19 32 48v2q-2 14 -19 26t-45.5 18t-100.5 8z" />
    <glyph glyph-name="scedilla" unicode="&#x15f;" 
d="M321 -21q-76 16 -138 59q-113 79 -113 212v15h149v-15q0 -61 58 -98q56 -34 140 -34q83 0 139 35q59 37 59 97v78q0 56 -48 83q-41 24 -165 52q-150 31 -215 69q-117 71 -117 210v26q0 130 113 210q97 70 234 70t233 -70q113 -80 113 -210v-15h-148v15q0 58 -53 93
q-57 39 -145 39q-84 0 -140 -34q-58 -37 -58 -98v-26q0 -57 48 -85q41 -24 165 -50q151 -33 215 -71q116 -70 116 -208v-78q0 -133 -113 -212q-75 -53 -175 -65l-4 -34q67 -15 107.5 -61t40.5 -110q-4 -84 -67 -141.5t-212 -68.5q-58 0 -132 9l30 138q42 -2 60 -2q19 0 40 1
q58 3 96 21q32 19 32 48v2q-2 14 -19 26t-45.5 18t-100.5 8z" />
    <glyph glyph-name="Scaron" unicode="&#x160;" 
d="M417 1575q140 0 238 -103q108 -112 108 -295v-75h-148v75q0 123 -65 192q-55 57 -133 57q-79 0 -134 -58q-64 -69 -64 -191v-41q0 -121 60 -176q39 -37 162 -78q149 -50 211 -107q111 -99 111 -287v-121q0 -183 -108 -295q-98 -102 -238 -102q-143 0 -242 104
q-105 111 -105 293v75h149v-75q0 -123 64 -191q55 -58 134 -58q78 0 133 58q65 69 65 191v121q0 122 -61 178q-39 35 -161 77q-148 50 -212 107q-111 99 -111 286v41q0 183 108 295q99 103 239 103zM334 1593l-170 290h152l101 -129l101 129h152l-170 -290h-166z" />
    <glyph glyph-name="scaron" unicode="&#x161;" 
d="M417 1048q137 0 233 -70q113 -80 113 -210v-15h-148v15q0 58 -53 93q-57 39 -145 39q-84 0 -140 -34q-58 -37 -58 -98v-26q0 -57 48 -85q41 -24 165 -50q151 -33 215 -71q116 -70 116 -208v-78q0 -133 -113 -212q-96 -68 -233 -68q-136 0 -234 68q-113 79 -113 212v15
h149v-15q0 -61 58 -98q56 -34 140 -34q83 0 139 35q59 37 59 97v78q0 56 -48 83q-41 24 -165 52q-150 31 -215 69q-117 71 -117 210v26q0 130 113 210q97 70 234 70zM334 1066l-170 290h152l101 -129l101 129h152l-170 -290h-166z" />
    <glyph glyph-name="uni0162" unicode="&#x162;" horiz-adv-x="672" 
d="M262 22v1404h-272v149h692v-149h-272v-1396l-16 -112q76 -17 116.5 -63t40.5 -110q-4 -84 -67 -141.5t-212 -68.5q-58 0 -132 9l30 138q42 -2 60 -2q19 0 40 1q58 3 96 21q32 19 32 48v2q-2 14 -19 26t-45.5 18t-100.5 8z" />
    <glyph glyph-name="uni0163" unicode="&#x163;" horiz-adv-x="652" 
d="M326 -9q-36 20 -55 59q-19 41 -19 108v741h-182v148h182v527h149v-527h181v-148h-181v-741q0 -37 6 -48q1 -1 20 -1h56v-139l-10 -41q67 -15 107.5 -61t40.5 -110q-4 -84 -67 -141.5t-212 -68.5q-58 0 -132 9l30 138q42 -2 60 -2q19 0 40 1q58 3 96 21q32 19 32 48v2
q-2 14 -19 26t-45.5 18t-100.5 8z" />
    <glyph glyph-name="Tcaron" unicode="&#x164;" horiz-adv-x="672" 
d="M682 1575v-149h-272v-1456h-148v1456h-272v149h692zM253 1593l-170 290h152l101 -129l101 129h152l-170 -290h-166z" />
    <glyph glyph-name="tcaron" unicode="&#x165;" horiz-adv-x="676" 
d="M401 158q0 -37 6 -48q1 -1 20 -1h56v-139h-73q-103 4 -139 80q-19 41 -19 108v741h-182v148h182v527h149v-527h181v-148h-181v-741zM667 1444q0 -89 -15 -135q-31 -75 -154 -94v100q37 6 37 99h-35v167h167v-137z" />
    <glyph glyph-name="Tbar" unicode="&#x166;" horiz-adv-x="702" 
d="M262 847v579h-272v149h692v-149h-272v-579h175v-149h-175v-728h-148v728h-174v149h174z" />
    <glyph glyph-name="tbar" unicode="&#x167;" horiz-adv-x="585" 
d="M351 498v-340q0 -37 6 -48q1 -1 20 -1h56v-139h-73q-103 4 -139 80q-19 41 -19 108v340h-164v149h164v252h-182v148h182v527h149v-527h181v-148h-181v-252h184v-149h-184z" />
    <glyph glyph-name="Utilde" unicode="&#x168;" 
d="M615 1575h148v-1260q0 -143 -102 -243q-102 -102 -244 -102q-143 0 -246 102q-101 101 -101 243v1260h147v-1260q0 -80 59 -139q58 -58 141 -58q81 0 140 58q58 58 58 139v1260zM151 1630q10 57 28 90q45 81 129 101q9 3 21 3q43 0 103 -32q31 -16 53 -16h1q19 3 49 51
h154q-27 -74 -47 -104q-78 -96 -156 -96q-8 0 -14 1q-49 4 -97 35q-21 10 -35 10h-2q-4 0 -10 -6q-4 -4 -6 -37h-171z" />
    <glyph glyph-name="utilde" unicode="&#x169;" horiz-adv-x="832" 
d="M762 -30h-147v75q-48 -65 -198 -75q-143 0 -242 103q-105 111 -105 292v683h147v-683q0 -121 66 -189q55 -58 134 -58q78 0 133 57q65 67 65 189v684h147v-1078zM151 1103q10 57 28 90q45 81 129 101q9 3 21 3q43 0 103 -32q31 -16 53 -16h1q19 3 49 51h154
q-27 -74 -47 -104q-78 -96 -156 -96q-8 0 -14 1q-49 4 -97 35q-21 10 -35 10h-2q-4 0 -10 -6q-4 -4 -6 -37h-171z" />
    <glyph glyph-name="Umacron" unicode="&#x16a;" 
d="M615 1575h148v-1260q0 -143 -102 -243q-102 -102 -244 -102q-143 0 -246 102q-101 101 -101 243v1260h147v-1260q0 -80 59 -139q58 -58 141 -58q81 0 140 58q58 58 58 139v1260zM188 1797h457v-149h-457v149z" />
    <glyph glyph-name="umacron" unicode="&#x16b;" horiz-adv-x="832" 
d="M762 -30h-147v75q-48 -65 -198 -75q-143 0 -242 103q-105 111 -105 292v683h147v-683q0 -121 66 -189q55 -58 134 -58q78 0 133 57q65 67 65 189v684h147v-1078zM188 1270h457v-149h-457v149z" />
    <glyph glyph-name="Ubreve" unicode="&#x16c;" 
d="M615 1575h148v-1260q0 -143 -102 -243q-102 -102 -244 -102q-143 0 -246 102q-101 101 -101 243v1260h147v-1260q0 -80 59 -139q58 -58 141 -58q81 0 140 58q58 58 58 139v1260zM417 1662q-184 1 -269 170h158q28 -33 111 -33q84 0 111 33h158q-85 -169 -269 -170z" />
    <glyph glyph-name="ubreve" unicode="&#x16d;" horiz-adv-x="832" 
d="M762 -30h-147v75q-48 -65 -198 -75q-143 0 -242 103q-105 111 -105 292v683h147v-683q0 -121 66 -189q55 -58 134 -58q78 0 133 57q65 67 65 189v684h147v-1078zM416 1135q-184 1 -269 170h158q28 -33 111 -33q84 0 111 33h158q-85 -169 -269 -170z" />
    <glyph glyph-name="Uring" unicode="&#x16e;" 
d="M615 1575h148v-1260q0 -143 -102 -243q-102 -102 -244 -102q-143 0 -246 102q-101 101 -101 243v1260h147v-1260q0 -80 59 -139q58 -58 141 -58q81 0 140 58q58 58 58 139v1260zM547.5 1818.5q54.5 -54.5 54.5 -130.5t-54.5 -130.5t-130.5 -54.5t-130.5 54.5t-54.5 130.5
t54.5 130.5t130.5 54.5t130.5 -54.5zM417 1734q-19 0 -32.5 -13.5t-13.5 -32.5q0 -20 13 -33t33 -13q19 0 32.5 13.5t13.5 32.5t-13.5 32.5t-32.5 13.5z" />
    <glyph glyph-name="uring" unicode="&#x16f;" horiz-adv-x="832" 
d="M762 -30h-147v75q-48 -65 -198 -75q-143 0 -242 103q-105 111 -105 292v683h147v-683q0 -121 66 -189q55 -58 134 -58q78 0 133 57q65 67 65 189v684h147v-1078zM546.5 1291.5q54.5 -54.5 54.5 -130.5t-54.5 -130.5t-130.5 -54.5t-130.5 54.5t-54.5 130.5t54.5 130.5
t130.5 54.5t130.5 -54.5zM416 1207q-19 0 -32.5 -13.5t-13.5 -32.5q0 -20 13 -33t33 -13q19 0 32.5 13.5t13.5 32.5t-13.5 32.5t-32.5 13.5z" />
    <glyph glyph-name="Uhungarumlaut" unicode="&#x170;" 
d="M615 1575h148v-1260q0 -143 -102 -243q-102 -102 -244 -102q-143 0 -246 102q-101 101 -101 243v1260h147v-1260q0 -80 59 -139q58 -58 141 -58q81 0 140 58q58 58 58 139v1260zM269 1883h210l-228 -290h-152zM535 1883h210l-228 -290h-152z" />
    <glyph glyph-name="uhungarumlaut" unicode="&#x171;" horiz-adv-x="832" 
d="M762 -30h-147v75q-48 -65 -198 -75q-143 0 -242 103q-105 111 -105 292v683h147v-683q0 -121 66 -189q55 -58 134 -58q78 0 133 57q65 67 65 189v684h147v-1078zM268 1356h210l-228 -290h-152zM534 1356h210l-228 -290h-152z" />
    <glyph glyph-name="Uogonek" unicode="&#x172;" 
d="M331 -20q-90 22 -160 92q-101 101 -101 243v1260h147v-1260q0 -80 59 -139q58 -58 141 -58q81 0 140 58q58 58 58 139v1260h148v-1260q0 -143 -102 -243q-29 -29 -61 -49q-114 -97 -143 -133q-8 -8 -13 -15q-5 -6 -5 -13v-3q0 -19 13 -30q14 -12 39 -12q26 0 46 16
q20 15 39 59l113 -70q-10 -29 -13 -35q-29 -51 -76 -81q-45 -30 -98 -34h-10q-47 0 -89 20q-121 56 -121 181v3q5 56 39 93q4 5 10 11z" />
    <glyph glyph-name="uogonek" unicode="&#x173;" horiz-adv-x="832" 
d="M615 -22v67q-48 -65 -198 -75q-143 0 -242 103q-105 111 -105 292v683h147v-683q0 -121 66 -189q55 -58 134 -58q78 0 133 57q65 67 65 189v684h147v-1070q-153 -141 -190 -186q-8 -8 -13 -15q-5 -6 -5 -13v-3q0 -19 13 -30q14 -12 39 -12q26 0 46 16q20 15 39 59
l113 -70q-10 -29 -13 -35q-29 -51 -76 -81q-45 -30 -98 -34h-10q-47 0 -89 20q-121 56 -121 181v3q5 56 39 93q28 39 179 107z" />
    <glyph glyph-name="Wcircumflex" unicode="&#x174;" horiz-adv-x="1226" 
d="M284 -30l-310 1605h153l213 -1135l206 1135h134l206 -1135l213 1135h153l-310 -1605h-114l-215 1171l-215 -1171h-114zM696 1883l170 -290h-152l-101 129l-101 -129h-152l170 290h166z" />
    <glyph glyph-name="wcircumflex" unicode="&#x175;" horiz-adv-x="1185" 
d="M285 -30l-315 1078h154l208 -729l215 729h92l215 -729l207 729h154l-315 -1078h-91l-216 751l-217 -751h-91zM676 1356l170 -290h-152l-101 129l-101 -129h-152l170 290h166z" />
    <glyph glyph-name="Ycircumflex" unicode="&#x176;" horiz-adv-x="887" 
d="M127 1575l316 -610l317 610h166l-409 -789v-817h-147v817l-409 789h166zM527 1883l170 -290h-152l-101 129l-101 -129h-152l170 290h166z" />
    <glyph glyph-name="ycircumflex" unicode="&#x177;" 
d="M763 -256q0 -182 -108 -293q-98 -103 -238 -103q-143 0 -242 104q-105 110 -105 292v74h149v-74q0 -122 64 -190q55 -57 134 -57q78 0 133 57q65 68 65 190v301q-48 -65 -198 -75q-143 0 -242 103q-105 111 -105 292v683h149v-683q0 -121 64 -189q55 -58 134 -58
q78 0 133 57q65 68 65 189v684h148v-1304zM500 1356l170 -290h-152l-101 129l-101 -129h-152l170 290h166z" />
    <glyph glyph-name="Ydieresis" unicode="&#x178;" horiz-adv-x="887" 
d="M127 1575l316 -610l317 610h166l-409 -789v-817h-147v817l-409 789h166zM230 1840h167v-167h-167v167zM490 1840h167v-167h-167v167z" />
    <glyph glyph-name="Zacute" unicode="&#x179;" horiz-adv-x="751" 
d="M754 1575l-544 -1457h512v-148h-725l545 1456h-514v149h726zM405 1883h210l-228 -290h-152z" />
    <glyph glyph-name="zacute" unicode="&#x17a;" horiz-adv-x="777" 
d="M789 1048l-544 -930h490v-148h-747l545 930h-491v148h747zM418 1356h210l-228 -290h-152z" />
    <glyph glyph-name="Zdotaccent" unicode="&#x17b;" horiz-adv-x="751" 
d="M754 1575l-544 -1457h512v-148h-725l545 1456h-514v149h726zM292 1900h167v-167h-167v167z" />
    <glyph glyph-name="zdotaccent" unicode="&#x17c;" horiz-adv-x="777" 
d="M789 1048l-544 -930h490v-148h-747l545 930h-491v148h747zM305 1373h167v-167h-167v167z" />
    <glyph glyph-name="Zcaron" unicode="&#x17d;" horiz-adv-x="751" 
d="M754 1575l-544 -1457h512v-148h-725l545 1456h-514v149h726zM293 1593l-170 290h152l101 -129l101 129h152l-170 -290h-166z" />
    <glyph glyph-name="zcaron" unicode="&#x17e;" horiz-adv-x="777" 
d="M789 1048l-544 -930h490v-148h-747l545 930h-491v148h747zM306 1066l-170 290h152l101 -129l101 129h152l-170 -290h-166z" />
    <glyph glyph-name="longs" unicode="&#x17f;" horiz-adv-x="663" 
d="M203 1193q0 98 48 192q80 180 342 192v-149q-152 -10 -209 -115q-31 -59 -31 -121v-1223h-150v1224z" />
    <glyph glyph-name="_1" horiz-adv-x="573" 
d="M70 -286h59q18 -1 33 -1q163 0 163 67q0 57 -157 57h-42v121q44 6 76 6q140 0 205.5 -57.5t65.5 -134.5q0 -82 -73.5 -142.5t-229.5 -60.5q-37 0 -100 6v139z" />
    <glyph glyph-name="perthousand" unicode="&#x2030;" horiz-adv-x="1411" 
d="M438 1076q0 -88 -53 -151q-52 -67 -131 -67q-77 0 -131 67q-53 63 -53 151v287q0 88 53 151q54 66 131 66q78 0 131 -66q53 -63 53 -151v-287zM289 1363q0 30 -14 52q-11 16 -21 16t-21 -16q-14 -22 -14 -52v-287q0 -31 14 -52q11 -17 21 -17t21 17q14 21 14 52v287z
M717 695q77 0 132 -65q52 -63 52 -152v-286q0 -88 -52 -152q-55 -65 -132 -65q-78 0 -132 65q-52 64 -52 152v286q0 89 52 152q54 65 132 65zM753 478q0 31 -15 52q-11 18 -21 18q-11 0 -22 -17q-14 -22 -14 -53v-286q0 -31 14 -53q11 -16 22 -16q10 0 21 16q15 22 15 53
v286zM726 1575l-327 -1605h-151l326 1605h152zM1127 695q77 0 132 -65q52 -63 52 -152v-286q0 -88 -52 -152q-55 -65 -132 -65q-78 0 -132 65q-52 64 -52 152v286q0 89 52 152q54 65 132 65zM1163 478q0 31 -15 52q-11 18 -21 18q-11 0 -22 -17q-14 -22 -14 -53v-286
q0 -31 14 -53q11 -16 22 -16q10 0 21 16q15 22 15 53v286z" />
    <glyph glyph-name="uni2070" unicode="&#x2070;" horiz-adv-x="692" 
d="M332 1782q107 0 184 -77q76 -78 76 -185v-639q0 -108 -76 -184q-77 -77 -184 -77q-109 0 -186 77q-76 76 -76 184v639q0 107 76 185q77 77 186 77zM452 1520q0 49 -36 85q-35 34 -84 34q-51 0 -85 -34q-36 -36 -36 -85v-639q0 -48 36 -84q35 -35 85 -35q49 0 84 35
q36 36 36 84v639z" />
    <glyph glyph-name="uni2074" unicode="&#x2074;" horiz-adv-x="826" 
d="M616 981h110v-143h-110v-218h-141v218h-422l448 944h115v-801zM475 981v416l-198 -416h198z" />
    <glyph glyph-name="uni2075" unicode="&#x2075;" horiz-adv-x="693" 
d="M70 1782h523v-143h-381v-233q8 8 120 8q104 0 178 -66q83 -72 83 -194v-274q0 -120 -83 -194q-74 -66 -178 -66t-179 66q-83 74 -83 194v70h142v-70q0 -58 36 -89q34 -29 84 -29q49 0 83 29q37 31 37 89v274q0 57 -37 88q-33 30 -83 30t-83 -29q-37 -32 -37 -129h-142
v668z" />
    <glyph glyph-name="uni2076" unicode="&#x2076;" horiz-adv-x="692" 
d="M332 1782q105 0 178 -67q82 -74 82 -195v-70h-140v70q0 58 -38 90q-33 29 -82 29q-50 0 -83 -29q-38 -32 -38 -90v-112q8 9 121 9q107 0 184 -77q76 -77 76 -184v-275q0 -108 -76 -184q-77 -77 -184 -77q-109 0 -186 77q-76 76 -76 184v639q0 121 83 195q73 67 179 67z
M332 1275q-51 0 -85 -34q-36 -36 -36 -85v-275q0 -48 36 -84q35 -35 85 -35q49 0 84 35q36 36 36 84v275q0 49 -36 85q-35 34 -84 34z" />
    <glyph glyph-name="uni2077" unicode="&#x2077;" 
d="M146 620l383 1019h-459v143h663l-437 -1162h-150z" />
    <glyph glyph-name="uni2078" unicode="&#x2078;" horiz-adv-x="693" 
d="M332 1782q105 0 178 -67q83 -74 83 -195v-92q0 -153 -65 -191q65 -38 65 -191v-165q0 -120 -83 -194q-73 -67 -178 -67q-106 0 -179 67q-83 74 -83 194v165q0 153 65 191q-65 38 -65 191v92q0 121 83 195q73 67 179 67zM452 1046q0 59 -38 91q-32 29 -81 29h-2
q-49 0 -82 -29q-38 -32 -38 -91v-165q0 -58 38 -90q33 -29 83 -29q49 0 82 29q38 32 38 90v165zM452 1520q0 58 -38 90q-33 29 -82 29q-50 0 -83 -29q-38 -32 -38 -90v-92q0 -59 38 -91q33 -29 82 -29h2q49 0 81 29q38 32 38 91v92z" />
    <glyph glyph-name="uni2079" unicode="&#x2079;" horiz-adv-x="693" 
d="M332 1782q107 0 184 -77q77 -78 77 -185v-639q0 -120 -83 -194q-73 -67 -178 -67q-106 0 -179 67q-83 74 -83 194v71h142v-71q0 -58 37 -90q33 -29 83 -29q49 0 82 29q38 32 38 90v113q-9 -10 -120 -10q-108 0 -186 76q-76 78 -76 186v274q0 107 76 185q78 77 186 77z
M452 1520q0 50 -35 85q-36 34 -85 34q-51 0 -85 -34q-35 -35 -35 -85v-274q0 -50 35 -85t85 -35q49 0 85 35q35 35 35 85v274z" />
    <glyph glyph-name="uni207A" unicode="&#x207a;" horiz-adv-x="696" 
d="M404 1182h192v-142h-192v-340h-141v340h-193v142h193v340h141v-340z" />
    <glyph glyph-name="uni207B" unicode="&#x207b;" horiz-adv-x="696" 
d="M70 1192h526v-142h-526v142z" />
    <glyph glyph-name="uni207C" unicode="&#x207c;" horiz-adv-x="696" 
d="M70 1322h526v-142h-526v142zM70 972h526v-142h-526v142z" />
    <glyph glyph-name="uni207D" unicode="&#x207d;" horiz-adv-x="502" 
d="M70 1503q0 107 76 185q77 77 185 77h71v-143h-71q-50 0 -84 -34q-36 -36 -36 -85v-989q0 -48 36 -84q35 -35 84 -35h71v-142h-71q-108 0 -185 77q-76 76 -76 184v989z" />
    <glyph glyph-name="uni207E" unicode="&#x207e;" horiz-adv-x="502" 
d="M402 514q0 -108 -76 -184q-77 -77 -184 -77h-72v142h72q48 0 83 35q36 36 36 84v989q0 49 -36 85q-34 34 -83 34h-72v143h72q107 0 184 -77q76 -78 76 -185v-989z" />
    <glyph glyph-name="uni2080" unicode="&#x2080;" horiz-adv-x="692" 
d="M332 922q107 0 184 -77q76 -78 76 -185v-639q0 -108 -76 -184q-77 -77 -184 -77q-109 0 -186 77q-76 76 -76 184v639q0 107 76 185q77 77 186 77zM452 660q0 49 -36 85q-35 34 -84 34q-51 0 -85 -34q-36 -36 -36 -85v-639q0 -48 36 -84q35 -35 85 -35q49 0 84 35
q36 36 36 84v639z" />
    <glyph glyph-name="uni2081" unicode="&#x2081;" horiz-adv-x="373" 
d="M273 922v-1162h-143v919l-62 -62l-101 99l206 206h100z" />
    <glyph glyph-name="uni2082" unicode="&#x2082;" horiz-adv-x="692" 
d="M331 922q107 0 181 -78q80 -84 80 -220v-29q0 -115 -70 -191q-40 -44 -139 -101q-91 -52 -123 -90q-49 -57 -49 -156v-155h381v-142h-522v297q0 151 81 247q48 55 162 121q78 46 102 71q37 40 37 99v29q0 78 -42 121q-32 34 -79 34t-80 -35q-40 -42 -40 -120v-72h-141v72
q0 136 80 220q74 78 181 78z" />
    <glyph glyph-name="uni2083" unicode="&#x2083;" horiz-adv-x="692" 
d="M331 922q106 0 179 -67q82 -74 82 -195v-129q0 -152 -65 -190q65 -38 65 -191v-129q0 -120 -82 -194q-73 -67 -179 -67q-105 0 -178 67q-83 74 -83 194v71h141v-71q0 -58 38 -90q33 -29 82 -29t83 29q38 32 38 90v129q0 58 -37 90q-33 29 -81 30h-149v141l149 1
q48 1 82 29q36 32 36 90v129q0 58 -38 90q-34 29 -83 29t-82 -29q-38 -32 -38 -90v-70h-141v70q0 121 83 195q73 67 178 67z" />
    <glyph glyph-name="uni2084" unicode="&#x2084;" horiz-adv-x="826" 
d="M616 121h110v-143h-110v-218h-141v218h-422l448 944h115v-801zM475 121v416l-198 -416h198z" />
    <glyph glyph-name="uni2085" unicode="&#x2085;" horiz-adv-x="693" 
d="M70 922h523v-143h-381v-233q8 8 120 8q104 0 178 -66q83 -72 83 -194v-274q0 -120 -83 -194q-74 -66 -178 -66t-179 66q-83 74 -83 194v70h142v-70q0 -58 36 -89q34 -29 84 -29q49 0 83 29q37 31 37 89v274q0 57 -37 88q-33 30 -83 30t-83 -29q-37 -32 -37 -129h-142v668
z" />
    <glyph glyph-name="uni2086" unicode="&#x2086;" horiz-adv-x="692" 
d="M332 922q105 0 178 -67q82 -74 82 -195v-70h-140v70q0 58 -38 90q-33 29 -82 29q-50 0 -83 -29q-38 -32 -38 -90v-112q8 9 121 9q107 0 184 -77q76 -77 76 -184v-275q0 -108 -76 -184q-77 -77 -184 -77q-109 0 -186 77q-76 76 -76 184v639q0 121 83 195q73 67 179 67z
M332 415q-51 0 -85 -34q-36 -36 -36 -85v-275q0 -48 36 -84q35 -35 85 -35q49 0 84 35q36 36 36 84v275q0 49 -36 85q-35 34 -84 34z" />
    <glyph glyph-name="uni2087" unicode="&#x2087;" 
d="M146 -240l383 1019h-459v143h663l-437 -1162h-150z" />
    <glyph glyph-name="uni2088" unicode="&#x2088;" horiz-adv-x="693" 
d="M332 922q105 0 178 -67q83 -74 83 -195v-92q0 -153 -65 -191q65 -38 65 -191v-165q0 -120 -83 -194q-73 -67 -178 -67q-106 0 -179 67q-83 74 -83 194v165q0 153 65 191q-65 38 -65 191v92q0 121 83 195q73 67 179 67zM452 186q0 59 -38 91q-32 29 -81 29h-2
q-49 0 -82 -29q-38 -32 -38 -91v-165q0 -58 38 -90q33 -29 83 -29q49 0 82 29q38 32 38 90v165zM452 660q0 58 -38 90q-33 29 -82 29q-50 0 -83 -29q-38 -32 -38 -90v-92q0 -59 38 -91q33 -29 82 -29h2q49 0 81 29q38 32 38 91v92z" />
    <glyph glyph-name="uni2089" unicode="&#x2089;" horiz-adv-x="693" 
d="M332 922q107 0 184 -77q77 -78 77 -185v-639q0 -120 -83 -194q-73 -67 -178 -67q-106 0 -179 67q-83 74 -83 194v71h142v-71q0 -58 37 -90q33 -29 83 -29q49 0 82 29q38 32 38 90v113q-9 -10 -120 -10q-108 0 -186 76q-76 78 -76 186v274q0 107 76 185q78 77 186 77z
M452 660q0 50 -35 85q-36 34 -85 34q-51 0 -85 -34q-35 -35 -35 -85v-274q0 -50 35 -85t85 -35q49 0 85 35q35 35 35 85v274z" />
    <glyph glyph-name="uni208A" unicode="&#x208a;" horiz-adv-x="696" 
d="M404 442h192v-142h-192v-340h-141v340h-193v142h193v340h141v-340z" />
    <glyph glyph-name="uni208B" unicode="&#x208b;" horiz-adv-x="696" 
d="M70 592h526v-142h-526v142z" />
    <glyph glyph-name="uni208C" unicode="&#x208c;" horiz-adv-x="696" 
d="M70 682h526v-142h-526v142zM70 332h526v-142h-526v142z" />
    <glyph glyph-name="uni208D" unicode="&#x208d;" horiz-adv-x="502" 
d="M70 510q0 107 76 185q77 77 185 77h71v-143h-71q-50 0 -84 -34q-36 -36 -36 -85v-989q0 -48 36 -84q35 -35 84 -35h71v-142h-71q-108 0 -185 77q-76 76 -76 184v989z" />
    <glyph glyph-name="uni208E" unicode="&#x208e;" horiz-adv-x="502" 
d="M402 -479q0 -108 -76 -184q-77 -77 -184 -77h-72v142h72q48 0 83 35q36 36 36 84v989q0 49 -36 85q-34 34 -83 34h-72v143h72q107 0 184 -77q76 -78 76 -185v-989z" />
  </font>
</defs>
</svg>
