<?xml version="1.0" standalone="no"?>
<!DOCTYPE svg PUBLIC "-//W3C//DTD SVG 1.1//EN" "http://www.w3.org/Graphics/SVG/1.1/DTD/svg11.dtd" >
<svg xmlns="http://www.w3.org/2000/svg" xmlns:xlink="http://www.w3.org/1999/xlink" version="1.1">
<metadata>
Created by FontForge 20141024 at Thu Jan 29 23:52:09 2015
 By System Administrator
Typeface (c) StudioTypo. 2015. All Rights Reserved
</metadata>
<defs>
<font id="MindBlueLight" horiz-adv-x="806" >
  <font-face 
    font-family="MindBlue Light"
    font-weight="300"
    font-stretch="normal"
    units-per-em="2048"
    panose-1="2 0 5 0 0 0 0 0 0 0"
    ascent="1638"
    descent="-410"
    x-height="1001"
    cap-height="1544"
    bbox="-400 -700 1929 1869"
    underline-thickness="150"
    underline-position="-142"
    unicode-range="U+001D-F002"
  />
<missing-glyph horiz-adv-x="1253" 
d="M85 1534h1068v-1646h-1068v1646zM142 -50h954v1515h-954v-1515z" />
    <glyph glyph-name=".notdef" horiz-adv-x="1253" 
d="M85 1534h1068v-1646h-1068v1646zM142 -50h954v1515h-954v-1515z" />
    <glyph glyph-name=".null" horiz-adv-x="200" 
 />
    <glyph glyph-name=".null" horiz-adv-x="200" 
 />
    <glyph glyph-name="nonmarkingreturn" horiz-adv-x="200" 
 />
    <glyph glyph-name="space" unicode=" " horiz-adv-x="551" 
 />
    <glyph glyph-name="space" unicode="&#xa0;" horiz-adv-x="551" 
 />
    <glyph glyph-name="exclam" unicode="!" horiz-adv-x="307" 
d="M177 302h-45v1243h45v-1243zM187 0h-67v67h67v-67z" />
    <glyph glyph-name="quotedbl" unicode="&#x22;" horiz-adv-x="387" 
d="M100 1544h47v-157l-10 -147h-27l-10 147v157zM240 1544h47v-157l-10 -147h-27l-10 147v157z" />
    <glyph glyph-name="numbersign" unicode="#" horiz-adv-x="1063" 
d="M641 535l68 465h-289l-68 -465h289zM228 10l70 480h-198v45h205l69 465h-274v45h281l72 489h45l-72 -489h290l72 489h46l-73 -489h202v-45h-208l-68 -465h276v-45h-283l-71 -480h-45l71 480h-290l-71 -480h-46z" />
    <glyph glyph-name="dollar" unicode="$" horiz-adv-x="771" 
d="M482 1547q79 0 134 -110q55 -111 55 -270v-23h-46v23q0 142 -46 241q-44 92 -97 92h-73v-704h73q79 0 134 -109q55 -110 55 -269v-38q0 -159 -55 -269q-55 -109 -134 -109h-73v-99h-46v99h-74q-79 0 -134 109q-55 110 -55 269v23h45v-23q0 -141 47 -240q44 -93 97 -93h74
v704h-74q-79 0 -134 110q-55 109 -55 269v37q0 159 55 270q55 110 134 110h74v98h46v-98h73zM409 751v-704h73q53 0 97 93q46 99 46 240v38q0 140 -46 240q-44 93 -97 93h-73zM363 1500h-74q-53 0 -97 -92q-47 -99 -47 -241v-37q0 -141 47 -241q44 -93 97 -93h74v704z" />
    <glyph glyph-name="percent" unicode="%" horiz-adv-x="947" 
d="M371 1080q0 -70 -40 -120q-40 -49 -95 -49q-57 0 -97 49q-39 50 -39 120v295q0 70 39 120q40 50 97 50q55 0 95 -50t40 -120v-295zM236 956q36 0 62 37q28 37 28 87v295q0 51 -28 88q-26 37 -62 37q-37 0 -64 -37t-27 -88v-295q0 -50 27 -87t64 -37zM711 636q56 0 95 -50
q41 -50 41 -121v-294q0 -70 -41 -120q-39 -50 -95 -50q-55 0 -96 50q-39 50 -39 120v294q0 71 39 121q41 50 96 50zM802 465q0 51 -27 88q-27 36 -64 36t-63 -36q-27 -37 -27 -88v-294q0 -52 27 -87q26 -38 63 -38t64 38q27 35 27 87v294zM292 0l317 1544h46l-317 -1544h-46
z" />
    <glyph glyph-name="ampersand" unicode="&#x26;" horiz-adv-x="832" 
d="M403 46q174 0 236 146q-23 34 -65 96q-237 354 -313 477l-10 -7q-106 -70 -106 -213v-243q0 -123 83 -195q72 -61 175 -61zM768 0l-100 149q-82 -149 -265 -149q-122 0 -208 77q-95 85 -95 225v243q0 168 126 251v1l11 6q-137 231 -137 356v82q0 141 85 226q76 77 188 77
t187 -77q86 -85 86 -226v-23h-46v23q0 125 -72 195q-62 63 -155 63t-155 -63q-73 -70 -73 -195v-82q0 -105 114 -301q76 -134 354 -545q21 -32 43 -64q4 26 4 53v267h46v-267q0 -56 -17 -103l133 -199h-54z" />
    <glyph glyph-name="quotesingle" unicode="'" horiz-adv-x="247" 
d="M100 1544h47v-157l-10 -147h-27l-10 147v157z" />
    <glyph glyph-name="parenleft" unicode="(" horiz-adv-x="526" 
d="M100 1241q0 125 89 214q88 89 214 89h23v-45h-23q-107 0 -182 -77q-76 -75 -76 -181v-1438q0 -107 76 -182q75 -76 182 -76h23v-45h-23q-126 0 -214 88q-89 89 -89 215v1438z" />
    <glyph glyph-name="parenright" unicode=")" horiz-adv-x="526" 
d="M426 -197q0 -126 -89 -215q-88 -88 -214 -88h-23v45h23q107 0 182 76q76 75 76 182v1438q0 106 -76 181q-75 77 -182 77h-23v45h23q126 0 214 -89q89 -89 89 -214v-1438z" />
    <glyph glyph-name="asterisk" unicode="*" horiz-adv-x="708" 
d="M591 1339l17 -42l-221 -94l136 -247l-39 -22l-130 233l-130 -233l-39 22l137 247l-222 94l17 42l214 -91v297h45l1 -297z" />
    <glyph glyph-name="plus" unicode="+" horiz-adv-x="810" 
d="M427 775h283v-46h-283v-499h-45v499h-282v46h282v499h45v-499z" />
    <glyph glyph-name="comma" unicode="," horiz-adv-x="267" 
d="M167 0q0 -24 -12 -51q-10 -19 -23 -32l-24 21q17 26 17 62h-25v67h67v-67z" />
    <glyph glyph-name="hyphen" unicode="-" horiz-adv-x="810" 
d="M100 766h610v-46h-610v46z" />
    <glyph glyph-name="hyphen" unicode="&#xad;" horiz-adv-x="810" 
d="M100 766h610v-46h-610v46z" />
    <glyph glyph-name="period" unicode="." horiz-adv-x="1547" 
d="M100 -82v1710h1335v-1710h-1335zM165 -22h1204v1590h-1204v-1590zM262 1374h28q30 0 42 -53q2 -23 2 -35v-4h-23v2q-5 34 -20 34h-32q-12 0 -19 -28q6 -28 16 -28q0 -3 14 -3h24q28 0 46 -55q4 -21 4 -50q0 -76 -39 -99q-9 -3 -14 -3h-20q-35 0 -49 60v54h17
q0 -27 16 -50q9 -8 15 -8h23q8 0 19 16q10 19 10 30v3q-7 46 -31 46q0 1 -7 1h-23q-30 0 -39 44v81q10 45 40 45zM378 1374h22v-85h20v-56h-20v-164q0 -40 19 -52q4 -1 9 -1v-55h-5q-34 0 -44 68q-1 6 -1 19v185h-18v56h18v85zM651 1374h21v-322h-21v7q-11 -7 -17 -7h-24
q-36 0 -41 64v111q0 40 30 61l8 1h23q13 0 21 -8v93zM699 1374h22v-56h-22v56zM865 1374h138v-56h-59v-266h-22v266h-57v56zM797 1290h6q28 0 36 -21q13 -17 13 -53v-89q0 -56 -30 -72q-4 -3 -9 -3h-24q-35 0 -41 66v106q0 44 29 64q9 2 20 2zM1290 1290h6q28 0 36 -21
q8 -9 8 -19v-157q-11 -41 -35 -41h-23q-35 0 -42 64v108q0 44 30 64q9 2 20 2zM443 1289h23v-149q0 -26 18 -32h24q15 0 18 38v143h22v-237h-22v7q-10 -7 -18 -7h-23q-32 0 -42 56v181zM699 1289h22v-237h-22v237zM990 1289h22v-140q0 -42 23 -42h16q19 0 23 32v150h22v-253
q-2 -66 -37 -75h-69v56h57q27 0 27 35v6q-9 -8 -29 -8h-4q-31 0 -40 23q-11 15 -11 67v149zM1117 1289h21v-7q9 7 17 7h23q36 0 42 -68v-87q0 -60 -28 -76q-5 -3 -17 -3h-13q-15 0 -24 6v-94h-21v322zM769 1201v-61q0 -25 19 -32h24q18 6 18 34v57q0 35 -25 35h-14
q-11 0 -16 -10q-6 -10 -6 -23zM1138 1140q0 -27 22 -30h13q17 0 23 17q1 10 1 15v59q-2 33 -19 33h-18q-18 0 -22 -29v-65zM1262 1201v-61q0 -25 19 -32h24q18 6 18 34v57q0 35 -25 35h-14q-12 0 -16 -10q-6 -10 -6 -23zM590 1201v-62q4 -31 19 -31h24q17 0 18 42v37
q0 35 -14 44l-6 2h-22q-19 -6 -19 -32zM471 1026h8v-18h6q10 0 10 -15v-33h-8v30q0 6 -3 7h-2q-3 0 -3 -9v-28h-8v66zM781 1026h8v-18h6q10 0 10 -21v-27h-9v36l-5 1l-2 -4v-33h-8v66zM916 1026h8v-18h5v-11h-5v-16q0 -8 6 -8v-13h-1q-10 0 -13 18v19h-3v11h3v18zM450 1008
h11q3 0 5 -10v-3l-8 -2q0 4 -2 4h-1q-2 0 -3 -4v-14v-6h4q2 0 2 5l8 -3v-3q-1 -12 -10 -12q-13 1 -13 13v22q0 9 7 13zM508 1008h6q11 0 11 -24t-14 -24q-10 2 -10 15v21q0 9 7 12zM537 1008h9q8 -4 8 -13v-22q0 -12 -13 -13q-12 0 -12 20v10q0 15 8 18zM564 1008h10
q4 -5 4 -17h-3q5 -7 5 -15q-1 -16 -11 -16q-11 2 -11 15v6h6v1q-6 1 -6 9v6q0 9 6 11zM590 1008h11q6 -4 6 -11v-15h-14v-7q0 -2 2 -2h3l1 6h8v-4q0 -15 -12 -15q-11 0 -11 26v1q0 17 6 21zM628 1008h8v-24l1 -11h6l2 6v29h7v-51q0 -10 -7 -14h-9q-6 0 -6 20h3q-5 5 -5 18
v27zM665 1008h10q8 -3 8 -18v-10q0 -20 -12 -20q-13 1 -13 13v22q0 9 7 13zM687 1008h9v-33q1 -2 2 -2h4l1 6v29h8v-48h-10q-14 0 -14 24v24zM716 1008h17v-11q-8 0 -8 -7v-30h-9v48zM759 1008h10q8 -3 8 -12q-5 -3 -9 -3q0 4 -3 4h-2q-1 0 -1 -2v-20q0 -2 1 -2h5v5h3
q6 -3 6 -6q0 -11 -14 -12q-11 0 -11 26v1q0 17 7 21zM815 1008h9q8 0 8 -22v-10q2 -8 2 -9l-2 -8h-3q-2 0 -2 2q-4 -2 -7 -2h-2q-9 5 -9 17q0 9 4 14v1h-3v6q0 9 5 11zM837 1008h16v-11q-8 0 -8 -8v-29h-8v48zM863 1008h11q6 -2 6 -15v-17q0 -4 3 -6q-2 -11 -4 -11h-3
q0 2 -1 2q-4 -2 -7 -2q-9 0 -10 14v7q0 7 4 11h-4v5q2 12 5 12zM892 1008h11q6 -3 6 -12q-4 -3 -8 -3q0 4 -3 4h-1q-2 0 -2 -2v-20q0 -2 2 -2h3q1 0 1 5h3q5 -3 5 -6q0 -12 -12 -12q-11 0 -11 27q0 17 6 21zM942 1008h6q10 0 10 -12v-14h-15v-7q0 -2 2 -2h2q3 0 3 6h9
q0 -19 -14 -19q-10 2 -10 15v21q0 9 7 12zM964 1008h16v-11q-9 0 -9 -8v-29h-7v48zM511 997l-3 -4v-18q1 -2 3 -2h2q3 0 3 2v21zM537 988v-6q0 -8 4 -9h4l1 6v14q0 2 -4 4h-1q-4 0 -4 -9zM566 997v-4h4v4h-4zM593 995h5q0 2 -2 2h-1q-2 0 -2 -2zM666 993v-14l1 -6h4q3 1 3 9
v6q0 9 -3 9h-2q-1 0 -3 -4zM818 995v-2h4v4h-2q-2 0 -2 -2zM866 995v-2h5v4h-3q-2 0 -2 -2zM945 997l-1 -2h6v1zM566 981v-6q0 -2 3 -2h2q0 3 1 3q-1 3 -1 5h-5zM818 979v-4q0 -3 2 -3t2 3v6h-2q-2 0 -2 -2zM866 979v-1l1 -6h1q3 1 3 9h-3q-2 0 -2 -2zM637 960v-3q1 -2 3 -2
v0q2 0 5 3v2h-8zM725 791h3l11 -1v-18q2 -70 2 -126l-7 -2h-6q-3 71 -3 138v3v6zM1224 791h1l14 -1q-1 -9 -1 -13q0 -55 3 -131l-11 -2h-4q-2 58 -3 129q1 12 1 18zM790 786h4q0 -2 7 -12q-4 -18 -4 -30v-18q0 -44 15 -58h1q21 0 35 117h2q12 -4 13 -4q-6 -58 -6 -86
q0 -31 12 -31q2 -16 2 -20h-8q-13 0 -20 32h-1q-11 -28 -27 -28h-5q-20 0 -27 61q-1 4 -1 22v11q0 25 8 44zM1094 786h6q12 0 28 -28q12 -22 12 -44v-9q0 -37 -40 -58q-7 -3 -14 -3h-7q-30 0 -35 43v9q0 50 40 88q8 2 10 2zM249 782h9q28 -5 28 -40q0 -34 -33 -49
q-12 -5 -27 -7v-37h-1q-5 0 -14 3v34h-5l-5 1q0 11 5 19h5v0q0 41 -6 41q-6 7 -6 11q18 24 50 24zM1059 696v-8q0 -21 25 -24q22 0 37 27q5 8 5 18v3q0 27 -26 53q-3 0 -3 2q-17 0 -35 -50q-3 -11 -3 -21zM224 755q1 -35 1 -47q1 0 1 -2q29 6 37 17q8 10 8 18q0 18 -15 21
h-6q-26 -3 -26 -7zM404 758q19 0 28 -49q-1 0 -15 -4q-6 33 -13 33q-17 -9 -20 -75q1 -14 1 -15q-10 -2 -15 -2q-13 69 -13 87q12 2 15 2v-1q0 -4 3 -19h1q10 43 28 43zM537 752q20 0 33 -32q2 -9 2 -17v-3q0 -36 -35 -53q-5 -1 -9 -1q-27 4 -27 38q0 50 25 65q2 1 11 3z
M614 752q19 0 36 -89q1 0 1 -7q-8 -7 -12 -7q-15 62 -23 80q-9 -13 -18 -70q-1 0 -5 -10h-7q-7 0 -9 57q-2 14 -2 23q7 2 14 2q3 -17 3 -20h1q7 41 21 41zM1185 752q16 0 35 -96q-9 -7 -13 -7q-15 66 -24 80q-6 -12 -19 -74q-3 -6 -4 -6h-6q-7 0 -10 80q6 2 15 2
q1 -19 1 -22h1q7 43 24 43zM472 750q18 -5 18 -17v-1q0 -2 -10 -8h-1q-4 7 -13 7q-13 0 -16 -11q0 -5 29 -6q20 -11 20 -34q0 -25 -20 -34l-8 -2h-5q-24 0 -34 23v1q1 3 9 11h1q12 -15 28 -15q14 4 14 16q-4 15 -21 15q-28 0 -28 22v3q0 30 37 30zM912 750q13 0 20 -18v-1
q-11 -7 -14 -7q0 6 -11 7q-12 0 -17 -10v-1q0 -5 29 -6q19 -9 19 -36q0 -26 -24 -34h-8q-23 0 -35 23v1q8 11 10 11h1q12 -15 27 -15q14 4 14 16t-16 15q-25 0 -30 11q-2 11 -2 14q0 30 37 30zM1249 749v0q13 -2 14 -2q-1 -18 -1 -26v-9q2 -35 13 -35h1q18 13 18 67v0h15v-3
q7 -78 7 -88q0 -46 -30 -56h-5h-5q-18 0 -23 19q-1 5 -1 10v0q0 15 3 15h1q9 -6 12 -6l-1 -9q0 -8 9 -9h2q23 0 23 42q0 5 -1 21h-1q-8 -24 -26 -24h-1q-19 0 -25 47v17q0 10 2 29zM331 748q23 -4 23 -22v-6q0 -20 -39 -36h-10q0 -11 17 -16q11 0 21 18h4q8 -12 8 -15
q-17 -22 -30 -22h-7q-26 0 -30 45q0 40 32 53zM681 748h11q27 -9 27 -45q-1 -21 -1 -35l2 -16q-9 -8 -13 -8h-1l-2 11q-12 -8 -23 -8h-7q-22 3 -22 21v8q0 30 32 35q11 -1 20 -6v1q-4 25 -17 25q-9 0 -18 -10h-3q-2 1 -8 11v2q12 14 23 14zM983 748q24 -4 24 -23
q0 -29 -42 -41h-7v-2q7 -14 16 -14q10 0 23 18h1q1 0 9 -12q0 -9 -21 -22q-4 -3 -9 -3h-7q-24 0 -29 44q0 40 30 54zM516 685q2 -18 12 -18h3q24 7 26 35v3q-6 26 -20 26h-2q-13 0 -18 -32q-1 -7 -1 -14zM305 705q19 0 33 18v2q-7 2 -9 2q-16 0 -24 -19v-3zM958 705h3
q17 0 31 19q-6 3 -9 3h-3q-16 0 -22 -21v-1zM667 674v-3q0 -3 10 -6q17 0 25 17q-8 7 -19 7q-16 -3 -16 -15zM618 544q13 0 15 -34v-3l-6 -1h-2q-3 21 -8 21q-6 0 -8 -19q1 -2 1 -4q0 -10 2 -39q5 3 9 3h3v-15l-11 -3q5 -57 5 -69h-11q-4 54 -4 65h-1q-5 -2 -10 -2v17
q6 0 10 2q-3 21 -3 52q3 29 17 29h2zM816 544q12 0 16 -37l-8 -1h-2v1q0 15 -7 20q-8 -5 -8 -15q0 -8 3 -46v-1q5 3 10 3h1l1 -8v-7q-1 0 -12 -3l2 -3q0 -12 4 -66h-11q0 6 -4 65q-9 -2 -12 -2v17l11 1q-3 46 -3 52q0 30 19 30zM709 527h4h6v-9q0 -61 3 -132h-11
q-2 65 -2 102v39zM735 527h1h8v-30q0 -32 3 -111h-11q-3 66 -3 136v3q0 2 2 2zM529 524q8 -2 10 -2q-2 -29 -2 -42h2l12 2v-17q-1 0 -14 -2l4 -74l-2 -2h-8q-3 29 -5 75h-13v16l11 1h2v18q0 27 3 27zM994 524q3 0 12 -2q-3 -13 -3 -29v-13h3l12 2v-17h-3l-12 -2l5 -74l-5 -2
h-6q-3 62 -3 75h-15l1 8v8l11 1h1v1q0 21 2 44zM1140 524q3 0 12 -2q-2 -18 -2 -34v-8h2l12 2v-8v-9q-1 0 -14 -2v-6q0 -15 4 -68l-2 -2h-9l-4 75h-13v16l11 1h1zM404 521h10q14 0 23 -23q-6 -6 -6 -9h-3q-9 15 -21 15q-17 0 -35 -26q-9 -19 -9 -34v-5q0 -29 24 -35
q2 -1 8 -1q31 3 31 20v10q-4 3 -12 3h-10v17q28 0 33 -9q2 -7 2 -9q-2 -25 -2 -29q0 -11 4 -26q-1 0 -8 -5h-1q-4 0 -6 22q-6 -8 -29 -12h-2q-38 0 -43 51v4q0 58 45 79zM866 489q23 0 34 -38v-14q0 -34 -34 -50l-7 -1q-16 0 -24 20q-2 11 -2 17v4q0 41 19 57q8 5 14 5z
M943 489q15 0 34 -94h-1q-5 -4 -9 -4q-15 67 -24 79q-7 -7 -23 -79l-2 -1h-4q-6 0 -9 76l8 2h2q3 -16 3 -33h1q9 54 24 54zM487 485q20 -4 20 -20q1 0 1 -2q0 -23 -35 -36q-5 -3 -15 -3v-1q0 -11 17 -17h1q10 0 23 16h3q0 -2 6 -9v-1q-14 -22 -29 -22h-6q-19 0 -27 32v15
q0 33 26 46q5 2 15 2zM1083 485h11q16 0 24 -28q2 -16 3 -18q-1 -6 -3 -26q2 -4 2 -23l-6 -4h-3l-3 12q-10 -11 -25 -11h-4q-21 3 -21 20v8q3 32 30 32q12 0 21 -8v3q0 25 -18 29h-3q-6 0 -17 -8h-1q-1 0 -6 7v2q10 13 19 13zM634 483q2 0 11 -3q0 -74 14 -74q19 12 28 66
q1 5 1 11h1q3 0 10 -3q-3 -24 -3 -45v-12q0 -9 5 -19q-5 -7 -5 -11h-2q-7 4 -8 26h-2q-4 -15 -19 -29h-9q-20 0 -20 75v10zM843 427q2 -23 15 -23h1q16 0 27 25q3 8 3 11q-6 31 -22 31h-4q-15 0 -20 -44zM457 440q23 0 39 22q-2 6 -11 6h-3q-19 0 -25 -28zM1068 412
q3 -8 11 -8h6q14 0 22 18q-9 8 -17 8h-2q-20 -3 -20 -18zM507 295q1 0 17 -4q-4 -38 -5 -92q0 -34 10 -69q-11 -10 -12 -10h-1q-3 0 -6 13h-2q0 -8 -21 -16q-33 0 -47 42q-3 12 -3 28q0 48 34 58h4q14 0 29 -16v1q0 8 3 65zM316 289l15 -5q-2 -23 -2 -36v-14q13 3 15 3
q2 -20 2 -24h-2q-9 -1 -15 -1q3 -63 5 -91q-12 -2 -17 -2v1q-5 61 -5 88l-2 2h-14v24h15v9q0 46 5 46zM674 289h1l15 -5q-2 -28 -2 -45v-5q14 3 16 3l1 -14v-10q-16 -1 -16 -2q0 -23 5 -90q-13 -2 -17 -2v1q-5 75 -5 90h-18v24h17q0 34 3 55zM546 286q9 0 11 -14v-1
q0 -11 -8 -16h-7q-8 5 -8 17q2 14 12 14zM607 245q25 0 41 -38q2 -11 2 -17v-9q0 -40 -39 -60q-4 -2 -13 -2q-27 0 -32 41v14q0 51 30 69q10 2 11 2zM800 245h5q11 0 11 -3v-2q9 5 19 5q25 0 33 -44q0 -11 1 -14q-3 -52 -31 -64l-8 -1h-10l1 -8q0 -6 1 -40h-17
q-5 132 -5 171zM915 245q23 0 39 -35q4 -13 4 -24q0 -43 -38 -65q-8 -2 -14 -2q-22 0 -31 27q-2 12 -2 23q0 54 30 74q11 2 12 2zM1117 245q24 0 39 -35q4 -8 4 -19v-8q0 -43 -39 -62q-4 -2 -13 -2q-28 0 -32 41v14q0 51 30 69q10 2 11 2zM1211 245q17 0 27 -58h1
q8 58 27 58h1q24 0 40 -118h-2q-11 -5 -13 -5h-1q-19 98 -25 98q-10 -22 -17 -82q-3 -10 -10 -10q-8 0 -11 15q-13 76 -19 76q-16 -58 -16 -93q-10 -4 -17 -4v1l-12 104q13 6 17 6q2 -8 4 -31h2q9 43 24 43zM258 244q24 -5 24 -21v-1q-1 -2 -12 -9h-3q0 7 -13 8h-1
q-13 0 -20 -10v-4q0 -6 31 -6q27 -12 27 -38v-5q0 -28 -22 -38q-5 -3 -10 -3h-9q-23 0 -39 25q0 5 11 16h3q8 -18 30 -18q18 0 18 20q0 15 -21 18q-27 0 -32 12q-4 8 -4 12v8q0 34 42 34zM713 243q12 -4 15 -4q-1 -23 -1 -34v-6q0 -33 12 -44h5q22 18 22 72v10h17v-1
q8 -89 8 -103v-10q0 -44 -28 -60q-10 -4 -16 -4q-22 0 -29 20q-2 4 -2 9v9q0 15 4 15l14 -7l-1 -8v-4q0 -8 11 -10h4q20 0 25 33q1 4 1 12v20l-1 13h-1q-10 -30 -29 -30h-2q-23 0 -30 50q-1 8 -1 20v9q0 33 3 33zM1033 242h8q6 0 15 -9q11 -12 11 -18q-11 -13 -12 -13v0
q-11 15 -18 15h-2q-12 -5 -18 -28l-4 -21q0 -22 14 -24h3q11 0 34 16h1q6 -20 6 -22q-25 -18 -47 -18q-23 0 -28 46q0 34 19 64q12 12 18 12zM537 240h12l6 -1q0 -3 -1 -8q1 -67 4 -109h-18l-1 8q-2 68 -2 110zM350 239q17 -5 17 -6v-20q0 -67 12 -67h5q17 19 24 55
q5 10 6 38h2q15 -2 15 -6q-3 -42 -3 -59v-10q0 -10 5 -20q0 -6 -10 -18v0q-12 12 -12 25h-1q-11 -29 -28 -29h-3q-29 0 -29 93v24zM454 183q0 -34 30 -40h3q12 0 15 26v3q0 36 -21 48l-6 1h-2q-17 0 -19 -35v-3zM583 168q0 -22 15 -25h4q15 0 29 29q2 4 2 9v9q-7 31 -24 31
h-2q-21 0 -24 -53zM816 213q0 -3 3 -67l7 -1q22 0 26 42q-3 34 -17 34h-1q-10 0 -18 -8zM890 168v-5q0 -17 15 -20h2q16 0 30 26q4 8 4 18q-6 34 -28 34q-19 0 -23 -53zM1092 168q0 -25 17 -25h3q14 0 29 30q2 6 2 10v7q-8 31 -25 31h-1q-20 0 -25 -53zM977 154q9 0 12 -14
v-5q-3 -13 -12 -13t-11 15q1 17 11 17z" />
    <glyph glyph-name="slash" unicode="/" horiz-adv-x="502" 
d="M20 -500l416 2044h46l-415 -2044h-47z" />
    <glyph glyph-name="zero" unicode="0" 
d="M403 1544q125 0 213 -89q90 -89 90 -214v-938q0 -126 -90 -215q-88 -88 -213 -88q-126 0 -214 88q-89 89 -89 215v938q0 125 89 214q88 89 214 89zM660 1241q0 106 -75 181q-76 77 -182 77q-107 0 -182 -77q-76 -75 -76 -181v-938q0 -107 76 -182q75 -76 182 -76
q106 0 182 76q75 75 75 182v938z" />
    <glyph glyph-name="one" unicode="1" horiz-adv-x="362" 
d="M262 1544v-1544h-46v1466l-174 -175l-32 33l221 220h31z" />
    <glyph glyph-name="two" unicode="2" horiz-adv-x="804" 
d="M403 1544q120 0 205 -87q96 -97 96 -269v-42q0 -137 -83 -228q-50 -55 -182 -132q-146 -83 -202 -148q-92 -108 -92 -283v-310h559v-45h-604v355q0 191 102 312q60 71 214 159q126 73 171 121q72 78 72 199v42q0 149 -81 235q-73 76 -175 76q-103 0 -177 -76
q-81 -86 -81 -235v-23h-45v23q0 172 96 269q85 87 207 87z" />
    <glyph glyph-name="three" unicode="3" 
d="M403 1544q122 0 207 -78q96 -84 96 -225v-190q0 -207 -184 -280q184 -72 184 -279v-190q0 -141 -96 -225q-85 -77 -207 -77t-208 77q-95 84 -95 225v23h45v-23q0 -123 83 -195q72 -62 175 -62t175 62q82 72 82 195v190q0 122 -80 194q-71 61 -173 63h-138v46h137
q102 1 173 63q81 71 81 193v190q0 124 -82 195q-72 63 -175 63t-175 -63q-83 -71 -83 -195v-23h-45v23q0 141 95 225q86 78 208 78z" />
    <glyph glyph-name="four" unicode="4" horiz-adv-x="980" 
d="M719 367h161v-46h-161v-321h-45v321h-574l582 1223h37v-1177zM674 367v1053l-502 -1053h502z" />
    <glyph glyph-name="five" unicode="5" 
d="M100 1544h606v-45h-561v-630q85 134 258 134q122 0 207 -76q96 -84 96 -224v-403q0 -140 -96 -225q-85 -75 -207 -75t-208 75q-95 85 -95 225v22h45v-22q0 -123 83 -193q72 -62 175 -62t175 62q82 70 82 193v403q0 121 -80 191q-73 64 -177 64q-103 0 -175 -61
q-83 -71 -83 -194h-45v841z" />
    <glyph glyph-name="six" unicode="6" 
d="M403 1544q122 0 209 -78q94 -84 94 -225v-23h-46v23q0 124 -82 195q-72 63 -175 63q-102 0 -175 -63q-82 -71 -82 -195v-377q89 144 257 144q125 0 214 -88q89 -89 89 -215v-402q0 -126 -89 -215q-89 -88 -214 -88q-126 0 -214 88q-89 89 -89 215v938q0 141 95 225
q86 78 208 78zM403 963q-106 0 -181 -76q-76 -75 -76 -182v-402q0 -107 76 -182q75 -76 181 -76t182 76q75 75 75 182v402q0 107 -75 182q-76 76 -182 76z" />
    <glyph glyph-name="seven" unicode="7" horiz-adv-x="976" 
d="M249 0l562 1500h-711v45h776l-579 -1545h-48z" />
    <glyph glyph-name="eight" unicode="8" 
d="M403 1544q122 0 207 -78q96 -84 96 -225v-137q0 -206 -184 -279q184 -72 184 -280v-243q0 -141 -96 -225q-85 -77 -207 -77t-208 77q-95 84 -95 225v243q0 208 183 280q-183 73 -183 279v137q0 141 95 225q86 78 208 78zM660 545q0 124 -81 195q-72 62 -175 63h-2
q-102 -1 -174 -63q-83 -71 -83 -195v-243q0 -123 83 -195q72 -62 175 -62t175 62q82 72 82 195v243zM660 1241q0 124 -82 195q-72 63 -175 63t-175 -63q-83 -71 -83 -195v-137q0 -123 83 -193q72 -63 174 -63h2q103 0 175 63q81 70 81 193v137z" />
    <glyph glyph-name="nine" unicode="9" 
d="M403 1544q125 0 214 -89t89 -214v-939q0 -141 -96 -225q-85 -77 -207 -77t-208 77q-95 84 -95 225v23h45v-23q0 -123 83 -195q73 -62 175 -62q103 0 175 62q82 72 82 195v377q-89 -144 -257 -144q-126 0 -214 89q-89 88 -89 214v403q0 125 89 214q88 89 214 89zM660 1241
q0 106 -75 181q-76 77 -182 77t-181 -77q-77 -75 -77 -181v-403q0 -107 77 -183q75 -75 181 -75t182 75q75 76 75 183v403z" />
    <glyph glyph-name="colon" unicode=":" horiz-adv-x="267" 
d="M100 67h67v-67h-67v67zM100 1001h67v-67h-67v67z" />
    <glyph glyph-name="semicolon" unicode=";" horiz-adv-x="267" 
d="M167 0q0 -24 -12 -51q-10 -19 -23 -32l-24 21q17 26 17 62h-25v67h67v-67zM100 1001h67v-67h-67v67z" />
    <glyph glyph-name="semicolon" unicode="&#x37e;" horiz-adv-x="267" 
d="M167 0q0 -24 -12 -51q-10 -19 -23 -32l-24 21q17 26 17 62h-25v67h67v-67zM100 1001h67v-67h-67v67z" />
    <glyph glyph-name="less" unicode="&#x3c;" horiz-adv-x="799" 
d="M789 327l-779 444l779 444v-50l-696 -394l696 -396v-48z" />
    <glyph glyph-name="equal" unicode="=" horiz-adv-x="810" 
d="M100 966h610v-46h-610v46zM100 566h610v-46h-610v46z" />
    <glyph glyph-name="greater" unicode="&#x3e;" horiz-adv-x="799" 
d="M10 375l696 396l-696 394v50l779 -444l-779 -444v48z" />
    <glyph glyph-name="question" unicode="?" 
d="M403 1544q122 0 207 -78q96 -85 96 -225v-190q0 -122 -55 -187q-34 -39 -119 -81q-87 -42 -120 -84q-52 -68 -52 -207v-187h-45v187q0 156 63 238q38 48 134 94q76 38 104 70q44 52 44 157v190q0 124 -82 195q-72 63 -175 63t-175 -63q-83 -71 -83 -195v-23h-45v23
q0 140 95 225q86 78 208 78zM310 67h67v-67h-67v67z" />
    <glyph glyph-name="at" unicode="@" horiz-adv-x="1184" 
d="M592 1544q203 0 347 -227q145 -227 145 -546q0 -149 -36 -287l1 1l-1 -2l-6 -22q-21 -72 -67 -118q-48 -45 -101 -45q-6 0 -12 1q-87 10 -112 129q-46 -79 -115 -79h-129q-63 0 -107 67q-44 68 -44 162t44 161t107 67h129q61 0 82 18q23 18 24 78v60h-1l1 21v4
q0 109 -51 160q-24 25 -55 25h-129q-43 0 -74 -55q-32 -53 -32 -129v-22h-45v22q0 95 44 163q44 66 107 66h129q51 0 88 -37q54 -56 63 -162h1v-499q0 -166 80 -176h7q35 0 69 35q43 42 59 110l2 5l5 22q29 124 29 256q0 301 -131 514q-131 214 -315 214q-185 0 -316 -214
q-131 -213 -131 -514q0 -300 131 -513t316 -213q62 0 122 28l21 9l18 -41l-21 -10q-68 -31 -140 -31q-203 0 -348 226q-144 226 -144 545t144 546q145 227 348 227zM635 394q43 0 74 55q32 54 32 129v206q-33 -23 -106 -23h-129q-43 0 -74 -55q-32 -54 -32 -128
q0 -75 32 -129q31 -55 74 -55h129z" />
    <glyph glyph-name="A" unicode="A" horiz-adv-x="854" 
d="M634 641l-206 795l-205 -795h411zM10 0l399 1544h38l397 -1544h-46l-153 596h-434l-154 -596h-47z" />
    <glyph glyph-name="B" unicode="B" 
d="M402 796q106 4 178 80q81 86 81 233v82q0 154 -49 223q-59 85 -209 85h-258v-703h257zM661 439q0 147 -81 233q-72 75 -178 79h-257v-706l257 1q155 0 215 95q44 70 44 215v83zM706 1109q0 -129 -59 -219q-52 -80 -139 -116q87 -36 139 -116q59 -91 59 -219v-83
q0 -157 -51 -239q-72 -116 -252 -117h-303v1544h303q181 0 252 -115q51 -81 51 -238v-82z" />
    <glyph glyph-name="C" unicode="C" 
d="M403 1544q122 0 206 -86q97 -97 97 -266v-24h-46v24q0 147 -82 233q-72 74 -175 74t-177 -75q-81 -86 -81 -232v-839q0 -149 83 -234q72 -74 175 -74t175 74q82 85 82 234v22h46v-22q0 -171 -97 -268q-84 -85 -206 -85q-121 0 -206 85q-97 97 -97 268v839q0 169 97 266
q85 86 206 86z" />
    <glyph glyph-name="D" unicode="D" 
d="M403 1544q124 0 213 -89q90 -89 90 -214v-938q0 -126 -90 -215q-89 -88 -213 -88h-303v1544h303zM659 1241q0 106 -75 181q-76 77 -181 77h-258v-1454h258q105 0 181 76q75 75 75 182v938z" />
    <glyph glyph-name="E" unicode="E" 
d="M100 1544h606v-45h-561v-703h561v-45h-561v-706h561v-45h-606v1544z" />
    <glyph glyph-name="F" unicode="F" 
d="M100 1544h606v-45h-561v-703h561v-45h-561v-751h-45v1544z" />
    <glyph glyph-name="G" unicode="G" 
d="M403 1544q125 0 213 -89q90 -89 90 -214v-197h-46v197q0 106 -75 181q-76 77 -182 77q-107 0 -182 -77q-76 -75 -76 -181v-938q0 -107 76 -182q75 -76 182 -76q106 0 182 76q75 75 75 182v448h-280v45h326v-493q0 -126 -90 -215q-88 -88 -213 -88q-126 0 -215 88
q-88 89 -88 215v938q0 125 88 214q89 89 215 89z" />
    <glyph glyph-name="H" unicode="H" 
d="M706 0h-46v751h-515v-751h-45v1544h45v-748h515v748h46v-1544z" />
    <glyph glyph-name="I" unicode="I" horiz-adv-x="285" 
d="M120 1544h45v-1544h-45v1544z" />
    <glyph glyph-name="J" unicode="J" 
d="M659 1544h47v-1241q0 -126 -90 -215q-88 -88 -213 -88q-126 0 -215 88q-88 89 -88 215v22h45v-22q0 -107 76 -182q75 -76 182 -76q105 0 181 76q75 75 75 182v1241z" />
    <glyph glyph-name="K" unicode="K" horiz-adv-x="862" 
d="M799 0l-500 863l-153 -206v-657h-46v1544h46v-811l601 811h55l-473 -640l523 -904h-53z" />
    <glyph glyph-name="L" unicode="L" 
d="M145 45h561v-45h-606v1544h45v-1499z" />
    <glyph glyph-name="M" unicode="M" horiz-adv-x="1010" 
d="M465 220l-320 1147v-1368h-45v1544h46l354 -1267l352 1267h57v-1544h-46v1406l-329 -1185h-69z" />
    <glyph glyph-name="N" unicode="N" horiz-adv-x="804" 
d="M666 0l-521 1396v-1395h-45v1543h38l521 -1396v1396h45v-1544h-38z" />
    <glyph glyph-name="O" unicode="O" 
d="M403 1544q125 0 214 -89t89 -214v-938q0 -126 -89 -215q-89 -88 -214 -88q-126 0 -214 88q-89 89 -89 215v938q0 125 89 214q88 89 214 89zM660 1241q0 106 -75 181q-76 77 -182 77q-107 0 -182 -77q-76 -75 -76 -181v-938q0 -107 76 -182q75 -76 182 -76q106 0 182 76
q75 75 75 182v938z" />
    <glyph glyph-name="P" unicode="P" 
d="M403 1544q181 0 251 -115q52 -82 52 -239v-189q0 -159 -89 -257q-76 -86 -191 -99v-1h-23l-22 -1v1h-236v-644h-45v1544h303zM660 1190q0 154 -48 224q-60 85 -209 85h-258v-810h258q105 4 176 79q81 86 81 233v189z" />
    <glyph glyph-name="Q" unicode="Q" horiz-adv-x="815" 
d="M706 303q0 -112 -75 -197l84 -84l-33 -31l-82 82q-86 -73 -197 -73q-126 0 -215 88q-88 90 -88 215v938q0 126 88 214q89 89 215 89q125 0 213 -89q90 -88 90 -214v-938zM403 46q93 0 164 60l-61 61l32 32l62 -62q60 72 60 166v938q0 106 -76 181q-76 77 -181 77
q-107 0 -182 -77q-76 -75 -76 -181v-938q0 -107 76 -182q75 -75 182 -75z" />
    <glyph glyph-name="R" unicode="R" horiz-adv-x="805" 
d="M145 796h253l20 1q101 10 167 85q74 85 74 227v81q0 154 -47 224q-60 85 -209 85h-258v-703zM668 0l-281 750h-242v-750h-45v1544h303q180 0 251 -115q52 -82 52 -239v-81q0 -157 -85 -254q-74 -86 -187 -102l281 -753h-47z" />
    <glyph glyph-name="S" unicode="S" 
d="M403 1544q122 0 206 -87q97 -97 97 -269v-23h-46v23q0 149 -82 235q-72 76 -175 76t-175 -76q-83 -86 -83 -235v-42q0 -148 79 -221q49 -45 186 -91q144 -48 200 -99q96 -87 96 -255v-125q0 -171 -97 -269q-84 -86 -206 -86q-121 0 -206 86q-97 98 -97 269v23h45v-23
q0 -149 83 -234q72 -76 175 -76q104 0 176 76q81 87 81 234v125q0 149 -79 221q-48 44 -185 90q-143 49 -200 100q-96 86 -96 255v42q0 172 97 269q85 87 206 87z" />
    <glyph glyph-name="T" unicode="T" horiz-adv-x="646" 
d="M626 1544v-45h-280v-1499h-45v1499h-281v45h606z" />
    <glyph glyph-name="U" unicode="U" 
d="M659 1544h47v-1241q0 -126 -90 -215q-88 -88 -213 -88q-126 0 -215 88q-88 89 -88 215v1241h45v-1241q0 -107 76 -182q75 -76 182 -76q105 0 181 76q75 75 75 182v1241z" />
    <glyph glyph-name="V" unicode="V" horiz-adv-x="828" 
d="M389 -2l-379 1546h46l357 -1460l358 1460h47l-380 -1546h-49z" />
    <glyph glyph-name="W" unicode="W" horiz-adv-x="1206" 
d="M313 0l-303 1544h46l269 -1380l257 1380h41l258 -1380l268 1380h47l-303 -1544h-31l-260 1351l-259 -1351h-30z" />
    <glyph glyph-name="X" unicode="X" horiz-adv-x="671" 
d="M645 1544l-285 -766l291 -778h-48l-267 713l-267 -713h-49l291 778l-286 766h49l262 -701l263 701h46z" />
    <glyph glyph-name="Y" unicode="Y" horiz-adv-x="868" 
d="M60 1544l374 -720l373 720h51l-402 -775v-769h-46v769l-400 775h50z" />
    <glyph glyph-name="Z" unicode="Z" horiz-adv-x="705" 
d="M665 1544l-560 -1499h550v-45h-615l560 1499h-551v45h616z" />
    <glyph glyph-name="bracketleft" unicode="[" horiz-adv-x="462" 
d="M100 1544h262v-45h-217v-1954h217v-45h-262v2044z" />
    <glyph glyph-name="backslash" unicode="\" horiz-adv-x="502" 
d="M435 -500l-415 2044h46l416 -2044h-47z" />
    <glyph glyph-name="bracketright" unicode="]" horiz-adv-x="462" 
d="M362 -500h-262v45h217v1954h-217v45h262v-2044z" />
    <glyph glyph-name="asciicircum" unicode="^" horiz-adv-x="845" 
d="M100 19l322 712l323 -712l-41 -19l-282 622l-281 -622z" />
    <glyph glyph-name="underscore" unicode="_" horiz-adv-x="1017" 
d="M-10 -1h1037v-45h-1037v45z" />
    <glyph glyph-name="grave" unicode="`" horiz-adv-x="682" 
d="M355 1096h-45l-161 210h91z" />
    <glyph glyph-name="a" unicode="a" 
d="M403 1001q120 0 206 -57q97 -65 97 -178v-766h-46v103q-84 -103 -257 -103q-122 0 -207 57q-96 65 -96 178v181q0 114 96 179q85 57 207 57q173 0 257 -103v217q0 88 -77 141q-74 49 -180 49q-103 0 -175 -47q-83 -52 -83 -143v-24h-45v24q0 113 96 178q85 57 207 57z
M403 45q103 0 175 47q82 52 82 143v181q0 92 -82 144q-72 47 -175 47t-175 -47q-83 -52 -83 -144v-181q0 -91 83 -143q72 -47 175 -47z" />
    <glyph glyph-name="b" unicode="b" 
d="M403 1001q120 0 205 -85q98 -97 98 -268v-295q0 -171 -98 -268q-85 -85 -205 -85q-174 0 -258 154v-154h-45v1544h45v-697q84 154 258 154zM660 648q0 149 -82 234q-72 74 -175 74t-175 -74q-83 -85 -83 -232v-299q0 -147 83 -232q72 -74 175 -74t175 74q82 85 82 234
v295z" />
    <glyph glyph-name="c" unicode="c" 
d="M403 1001q122 0 206 -85q97 -97 97 -268v-22h-46v22q0 148 -81 232q-72 76 -176 76q-102 0 -175 -74q-82 -85 -82 -234v-295q0 -149 82 -234q73 -74 175 -74q103 0 175 74q82 85 82 234v22h46v-22q0 -171 -97 -268q-84 -85 -206 -85q-123 0 -209 89q-94 99 -94 264v295
q0 165 94 264q86 89 209 89z" />
    <glyph glyph-name="d" unicode="d" 
d="M706 0h-46v154q-84 -154 -257 -154q-122 0 -207 85q-96 97 -96 268v295q0 171 96 268q85 85 207 85q173 0 257 -154v697h46v-1544zM403 45q102 0 174 74q82 85 83 232v299q-1 147 -83 232q-72 74 -174 74q-103 0 -175 -74q-83 -85 -83 -234v-295q0 -149 83 -234
q72 -74 175 -74z" />
    <glyph glyph-name="e" unicode="e" 
d="M403 1001q120 0 205 -85q98 -97 98 -268v-117h-561v-178q0 -149 83 -234q72 -74 175 -74t175 74q82 85 82 234v22h46v-22q0 -171 -98 -268q-85 -85 -205 -85q-124 0 -209 89q-94 99 -94 264v295q0 165 94 264q85 89 209 89zM660 648q0 148 -81 232q-73 76 -176 76
t-175 -74q-83 -85 -83 -234v-71h515v71z" />
    <glyph glyph-name="f" unicode="f" horiz-adv-x="553" 
d="M298 1478q66 66 227 66h23l-1 -45h-22q-142 0 -194 -52q-64 -64 -64 -255v-191h210v-45h-210v-956h-45v956h-122v45h122v191q0 209 76 286z" />
    <glyph glyph-name="g" unicode="g" 
d="M706 -286q0 -170 -98 -267q-85 -86 -205 -86q-122 0 -207 86q-96 97 -96 267v23h45v-23q0 -148 81 -232q72 -76 177 -76q103 0 175 74q82 85 82 234v440q-84 -154 -257 -154q-122 0 -207 85q-96 97 -96 268v296q0 170 96 268q85 84 207 84q173 0 257 -154v154h46v-1287z
M403 45q103 0 175 75q81 84 82 232v298q-1 147 -82 232q-72 74 -175 74t-175 -74q-83 -85 -83 -233v-296q0 -149 83 -233q72 -75 175 -75z" />
    <glyph glyph-name="h" unicode="h" 
d="M403 1001q122 0 206 -85q97 -97 97 -268v-648h-46v648q0 148 -81 232q-72 76 -176 76q-102 0 -174 -74q-83 -85 -83 -232v-650h-46v1544h46v-697q84 154 257 154z" />
    <glyph glyph-name="i" unicode="i" horiz-adv-x="285" 
d="M120 1001h45v-1001h-45v1001zM110 1303h67v-67h-67v67z" />
    <glyph glyph-name="j" unicode="j" horiz-adv-x="305" 
d="M175 1002v-1294q0 -194 -64 -273q-49 -60 -150 -74q-37 -6 -89 -6h-22v45h22q106 0 158 27q46 24 69 78q31 68 31 200v1297h45zM120 1303h67v-67h-67v67z" />
    <glyph glyph-name="k" unicode="k" horiz-adv-x="810" 
d="M769 1001l-417 -343l448 -658h-55l-429 629l-170 -140v-490h-46v1544h46v-995l552 453h71z" />
    <glyph glyph-name="l" unicode="l" horiz-adv-x="301" 
d="M165 124q2 -32 17 -53q21 -26 59 -28h50v-44h-42q-85 3 -113 63q-16 35 -16 95v1387h45v-1420z" />
    <glyph glyph-name="m" unicode="m" horiz-adv-x="1366" 
d="M963 1001q121 0 207 -85q96 -98 96 -268v-648h-45v648q0 148 -83 233q-72 74 -175 74t-175 -74q-82 -85 -82 -233v-648h-46v648q0 148 -82 233q-72 74 -175 74t-175 -74q-82 -85 -83 -232v-649h-45v1001h45v-155q85 155 258 155q90 0 163 -50q83 -56 117 -157
q34 101 116 157q74 50 164 50z" />
    <glyph glyph-name="n" unicode="n" 
d="M403 1001q122 0 206 -85q97 -97 97 -268v-648h-46v648q0 149 -82 234q-72 74 -175 74t-177 -76q-80 -84 -81 -230v-650h-45v1001h45v-154q85 154 258 154z" />
    <glyph glyph-name="o" unicode="o" 
d="M403 1001q122 0 206 -85q97 -97 97 -268v-295q0 -171 -97 -268q-84 -85 -206 -85q-121 0 -207 85q-96 97 -96 268v295q0 171 96 268q86 85 207 85zM660 648q0 149 -82 234q-72 74 -175 74t-175 -74q-83 -85 -83 -234v-295q0 -149 83 -234q72 -74 175 -74t175 74
q82 85 82 234v295z" />
    <glyph glyph-name="p" unicode="p" 
d="M403 1002q120 0 205 -85q98 -97 98 -268v-295q0 -171 -98 -268q-85 -85 -205 -85q-174 0 -258 154v-787h-45v1634h45v-154q84 154 258 154zM659 649q0 149 -81 233q-73 75 -175 75q-103 0 -175 -75q-83 -84 -83 -233v-295q0 -149 83 -234q72 -74 175 -74q102 0 175 74
q81 85 81 234v295z" />
    <glyph glyph-name="q" unicode="q" 
d="M660 1002h46v-1634h-46v789q-19 -38 -48 -67q-85 -89 -209 -89q-121 0 -206 85q-97 97 -97 268v295q0 171 97 268q85 85 206 85q174 0 257 -154v154zM579 122q81 84 81 232v295q0 149 -82 233q-72 75 -175 75t-175 -75q-83 -84 -83 -233v-295q0 -149 83 -234
q72 -74 175 -74q104 0 176 76z" />
    <glyph glyph-name="r" unicode="r" 
d="M403 1005q120 0 205 -85q98 -98 98 -268v-22h-46v22q0 147 -81 232q-73 75 -176 75t-175 -74q-83 -85 -83 -233v-652h-45v1005h45v-155q84 155 258 155z" />
    <glyph glyph-name="s" unicode="s" horiz-adv-x="804" 
d="M402 1001q121 0 206 -57q96 -65 96 -177v-23h-45v23q0 88 -76 140q-74 49 -181 49q-102 0 -176 -45q-81 -54 -81 -144v-27q0 -90 78 -134q48 -27 184 -57q144 -30 201 -64q96 -58 96 -171v-79q0 -113 -96 -178q-85 -57 -206 -57t-205 57q-97 66 -97 178v23h45v-23
q0 -91 81 -145q74 -45 176 -45q107 0 181 49q76 52 76 141v79q0 90 -78 135q-47 27 -184 56q-144 31 -201 65q-96 56 -96 170v27q0 112 96 177q85 57 206 57z" />
    <glyph glyph-name="t" unicode="t" horiz-adv-x="520" 
d="M282 124q2 -32 17 -53q21 -26 59 -28h50v-44h-42q-85 3 -113 63q-16 35 -16 95v807h-187v45h187v543h45v-543h188v-45h-188v-840z" />
    <glyph glyph-name="u" unicode="u" 
d="M706 0h-46v157q-19 -39 -48 -68q-85 -89 -209 -89q-121 0 -206 85q-97 97 -97 268v648h45v-648q0 -149 83 -234q72 -74 175 -74t175 74q82 85 82 232v650h46v-1001z" />
    <glyph glyph-name="v" unicode="v" horiz-adv-x="878" 
d="M414 0l-404 1001h48l380 -940l381 940h49l-406 -1001h-48z" />
    <glyph glyph-name="w" unicode="w" horiz-adv-x="1145" 
d="M818 0l-245 932l-246 -932h-35l-282 1001h51l248 -897l240 897h48l238 -901l249 901h51l-282 -1001h-35z" />
    <glyph glyph-name="x" unicode="x" horiz-adv-x="674" 
d="M653 1001l-286 -493l297 -508h-49l-277 473l-278 -473h-50l298 508l-291 493h49l272 -460l267 460h48z" />
    <glyph glyph-name="y" unicode="y" 
d="M706 -285q0 -170 -98 -267q-85 -86 -205 -86q-122 0 -207 86q-96 97 -96 267v23h45v-23q0 -148 81 -232q72 -76 177 -76q103 0 175 74q82 85 82 234v442q-84 -156 -257 -156q-124 0 -209 89q-94 99 -94 264v648h45v-648q0 -149 83 -233q72 -75 175 -75t176 76
q80 84 81 231v649h46v-1287z" />
    <glyph glyph-name="z" unicode="z" horiz-adv-x="719" 
d="M679 1001l-559 -956h543v-45h-623l560 956h-543v45h622z" />
    <glyph glyph-name="braceleft" unicode="{" horiz-adv-x="586" 
d="M464 1544h22v-45h-22q-160 0 -180 -21q-16 -18 -16 -127v-40q1 -80 1 -131q0 -561 -114 -659q114 -106 114 -692q0 -42 -1 -110v-32q0 -118 16 -134q18 -18 152 -18h50v-45h-72q-131 0 -162 30q-29 30 -29 178v22q1 68 1 109q0 567 -124 694q124 116 124 657q0 51 -1 130
v38q0 132 29 161q34 35 212 35z" />
    <glyph glyph-name="bar" unicode="|" horiz-adv-x="245" 
d="M100 1544h45v-2044h-45v2044z" />
    <glyph glyph-name="braceright" unicode="}" horiz-adv-x="586" 
d="M334 1509q29 -29 29 -161v-38q-1 -79 -1 -130q0 -541 124 -657q-124 -127 -124 -694q0 -41 1 -109v-22q0 -148 -29 -178q-31 -30 -162 -30h-72v45h50q134 0 152 18q16 16 16 134v32q-1 68 -1 110q0 586 114 692q-114 98 -114 659q0 51 1 131v40q0 109 -16 127
q-20 21 -180 21h-22v45h22q178 0 212 -35z" />
    <glyph glyph-name="asciitilde" unicode="~" horiz-adv-x="957" 
d="M826 751l31 -33l-16 -15q-118 -112 -231 -112h-11q-69 4 -179 67q-87 50 -129 50h-3q-69 -2 -138 -104l-13 -19l-37 26l13 18q84 123 175 125h2q55 0 152 -56q102 -58 160 -61h8q96 0 200 99z" />
    <glyph glyph-name="exclamdown" unicode="&#xa1;" horiz-adv-x="307" 
d="M130 699h45v-1243h-45v1243zM120 1001h67v-67h-67v67z" />
    <glyph glyph-name="cent" unicode="&#xa2;" horiz-adv-x="793" 
d="M644 688q-28 177 -155 245l-140 -882q25 -7 48 -7q89 0 159 77q69 75 88 191l4 22l45 -7l-4 -22q-21 -133 -103 -219q-82 -87 -189 -87q-27 0 -55 7l-26 -166l-44 7l26 174q-88 39 -142 137q-56 100 -56 223v239q0 157 87 270q87 111 210 111q28 0 56 -7l25 167l45 -7
l-27 -175q160 -72 193 -284l4 -22l-45 -7zM306 67l140 883q-25 6 -49 6q-104 0 -178 -99q-74 -98 -74 -237v-239q0 -106 45 -192q45 -85 116 -122z" />
    <glyph glyph-name="sterling" unicode="&#xa3;" horiz-adv-x="908" 
d="M762 111l19 13l27 -37l-19 -13q-103 -74 -172 -74q-53 0 -196 52q-80 30 -144 30q-48 0 -109 -25l-68 -29l41 61q78 124 114 243t40 225v8q0 71 -19 199h-171v46h163q-3 21 -9 54v5q-34 194 -34 323v24q4 133 70 228q69 100 172 100q96 0 161 -97q62 -92 71 -249l1 -22
l-46 -2l-1 22q-8 144 -62 225q-53 78 -124 78q-79 0 -135 -80q-58 -85 -61 -204v-24q0 -125 32 -315l1 -5q7 -38 11 -61h194v-46h-187q18 -121 18 -193v-15q-3 -113 -42 -237q-29 -99 -88 -201q36 10 67 10q72 0 159 -33q136 -50 181 -50q54 0 145 66z" />
    <glyph glyph-name="currency" unicode="&#xa4;" horiz-adv-x="1184" 
d="M1051 1011l33 -33l-136 -140q126 -144 126 -338t-126 -338l136 -141l-33 -31l-134 139q-138 -130 -325 -130t-325 130l-135 -139l-32 31l136 141q-127 144 -127 338t127 338l-136 140l32 32l135 -140q138 130 325 130t325 -130zM893 171q136 135 136 329q0 195 -136 330
l-8 8q-125 117 -293 117t-294 -117l-7 -8q-136 -135 -136 -330q0 -196 135 -330l8 -7v-1q126 -117 294 -117t293 117v1z" />
    <glyph glyph-name="yen" unicode="&#xa5;" horiz-adv-x="1009" 
d="M868 1551l41 -19l-369 -820h212v-45h-225v-238h225v-45h-225v-384h-45v384h-225v45h225v238h-225v45h212l-369 820l41 19l364 -806z" />
    <glyph glyph-name="brokenbar" unicode="&#xa6;" horiz-adv-x="245" 
d="M100 373h45v-873h-45v873zM100 1544h45v-882h-45v882z" />
    <glyph glyph-name="section" unicode="&#xa7;" horiz-adv-x="703" 
d="M351 1004q121 -44 170 -97q82 -91 82 -280q0 -135 -56 -239q56 -88 56 -246q0 -156 -74 -268q-73 -110 -177 -110q-105 0 -178 110q-74 112 -74 268v22h45v-22q0 -138 61 -235q61 -98 146 -98q84 0 146 98q60 97 60 235q0 165 -65 243q-42 49 -158 91q-109 39 -149 80
q-70 70 -70 211q0 163 105 246q-105 70 -105 239q0 126 68 209q67 85 168 85q149 0 221 -155l10 -20l-41 -19l-10 21q-60 128 -180 128q-81 0 -136 -72q-53 -71 -53 -177q0 -156 99 -212l21 -10q21 -10 68 -26zM351 519q117 -43 164 -91q43 88 43 199q0 169 -68 247
q-42 47 -155 87q-48 18 -71 28q-101 -65 -101 -222q0 -121 54 -177q34 -35 134 -71z" />
    <glyph glyph-name="dieresis" unicode="&#xa8;" horiz-adv-x="487" 
d="M100 1303h67v-67h-67v67zM320 1303h67v-67h-67v67z" />
    <glyph glyph-name="copyright" unicode="&#xa9;" horiz-adv-x="1744" 
d="M1418 1319q226 -226 226 -546t-226 -546t-546 -226t-546 226t-226 546t226 546t546 226t546 -226zM872 1491q-298 0 -508 -210t-210 -508t210 -508.5t508 -210.5t508.5 210.5t210.5 508.5t-210.5 508t-508.5 210zM876 1231q122 0 206 -86q97 -97 97 -266h-46
q0 147 -82 233q-72 74 -175 74t-177 -75q-81 -86 -81 -232v-229q0 -149 83 -234q72 -74 175 -74t175 74q82 85 82 234h46q0 -171 -97 -268q-84 -85 -206 -85q-121 0 -206 85q-97 97 -97 268v229q0 169 97 266q85 86 206 86z" />
    <glyph glyph-name="guillemotleft" unicode="&#xab;" horiz-adv-x="833" 
d="M438 938l-321 -432l323 -435h-66l-324 435l322 432h66zM781 938l-321 -432l323 -435h-66l-324 435l322 432h66z" />
    <glyph glyph-name="logicalnot" unicode="&#xac;" horiz-adv-x="1094" 
d="M127 727h800v-451l-1 -1h-58v392h-741v60z" />
    <glyph glyph-name="registered" unicode="&#xae;" horiz-adv-x="1744" 
d="M1418 1319q226 -226 226 -546t-226 -546t-546 -226t-546 226t-226 546t226 546t546 226t546 -226zM872 1491q-298 0 -508 -210t-210 -508t210 -508.5t508 -210.5t508.5 210.5t210.5 508.5t-210.5 508t-508.5 210zM680 768h203l20 1q101 10 177 75q64 55 64 137v1
q0 94 -47 154q-60 75 -209 75h-208v-443zM1153 242l-281 480h-192v-480h-45v1014h253q180 0 251 -105q52 -72 52 -169v-1q0 -97 -75 -164q-84 -76 -197 -92l281 -483h-47z" />
    <glyph glyph-name="macron" unicode="&#xaf;" horiz-adv-x="837" 
d="M100 1343h637v-49h-637v49z" />
    <glyph glyph-name="degree" unicode="&#xb0;" horiz-adv-x="765" 
d="M582 1463q83 -83 83 -199q0 -117 -83 -200t-199 -83q-117 0 -200 83t-83 200q0 116 83 199t200 83q116 0 199 -83zM383 1485q-93 0 -157.5 -65.5t-64.5 -155.5q0 -93 64.5 -157.5t157.5 -64.5q90 0 155.5 64.5t65.5 157.5q0 90 -65.5 155.5t-155.5 65.5z" />
    <glyph glyph-name="plusminus" unicode="&#xb1;" horiz-adv-x="810" 
d="M427 775h283v-46h-283v-499h-45v499h-282v46h282v499h45v-499zM110 49h617v-69h-617v69z" />
    <glyph glyph-name="uni00B2" unicode="&#xb2;" horiz-adv-x="662" 
d="M331 1742q90 0 152 -66q69 -72 69 -192v-29q0 -99 -59 -164q-36 -39 -130 -93q-96 -56 -134 -98q-58 -69 -58 -183v-195h381v-62h-442v257q0 136 72 222q42 49 151 111q83 49 111 79q48 51 48 126v29q0 94 -53 149q-44 46 -108 46t-109 -47q-51 -54 -51 -148v-32h-61v32
q0 120 69 192q62 66 152 66z" />
    <glyph glyph-name="uni00B3" unicode="&#xb3;" horiz-adv-x="662" 
d="M331 1742q90 0 152 -56q69 -62 69 -166v-129q0 -129 -104 -190q104 -61 104 -191v-129q0 -103 -69 -165q-62 -56 -152 -56q-89 0 -151 56q-70 62 -70 165v31h61v-31q0 -77 51 -121q45 -38 109 -38t108 38q53 44 53 121v129q0 77 -50 121q-45 38 -108 39h-109v61l109 1
q63 1 107 38q51 44 51 121v129q0 77 -53 121q-44 38 -108 38t-109 -38q-51 -44 -51 -121v-30h-61v30q0 104 70 166q62 56 151 56z" />
    <glyph glyph-name="acute" unicode="&#xb4;" horiz-adv-x="682" 
d="M404 1306h91l-161 -210h-45z" />
    <glyph glyph-name="mu" unicode="&#xb5;" horiz-adv-x="1012" 
d="M867 1544h45v-1045h-45v465q-51 -95 -146 -152q-99 -59 -215 -59q-115 0 -213 59q-96 56 -148 152v-964h-45v1544h45v-403q0 -141 107 -242q106 -101 254 -101q150 0 255 101q106 101 106 242v403z" />
    <glyph glyph-name="paragraph" unicode="&#xb6;" horiz-adv-x="1013" 
d="M913 1498h-90v-1498h-46v1498h-161v-754h1l-1 -22v-722h-45v703q-203 22 -336 141q-135 119 -135 277t135 277q133 119 336 141v5h342v-46zM145 1121q0 -140 121 -245q121 -106 305 -128v746q-184 -22 -305 -128q-121 -105 -121 -245z" />
    <glyph glyph-name="periodcentered" unicode="&#xb7;" horiz-adv-x="551" 
d="M100 801h57v-57h-57v57z" />
    <glyph glyph-name="periodcentered" unicode="&#x2219;" horiz-adv-x="551" 
d="M100 801h57v-57h-57v57z" />
    <glyph glyph-name="cedilla" unicode="&#xb8;" horiz-adv-x="682" 
d="M200 -347h20q20 0 42 1q68 3 117 26q59 36 59 93v5q-5 39 -35.5 60.5t-66 29t-56.5 7.5l17 128h53l-12 -93q91 -20 122 -58.5t31 -82.5q-3 -62 -52 -107t-179 -54q-53 0 -70 2z" />
    <glyph glyph-name="uni00B9" unicode="&#xb9;" horiz-adv-x="343" 
d="M233 1742v-1082h-63v976l-102 -103l-44 43l165 166h44z" />
    <glyph glyph-name="guillemotright" unicode="&#xbb;" horiz-adv-x="833" 
d="M118 938l322 -432l-324 -435h-66l323 435l-321 432h66zM461 938l322 -432l-324 -435h-66l323 435l-321 432h66z" />
    <glyph glyph-name="onequarter" unicode="&#xbc;" horiz-adv-x="1418" 
d="M314 1742v-1082h-63v976l-102 -103l-44 43l165 166h44zM24 -4l1101 1548h57l-1101 -1548h-57zM1208 281h110v-63h-110v-218h-61v218h-399l410 864h50v-801zM1147 281v633l-302 -633h302z" />
    <glyph glyph-name="onehalf" unicode="&#xbd;" horiz-adv-x="1484" 
d="M314 1742v-1082h-63v976l-102 -103l-44 43l165 166h44zM24 -4l1101 1548h57l-1101 -1548h-57zM1153 1082q90 0 152 -66q69 -72 69 -192v-29q0 -99 -59 -164q-36 -39 -130 -93q-96 -56 -134 -98q-58 -69 -58 -183v-195h381v-62h-442v257q0 136 72 222q42 49 151 111
q83 49 111 79q48 51 48 126v29q0 94 -53 149q-44 46 -108 46t-109 -47q-51 -54 -51 -148v-32h-61v32q0 120 69 192q62 66 152 66z" />
    <glyph glyph-name="threequarters" unicode="&#xbe;" horiz-adv-x="1666" 
d="M321 1742q90 0 152 -56q69 -62 69 -166v-129q0 -129 -104 -190q104 -61 104 -191v-129q0 -103 -69 -165q-62 -56 -152 -56q-89 0 -151 56q-70 62 -70 165v31h61v-31q0 -77 51 -121q45 -38 109 -38t108 38q53 44 53 121v129q0 77 -50 121q-45 38 -108 39h-109v61l109 1
q63 1 107 38q51 44 51 121v129q0 77 -53 121q-44 38 -108 38t-109 -38q-51 -44 -51 -121v-30h-61v30q0 104 70 166q62 56 151 56zM192 -4l1101 1548h57l-1101 -1548h-57zM1456 281h110v-63h-110v-218h-61v218h-399l410 864h50v-801zM1395 281v633l-302 -633h302z" />
    <glyph glyph-name="questiondown" unicode="&#xbf;" 
d="M403 -543q-122 0 -207 78q-96 85 -96 225v190q0 122 55 187q34 39 119 81q87 42 120 84q52 68 52 207v187h45v-187q0 -156 -63 -238q-38 -48 -134 -94q-76 -38 -104 -70q-44 -52 -44 -157v-190q0 -124 82 -195q72 -63 175 -63t175 63q83 71 83 195v23h45v-23
q0 -140 -95 -225q-86 -78 -208 -78zM496 934h-67v67h67v-67z" />
    <glyph glyph-name="Agrave" unicode="&#xc0;" horiz-adv-x="854" 
d="M634 641l-206 795l-205 -795h411zM10 0l399 1544h38l397 -1544h-46l-153 596h-434l-154 -596h-47zM496 1639h-45l-161 210h91z" />
    <glyph glyph-name="Aacute" unicode="&#xc1;" horiz-adv-x="854" 
d="M634 641l-206 795l-205 -795h411zM10 0l399 1544h38l397 -1544h-46l-153 596h-434l-154 -596h-47zM473 1849h91l-161 -210h-45z" />
    <glyph glyph-name="Acircumflex" unicode="&#xc2;" horiz-adv-x="854" 
d="M634 641l-206 795l-205 -795h411zM10 0l399 1544h38l397 -1544h-46l-153 596h-434l-154 -596h-47zM463 1869l165 -200h-55l-146 157l-146 -157h-55l165 200h72z" />
    <glyph glyph-name="Atilde" unicode="&#xc3;" horiz-adv-x="854" 
d="M634 641l-206 795l-205 -795h411zM10 0l399 1544h38l397 -1544h-46l-153 596h-434l-154 -596h-47zM227 1696l7 16q41 64 87 75q5 2 18 3q31 0 80 -26q41 -22 76 -22h5q45 7 73 51h55q-1 -1 -16 -24q-61 -76 -116 -76q-3 0 -7 1q-39 3 -79 28q-34 17 -60 17h-2
q-24 0 -46 -21q-16 -19 -17 -22h-58z" />
    <glyph glyph-name="Adieresis" unicode="&#xc4;" horiz-adv-x="854" 
d="M634 641l-206 795l-205 -795h411zM10 0l399 1544h38l397 -1544h-46l-153 596h-434l-154 -596h-47zM284 1846h67v-67h-67v67zM504 1846h67v-67h-67v67z" />
    <glyph glyph-name="Aring" unicode="&#xc5;" horiz-adv-x="854" 
d="M634 641l-206 795l-205 -795h411zM427 1749q-33 0 -55.5 -23t-22.5 -55q0 -33 22.5 -55.5t55.5 -22.5q32 0 55 22.5t23 55.5q0 32 -23 55t-55 23zM444 1544h3l397 -1544h-46l-153 596h-434l-154 -596h-47l399 1544h1q-42 5 -73 37q-38 37 -38 90t37.5 90.5t90.5 37.5
t90.5 -37.5t37.5 -90.5t-37 -90q-32 -32 -74 -37z" />
    <glyph glyph-name="AE" unicode="&#xc6;" horiz-adv-x="1604" 
d="M1504 1551v-45h-556v-780h556v-45h-556v-629h556v-45h-601v674h-529l-231 -681l-43 15l231 681v30h10l280 825h883zM903 726v780h-250l-264 -780h514z" />
    <glyph glyph-name="Ccedilla" unicode="&#xc7;" 
d="M379 1q-106 8 -182 84q-97 97 -97 268v839q0 169 97 266q85 86 206 86q122 0 206 -86q97 -97 97 -266v-24h-46v24q0 147 -82 233q-72 74 -175 74t-177 -75q-81 -86 -81 -232v-839q0 -149 83 -234q72 -74 175 -74t175 74q82 85 82 234v22h46v-22q0 -171 -97 -268
q-74 -75 -177 -84l-12 -91q91 -20 122 -58.5t31 -82.5q-3 -62 -52 -107t-179 -54q-53 0 -70 2l10 43h20q20 0 42 1q68 3 117 26q59 36 59 93v5q-5 39 -35.5 60.5t-66 29t-56.5 7.5z" />
    <glyph glyph-name="Egrave" unicode="&#xc8;" 
d="M100 1544h606v-45h-561v-703h561v-45h-561v-706h561v-45h-606v1544zM472 1639h-45l-161 210h91z" />
    <glyph glyph-name="Eacute" unicode="&#xc9;" 
d="M100 1544h606v-45h-561v-703h561v-45h-561v-706h561v-45h-606v1544zM449 1849h91l-161 -210h-45z" />
    <glyph glyph-name="Ecircumflex" unicode="&#xca;" 
d="M100 1544h606v-45h-561v-703h561v-45h-561v-706h561v-45h-606v1544zM439 1869l165 -200h-55l-146 157l-146 -157h-55l165 200h72z" />
    <glyph glyph-name="Edieresis" unicode="&#xcb;" 
d="M100 1544h606v-45h-561v-703h561v-45h-561v-706h561v-45h-606v1544zM260 1846h67v-67h-67v67zM480 1846h67v-67h-67v67z" />
    <glyph glyph-name="Igrave" unicode="&#xcc;" horiz-adv-x="316" 
d="M135 1544h45v-1544h-45v1544zM226 1639h-45l-161 210h91z" />
    <glyph glyph-name="Iacute" unicode="&#xcd;" horiz-adv-x="316" 
d="M136 1544h45v-1544h-45v1544zM205 1849h91l-161 -210h-45z" />
    <glyph glyph-name="Icircumflex" unicode="&#xce;" horiz-adv-x="422" 
d="M188 1544h45v-1544h-45v1544zM247 1869l165 -200h-55l-146 157l-146 -157h-55l165 200h72z" />
    <glyph glyph-name="Idieresis" unicode="&#xcf;" horiz-adv-x="307" 
d="M131 1544h45v-1544h-45v1544zM10 1846h67v-67h-67v67zM230 1846h67v-67h-67v67z" />
    <glyph glyph-name="Eth" unicode="&#xd0;" horiz-adv-x="877" 
d="M474 1544q125 0 213 -89q90 -89 90 -214v-938q0 -126 -90 -215q-88 -88 -213 -88h-303v749h-161v46h161v749h303zM732 1241q0 106 -77 181q-75 77 -181 77h-258v-704h170v-46h-170v-704h258q106 0 181 76q77 75 77 182v938z" />
    <glyph glyph-name="Ntilde" unicode="&#xd1;" horiz-adv-x="804" 
d="M666 0l-521 1396v-1395h-45v1543h38l521 -1396v1396h45v-1544h-38zM202 1696l7 16q41 64 87 75q5 2 18 3q31 0 80 -26q41 -22 76 -22h5q45 7 73 51h55q-1 -1 -16 -24q-61 -76 -116 -76q-3 0 -7 1q-39 3 -79 28q-34 17 -60 17h-2q-24 0 -46 -21q-16 -19 -17 -22h-58z" />
    <glyph glyph-name="Ograve" unicode="&#xd2;" 
d="M403 1544q125 0 214 -89t89 -214v-938q0 -126 -89 -215q-89 -88 -214 -88q-126 0 -214 88q-89 89 -89 215v938q0 125 89 214q88 89 214 89zM660 1241q0 106 -75 181q-76 77 -182 77q-107 0 -182 -77q-76 -75 -76 -181v-938q0 -107 76 -182q75 -76 182 -76q106 0 182 76
q75 75 75 182v938zM472 1639h-45l-161 210h91z" />
    <glyph glyph-name="Oacute" unicode="&#xd3;" 
d="M403 1544q125 0 214 -89t89 -214v-938q0 -126 -89 -215q-89 -88 -214 -88q-126 0 -214 88q-89 89 -89 215v938q0 125 89 214q88 89 214 89zM660 1241q0 106 -75 181q-76 77 -182 77q-107 0 -182 -77q-76 -75 -76 -181v-938q0 -107 76 -182q75 -76 182 -76q106 0 182 76
q75 75 75 182v938zM449 1849h91l-161 -210h-45z" />
    <glyph glyph-name="Ocircumflex" unicode="&#xd4;" 
d="M403 1544q125 0 214 -89t89 -214v-938q0 -126 -89 -215q-89 -88 -214 -88q-126 0 -214 88q-89 89 -89 215v938q0 125 89 214q88 89 214 89zM660 1241q0 106 -75 181q-76 77 -182 77q-107 0 -182 -77q-76 -75 -76 -181v-938q0 -107 76 -182q75 -76 182 -76q106 0 182 76
q75 75 75 182v938zM439 1869l165 -200h-55l-146 157l-146 -157h-55l165 200h72z" />
    <glyph glyph-name="Otilde" unicode="&#xd5;" 
d="M403 1544q125 0 214 -89t89 -214v-938q0 -126 -89 -215q-89 -88 -214 -88q-126 0 -214 88q-89 89 -89 215v938q0 125 89 214q88 89 214 89zM660 1241q0 106 -75 181q-76 77 -182 77q-107 0 -182 -77q-76 -75 -76 -181v-938q0 -107 76 -182q75 -76 182 -76q106 0 182 76
q75 75 75 182v938zM203 1696l7 16q41 64 87 75q5 2 18 3q31 0 80 -26q41 -22 76 -22h5q45 7 73 51h55q-1 -1 -16 -24q-61 -76 -116 -76q-3 0 -7 1q-39 3 -79 28q-34 17 -60 17h-2q-24 0 -46 -21q-16 -19 -17 -22h-58z" />
    <glyph glyph-name="Odieresis" unicode="&#xd6;" 
d="M403 1544q125 0 214 -89t89 -214v-938q0 -126 -89 -215q-89 -88 -214 -88q-126 0 -214 88q-89 89 -89 215v938q0 125 89 214q88 89 214 89zM660 1241q0 106 -75 181q-76 77 -182 77q-107 0 -182 -77q-76 -75 -76 -181v-938q0 -107 76 -182q75 -76 182 -76q106 0 182 76
q75 75 75 182v938zM260 1846h67v-67h-67v67zM480 1846h67v-67h-67v67z" />
    <glyph glyph-name="multiply" unicode="&#xd7;" horiz-adv-x="1013" 
d="M877 1020l36 -28l-378 -482l378 -482l-36 -28l-371 473l-370 -473l-36 28l377 482l-377 482l36 28l370 -474z" />
    <glyph glyph-name="Oslash" unicode="&#xd8;" horiz-adv-x="818" 
d="M677 1557l41 -15l-50 -137q44 -72 44 -157v-938q0 -126 -89 -215q-88 -88 -213 -88q-136 0 -226 102l-41 -109l-43 16l51 136q-44 72 -44 158v938q0 125 88 214q89 89 215 89q135 0 226 -102zM152 310q0 -52 20 -101l445 1190q-77 107 -207 107q-107 0 -182 -77
q-76 -75 -76 -181v-938zM667 1248q0 52 -21 100l-444 -1190q77 -106 208 -106q105 0 182 76q75 75 75 182v938z" />
    <glyph glyph-name="Ugrave" unicode="&#xd9;" 
d="M659 1544h47v-1241q0 -126 -90 -215q-88 -88 -213 -88q-126 0 -215 88q-88 89 -88 215v1241h45v-1241q0 -107 76 -182q75 -76 182 -76q105 0 181 76q75 75 75 182v1241zM472 1639h-45l-161 210h91z" />
    <glyph glyph-name="Uacute" unicode="&#xda;" 
d="M659 1544h47v-1241q0 -126 -90 -215q-88 -88 -213 -88q-126 0 -215 88q-88 89 -88 215v1241h45v-1241q0 -107 76 -182q75 -76 182 -76q105 0 181 76q75 75 75 182v1241zM449 1849h91l-161 -210h-45z" />
    <glyph glyph-name="Ucircumflex" unicode="&#xdb;" 
d="M659 1544h47v-1241q0 -126 -90 -215q-88 -88 -213 -88q-126 0 -215 88q-88 89 -88 215v1241h45v-1241q0 -107 76 -182q75 -76 182 -76q105 0 181 76q75 75 75 182v1241zM439 1869l165 -200h-55l-146 157l-146 -157h-55l165 200h72z" />
    <glyph glyph-name="Udieresis" unicode="&#xdc;" 
d="M659 1544h47v-1241q0 -126 -90 -215q-88 -88 -213 -88q-126 0 -215 88q-88 89 -88 215v1241h45v-1241q0 -107 76 -182q75 -76 182 -76q105 0 181 76q75 75 75 182v1241zM260 1846h67v-67h-67v67zM480 1846h67v-67h-67v67z" />
    <glyph glyph-name="Yacute" unicode="&#xdd;" horiz-adv-x="868" 
d="M60 1544l374 -720l373 720h51l-402 -775v-769h-46v769l-400 775h50zM480 1849h91l-161 -210h-45z" />
    <glyph glyph-name="Thorn" unicode="&#xde;" horiz-adv-x="795" 
d="M428 1170q129 0 202 -127q65 -112 65 -272q0 -159 -64 -269q-74 -128 -203 -128h-283v-374h-45v1544h45v-374h283zM592 524q58 101 58 247q0 142 -54 241q-61 113 -168 113h-283v-706h283q102 0 164 105z" />
    <glyph glyph-name="germandbls" unicode="&#xdf;" horiz-adv-x="1011" 
d="M393 1545h31q137 0 219 -110q43 -61 43 -144v-2q0 -117 -65 -281q-21 -90 -21 -141v-11q-1 -9 -1 -18q0 -102 98 -183q81 -66 119 -110q87 -100 87 -220v-34q-11 -101 -65 -172q-81 -89 -180 -89h-28q-100 0 -197 95q-52 60 -63 90l67 22q60 -148 199 -148h2
q141 0 187 147q13 50 13 86v13q0 114 -124 213q-73 68 -116 121q-58 78 -58 196q0 99 72 278q22 77 22 143q0 143 -129 192q-39 11 -69 11h-6q-131 0 -216 -131q-43 -65 -43 -170v-1188h-51v1224q0 132 109 244q88 77 164 77z" />
    <glyph glyph-name="agrave" unicode="&#xe0;" 
d="M403 1001q120 0 206 -57q97 -65 97 -178v-766h-46v103q-84 -103 -257 -103q-122 0 -207 57q-96 65 -96 178v181q0 114 96 179q85 57 207 57q173 0 257 -103v217q0 88 -77 141q-74 49 -180 49q-103 0 -175 -47q-83 -52 -83 -143v-24h-45v24q0 113 96 178q85 57 207 57z
M403 45q103 0 175 47q82 52 82 143v181q0 92 -82 144q-72 47 -175 47t-175 -47q-83 -52 -83 -144v-181q0 -91 83 -143q72 -47 175 -47zM472 1096h-45l-161 210h91z" />
    <glyph glyph-name="aacute" unicode="&#xe1;" 
d="M403 1001q120 0 206 -57q97 -65 97 -178v-766h-46v103q-84 -103 -257 -103q-122 0 -207 57q-96 65 -96 178v181q0 114 96 179q85 57 207 57q173 0 257 -103v217q0 88 -77 141q-74 49 -180 49q-103 0 -175 -47q-83 -52 -83 -143v-24h-45v24q0 113 96 178q85 57 207 57z
M403 45q103 0 175 47q82 52 82 143v181q0 92 -82 144q-72 47 -175 47t-175 -47q-83 -52 -83 -144v-181q0 -91 83 -143q72 -47 175 -47zM449 1306h91l-161 -210h-45z" />
    <glyph glyph-name="acircumflex" unicode="&#xe2;" 
d="M403 1001q120 0 206 -57q97 -65 97 -178v-766h-46v103q-84 -103 -257 -103q-122 0 -207 57q-96 65 -96 178v181q0 114 96 179q85 57 207 57q173 0 257 -103v217q0 88 -77 141q-74 49 -180 49q-103 0 -175 -47q-83 -52 -83 -143v-24h-45v24q0 113 96 178q85 57 207 57z
M403 45q103 0 175 47q82 52 82 143v181q0 92 -82 144q-72 47 -175 47t-175 -47q-83 -52 -83 -144v-181q0 -91 83 -143q72 -47 175 -47zM439 1326l165 -200h-55l-146 157l-146 -157h-55l165 200h72z" />
    <glyph glyph-name="atilde" unicode="&#xe3;" 
d="M403 1001q120 0 206 -57q97 -65 97 -178v-766h-46v103q-84 -103 -257 -103q-122 0 -207 57q-96 65 -96 178v181q0 114 96 179q85 57 207 57q173 0 257 -103v217q0 88 -77 141q-74 49 -180 49q-103 0 -175 -47q-83 -52 -83 -143v-24h-45v24q0 113 96 178q85 57 207 57z
M403 45q103 0 175 47q82 52 82 143v181q0 92 -82 144q-72 47 -175 47t-175 -47q-83 -52 -83 -144v-181q0 -91 83 -143q72 -47 175 -47zM203 1153l7 16q41 64 87 75q5 2 18 3q31 0 80 -26q41 -22 76 -22h5q45 7 73 51h55q-1 -1 -16 -24q-61 -76 -116 -76q-3 0 -7 1
q-39 3 -79 28q-34 17 -60 17h-2q-24 0 -46 -21q-16 -19 -17 -22h-58z" />
    <glyph glyph-name="adieresis" unicode="&#xe4;" 
d="M403 1001q120 0 206 -57q97 -65 97 -178v-766h-46v103q-84 -103 -257 -103q-122 0 -207 57q-96 65 -96 178v181q0 114 96 179q85 57 207 57q173 0 257 -103v217q0 88 -77 141q-74 49 -180 49q-103 0 -175 -47q-83 -52 -83 -143v-24h-45v24q0 113 96 178q85 57 207 57z
M403 45q103 0 175 47q82 52 82 143v181q0 92 -82 144q-72 47 -175 47t-175 -47q-83 -52 -83 -144v-181q0 -91 83 -143q72 -47 175 -47zM260 1303h67v-67h-67v67zM480 1303h67v-67h-67v67z" />
    <glyph glyph-name="aring" unicode="&#xe5;" 
d="M403 45q103 0 175 47q82 52 82 143v181q0 92 -82 144q-72 47 -175 47t-175 -47q-83 -52 -83 -144v-181q0 -91 83 -143q72 -47 175 -47zM403 1206q-33 0 -55.5 -23t-22.5 -55q0 -33 22.5 -55.5t55.5 -22.5q32 0 55 22.5t23 55.5q0 32 -23 55t-55 23zM418 1001
q110 -4 191 -57q97 -65 97 -178v-766h-46v103q-84 -103 -257 -103q-122 0 -207 57q-96 65 -96 178v181q0 114 96 179q85 57 207 57q173 0 257 -103v217q0 88 -77 141q-74 49 -180 49q-103 0 -175 -47q-83 -52 -83 -143v-24h-45v24q0 113 96 178q80 53 192 57q-43 4 -75 37
q-38 37 -38 90t37.5 90.5t90.5 37.5t90.5 -37.5t37.5 -90.5t-37 -90q-33 -33 -76 -37z" />
    <glyph glyph-name="ae" unicode="&#xe6;" horiz-adv-x="1345" 
d="M948 1001q123 0 210 -111q87 -112 87 -269v-143h-550v-98q0 -138 74 -236q75 -99 179 -99q78 0 143 61q66 60 92 158l7 23l43 -13l-5 -22q-32 -113 -110 -182q-77 -70 -170 -70q-82 0 -152 53q-68 53 -108 141q-17 -85 -72 -139q-55 -55 -126 -55h-184q-85 0 -146 77
q-60 76 -60 184q0 109 60 186q61 76 146 76h344v98q0 45 9 90h-9v31q0 111 -62 173q-40 41 -98 41h-184q-93 0 -140 -112l-9 -20l-42 17l9 21q58 139 182 139h184q76 0 131 -54q51 -53 68 -138q86 192 259 192zM660 284q-10 48 -10 96v98h-344q-67 0 -113 -64
q-48 -63 -48 -153q0 -89 48 -153q46 -63 113 -63h184q66 0 113 63q47 64 47 153v23h10zM1200 621q0 138 -75 236q-73 99 -177 99t-179 -99q-74 -98 -74 -236v-98h505v98z" />
    <glyph glyph-name="ccedilla" unicode="&#xe7;" 
d="M371 2q-102 10 -177 87q-94 99 -94 264v295q0 165 94 264q86 89 209 89q122 0 206 -85q97 -97 97 -268v-22h-46v22q0 148 -81 232q-72 76 -176 76q-102 0 -175 -74q-82 -85 -82 -234v-295q0 -149 82 -234q73 -74 175 -74q103 0 175 74q82 85 82 234v22h46v-22
q0 -171 -97 -268q-77 -78 -185 -84l-12 -91q91 -20 122 -58.5t31 -82.5q-3 -62 -52 -107t-179 -54q-53 0 -70 2l10 43h20q20 0 42 1q68 3 117 26q59 36 59 93v5q-5 39 -35.5 60.5t-66 29t-56.5 7.5z" />
    <glyph glyph-name="egrave" unicode="&#xe8;" 
d="M403 1001q120 0 205 -85q98 -97 98 -268v-117h-561v-178q0 -149 83 -234q72 -74 175 -74t175 74q82 85 82 234v22h46v-22q0 -171 -98 -268q-85 -85 -205 -85q-124 0 -209 89q-94 99 -94 264v295q0 165 94 264q85 89 209 89zM660 648q0 148 -81 232q-73 76 -176 76
t-175 -74q-83 -85 -83 -234v-71h515v71zM472 1096h-45l-161 210h91z" />
    <glyph glyph-name="eacute" unicode="&#xe9;" 
d="M403 1001q120 0 205 -85q98 -97 98 -268v-117h-561v-178q0 -149 83 -234q72 -74 175 -74t175 74q82 85 82 234v22h46v-22q0 -171 -98 -268q-85 -85 -205 -85q-124 0 -209 89q-94 99 -94 264v295q0 165 94 264q85 89 209 89zM660 648q0 148 -81 232q-73 76 -176 76
t-175 -74q-83 -85 -83 -234v-71h515v71zM449 1306h91l-161 -210h-45z" />
    <glyph glyph-name="ecircumflex" unicode="&#xea;" 
d="M403 1001q120 0 205 -85q98 -97 98 -268v-117h-561v-178q0 -149 83 -234q72 -74 175 -74t175 74q82 85 82 234v22h46v-22q0 -171 -98 -268q-85 -85 -205 -85q-124 0 -209 89q-94 99 -94 264v295q0 165 94 264q85 89 209 89zM660 648q0 148 -81 232q-73 76 -176 76
t-175 -74q-83 -85 -83 -234v-71h515v71zM439 1326l165 -200h-55l-146 157l-146 -157h-55l165 200h72z" />
    <glyph glyph-name="edieresis" unicode="&#xeb;" 
d="M403 1001q120 0 205 -85q98 -97 98 -268v-117h-561v-178q0 -149 83 -234q72 -74 175 -74t175 74q82 85 82 234v22h46v-22q0 -171 -98 -268q-85 -85 -205 -85q-124 0 -209 89q-94 99 -94 264v295q0 165 94 264q85 89 209 89zM660 648q0 148 -81 232q-73 76 -176 76
t-175 -74q-83 -85 -83 -234v-71h515v71zM260 1303h67v-67h-67v67zM480 1303h67v-67h-67v67z" />
    <glyph glyph-name="igrave" unicode="&#xec;" horiz-adv-x="316" 
d="M135 1001h45v-1001h-45v1001zM226 1096h-45l-161 210h91z" />
    <glyph glyph-name="iacute" unicode="&#xed;" horiz-adv-x="316" 
d="M136 1001h45v-1001h-45v1001zM205 1306h91l-161 -210h-45z" />
    <glyph glyph-name="icircumflex" unicode="&#xee;" horiz-adv-x="422" 
d="M188 1001h45v-1001h-45v1001zM247 1326l165 -200h-55l-146 157l-146 -157h-55l165 200h72z" />
    <glyph glyph-name="idieresis" unicode="&#xef;" horiz-adv-x="307" 
d="M131 1001h45v-1001h-45v1001zM10 1303h67v-67h-67v67zM230 1303h67v-67h-67v67z" />
    <glyph glyph-name="eth" unicode="&#xf0;" horiz-adv-x="825" 
d="M706 1448l19 -41l-171 -86q165 -272 165 -674v-250q0 -164 -90 -281q-91 -116 -219 -116t-220 116q-90 117 -90 281v249q0 165 90 282q92 116 220 116q147 0 240 -146q-42 247 -138 402l-177 -88l-20 41l171 86q-81 114 -192 161l-21 9l17 42l21 -9q127 -54 217 -182z
M674 668q-7 139 -82 234q-77 97 -182 97q-109 0 -187 -103q-78 -104 -78 -250v-249q0 -145 78 -249q78 -103 187 -103q110 0 188 103q76 104 76 249v271z" />
    <glyph glyph-name="ntilde" unicode="&#xf1;" 
d="M403 1001q122 0 206 -85q97 -97 97 -268v-648h-46v648q0 149 -82 234q-72 74 -175 74t-177 -76q-80 -84 -81 -230v-650h-45v1001h45v-154q85 154 258 154zM203 1153l7 16q41 64 87 75q5 2 18 3q31 0 80 -26q41 -22 76 -22h5q45 7 73 51h55q-1 -1 -16 -24
q-61 -76 -116 -76q-3 0 -7 1q-39 3 -79 28q-34 17 -60 17h-2q-24 0 -46 -21q-16 -19 -17 -22h-58z" />
    <glyph glyph-name="ograve" unicode="&#xf2;" 
d="M403 1001q122 0 206 -85q97 -97 97 -268v-295q0 -171 -97 -268q-84 -85 -206 -85q-121 0 -207 85q-96 97 -96 268v295q0 171 96 268q86 85 207 85zM660 648q0 149 -82 234q-72 74 -175 74t-175 -74q-83 -85 -83 -234v-295q0 -149 83 -234q72 -74 175 -74t175 74
q82 85 82 234v295zM472 1096h-45l-161 210h91z" />
    <glyph glyph-name="oacute" unicode="&#xf3;" 
d="M403 1001q122 0 206 -85q97 -97 97 -268v-295q0 -171 -97 -268q-84 -85 -206 -85q-121 0 -207 85q-96 97 -96 268v295q0 171 96 268q86 85 207 85zM660 648q0 149 -82 234q-72 74 -175 74t-175 -74q-83 -85 -83 -234v-295q0 -149 83 -234q72 -74 175 -74t175 74
q82 85 82 234v295zM449 1306h91l-161 -210h-45z" />
    <glyph glyph-name="ocircumflex" unicode="&#xf4;" 
d="M403 1001q122 0 206 -85q97 -97 97 -268v-295q0 -171 -97 -268q-84 -85 -206 -85q-121 0 -207 85q-96 97 -96 268v295q0 171 96 268q86 85 207 85zM660 648q0 149 -82 234q-72 74 -175 74t-175 -74q-83 -85 -83 -234v-295q0 -149 83 -234q72 -74 175 -74t175 74
q82 85 82 234v295zM439 1326l165 -200h-55l-146 157l-146 -157h-55l165 200h72z" />
    <glyph glyph-name="otilde" unicode="&#xf5;" 
d="M403 1001q122 0 206 -85q97 -97 97 -268v-295q0 -171 -97 -268q-84 -85 -206 -85q-121 0 -207 85q-96 97 -96 268v295q0 171 96 268q86 85 207 85zM660 648q0 149 -82 234q-72 74 -175 74t-175 -74q-83 -85 -83 -234v-295q0 -149 83 -234q72 -74 175 -74t175 74
q82 85 82 234v295zM203 1153l7 16q41 64 87 75q5 2 18 3q31 0 80 -26q41 -22 76 -22h5q45 7 73 51h55q-1 -1 -16 -24q-61 -76 -116 -76q-3 0 -7 1q-39 3 -79 28q-34 17 -60 17h-2q-24 0 -46 -21q-16 -19 -17 -22h-58z" />
    <glyph glyph-name="odieresis" unicode="&#xf6;" 
d="M403 1001q122 0 206 -85q97 -97 97 -268v-295q0 -171 -97 -268q-84 -85 -206 -85q-121 0 -207 85q-96 97 -96 268v295q0 171 96 268q86 85 207 85zM660 648q0 149 -82 234q-72 74 -175 74t-175 -74q-83 -85 -83 -234v-295q0 -149 83 -234q72 -74 175 -74t175 74
q82 85 82 234v295zM260 1303h67v-67h-67v67zM480 1303h67v-67h-67v67z" />
    <glyph glyph-name="divide" unicode="&#xf7;" horiz-adv-x="810" 
d="M110 769h617v-69h-617v69zM372 310h67v-67h-67v67zM372 1244h67v-67h-67v67z" />
    <glyph glyph-name="oslash" unicode="&#xf8;" horiz-adv-x="822" 
d="M682 1018l40 -23l-69 -116q61 -90 61 -222v-296q0 -171 -97 -268q-84 -85 -206 -85q-127 0 -212 93l-60 -101l-39 22l68 117q-60 90 -60 222v296q0 170 96 268q86 85 207 85q126 0 212 -92zM153 361q0 -102 41 -177l405 691q-73 89 -188 89q-103 0 -175 -74
q-83 -85 -83 -233v-296zM668 657q0 103 -40 177l-405 -691q73 -90 188 -90q103 0 175 75q82 84 82 233v296z" />
    <glyph glyph-name="ugrave" unicode="&#xf9;" 
d="M706 0h-46v157q-19 -39 -48 -68q-85 -89 -209 -89q-121 0 -206 85q-97 97 -97 268v648h45v-648q0 -149 83 -234q72 -74 175 -74t175 74q82 85 82 232v650h46v-1001zM472 1096h-45l-161 210h91z" />
    <glyph glyph-name="uacute" unicode="&#xfa;" 
d="M706 0h-46v157q-19 -39 -48 -68q-85 -89 -209 -89q-121 0 -206 85q-97 97 -97 268v648h45v-648q0 -149 83 -234q72 -74 175 -74t175 74q82 85 82 232v650h46v-1001zM449 1306h91l-161 -210h-45z" />
    <glyph glyph-name="ucircumflex" unicode="&#xfb;" 
d="M706 0h-46v157q-19 -39 -48 -68q-85 -89 -209 -89q-121 0 -206 85q-97 97 -97 268v648h45v-648q0 -149 83 -234q72 -74 175 -74t175 74q82 85 82 232v650h46v-1001zM439 1326l165 -200h-55l-146 157l-146 -157h-55l165 200h72z" />
    <glyph glyph-name="udieresis" unicode="&#xfc;" 
d="M706 0h-46v157q-19 -39 -48 -68q-85 -89 -209 -89q-121 0 -206 85q-97 97 -97 268v648h45v-648q0 -149 83 -234q72 -74 175 -74t175 74q82 85 82 232v650h46v-1001zM260 1303h67v-67h-67v67zM480 1303h67v-67h-67v67z" />
    <glyph glyph-name="yacute" unicode="&#xfd;" 
d="M706 -285q0 -170 -98 -267q-85 -86 -205 -86q-122 0 -207 86q-96 97 -96 267v23h45v-23q0 -148 81 -232q72 -76 177 -76q103 0 175 74q82 85 82 234v442q-84 -156 -257 -156q-124 0 -209 89q-94 99 -94 264v648h45v-648q0 -149 83 -233q72 -75 175 -75t176 76
q80 84 81 231v649h46v-1287zM449 1306h91l-161 -210h-45z" />
    <glyph glyph-name="thorn" unicode="&#xfe;" 
d="M403 1039q120 0 205 -86q98 -97 98 -266v-390q0 -170 -98 -268q-85 -84 -205 -84q-174 0 -258 154v-739h-45v2184h45v-660q84 155 258 155zM659 687q0 148 -81 233q-73 74 -175 74q-103 0 -175 -74q-83 -85 -83 -232v-392q0 -147 83 -232q72 -74 175 -74q102 0 175 74
q81 85 81 233v390z" />
    <glyph glyph-name="ydieresis" unicode="&#xff;" 
d="M706 -285q0 -170 -98 -267q-85 -86 -205 -86q-122 0 -207 86q-96 97 -96 267v23h45v-23q0 -148 81 -232q72 -76 177 -76q103 0 175 74q82 85 82 234v442q-84 -156 -257 -156q-124 0 -209 89q-94 99 -94 264v648h45v-648q0 -149 83 -233q72 -75 175 -75t176 76
q80 84 81 231v649h46v-1287zM260 1303h67v-67h-67v67zM480 1303h67v-67h-67v67z" />
    <glyph glyph-name="dotlessi" unicode="&#x131;" horiz-adv-x="285" 
d="M120 1001h45v-1001h-45v1001z" />
    <glyph glyph-name="circumflex" unicode="&#x2c6;" horiz-adv-x="602" 
d="M337 1326l165 -200h-55l-146 157l-146 -157h-55l165 200h72z" />
    <glyph glyph-name="caron" unicode="&#x2c7;" horiz-adv-x="602" 
d="M265 1126l-165 200h55l146 -157l146 157h55l-165 -200h-72z" />
    <glyph glyph-name="uni02C9" unicode="&#x2c9;" horiz-adv-x="597" 
d="M100 1240h397v-49h-397v49z" />
    <glyph glyph-name="breve" unicode="&#x2d8;" horiz-adv-x="600" 
d="M300 1195q-165 1 -180 80h55q28 -43 125 -43q98 0 125 43h55q-15 -79 -180 -80z" />
    <glyph glyph-name="dotaccent" unicode="&#x2d9;" horiz-adv-x="287" 
d="M110 1303h67v-67h-67v67z" />
    <glyph glyph-name="ring" unicode="&#x2da;" horiz-adv-x="456" 
d="M318.5 1218.5q37.5 -37.5 37.5 -90.5t-37.5 -90.5t-90.5 -37.5t-90.5 37.5t-37.5 90.5t37.5 90.5t90.5 37.5t90.5 -37.5zM228 1206q-33 0 -55.5 -23t-22.5 -55q0 -33 22.5 -55.5t55.5 -22.5q32 0 55 22.5t23 55.5q0 32 -23 55t-55 23z" />
    <glyph glyph-name="ogonek" unicode="&#x2db;" horiz-adv-x="567" 
d="M431 -204l34 -22q-20 -29 -56 -52q-35 -23 -73 -26h-8q-36 0 -68 15q-92 43 -92 136v1q3 37 28 63q32 31 116 89h50q-67 -56 -107 -103q-9 -9 -15 -18q-15 -19 -15 -43q0 -36 32 -59t73 -23q42 0 73 22z" />
    <glyph glyph-name="tilde" unicode="&#x2dc;" horiz-adv-x="601" 
d="M100 1153l7 16q41 64 87 75q5 2 18 3q31 0 80 -26q41 -22 76 -22h5q45 7 73 51h55q-1 -1 -16 -24q-61 -76 -116 -76q-3 0 -7 1q-39 3 -79 28q-34 17 -60 17h-2q-24 0 -46 -21q-16 -19 -17 -22h-58z" />
    <glyph glyph-name="hungarumlaut" unicode="&#x2dd;" horiz-adv-x="1024" 
d="M301 1306h91l-161 -210h-45zM507 1306h91l-161 -210h-45z" />
    <glyph glyph-name="endash" unicode="&#x2013;" horiz-adv-x="737" 
d="M0 549h737v-49h-737v49z" />
    <glyph glyph-name="emdash" unicode="&#x2014;" horiz-adv-x="937" 
d="M0 559h937v-49h-937v49z" />
    <glyph glyph-name="quoteleft" unicode="&#x2018;" horiz-adv-x="309" 
d="M120 1462q0 21 11 41q20 34 58 40v-30q-27 -6 -27 -91h25v-67h-67v107z" />
    <glyph glyph-name="quoteright" unicode="&#x2019;" horiz-adv-x="309" 
d="M189 1437q0 -21 -11 -41q-20 -34 -58 -40v30q27 6 27 91h-25v67h67v-107z" />
    <glyph glyph-name="quotesinglbase" unicode="&#x201a;" horiz-adv-x="309" 
d="M189 -13q0 -21 -11 -41q-20 -34 -58 -40v30q27 6 27 91h-25v67h67v-107z" />
    <glyph glyph-name="quotedblleft" unicode="&#x201c;" horiz-adv-x="406" 
d="M120 1462q0 21 11 41q20 34 58 40v-30q-27 -6 -27 -91h25v-67h-67v107zM217 1462q0 21 11 41q20 34 58 40v-30q-27 -6 -27 -91h25v-67h-67v107z" />
    <glyph glyph-name="quotedblright" unicode="&#x201d;" horiz-adv-x="406" 
d="M189 1437q0 -21 -11 -41q-20 -34 -58 -40v30q27 6 27 91h-25v67h67v-107zM286 1437q0 -21 -11 -41q-20 -34 -58 -40v30q27 6 27 91h-25v67h67v-107z" />
    <glyph glyph-name="quotedblbase" unicode="&#x201e;" horiz-adv-x="406" 
d="M189 -13q0 -21 -11 -41q-20 -34 -58 -40v30q27 6 27 91h-25v67h67v-107zM286 -13q0 -21 -11 -41q-20 -34 -58 -40v30q27 6 27 91h-25v67h67v-107z" />
    <glyph glyph-name="dagger" unicode="&#x2020;" horiz-adv-x="845" 
d="M398 1048h-328v49h328v428h49v-428h328v-49h-328v-1028h-49v1028z" />
    <glyph glyph-name="daggerdbl" unicode="&#x2021;" horiz-adv-x="918" 
d="M398 1048h-328v49h328v428h49v-428h328v-49h-328v-511h328v-49h-328v-468h-49v468h-328v49h328v511z" />
    <glyph glyph-name="bullet" unicode="&#x2022;" horiz-adv-x="833" 
d="M640.5 927.5q92.5 -92.5 92.5 -223.5q0 -132 -92.5 -224.5t-224.5 -92.5q-131 0 -223.5 92.5t-92.5 224.5q0 131 92.5 223.5t223.5 92.5q132 0 224.5 -92.5z" />
    <glyph glyph-name="ellipsis" unicode="&#x2026;" horiz-adv-x="2048" 
d="M100 67h67v-67h-67v67zM783 67h67v-67h-67v67zM1466 67h67v-67h-67v67z" />
    <glyph glyph-name="guilsinglleft" unicode="&#x2039;" horiz-adv-x="490" 
d="M438 938l-321 -432l323 -435h-66l-324 435l322 432h66z" />
    <glyph glyph-name="guilsinglright" unicode="&#x203a;" horiz-adv-x="490" 
d="M118 938l322 -432l-324 -435h-66l323 435l-321 432h66z" />
    <glyph glyph-name="fraction" unicode="&#x2044;" horiz-adv-x="398" 
d="M-400 -4l1101 1548h57l-1101 -1548h-57z" />
    <glyph glyph-name="fraction" unicode="&#x2215;" horiz-adv-x="398" 
d="M-400 -4l1101 1548h57l-1101 -1548h-57z" />
    <glyph glyph-name="franc" unicode="&#x20a3;" horiz-adv-x="853" 
d="M220 412v1133h613v-69h-544v-677h544v-69h-544v-318h248v-69h-248v-342h-69v342h-200v69h200z" />
    <glyph glyph-name="lira" unicode="&#x20a4;" horiz-adv-x="908" 
d="M762 111l19 13l27 -37l-19 -13q-103 -74 -172 -74q-53 0 -196 52q-80 30 -144 30q-48 0 -109 -25l-67 -29l40 61q78 124 114 243q38 119 40 225v2h-195v45h194q-5 87 -34 260l-1 5q0 1 -1 3v4h-150v45h142q-25 164 -25 275v20q4 133 71 228q68 100 171 100q96 0 162 -97
q61 -92 70 -249l1 -22l-46 -2l-1 22q-7 144 -62 225q-51 78 -124 78q-79 0 -134 -80q-59 -85 -62 -204v-19q0 -110 25 -275h217v-45h-210l1 -5q31 -177 35 -267h165v-45h-164v-3q-2 -113 -40 -237q-31 -99 -89 -201q35 10 66 10q74 0 161 -33q134 -50 179 -50q54 0 145 66z
" />
    <glyph glyph-name="peseta" unicode="&#x20a7;" horiz-adv-x="1682" 
d="M601 1179q0 145 -42 208q-48 79 -174 79h-217v-763h216q89 4 150 77q67 79 67 216v183zM656 949q-14 -128 -71 -205q-64 -84 -163 -104q-26 -4 -55 -4h-199v-626h-58v1525h275q177 0 240 -139q34 -77 34 -217v-172h139v527h59v-527h378q15 1 31 1q124 0 210 -62
q96 -68 96 -178v-35h-68v35q0 79 -70 136q-68 46 -168 46h-18v-1h-11q-76 -5 -132 -40q-77 -59 -77 -141v-26q0 -80 68 -130q46 -26 177 -54q144 -31 202 -67q97 -58 97 -173v-68q0 -112 -96 -179q-86 -61 -210 -61h-349q-79 3 -104 57q-15 33 -15 91v791h-142zM1073 949
h-216v-792q0 -46 11 -68q13 -21 55 -21h343q94 0 160 40q78 49 78 132v88q0 80 -68 118q-46 26 -177 56q-143 29 -203 65q-87 59 -87 175v26q0 112 104 181z" />
    <glyph glyph-name="Euro" unicode="&#x20ac;" horiz-adv-x="923" 
d="M773 247l6 22l44 -13l-6 -21q-31 -116 -118 -179q-77 -56 -172 -56q-19 0 -36 2q-109 15 -182 100q-84 98 -84 251v254h-125v45h125v237h-125v45h125v253q0 154 83 250q68 80 169 99q27 4 53 4q77 0 145 -40q92 -55 130 -160l8 -22l-41 -15l-8 21q-38 98 -121 142
q-53 29 -113 29q-22 0 -45 -4q-86 -15 -144 -85q-69 -84 -69 -219v-253h401v-45h-401v-237h348v-45h-348v-254q0 -141 73 -224q61 -70 152 -81q17 -3 33 -3q69 0 128 39q86 53 115 163z" />
    <glyph glyph-name="uni2116" unicode="&#x2116;" horiz-adv-x="1529" 
d="M110 10v1525h119l356 -1041l70 -223v1264h68v-1525h-44l-412 1206l-88 273v-1479h-69zM1173 1217q123 0 209 -90q96 -99 96 -265v-288q0 -166 -96 -265q-86 -90 -209 -90q-125 0 -211 90q-96 99 -96 265v288q0 166 96 265q86 90 211 90zM1421 862q0 147 -76 227
q-67 70 -172 70q-107 0 -173 -70q-77 -80 -77 -227v-288q0 -147 77 -227q66 -70 173 -70q105 0 172 70q76 80 76 227v288zM863 78h597v-68h-597v68z" />
    <glyph glyph-name="trademark" unicode="&#x2122;" horiz-adv-x="758" 
d="M293 1544v-18h-126v-600h-21v600h-126v18h273zM463 1015l-144 459v-547h-20v617h21l159 -507l158 507h26v-617h-21v562l-148 -474h-31z" />
    <glyph glyph-name="partialdiff" unicode="&#x2202;" horiz-adv-x="977" 
d="M736 671q-11 48 -49 78q-37 30 -86 30h-205q-56 0 -97 -40q-41 -41 -41 -97v-386q0 -56 41 -97t97 -41h205q56 0 97 41t41 97v395zM552 1124q-118 145 -280 154l-44 2l4 88l44 -2q156 -8 278 -117q34 -31 65 -70q102 -126 163 -323q43 -139 45 -241v-359q0 -94 -66 -160
t-160 -66h-205q-94 0 -160 66t-66 160v386q0 93 66 159q66 67 160 67h205q19 0 90 -13q-68 181 -139 269z" />
    <glyph glyph-name="Delta" unicode="&#x2206;" horiz-adv-x="1251" 
d="M95 30l545 1293l546 -1293h-1091zM1075 103l-435 1031l-434 -1031h869z" />
    <glyph glyph-name="product" unicode="&#x220f;" horiz-adv-x="1212" 
d="M1137 1370v-89h-223v-1251h-88v1251h-420v-1251h-88v1251h-223v89h1042z" />
    <glyph glyph-name="summation" unicode="&#x2211;" horiz-adv-x="1318" 
d="M254 1281l817 -581l-817 -581h964v-89h-1098v103l798 567l-798 567v103h1098v-89h-964z" />
    <glyph glyph-name="minus" unicode="&#x2212;" horiz-adv-x="837" 
d="M110 769h617v-69h-617v69z" />
    <glyph glyph-name="radical" unicode="&#x221a;" horiz-adv-x="991" 
d="M540 1646h391v-63h-337l-256 -1553h-81l-164 477l60 20l137 -399z" />
    <glyph glyph-name="infinity" unicode="&#x221e;" horiz-adv-x="2079" 
d="M523 355q-52 0 -103 16q-50 18 -95 51q-45 34 -80 83q-34 49 -54 116q-21 67 -21 151q0 86 21 153q20 66 55 116t81 84q46 33 95 50q51 17 101 17q91 -2 173 -37q85 -39 160 -103q78 -66 141 -147l52 -68l53 68q63 81 141 147q75 64 160 103q81 35 173 37q50 0 100 -17
t95 -50q46 -34 81 -84q35 -48 55 -116q21 -67 22 -153q-1 -86 -22 -153q-20 -67 -54 -115q-36 -51 -82 -83q-44 -33 -95 -49q-51 -17 -100 -17q-93 1 -173 36q-85 37 -160 101q-78 66 -141 147l-53 68l-52 -68q-64 -81 -141 -147q-76 -64 -160 -101q-81 -35 -173 -36z
M519 441q117 0 231 72q108 67 218 210l36 49l-36 49q-57 73 -122 136q-72 65 -149 103q-85 42 -178 43q-80 -1 -143 -43q-66 -41 -102 -117q-37 -74 -37 -171t37 -171q36 -76 102 -118q63 -41 143 -42zM1131 820l-37 -48l37 -49q59 -77 122 -137q70 -65 149 -103
q84 -41 178 -42q80 1 143 42q65 42 102 118q36 74 37 171q-1 101 -39 176t-103 115q-64 40 -140 40q-94 -1 -178 -42q-79 -39 -149 -103q-66 -62 -122 -138z" />
    <glyph glyph-name="integral" unicode="&#x222b;" horiz-adv-x="915" 
d="M618 1440q106 145 295 145h18l-12 -66h-1q-157 0 -244 -113q-58 -75 -71 -163q-34 -198 -103 -602q-69 -400 -103 -601q-14 -99 -79 -187q-106 -145 -295 -145h-18l12 66h1q157 0 244 113q58 75 71 163q35 201 103 601q69 402 103 602q14 99 79 187z" />
    <glyph glyph-name="approxequal" unicode="&#x2248;" horiz-adv-x="1000" 
d="M825 600q-98 -81 -195 -81h-15q-70 4 -179 67q-82 46 -120 46h-4q-57 -3 -129 -67v69q62 66 133 67q55 0 155 -57q97 -55 151 -57h5q86 0 198 87v-74zM825 398q-98 -81 -195 -81h-15q-70 4 -179 67q-82 46 -120 46h-4q-57 -3 -129 -67v69q62 66 133 67q55 0 155 -57
q97 -55 151 -57h5q86 0 198 87v-74z" />
    <glyph glyph-name="lessequal" unicode="&#x2264;" horiz-adv-x="887" 
d="M60 79h767v-69h-767v69zM61 640l763 425v-80l-683 -378l683 -377v-79l-763 423v66z" />
    <glyph glyph-name="greaterequal" unicode="&#x2265;" horiz-adv-x="887" 
d="M827 10h-767v69h767v-69zM826 574l-763 -423v79l683 377l-683 378v80l763 -425v-66z" />
    <glyph glyph-name="uniF001" unicode="&#xf001;" horiz-adv-x="933" 
d="M298 1478q66 66 227 66h23l-1 -45h-22q-142 0 -194 -52q-64 -64 -64 -255v-191h210v-45h-210v-956h-45v956h-122v45h122v191q0 209 76 286zM768 1001h45v-1001h-45v1001zM758 1303h67v-67h-67v67z" />
    <glyph glyph-name="uniF001" unicode="&#xfb01;" horiz-adv-x="933" 
d="M298 1478q66 66 227 66h23l-1 -45h-22q-142 0 -194 -52q-64 -64 -64 -255v-191h210v-45h-210v-956h-45v956h-122v45h122v191q0 209 76 286zM768 1001h45v-1001h-45v1001zM758 1303h67v-67h-67v67z" />
    <glyph glyph-name="uniF002" unicode="&#xf002;" horiz-adv-x="949" 
d="M298 1478q66 66 227 66h23l-1 -45h-22q-142 0 -194 -52q-64 -64 -64 -255v-191h210v-45h-210v-956h-45v956h-122v45h122v191q0 209 76 286zM813 124q2 -32 17 -53q21 -26 59 -28h50v-44h-42q-85 3 -113 63q-16 35 -16 95v1387h45v-1420z" />
    <glyph glyph-name="uniF002" unicode="&#xfb02;" horiz-adv-x="949" 
d="M298 1478q66 66 227 66h23l-1 -45h-22q-142 0 -194 -52q-64 -64 -64 -255v-191h210v-45h-210v-956h-45v956h-122v45h122v191q0 209 76 286zM813 124q2 -32 17 -53q21 -26 59 -28h50v-44h-42q-85 3 -113 63q-16 35 -16 95v1387h45v-1420z" />
    <glyph glyph-name="Amacron" unicode="&#x100;" horiz-adv-x="854" 
d="M634 641l-206 795l-205 -795h411zM10 0l399 1544h38l397 -1544h-46l-153 596h-434l-154 -596h-47zM229 1783h397v-49h-397v49z" />
    <glyph glyph-name="amacron" unicode="&#x101;" 
d="M403 1001q120 0 206 -57q97 -65 97 -178v-766h-46v103q-84 -103 -257 -103q-122 0 -207 57q-96 65 -96 178v181q0 114 96 179q85 57 207 57q173 0 257 -103v217q0 88 -77 141q-74 49 -180 49q-103 0 -175 -47q-83 -52 -83 -143v-24h-45v24q0 113 96 178q85 57 207 57z
M403 45q103 0 175 47q82 52 82 143v181q0 92 -82 144q-72 47 -175 47t-175 -47q-83 -52 -83 -144v-181q0 -91 83 -143q72 -47 175 -47zM205 1240h397v-49h-397v49z" />
    <glyph glyph-name="Abreve" unicode="&#x102;" horiz-adv-x="854" 
d="M634 641l-206 795l-205 -795h411zM10 0l399 1544h38l397 -1544h-46l-153 596h-434l-154 -596h-47zM427 1738q-165 1 -180 80h55q28 -43 125 -43q98 0 125 43h55q-15 -79 -180 -80z" />
    <glyph glyph-name="abreve" unicode="&#x103;" 
d="M403 1001q120 0 206 -57q97 -65 97 -178v-766h-46v103q-84 -103 -257 -103q-122 0 -207 57q-96 65 -96 178v181q0 114 96 179q85 57 207 57q173 0 257 -103v217q0 88 -77 141q-74 49 -180 49q-103 0 -175 -47q-83 -52 -83 -143v-24h-45v24q0 113 96 178q85 57 207 57z
M403 45q103 0 175 47q82 52 82 143v181q0 92 -82 144q-72 47 -175 47t-175 -47q-83 -52 -83 -144v-181q0 -91 83 -143q72 -47 175 -47zM403 1195q-165 1 -180 80h55q28 -43 125 -43q98 0 125 43h55q-15 -79 -180 -80z" />
    <glyph glyph-name="Aogonek" unicode="&#x104;" horiz-adv-x="854" 
d="M634 641l-206 795l-205 -795h411zM798 0l-153 596h-434l-154 -596h-47l399 1544h38l397 -1544h2q-67 -56 -107 -103q-9 -9 -15 -18q-15 -19 -15 -43q0 -36 32 -59t73 -23q42 0 73 22l28 20l34 -22q-20 -29 -56 -52q-35 -23 -73 -26h-8q-36 0 -68 15q-92 43 -92 136v1
q3 37 28 63q32 31 116 89h2z" />
    <glyph glyph-name="aogonek" unicode="&#x105;" 
d="M403 45q103 0 175 47q82 52 82 143v181q0 92 -82 144q-72 47 -175 47t-175 -47q-83 -52 -83 -144v-181q0 -91 83 -143q72 -47 175 -47zM660 0v103q-84 -103 -257 -103q-122 0 -207 57q-96 65 -96 178v181q0 114 96 179q85 57 207 57q173 0 257 -103v217q0 88 -77 141
q-74 49 -180 49q-103 0 -175 -47q-83 -52 -83 -143v-24h-45v24q0 113 96 178q85 57 207 57q120 0 206 -57q97 -65 97 -178v-766h2q-67 -56 -107 -103q-9 -9 -15 -18q-15 -19 -15 -43q0 -36 32 -59t73 -23q42 0 73 22l28 20l34 -22q-20 -29 -56 -52q-35 -23 -73 -26h-8
q-36 0 -68 15q-92 43 -92 136v1q3 37 28 63q32 31 116 89h2z" />
    <glyph glyph-name="Cacute" unicode="&#x106;" 
d="M403 1544q122 0 206 -86q97 -97 97 -266v-24h-46v24q0 147 -82 233q-72 74 -175 74t-177 -75q-81 -86 -81 -232v-839q0 -149 83 -234q72 -74 175 -74t175 74q82 85 82 234v22h46v-22q0 -171 -97 -268q-84 -85 -206 -85q-121 0 -206 85q-97 97 -97 268v839q0 169 97 266
q85 86 206 86zM449 1849h91l-161 -210h-45z" />
    <glyph glyph-name="cacute" unicode="&#x107;" 
d="M403 1001q122 0 206 -85q97 -97 97 -268v-22h-46v22q0 148 -81 232q-72 76 -176 76q-102 0 -175 -74q-82 -85 -82 -234v-295q0 -149 82 -234q73 -74 175 -74q103 0 175 74q82 85 82 234v22h46v-22q0 -171 -97 -268q-84 -85 -206 -85q-123 0 -209 89q-94 99 -94 264v295
q0 165 94 264q86 89 209 89zM449 1306h91l-161 -210h-45z" />
    <glyph glyph-name="Ccircumflex" unicode="&#x108;" 
d="M403 1544q122 0 206 -86q97 -97 97 -266v-24h-46v24q0 147 -82 233q-72 74 -175 74t-177 -75q-81 -86 -81 -232v-839q0 -149 83 -234q72 -74 175 -74t175 74q82 85 82 234v22h46v-22q0 -171 -97 -268q-84 -85 -206 -85q-121 0 -206 85q-97 97 -97 268v839q0 169 97 266
q85 86 206 86zM439 1869l165 -200h-55l-146 157l-146 -157h-55l165 200h72z" />
    <glyph glyph-name="ccircumflex" unicode="&#x109;" 
d="M403 1001q122 0 206 -85q97 -97 97 -268v-22h-46v22q0 148 -81 232q-72 76 -176 76q-102 0 -175 -74q-82 -85 -82 -234v-295q0 -149 82 -234q73 -74 175 -74q103 0 175 74q82 85 82 234v22h46v-22q0 -171 -97 -268q-84 -85 -206 -85q-123 0 -209 89q-94 99 -94 264v295
q0 165 94 264q86 89 209 89zM439 1326l165 -200h-55l-146 157l-146 -157h-55l165 200h72z" />
    <glyph glyph-name="Cdotaccent" unicode="&#x10a;" 
d="M403 1544q122 0 206 -86q97 -97 97 -266v-24h-46v24q0 147 -82 233q-72 74 -175 74t-177 -75q-81 -86 -81 -232v-839q0 -149 83 -234q72 -74 175 -74t175 74q82 85 82 234v22h46v-22q0 -171 -97 -268q-84 -85 -206 -85q-121 0 -206 85q-97 97 -97 268v839q0 169 97 266
q85 86 206 86zM370 1846h67v-67h-67v67z" />
    <glyph glyph-name="cdotaccent" unicode="&#x10b;" 
d="M403 1001q122 0 206 -85q97 -97 97 -268v-22h-46v22q0 148 -81 232q-72 76 -176 76q-102 0 -175 -74q-82 -85 -82 -234v-295q0 -149 82 -234q73 -74 175 -74q103 0 175 74q82 85 82 234v22h46v-22q0 -171 -97 -268q-84 -85 -206 -85q-123 0 -209 89q-94 99 -94 264v295
q0 165 94 264q86 89 209 89zM370 1303h67v-67h-67v67z" />
    <glyph glyph-name="Ccaron" unicode="&#x10c;" 
d="M403 1544q122 0 206 -86q97 -97 97 -266v-24h-46v24q0 147 -82 233q-72 74 -175 74t-177 -75q-81 -86 -81 -232v-839q0 -149 83 -234q72 -74 175 -74t175 74q82 85 82 234v22h46v-22q0 -171 -97 -268q-84 -85 -206 -85q-121 0 -206 85q-97 97 -97 268v839q0 169 97 266
q85 86 206 86zM367 1669l-165 200h55l146 -157l146 157h55l-165 -200h-72z" />
    <glyph glyph-name="ccaron" unicode="&#x10d;" 
d="M403 1001q122 0 206 -85q97 -97 97 -268v-22h-46v22q0 148 -81 232q-72 76 -176 76q-102 0 -175 -74q-82 -85 -82 -234v-295q0 -149 82 -234q73 -74 175 -74q103 0 175 74q82 85 82 234v22h46v-22q0 -171 -97 -268q-84 -85 -206 -85q-123 0 -209 89q-94 99 -94 264v295
q0 165 94 264q86 89 209 89zM367 1126l-165 200h55l146 -157l146 157h55l-165 -200h-72z" />
    <glyph glyph-name="Dcaron" unicode="&#x10e;" 
d="M403 1544q124 0 213 -89q90 -89 90 -214v-938q0 -126 -90 -215q-89 -88 -213 -88h-303v1544h303zM659 1241q0 106 -75 181q-76 77 -181 77h-258v-1454h258q105 0 181 76q75 75 75 182v938zM367 1669l-165 200h55l146 -157l146 157h55l-165 -200h-72z" />
    <glyph glyph-name="dcaron" unicode="&#x10f;" horiz-adv-x="920" 
d="M706 0h-46v154q-84 -154 -257 -154q-122 0 -207 85q-96 97 -96 268v295q0 171 96 268q85 85 207 85q173 0 257 -154v697h46v-1544zM403 45q102 0 174 74q82 85 83 232v299q-1 147 -83 232q-72 74 -174 74q-103 0 -175 -74q-83 -85 -83 -234v-295q0 -149 83 -234
q72 -74 175 -74zM890 1437q0 -21 -11 -41q-20 -34 -58 -40v30q27 6 27 91h-25v67h67v-107z" />
    <glyph glyph-name="Dcroat" unicode="&#x110;" horiz-adv-x="967" 
d="M564 1544q125 0 213 -89q90 -89 90 -214v-938q0 -126 -90 -215q-88 -88 -213 -88h-303v749h-161v46h161v749h303zM822 1241q0 106 -77 181q-75 77 -181 77h-258v-704h170v-46h-170v-704h258q106 0 181 76q77 75 77 182v938z" />
    <glyph glyph-name="dcroat" unicode="&#x111;" horiz-adv-x="886" 
d="M403 45q102 0 174 74q82 85 83 232v299q-1 147 -83 232q-72 74 -174 74q-103 0 -175 -74q-83 -85 -83 -234v-295q0 -149 83 -234q72 -74 175 -74zM706 1259v-1259h-46v154q-84 -154 -257 -154q-122 0 -207 85q-96 97 -96 268v295q0 171 96 268q85 85 207 85
q173 0 257 -154v412h-351v45h351v240h46v-240h170v-45h-170z" />
    <glyph glyph-name="Emacron" unicode="&#x112;" 
d="M100 1544h606v-45h-561v-703h561v-45h-561v-706h561v-45h-606v1544zM205 1783h397v-49h-397v49z" />
    <glyph glyph-name="emacron" unicode="&#x113;" 
d="M403 1001q120 0 205 -85q98 -97 98 -268v-117h-561v-178q0 -149 83 -234q72 -74 175 -74t175 74q82 85 82 234v22h46v-22q0 -171 -98 -268q-85 -85 -205 -85q-124 0 -209 89q-94 99 -94 264v295q0 165 94 264q85 89 209 89zM660 648q0 148 -81 232q-73 76 -176 76
t-175 -74q-83 -85 -83 -234v-71h515v71zM205 1240h397v-49h-397v49z" />
    <glyph glyph-name="Ebreve" unicode="&#x114;" 
d="M100 1544h606v-45h-561v-703h561v-45h-561v-706h561v-45h-606v1544zM403 1738q-165 1 -180 80h55q28 -43 125 -43q98 0 125 43h55q-15 -79 -180 -80z" />
    <glyph glyph-name="ebreve" unicode="&#x115;" 
d="M403 1001q120 0 205 -85q98 -97 98 -268v-117h-561v-178q0 -149 83 -234q72 -74 175 -74t175 74q82 85 82 234v22h46v-22q0 -171 -98 -268q-85 -85 -205 -85q-124 0 -209 89q-94 99 -94 264v295q0 165 94 264q85 89 209 89zM660 648q0 148 -81 232q-73 76 -176 76
t-175 -74q-83 -85 -83 -234v-71h515v71zM403 1195q-165 1 -180 80h55q28 -43 125 -43q98 0 125 43h55q-15 -79 -180 -80z" />
    <glyph glyph-name="Edotaccent" unicode="&#x116;" 
d="M100 1544h606v-45h-561v-703h561v-45h-561v-706h561v-45h-606v1544zM370 1846h67v-67h-67v67z" />
    <glyph glyph-name="edotaccent" unicode="&#x117;" 
d="M403 1001q120 0 205 -85q98 -97 98 -268v-117h-561v-178q0 -149 83 -234q72 -74 175 -74t175 74q82 85 82 234v22h46v-22q0 -171 -98 -268q-85 -85 -205 -85q-124 0 -209 89q-94 99 -94 264v295q0 165 94 264q85 89 209 89zM660 648q0 148 -81 232q-73 76 -176 76
t-175 -74q-83 -85 -83 -234v-71h515v71zM370 1303h67v-67h-67v67z" />
    <glyph glyph-name="Eogonek" unicode="&#x118;" 
d="M550 0h-450v1544h606v-45h-561v-703h561v-45h-561v-706h561v-45h-106q-67 -56 -107 -103q-9 -9 -15 -18q-15 -19 -15 -43q0 -36 32 -59t73 -23q42 0 73 22l28 20l34 -22q-20 -29 -56 -52q-35 -23 -73 -26h-8q-36 0 -68 15q-92 43 -92 136v1q3 37 28 63q32 31 116 89z" />
    <glyph glyph-name="eogonek" unicode="&#x119;" 
d="M660 648q0 148 -81 232q-73 76 -176 76t-175 -74q-83 -85 -83 -234v-71h515v71zM449 3q-22 -3 -46 -3q-124 0 -209 89q-94 99 -94 264v295q0 165 94 264q85 89 209 89q120 0 205 -85q98 -97 98 -268v-117h-561v-178q0 -149 83 -234q72 -74 175 -74t175 74q82 85 82 234
v22h46v-22q0 -167 -93 -263l-5 -5q-18 -18 -38 -32q-38 -35 -64 -66q-9 -9 -15 -18q-15 -19 -15 -43q0 -36 32 -59t73 -23q42 0 73 22l28 20l34 -22q-20 -29 -56 -52q-35 -23 -73 -26h-8q-36 0 -68 15q-92 43 -92 136v1q3 37 28 63z" />
    <glyph glyph-name="Ecaron" unicode="&#x11a;" 
d="M100 1544h606v-45h-561v-703h561v-45h-561v-706h561v-45h-606v1544zM367 1669l-165 200h55l146 -157l146 157h55l-165 -200h-72z" />
    <glyph glyph-name="ecaron" unicode="&#x11b;" 
d="M403 1001q120 0 205 -85q98 -97 98 -268v-117h-561v-178q0 -149 83 -234q72 -74 175 -74t175 74q82 85 82 234v22h46v-22q0 -171 -98 -268q-85 -85 -205 -85q-124 0 -209 89q-94 99 -94 264v295q0 165 94 264q85 89 209 89zM660 648q0 148 -81 232q-73 76 -176 76
t-175 -74q-83 -85 -83 -234v-71h515v71zM367 1126l-165 200h55l146 -157l146 157h55l-165 -200h-72z" />
    <glyph glyph-name="Gcircumflex" unicode="&#x11c;" 
d="M403 1544q125 0 213 -89q90 -89 90 -214v-197h-46v197q0 106 -75 181q-76 77 -182 77q-107 0 -182 -77q-76 -75 -76 -181v-938q0 -107 76 -182q75 -76 182 -76q106 0 182 76q75 75 75 182v448h-280v45h326v-493q0 -126 -90 -215q-88 -88 -213 -88q-126 0 -215 88
q-88 89 -88 215v938q0 125 88 214q89 89 215 89zM439 1869l165 -200h-55l-146 157l-146 -157h-55l165 200h72z" />
    <glyph glyph-name="gcircumflex" unicode="&#x11d;" 
d="M706 -286q0 -170 -98 -267q-85 -86 -205 -86q-122 0 -207 86q-96 97 -96 267v23h45v-23q0 -148 81 -232q72 -76 177 -76q103 0 175 74q82 85 82 234v440q-84 -154 -257 -154q-122 0 -207 85q-96 97 -96 268v296q0 170 96 268q85 84 207 84q173 0 257 -154v154h46v-1287z
M403 45q103 0 175 75q81 84 82 232v298q-1 147 -82 232q-72 74 -175 74t-175 -74q-83 -85 -83 -233v-296q0 -149 83 -233q72 -75 175 -75zM439 1326l165 -200h-55l-146 157l-146 -157h-55l165 200h72z" />
    <glyph glyph-name="Gbreve" unicode="&#x11e;" 
d="M403 1544q125 0 213 -89q90 -89 90 -214v-197h-46v197q0 106 -75 181q-76 77 -182 77q-107 0 -182 -77q-76 -75 -76 -181v-938q0 -107 76 -182q75 -76 182 -76q106 0 182 76q75 75 75 182v448h-280v45h326v-493q0 -126 -90 -215q-88 -88 -213 -88q-126 0 -215 88
q-88 89 -88 215v938q0 125 88 214q89 89 215 89zM403 1738q-165 1 -180 80h55q28 -43 125 -43q98 0 125 43h55q-15 -79 -180 -80z" />
    <glyph glyph-name="gbreve" unicode="&#x11f;" 
d="M706 -286q0 -170 -98 -267q-85 -86 -205 -86q-122 0 -207 86q-96 97 -96 267v23h45v-23q0 -148 81 -232q72 -76 177 -76q103 0 175 74q82 85 82 234v440q-84 -154 -257 -154q-122 0 -207 85q-96 97 -96 268v296q0 170 96 268q85 84 207 84q173 0 257 -154v154h46v-1287z
M403 45q103 0 175 75q81 84 82 232v298q-1 147 -82 232q-72 74 -175 74t-175 -74q-83 -85 -83 -233v-296q0 -149 83 -233q72 -75 175 -75zM403 1195q-165 1 -180 80h55q28 -43 125 -43q98 0 125 43h55q-15 -79 -180 -80z" />
    <glyph glyph-name="Gdotaccent" unicode="&#x120;" 
d="M403 1544q125 0 213 -89q90 -89 90 -214v-197h-46v197q0 106 -75 181q-76 77 -182 77q-107 0 -182 -77q-76 -75 -76 -181v-938q0 -107 76 -182q75 -76 182 -76q106 0 182 76q75 75 75 182v448h-280v45h326v-493q0 -126 -90 -215q-88 -88 -213 -88q-126 0 -215 88
q-88 89 -88 215v938q0 125 88 214q89 89 215 89zM370 1846h67v-67h-67v67z" />
    <glyph glyph-name="gdotaccent" unicode="&#x121;" 
d="M706 -286q0 -170 -98 -267q-85 -86 -205 -86q-122 0 -207 86q-96 97 -96 267v23h45v-23q0 -148 81 -232q72 -76 177 -76q103 0 175 74q82 85 82 234v440q-84 -154 -257 -154q-122 0 -207 85q-96 97 -96 268v296q0 170 96 268q85 84 207 84q173 0 257 -154v154h46v-1287z
M403 45q103 0 175 75q81 84 82 232v298q-1 147 -82 232q-72 74 -175 74t-175 -74q-83 -85 -83 -233v-296q0 -149 83 -233q72 -75 175 -75zM370 1303h67v-67h-67v67z" />
    <glyph glyph-name="uni0122" unicode="&#x122;" 
d="M403 1544q125 0 213 -89q90 -89 90 -214v-197h-46v197q0 106 -75 181q-76 77 -182 77q-107 0 -182 -77q-76 -75 -76 -181v-938q0 -107 76 -182q75 -76 182 -76q106 0 182 76q75 75 75 182v448h-280v45h326v-493q0 -126 -90 -215q-88 -88 -213 -88q-126 0 -215 88
q-88 89 -88 215v938q0 125 88 214q89 89 215 89zM290 -336h18q18 -1 34 -1q203 0 213 117q-10 97 -207 97h-2v46q7 1 36 1q125 0 173 -42t51 -110q-3 -63 -59 -108t-197 -45q-36 0 -60 2v43z" />
    <glyph glyph-name="uni0123" unicode="&#x123;" 
d="M706 -286q0 -170 -98 -267q-85 -86 -205 -86q-122 0 -207 86q-96 97 -96 267v23h45v-23q0 -148 81 -232q72 -76 177 -76q103 0 175 74q82 85 82 234v440q-84 -154 -257 -154q-122 0 -207 85q-96 97 -96 268v296q0 170 96 268q85 84 207 84q173 0 257 -154v154h46v-1287z
M403 45q103 0 175 75q81 84 82 232v298q-1 147 -82 232q-72 74 -175 74t-175 -74q-83 -85 -83 -233v-296q0 -149 83 -233q72 -75 175 -75zM350 1273q0 21 11 41q20 34 58 40v-30q-27 -6 -27 -91h25v-67h-67v107z" />
    <glyph glyph-name="Hcircumflex" unicode="&#x124;" 
d="M706 0h-46v751h-515v-751h-45v1544h45v-748h515v748h46v-1544zM439 1869l165 -200h-55l-146 157l-146 -157h-55l165 200h72z" />
    <glyph glyph-name="hcircumflex" unicode="&#x125;" 
d="M403 1001q122 0 206 -85q97 -97 97 -268v-648h-46v648q0 148 -81 232q-72 76 -176 76q-102 0 -174 -74q-83 -85 -83 -232v-650h-46v1544h46v-697q84 154 257 154zM439 1764l165 -200h-55l-146 157l-146 -157h-55l165 200h72z" />
    <glyph glyph-name="Hbar" unicode="&#x126;" horiz-adv-x="1001" 
d="M797 1294v-1294h-48v729h-496v-729h-49v1294h-174v49h174v200h49v-200h496v200h48v-200h174v-49h-174zM253 1294v-516h496v516h-496z" />
    <glyph glyph-name="hbar" unicode="&#x127;" horiz-adv-x="943" 
d="M279 1258v-409q90 149 248 149q118 0 202 -87q94 -96 94 -258v-654h-48v654q0 141 -79 224q-69 73 -169 73q-101 0 -171 -73q-77 -83 -77 -223v-655h-49v1259h-200v49h200v236h49v-236h404v-49h-404z" />
    <glyph glyph-name="Itilde" unicode="&#x128;" horiz-adv-x="421" 
d="M188 1544h45v-1544h-45v1544zM10 1696l7 16q41 64 87 75q5 2 18 3q31 0 80 -26q41 -22 76 -22h5q45 7 73 51h55q-1 -1 -16 -24q-61 -76 -116 -76q-3 0 -7 1q-39 3 -79 28q-34 17 -60 17h-2q-24 0 -46 -21q-16 -19 -17 -22h-58z" />
    <glyph glyph-name="itilde" unicode="&#x129;" horiz-adv-x="421" 
d="M188 1001h45v-1001h-45v1001zM10 1153l7 16q41 64 87 75q5 2 18 3q31 0 80 -26q41 -22 76 -22h5q45 7 73 51h55q-1 -1 -16 -24q-61 -76 -116 -76q-3 0 -7 1q-39 3 -79 28q-34 17 -60 17h-2q-24 0 -46 -21q-16 -19 -17 -22h-58z" />
    <glyph glyph-name="Imacron" unicode="&#x12a;" horiz-adv-x="417" 
d="M186 1544h45v-1544h-45v1544zM10 1783h397v-49h-397v49z" />
    <glyph glyph-name="imacron" unicode="&#x12b;" horiz-adv-x="417" 
d="M186 1001h45v-1001h-45v1001zM10 1240h397v-49h-397v49z" />
    <glyph glyph-name="Ibreve" unicode="&#x12c;" horiz-adv-x="400" 
d="M177 1544h45v-1544h-45v1544zM200 1738q-165 1 -180 80h55q28 -43 125 -43q98 0 125 43h55q-15 -79 -180 -80z" />
    <glyph glyph-name="ibreve" unicode="&#x12d;" horiz-adv-x="400" 
d="M177 1001h45v-1001h-45v1001zM200 1195q-165 1 -180 80h55q28 -43 125 -43q98 0 125 43h55q-15 -79 -180 -80z" />
    <glyph glyph-name="Iogonek" unicode="&#x12e;" horiz-adv-x="367" 
d="M158 0v1544h45v-1544q-66 -56 -106 -103q-9 -9 -15 -18q-15 -19 -15 -43q0 -36 32 -59t73 -23q42 0 73 22l28 20l34 -22q-20 -29 -56 -52q-35 -23 -73 -26h-8q-36 0 -68 15q-92 43 -92 136v1q3 37 28 63q32 31 120 89z" />
    <glyph glyph-name="iogonek" unicode="&#x12f;" horiz-adv-x="367" 
d="M146 1303h67v-67h-67v67zM156 0v1001h45v-1001q-64 -56 -104 -103q-9 -9 -15 -18q-15 -19 -15 -43q0 -36 32 -59t73 -23q42 0 73 22l28 20l34 -22q-20 -29 -56 -52q-35 -23 -73 -26h-8q-36 0 -68 15q-92 43 -92 136v1q3 37 28 63q32 31 118 89z" />
    <glyph glyph-name="Idotaccent" unicode="&#x130;" horiz-adv-x="307" 
d="M131 1544h45v-1544h-45v1544zM120 1846h67v-67h-67v67z" />
    <glyph glyph-name="IJ" unicode="&#x132;" horiz-adv-x="1091" 
d="M120 1544h45v-1544h-45v1544zM944 1544h47v-1241q0 -126 -90 -215q-88 -88 -213 -88q-126 0 -215 88q-88 89 -88 215v22h45v-22q0 -107 76 -182q75 -76 182 -76q105 0 181 76q75 75 75 182v1241z" />
    <glyph glyph-name="ij" unicode="&#x133;" horiz-adv-x="590" 
d="M120 1001h45v-1001h-45v1001zM110 1303h67v-67h-67v67zM460 1002v-1294q0 -194 -64 -273q-49 -60 -150 -74q-37 -6 -89 -6h-22v45h22q106 0 158 27q46 24 69 78q31 68 31 200v1297h45zM405 1303h67v-67h-67v67z" />
    <glyph glyph-name="Jcircumflex" unicode="&#x134;" horiz-adv-x="726" 
d="M579 1544h47v-1241q0 -126 -90 -215q-88 -88 -213 -88q-126 0 -215 88q-88 89 -88 215v22h45v-22q0 -107 76 -182q75 -76 182 -76q105 0 181 76q75 75 75 182v1241zM636 1869l165 -200h-55l-146 157l-146 -157h-55l165 200h72z" />
    <glyph glyph-name="jcircumflex" unicode="&#x135;" horiz-adv-x="450" 
d="M265 1326l165 -200h-55l-146 157l-146 -157h-55l165 200h72zM250 1002v-1294q0 -194 -64 -273q-49 -60 -150 -74q-37 -6 -89 -6h-22v45h22q106 0 158 27q46 24 69 78q31 68 31 200v1297h45z" />
    <glyph glyph-name="uni0136" unicode="&#x136;" horiz-adv-x="862" 
d="M799 0l-500 863l-153 -206v-657h-46v1544h46v-811l601 811h55l-473 -640l523 -904h-53zM310 -336h18q18 -1 34 -1q203 0 213 117q-10 97 -207 97h-2v46q7 1 36 1q125 0 173 -42t51 -110q-3 -63 -59 -108t-197 -45q-36 0 -60 2v43z" />
    <glyph glyph-name="uni0137" unicode="&#x137;" horiz-adv-x="810" 
d="M769 1001l-417 -343l448 -658h-55l-429 629l-170 -140v-490h-46v1544h46v-995l552 453h71zM260 -336h18q18 -1 34 -1q203 0 213 117q-10 97 -207 97h-2v46q7 1 36 1q125 0 173 -42t51 -110q-3 -63 -59 -108t-197 -45q-36 0 -60 2v43z" />
    <glyph glyph-name="kgreenlandic" unicode="&#x138;" horiz-adv-x="810" 
d="M769 1001l-417 -343l448 -658h-55l-429 629l-170 -140v-490h-46v1001h46v-452l552 453h71z" />
    <glyph glyph-name="Lacute" unicode="&#x139;" 
d="M145 45h561v-45h-606v1544h45v-1499zM449 1849h91l-161 -210h-45z" />
    <glyph glyph-name="lacute" unicode="&#x13a;" horiz-adv-x="346" 
d="M183 124q2 -32 17 -53q21 -26 59 -28h50v-44h-42q-85 3 -113 63q-16 35 -16 95v1387h45v-1420zM235 1806h91l-161 -210h-45z" />
    <glyph glyph-name="uni013B" unicode="&#x13b;" 
d="M145 45h561v-45h-606v1544h45v-1499zM280 -336h18q18 -1 34 -1q203 0 213 117q-10 97 -207 97h-2v46q7 1 36 1q125 0 173 -42t51 -110q-3 -63 -59 -108t-197 -45q-36 0 -60 2v43z" />
    <glyph glyph-name="uni013C" unicode="&#x13c;" horiz-adv-x="311" 
d="M175 124q2 -32 17 -53q21 -26 59 -28h50v-44h-42q-85 3 -113 63q-16 35 -16 95v1387h45v-1420zM80 -336h18q18 -1 34 -1q203 0 213 117q-10 97 -207 97h-2v46q7 1 36 1q125 0 173 -42t51 -110q-3 -63 -59 -108t-197 -45q-36 0 -60 2v43z" />
    <glyph glyph-name="Lcaron" unicode="&#x13d;" 
d="M145 45h561v-45h-606v1544h45v-1499zM689 1437q0 -21 -11 -41q-20 -34 -58 -40v30q27 6 27 91h-25v67h67v-107z" />
    <glyph glyph-name="lcaron" unicode="&#x13e;" horiz-adv-x="417" 
d="M165 124q2 -32 17 -53q21 -26 59 -28h50v-44h-42q-85 3 -113 63q-16 35 -16 95v1387h45v-1420zM399 1437q0 -21 -11 -41q-20 -34 -58 -40v30q27 6 27 91h-25v67h67v-107z" />
    <glyph glyph-name="Ldot" unicode="&#x13f;" 
d="M145 45h561v-45h-606v1544h45v-1499zM632 801h57v-57h-57v57z" />
    <glyph glyph-name="ldot" unicode="&#x140;" horiz-adv-x="358" 
d="M165 124q2 -32 17 -53q21 -26 59 -28h50v-44h-42q-85 3 -113 63q-16 35 -16 95v1387h45v-1420zM291 801h57v-57h-57v57z" />
    <glyph glyph-name="Lslash" unicode="&#x141;" horiz-adv-x="752" 
d="M167 808v-759h545v-48h-592v775l-173 -119v50l173 119v719h47v-687l177 122v-50z" />
    <glyph glyph-name="lslash" unicode="&#x142;" horiz-adv-x="457" 
d="M262 816v-678q0 -49 13 -73q16 -26 63 -26h6v-39h-22q-72 3 -95 51q-14 31 -14 87v645l-183 -126v50l183 126v712h49v-678l165 113v-50z" />
    <glyph glyph-name="Nacute" unicode="&#x143;" horiz-adv-x="804" 
d="M666 0l-521 1396v-1395h-45v1543h38l521 -1396v1396h45v-1544h-38zM448 1849h91l-161 -210h-45z" />
    <glyph glyph-name="nacute" unicode="&#x144;" 
d="M403 1001q122 0 206 -85q97 -97 97 -268v-648h-46v648q0 149 -82 234q-72 74 -175 74t-177 -76q-80 -84 -81 -230v-650h-45v1001h45v-154q85 154 258 154zM449 1306h91l-161 -210h-45z" />
    <glyph glyph-name="uni0145" unicode="&#x145;" horiz-adv-x="804" 
d="M666 0l-521 1396v-1395h-45v1543h38l521 -1396v1396h45v-1544h-38zM280 -336h18q18 -1 34 -1q203 0 213 117q-10 97 -207 97h-2v46q7 1 36 1q125 0 173 -42t51 -110q-3 -63 -59 -108t-197 -45q-36 0 -60 2v43z" />
    <glyph glyph-name="uni0146" unicode="&#x146;" 
d="M403 1001q122 0 206 -85q97 -97 97 -268v-648h-46v648q0 149 -82 234q-72 74 -175 74t-177 -76q-80 -84 -81 -230v-650h-45v1001h45v-154q85 154 258 154zM270 -336h18q18 -1 34 -1q203 0 213 117q-10 97 -207 97h-2v46q7 1 36 1q125 0 173 -42t51 -110q-3 -63 -59 -108
t-197 -45q-36 0 -60 2v43z" />
    <glyph glyph-name="Ncaron" unicode="&#x147;" horiz-adv-x="804" 
d="M666 0l-521 1396v-1395h-45v1543h38l521 -1396v1396h45v-1544h-38zM366 1669l-165 200h55l146 -157l146 157h55l-165 -200h-72z" />
    <glyph glyph-name="ncaron" unicode="&#x148;" 
d="M403 1001q122 0 206 -85q97 -97 97 -268v-648h-46v648q0 149 -82 234q-72 74 -175 74t-177 -76q-80 -84 -81 -230v-650h-45v1001h45v-154q85 154 258 154zM367 1126l-165 200h55l146 -157l146 157h55l-165 -200h-72z" />
    <glyph glyph-name="napostrophe" unicode="&#x149;" horiz-adv-x="884" 
d="M483 1001q122 0 206 -85q97 -97 97 -268v-648h-46v648q0 149 -82 234q-72 74 -175 74t-177 -76q-80 -84 -81 -230v-650h-45v1001h45v-154q85 154 258 154zM85 894q0 -21 -11 -41q-20 -34 -58 -40v30q27 6 27 91h-25v67h67v-107z" />
    <glyph glyph-name="Eng" unicode="&#x14a;" horiz-adv-x="1393" 
d="M700 95q56 -10 126 -10q149 6 231 80q52 57 75 155q14 55 28 219v619q0 136 -98 234t-234 98h-243q-135 0 -232 -97q-98 -94 -120 -231v-1163h-53v1544h53v-209q52 93 136.5 151t195.5 58h277q159 0 272 -113q103 -113 103 -272v-601q-10 -278 -71 -381
q-71 -134 -307 -145q-19 -1 -40 -1q-94 0 -116 12z" />
    <glyph glyph-name="eng" unicode="&#x14b;" horiz-adv-x="937" 
d="M752 -155q1 110 1 475q1 280 1 425q0 83 -50 143q-60 60 -153 70h-165q-83 -10 -143 -69q-59 -59 -60 -142v-747h-43v1001h43v-109q65 98 203 109h145q130 0 208 -78q58 -68 58 -178v-846q-4 -182 -49 -257q-56 -100 -202 -101q-18 -1 -32 -1q-40 1 -81 9l13 40
q38 -8 79 -8q139 0 185 88q35 76 42 176z" />
    <glyph glyph-name="Omacron" unicode="&#x14c;" 
d="M403 1544q125 0 214 -89t89 -214v-938q0 -126 -89 -215q-89 -88 -214 -88q-126 0 -214 88q-89 89 -89 215v938q0 125 89 214q88 89 214 89zM660 1241q0 106 -75 181q-76 77 -182 77q-107 0 -182 -77q-76 -75 -76 -181v-938q0 -107 76 -182q75 -76 182 -76q106 0 182 76
q75 75 75 182v938zM205 1783h397v-49h-397v49z" />
    <glyph glyph-name="omacron" unicode="&#x14d;" 
d="M403 1001q122 0 206 -85q97 -97 97 -268v-295q0 -171 -97 -268q-84 -85 -206 -85q-121 0 -207 85q-96 97 -96 268v295q0 171 96 268q86 85 207 85zM660 648q0 149 -82 234q-72 74 -175 74t-175 -74q-83 -85 -83 -234v-295q0 -149 83 -234q72 -74 175 -74t175 74
q82 85 82 234v295zM205 1240h397v-49h-397v49z" />
    <glyph glyph-name="Obreve" unicode="&#x14e;" 
d="M403 1544q125 0 214 -89t89 -214v-938q0 -126 -89 -215q-89 -88 -214 -88q-126 0 -214 88q-89 89 -89 215v938q0 125 89 214q88 89 214 89zM660 1241q0 106 -75 181q-76 77 -182 77q-107 0 -182 -77q-76 -75 -76 -181v-938q0 -107 76 -182q75 -76 182 -76q106 0 182 76
q75 75 75 182v938zM403 1738q-165 1 -180 80h55q28 -43 125 -43q98 0 125 43h55q-15 -79 -180 -80z" />
    <glyph glyph-name="obreve" unicode="&#x14f;" 
d="M403 1001q122 0 206 -85q97 -97 97 -268v-295q0 -171 -97 -268q-84 -85 -206 -85q-121 0 -207 85q-96 97 -96 268v295q0 171 96 268q86 85 207 85zM660 648q0 149 -82 234q-72 74 -175 74t-175 -74q-83 -85 -83 -234v-295q0 -149 83 -234q72 -74 175 -74t175 74
q82 85 82 234v295zM403 1195q-165 1 -180 80h55q28 -43 125 -43q98 0 125 43h55q-15 -79 -180 -80z" />
    <glyph glyph-name="Ohungarumlaut" unicode="&#x150;" 
d="M403 1544q125 0 214 -89t89 -214v-938q0 -126 -89 -215q-89 -88 -214 -88q-126 0 -214 88q-89 89 -89 215v938q0 125 89 214q88 89 214 89zM660 1241q0 106 -75 181q-76 77 -182 77q-107 0 -182 -77q-76 -75 -76 -181v-938q0 -107 76 -182q75 -76 182 -76q106 0 182 76
q75 75 75 182v938zM312 1849h91l-161 -210h-45zM518 1849h91l-161 -210h-45z" />
    <glyph glyph-name="ohungarumlaut" unicode="&#x151;" 
d="M403 1001q122 0 206 -85q97 -97 97 -268v-295q0 -171 -97 -268q-84 -85 -206 -85q-121 0 -207 85q-96 97 -96 268v295q0 171 96 268q86 85 207 85zM660 648q0 149 -82 234q-72 74 -175 74t-175 -74q-83 -85 -83 -234v-295q0 -149 83 -234q72 -74 175 -74t175 74
q82 85 82 234v295zM312 1306h91l-161 -210h-45zM518 1306h91l-161 -210h-45z" />
    <glyph glyph-name="OE" unicode="&#x152;" horiz-adv-x="1294" 
d="M660 141q-18 -28 -43 -53q-89 -88 -214 -88q-126 0 -214 88q-89 89 -89 215v938q0 125 89 214q88 89 214 89q125 0 214 -89q25 -25 43 -53v142h606v-45h-561l1 -703h560v-45h-560l-1 -706h561v-45h-606v141zM660 1241q0 106 -75 181q-76 77 -182 77q-107 0 -182 -77
q-76 -75 -76 -181v-938q0 -107 76 -182q75 -76 182 -76q106 0 182 76q75 75 75 182v938z" />
    <glyph glyph-name="oe" unicode="&#x153;" horiz-adv-x="1362" 
d="M660 648q0 149 -82 234q-72 74 -175 74t-175 -74q-83 -85 -83 -234v-295q0 -149 83 -234q72 -74 175 -74t175 74q82 85 82 234v295zM1223 648q0 148 -81 232q-73 76 -176 76t-175 -74q-83 -85 -83 -234v-71h515v71zM685 209q-24 -72 -76 -124q-84 -85 -206 -85
q-121 0 -207 85q-96 97 -96 268v295q0 171 96 268q86 85 207 85q122 0 206 -85q52 -52 76 -124q23 69 72 120q85 89 209 89q120 0 205 -85q98 -97 98 -268v-117h-561v-178q0 -149 83 -234q72 -74 175 -74t175 74q82 85 82 234v22h46v-22q0 -171 -98 -268q-85 -85 -205 -85
q-124 0 -209 89q-49 51 -72 120z" />
    <glyph glyph-name="Racute" unicode="&#x154;" horiz-adv-x="805" 
d="M145 796h253l20 1q101 10 167 85q74 85 74 227v81q0 154 -47 224q-60 85 -209 85h-258v-703zM668 0l-281 750h-242v-750h-45v1544h303q180 0 251 -115q52 -82 52 -239v-81q0 -157 -85 -254q-74 -86 -187 -102l281 -753h-47zM454 1849h91l-161 -210h-45z" />
    <glyph glyph-name="racute" unicode="&#x155;" 
d="M403 1005q120 0 205 -85q98 -98 98 -268v-22h-46v22q0 147 -81 232q-73 75 -176 75t-175 -74q-83 -85 -83 -233v-652h-45v1005h45v-155q84 155 258 155zM449 1306h91l-161 -210h-45z" />
    <glyph glyph-name="uni0156" unicode="&#x156;" horiz-adv-x="805" 
d="M145 796h253l20 1q101 10 167 85q74 85 74 227v81q0 154 -47 224q-60 85 -209 85h-258v-703zM668 0l-281 750h-242v-750h-45v1544h303q180 0 251 -115q52 -82 52 -239v-81q0 -157 -85 -254q-74 -86 -187 -102l281 -753h-47zM220 -336h18q18 -1 34 -1q203 0 213 117
q-10 97 -207 97h-2v46q7 1 36 1q125 0 173 -42t51 -110q-3 -63 -59 -108t-197 -45q-36 0 -60 2v43z" />
    <glyph glyph-name="uni0157" unicode="&#x157;" 
d="M403 1005q120 0 205 -85q98 -98 98 -268v-22h-46v22q0 147 -81 232q-73 75 -176 75t-175 -74q-83 -85 -83 -233v-652h-45v1005h45v-155q84 155 258 155zM230 -336h18q18 -1 34 -1q203 0 213 117q-10 97 -207 97h-2v46q7 1 36 1q125 0 173 -42t51 -110q-3 -63 -59 -108
t-197 -45q-36 0 -60 2v43z" />
    <glyph glyph-name="Rcaron" unicode="&#x158;" horiz-adv-x="805" 
d="M145 796h253l20 1q101 10 167 85q74 85 74 227v81q0 154 -47 224q-60 85 -209 85h-258v-703zM668 0l-281 750h-242v-750h-45v1544h303q180 0 251 -115q52 -82 52 -239v-81q0 -157 -85 -254q-74 -86 -187 -102l281 -753h-47zM372 1669l-165 200h55l146 -157l146 157h55
l-165 -200h-72z" />
    <glyph glyph-name="rcaron" unicode="&#x159;" 
d="M403 1005q120 0 205 -85q98 -98 98 -268v-22h-46v22q0 147 -81 232q-73 75 -176 75t-175 -74q-83 -85 -83 -233v-652h-45v1005h45v-155q84 155 258 155zM367 1126l-165 200h55l146 -157l146 157h55l-165 -200h-72z" />
    <glyph glyph-name="Sacute" unicode="&#x15a;" 
d="M403 1544q122 0 206 -87q97 -97 97 -269v-23h-46v23q0 149 -82 235q-72 76 -175 76t-175 -76q-83 -86 -83 -235v-42q0 -148 79 -221q49 -45 186 -91q144 -48 200 -99q96 -87 96 -255v-125q0 -171 -97 -269q-84 -86 -206 -86q-121 0 -206 86q-97 98 -97 269v23h45v-23
q0 -149 83 -234q72 -76 175 -76q104 0 176 76q81 87 81 234v125q0 149 -79 221q-48 44 -185 90q-143 49 -200 100q-96 86 -96 255v42q0 172 97 269q85 87 206 87zM449 1849h91l-161 -210h-45z" />
    <glyph glyph-name="sacute" unicode="&#x15b;" horiz-adv-x="804" 
d="M402 1001q121 0 206 -57q96 -65 96 -177v-23h-45v23q0 88 -76 140q-74 49 -181 49q-102 0 -176 -45q-81 -54 -81 -144v-27q0 -90 78 -134q48 -27 184 -57q144 -30 201 -64q96 -58 96 -171v-79q0 -113 -96 -178q-85 -57 -206 -57t-205 57q-97 66 -97 178v23h45v-23
q0 -91 81 -145q74 -45 176 -45q107 0 181 49q76 52 76 141v79q0 90 -78 135q-47 27 -184 56q-144 31 -201 65q-96 56 -96 170v27q0 112 96 177q85 57 206 57zM448 1306h91l-161 -210h-45z" />
    <glyph glyph-name="Scircumflex" unicode="&#x15c;" 
d="M403 1544q122 0 206 -87q97 -97 97 -269v-23h-46v23q0 149 -82 235q-72 76 -175 76t-175 -76q-83 -86 -83 -235v-42q0 -148 79 -221q49 -45 186 -91q144 -48 200 -99q96 -87 96 -255v-125q0 -171 -97 -269q-84 -86 -206 -86q-121 0 -206 86q-97 98 -97 269v23h45v-23
q0 -149 83 -234q72 -76 175 -76q104 0 176 76q81 87 81 234v125q0 149 -79 221q-48 44 -185 90q-143 49 -200 100q-96 86 -96 255v42q0 172 97 269q85 87 206 87zM439 1869l165 -200h-55l-146 157l-146 -157h-55l165 200h72z" />
    <glyph glyph-name="scircumflex" unicode="&#x15d;" horiz-adv-x="804" 
d="M402 1001q121 0 206 -57q96 -65 96 -177v-23h-45v23q0 88 -76 140q-74 49 -181 49q-102 0 -176 -45q-81 -54 -81 -144v-27q0 -90 78 -134q48 -27 184 -57q144 -30 201 -64q96 -58 96 -171v-79q0 -113 -96 -178q-85 -57 -206 -57t-205 57q-97 66 -97 178v23h45v-23
q0 -91 81 -145q74 -45 176 -45q107 0 181 49q76 52 76 141v79q0 90 -78 135q-47 27 -184 56q-144 31 -201 65q-96 56 -96 170v27q0 112 96 177q85 57 206 57zM438 1326l165 -200h-55l-146 157l-146 -157h-55l165 200h72z" />
    <glyph glyph-name="Scedilla" unicode="&#x15e;" 
d="M376 1q-104 9 -179 85q-97 98 -97 269v23h45v-23q0 -149 83 -234q72 -76 175 -76q104 0 176 76q81 87 81 234v125q0 149 -79 221q-48 44 -185 90q-143 49 -200 100q-96 86 -96 255v42q0 172 97 269q85 87 206 87q122 0 206 -87q97 -97 97 -269v-23h-46v23q0 149 -82 235
q-72 76 -175 76t-175 -76q-83 -86 -83 -235v-42q0 -148 79 -221q49 -45 186 -91q144 -48 200 -99q96 -87 96 -255v-125q0 -171 -97 -269q-75 -77 -180 -85l-12 -91q91 -20 122 -58.5t31 -82.5q-3 -62 -52 -107t-179 -54q-53 0 -70 2l10 43h20q20 0 42 1q68 3 117 26
q59 36 59 93v5q-5 39 -35.5 60.5t-66 29t-56.5 7.5z" />
    <glyph glyph-name="scedilla" unicode="&#x15f;" horiz-adv-x="804" 
d="M379 1q-106 5 -182 56q-97 66 -97 178v23h45v-23q0 -91 81 -145q74 -45 176 -45q107 0 181 49q76 52 76 141v79q0 90 -78 135q-47 27 -184 56q-144 31 -201 65q-96 56 -96 170v27q0 112 96 177q85 57 206 57t206 -57q96 -65 96 -177v-23h-45v23q0 88 -76 140
q-74 49 -181 49q-102 0 -176 -45q-81 -54 -81 -144v-27q0 -90 78 -134q48 -27 184 -57q144 -30 201 -64q96 -58 96 -171v-79q0 -113 -96 -178q-74 -50 -176 -56l-12 -91q91 -20 122 -58.5t31 -82.5q-3 -62 -52 -107t-179 -54q-53 0 -70 2l10 43h20q20 0 42 1q68 3 117 26
q59 36 59 93v5q-5 39 -35.5 60.5t-66 29t-56.5 7.5z" />
    <glyph glyph-name="Scaron" unicode="&#x160;" 
d="M403 1544q122 0 206 -87q97 -97 97 -269v-23h-46v23q0 149 -82 235q-72 76 -175 76t-175 -76q-83 -86 -83 -235v-42q0 -148 79 -221q49 -45 186 -91q144 -48 200 -99q96 -87 96 -255v-125q0 -171 -97 -269q-84 -86 -206 -86q-121 0 -206 86q-97 98 -97 269v23h45v-23
q0 -149 83 -234q72 -76 175 -76q104 0 176 76q81 87 81 234v125q0 149 -79 221q-48 44 -185 90q-143 49 -200 100q-96 86 -96 255v42q0 172 97 269q85 87 206 87zM367 1669l-165 200h55l146 -157l146 157h55l-165 -200h-72z" />
    <glyph glyph-name="scaron" unicode="&#x161;" horiz-adv-x="804" 
d="M402 1001q121 0 206 -57q96 -65 96 -177v-23h-45v23q0 88 -76 140q-74 49 -181 49q-102 0 -176 -45q-81 -54 -81 -144v-27q0 -90 78 -134q48 -27 184 -57q144 -30 201 -64q96 -58 96 -171v-79q0 -113 -96 -178q-85 -57 -206 -57t-205 57q-97 66 -97 178v23h45v-23
q0 -91 81 -145q74 -45 176 -45q107 0 181 49q76 52 76 141v79q0 90 -78 135q-47 27 -184 56q-144 31 -201 65q-96 56 -96 170v27q0 112 96 177q85 57 206 57zM366 1126l-165 200h55l146 -157l146 157h55l-165 -200h-72z" />
    <glyph glyph-name="uni0162" unicode="&#x162;" horiz-adv-x="646" 
d="M301 3v1496h-281v45h606v-45h-280v-1496l-16 -91q97 -22 128 -60.5t31 -82.5q-3 -62 -52 -107t-179 -54q-53 0 -70 2l10 43h20q20 0 42 1q68 3 117 26q59 36 59 93v5q-5 39 -35.5 60.5t-66 29t-56.5 7.5z" />
    <glyph glyph-name="uni0163" unicode="&#x163;" horiz-adv-x="520" 
d="M354 0q-75 6 -101 62q-16 35 -16 95v807h-187v45h187v543h45v-543h188v-45h-188v-840q2 -32 17 -53q21 -26 59 -28h50v-44l-13 -91q91 -20 122 -58.5t31 -82.5q-3 -62 -52 -107t-179 -54q-53 0 -70 2l10 43h20q20 0 42 1q68 3 117 26q59 36 59 93v5q-5 39 -35.5 60.5
t-66 29t-56.5 7.5z" />
    <glyph glyph-name="Tcaron" unicode="&#x164;" horiz-adv-x="646" 
d="M626 1544v-45h-280v-1499h-45v1499h-281v45h606zM287 1669l-165 200h55l146 -157l146 157h55l-165 -200h-72z" />
    <glyph glyph-name="tcaron" unicode="&#x165;" horiz-adv-x="522" 
d="M282 124q2 -32 17 -53q21 -26 59 -28h50v-44h-42q-85 3 -113 63q-16 35 -16 95v807h-187v45h187v543h45v-543h188v-45h-188v-840zM512 1437q0 -21 -11 -41q-20 -34 -58 -40v30q27 6 27 91h-25v67h67v-107z" />
    <glyph glyph-name="Tbar" unicode="&#x166;" horiz-adv-x="646" 
d="M301 795v704h-281v45h606v-45h-280v-704h196v-45h-196v-750h-45v750h-196v45h196z" />
    <glyph glyph-name="tbar" unicode="&#x167;" horiz-adv-x="460" 
d="M252 598v-474q2 -32 17 -53q21 -26 59 -28h50v-44h-42q-85 3 -113 63q-16 35 -16 95v441h-185v45h185v321h-187v45h187v543h45v-543h188v-45h-188v-321h187v-45h-187z" />
    <glyph glyph-name="Utilde" unicode="&#x168;" 
d="M659 1544h47v-1241q0 -126 -90 -215q-88 -88 -213 -88q-126 0 -215 88q-88 89 -88 215v1241h45v-1241q0 -107 76 -182q75 -76 182 -76q105 0 181 76q75 75 75 182v1241zM203 1696l7 16q41 64 87 75q5 2 18 3q31 0 80 -26q41 -22 76 -22h5q45 7 73 51h55q-1 -1 -16 -24
q-61 -76 -116 -76q-3 0 -7 1q-39 3 -79 28q-34 17 -60 17h-2q-24 0 -46 -21q-16 -19 -17 -22h-58z" />
    <glyph glyph-name="utilde" unicode="&#x169;" 
d="M706 0h-46v157q-19 -39 -48 -68q-85 -89 -209 -89q-121 0 -206 85q-97 97 -97 268v648h45v-648q0 -149 83 -234q72 -74 175 -74t175 74q82 85 82 232v650h46v-1001zM203 1153l7 16q41 64 87 75q5 2 18 3q31 0 80 -26q41 -22 76 -22h5q45 7 73 51h55q-1 -1 -16 -24
q-61 -76 -116 -76q-3 0 -7 1q-39 3 -79 28q-34 17 -60 17h-2q-24 0 -46 -21q-16 -19 -17 -22h-58z" />
    <glyph glyph-name="Umacron" unicode="&#x16a;" 
d="M659 1544h47v-1241q0 -126 -90 -215q-88 -88 -213 -88q-126 0 -215 88q-88 89 -88 215v1241h45v-1241q0 -107 76 -182q75 -76 182 -76q105 0 181 76q75 75 75 182v1241zM205 1783h397v-49h-397v49z" />
    <glyph glyph-name="umacron" unicode="&#x16b;" 
d="M706 0h-46v157q-19 -39 -48 -68q-85 -89 -209 -89q-121 0 -206 85q-97 97 -97 268v648h45v-648q0 -149 83 -234q72 -74 175 -74t175 74q82 85 82 232v650h46v-1001zM205 1240h397v-49h-397v49z" />
    <glyph glyph-name="Ubreve" unicode="&#x16c;" 
d="M659 1544h47v-1241q0 -126 -90 -215q-88 -88 -213 -88q-126 0 -215 88q-88 89 -88 215v1241h45v-1241q0 -107 76 -182q75 -76 182 -76q105 0 181 76q75 75 75 182v1241zM403 1738q-165 1 -180 80h55q28 -43 125 -43q98 0 125 43h55q-15 -79 -180 -80z" />
    <glyph glyph-name="ubreve" unicode="&#x16d;" 
d="M706 0h-46v157q-19 -39 -48 -68q-85 -89 -209 -89q-121 0 -206 85q-97 97 -97 268v648h45v-648q0 -149 83 -234q72 -74 175 -74t175 74q82 85 82 232v650h46v-1001zM403 1195q-165 1 -180 80h55q28 -43 125 -43q98 0 125 43h55q-15 -79 -180 -80z" />
    <glyph glyph-name="Uring" unicode="&#x16e;" 
d="M659 1544h47v-1241q0 -126 -90 -215q-88 -88 -213 -88q-126 0 -215 88q-88 89 -88 215v1241h45v-1241q0 -107 76 -182q75 -76 182 -76q105 0 181 76q75 75 75 182v1241zM493.5 1761.5q37.5 -37.5 37.5 -90.5t-37.5 -90.5t-90.5 -37.5t-90.5 37.5t-37.5 90.5t37.5 90.5
t90.5 37.5t90.5 -37.5zM403 1749q-33 0 -55.5 -23t-22.5 -55q0 -33 22.5 -55.5t55.5 -22.5q32 0 55 22.5t23 55.5q0 32 -23 55t-55 23z" />
    <glyph glyph-name="uring" unicode="&#x16f;" 
d="M706 0h-46v157q-19 -39 -48 -68q-85 -89 -209 -89q-121 0 -206 85q-97 97 -97 268v648h45v-648q0 -149 83 -234q72 -74 175 -74t175 74q82 85 82 232v650h46v-1001zM493.5 1218.5q37.5 -37.5 37.5 -90.5t-37.5 -90.5t-90.5 -37.5t-90.5 37.5t-37.5 90.5t37.5 90.5
t90.5 37.5t90.5 -37.5zM403 1206q-33 0 -55.5 -23t-22.5 -55q0 -33 22.5 -55.5t55.5 -22.5q32 0 55 22.5t23 55.5q0 32 -23 55t-55 23z" />
    <glyph glyph-name="Uhungarumlaut" unicode="&#x170;" 
d="M659 1544h47v-1241q0 -126 -90 -215q-88 -88 -213 -88q-126 0 -215 88q-88 89 -88 215v1241h45v-1241q0 -107 76 -182q75 -76 182 -76q105 0 181 76q75 75 75 182v1241zM312 1849h91l-161 -210h-45zM518 1849h91l-161 -210h-45z" />
    <glyph glyph-name="uhungarumlaut" unicode="&#x171;" 
d="M706 0h-46v157q-19 -39 -48 -68q-85 -89 -209 -89q-121 0 -206 85q-97 97 -97 268v648h45v-648q0 -149 83 -234q72 -74 175 -74t175 74q82 85 82 232v650h46v-1001zM312 1306h91l-161 -210h-45zM518 1306h91l-161 -210h-45z" />
    <glyph glyph-name="Uogonek" unicode="&#x172;" 
d="M433 1q-15 -1 -30 -1q-126 0 -215 88q-88 89 -88 215v1241h45v-1241q0 -107 76 -182q75 -76 182 -76q105 0 181 76q75 75 75 182v1241h47v-1241q0 -126 -90 -215q-42 -42 -93 -64q-35 -32 -59 -61q-9 -9 -15 -18q-15 -19 -15 -43q0 -36 32 -59t73 -23q42 0 73 22l28 20
l34 -22q-20 -29 -56 -52q-35 -23 -73 -26h-8q-36 0 -68 15q-92 43 -92 136v1q3 37 28 63q11 11 28 24z" />
    <glyph glyph-name="uogonek" unicode="&#x173;" 
d="M660 0v157q-19 -39 -48 -68q-85 -89 -209 -89q-121 0 -206 85q-97 97 -97 268v648h45v-648q0 -149 83 -234q72 -74 175 -74t175 74q82 85 82 232v650h46v-1001q-66 -56 -106 -103q-9 -9 -15 -18q-15 -19 -15 -43q0 -36 32 -59t73 -23q42 0 73 22l28 20l34 -22
q-20 -29 -56 -52q-35 -23 -73 -26h-8q-36 0 -68 15q-92 43 -92 136v1q3 37 28 63q32 31 119 89z" />
    <glyph glyph-name="Wcircumflex" unicode="&#x174;" horiz-adv-x="1206" 
d="M313 0l-303 1544h46l269 -1380l257 1380h41l258 -1380l268 1380h47l-303 -1544h-31l-260 1351l-259 -1351h-30zM639 1869l165 -200h-55l-146 157l-146 -157h-55l165 200h72z" />
    <glyph glyph-name="wcircumflex" unicode="&#x175;" horiz-adv-x="1145" 
d="M818 0l-245 932l-246 -932h-35l-282 1001h51l248 -897l240 897h48l238 -901l249 901h51l-282 -1001h-35zM609 1326l165 -200h-55l-146 157l-146 -157h-55l165 200h72z" />
    <glyph glyph-name="Ycircumflex" unicode="&#x176;" horiz-adv-x="868" 
d="M60 1544l374 -720l373 720h51l-402 -775v-769h-46v769l-400 775h50zM470 1869l165 -200h-55l-146 157l-146 -157h-55l165 200h72z" />
    <glyph glyph-name="ycircumflex" unicode="&#x177;" 
d="M706 -285q0 -170 -98 -267q-85 -86 -205 -86q-122 0 -207 86q-96 97 -96 267v23h45v-23q0 -148 81 -232q72 -76 177 -76q103 0 175 74q82 85 82 234v442q-84 -156 -257 -156q-124 0 -209 89q-94 99 -94 264v648h45v-648q0 -149 83 -233q72 -75 175 -75t176 76
q80 84 81 231v649h46v-1287zM439 1326l165 -200h-55l-146 157l-146 -157h-55l165 200h72z" />
    <glyph glyph-name="Ydieresis" unicode="&#x178;" horiz-adv-x="868" 
d="M60 1544l374 -720l373 720h51l-402 -775v-769h-46v769l-400 775h50zM291 1846h67v-67h-67v67zM511 1846h67v-67h-67v67z" />
    <glyph glyph-name="Zacute" unicode="&#x179;" horiz-adv-x="705" 
d="M665 1544l-560 -1499h550v-45h-615l560 1499h-551v45h616zM399 1849h91l-161 -210h-45z" />
    <glyph glyph-name="zacute" unicode="&#x17a;" horiz-adv-x="719" 
d="M679 1001l-559 -956h543v-45h-623l560 956h-543v45h622zM406 1306h91l-161 -210h-45z" />
    <glyph glyph-name="Zdotaccent" unicode="&#x17b;" horiz-adv-x="705" 
d="M665 1544l-560 -1499h550v-45h-615l560 1499h-551v45h616zM319 1846h67v-67h-67v67z" />
    <glyph glyph-name="zdotaccent" unicode="&#x17c;" horiz-adv-x="719" 
d="M679 1001l-559 -956h543v-45h-623l560 956h-543v45h622zM326 1303h67v-67h-67v67z" />
    <glyph glyph-name="Zcaron" unicode="&#x17d;" horiz-adv-x="705" 
d="M665 1544l-560 -1499h550v-45h-615l560 1499h-551v45h616zM317 1669l-165 200h55l146 -157l146 157h55l-165 -200h-72z" />
    <glyph glyph-name="zcaron" unicode="&#x17e;" horiz-adv-x="719" 
d="M679 1001l-559 -956h543v-45h-623l560 956h-543v45h622zM324 1126l-165 200h55l146 -157l146 157h55l-165 -200h-72z" />
    <glyph glyph-name="longs" unicode="&#x17f;" horiz-adv-x="633" 
d="M253 1193q0 86 43 170q68 154 247 162v-50q-133 -9 -203 -139q-37 -69 -37 -144v-1173h-50v1174z" />
    <glyph glyph-name="_1" horiz-adv-x="543" 
d="M110 -336h18q18 -1 34 -1q203 0 213 117q-10 97 -207 97h-2v46q7 1 36 1q125 0 173 -42t51 -110q-3 -63 -59 -108t-197 -45q-36 0 -60 2v43z" />
    <glyph glyph-name="perthousand" unicode="&#x2030;" horiz-adv-x="1856" 
d="M406 1574q91 0 156 -49q64 -49 64 -117v-480q0 -69 -64 -117q-65 -48 -156 -48q-93 0 -158 48q-64 48 -64 117v480q0 68 64 117q65 49 158 49zM566 1408q0 49 -48 84q-47 35 -112 35q-67 0 -113 -35q-48 -35 -48 -84v-480q0 -49 48 -84q47 -35 113 -35q65 0 112 35
q48 35 48 84v480zM100 -4l1101 1548h57l-1101 -1548h-57zM954 782q91 0 156 -49q64 -50 64 -118v-479q0 -69 -64 -117q-65 -49 -156 -49q-93 0 -158 49q-64 48 -64 117v479q0 68 64 118q65 49 158 49zM1114 615q0 50 -48 85q-47 34 -112 34q-67 0 -113 -34q-48 -35 -48 -85
v-479q0 -49 48 -84q47 -35 113 -35q65 0 112 35q48 35 48 84v479zM1536 782q91 0 156 -49q64 -50 64 -118v-479q0 -69 -64 -117q-65 -49 -156 -49q-93 0 -158 49q-64 48 -64 117v479q0 68 64 118q65 49 158 49zM1696 615q0 50 -48 85q-47 34 -112 34q-67 0 -113 -34
q-48 -35 -48 -85v-479q0 -49 48 -84q47 -35 113 -35q65 0 112 35q48 35 48 84v479z" />
    <glyph glyph-name="uni2070" unicode="&#x2070;" horiz-adv-x="662" 
d="M332 1742q91 0 156 -65q64 -66 64 -157v-639q0 -92 -64 -156q-65 -65 -156 -65q-93 0 -158 65q-64 64 -64 156v639q0 91 64 157q65 65 158 65zM492 1520q0 66 -48 113q-47 46 -112 46q-67 0 -113 -46q-48 -47 -48 -113v-639q0 -65 48 -112q47 -47 113 -47q65 0 112 47
q48 47 48 112v639z" />
    <glyph glyph-name="uni2074" unicode="&#x2074;" horiz-adv-x="796" 
d="M576 941h110v-63h-110v-218h-61v218h-399l410 864h50v-801zM515 941v633l-302 -633h302z" />
    <glyph glyph-name="uni2075" unicode="&#x2075;" horiz-adv-x="663" 
d="M110 1742h443v-63h-381v-368q64 63 160 63q89 0 151 -55q70 -62 70 -165v-274q0 -103 -70 -165q-62 -55 -151 -55t-152 55q-70 62 -70 165v30h62v-30q0 -77 51 -120q44 -38 109 -38q64 0 108 38q52 43 52 120v274q0 76 -50 119q-45 39 -110 39t-110 -38q-50 -44 -50 -120
h-62v588z" />
    <glyph glyph-name="uni2076" unicode="&#x2076;" horiz-adv-x="662" 
d="M332 1742q89 0 151 -56q69 -62 69 -166v-30h-60v30q0 77 -51 121q-45 38 -109 38q-65 0 -110 -38q-51 -44 -51 -121v-211q65 68 161 68q91 0 156 -65q64 -65 64 -156v-275q0 -92 -64 -156q-65 -65 -156 -65q-93 0 -158 65q-64 64 -64 156v639q0 104 70 166q62 56 152 56z
M332 1315q-67 0 -113 -46q-48 -48 -48 -113v-275q0 -65 48 -112q47 -47 113 -47q65 0 112 47q48 47 48 112v275q0 65 -48 113q-47 46 -112 46z" />
    <glyph glyph-name="uni2077" unicode="&#x2077;" horiz-adv-x="790" 
d="M203 660l383 1019h-476v63h566l-408 -1082h-65z" />
    <glyph glyph-name="uni2078" unicode="&#x2078;" horiz-adv-x="663" 
d="M332 1742q89 0 151 -56q70 -62 70 -166v-92q0 -130 -105 -191q105 -61 105 -191v-165q0 -103 -70 -165q-62 -56 -151 -56q-90 0 -152 56q-70 62 -70 165v165q0 130 104 191q-104 61 -104 191v92q0 104 70 166q62 56 152 56zM492 1046q0 78 -51 122q-44 38 -108 38h-2
q-64 0 -109 -38q-51 -44 -51 -122v-165q0 -77 51 -121q45 -38 110 -38q64 0 109 38q51 44 51 121v165zM492 1520q0 77 -51 121q-45 38 -109 38q-65 0 -110 -38q-51 -44 -51 -121v-92q0 -78 51 -122q45 -38 109 -38h2q64 0 108 38q51 44 51 122v92z" />
    <glyph glyph-name="uni2079" unicode="&#x2079;" horiz-adv-x="663" 
d="M332 1742q91 0 156 -65q65 -66 65 -157v-639q0 -103 -70 -165q-62 -56 -151 -56q-90 0 -152 56q-70 62 -70 165v31h62v-31q0 -77 50 -121q45 -38 110 -38q64 0 109 38q51 44 51 121v210q-66 -67 -160 -67q-92 0 -158 64q-64 66 -64 158v274q0 91 64 157q66 65 158 65z
M492 1520q0 66 -47 113q-48 46 -113 46q-67 0 -113 -46q-47 -47 -47 -113v-274q0 -67 47 -113q46 -47 113 -47q65 0 113 47q47 47 47 113v274z" />
    <glyph glyph-name="uni207A" unicode="&#x207a;" horiz-adv-x="666" 
d="M364 1142h192v-62h-192v-340h-61v340h-193v62h193v340h61v-340z" />
    <glyph glyph-name="uni207B" unicode="&#x207b;" horiz-adv-x="666" 
d="M110 1152h446v-62h-446v62z" />
    <glyph glyph-name="uni207C" unicode="&#x207c;" horiz-adv-x="666" 
d="M110 1282h446v-62h-446v62zM110 932h446v-62h-446v62z" />
    <glyph glyph-name="uni207D" unicode="&#x207d;" horiz-adv-x="472" 
d="M110 1503q0 91 64 157q65 65 157 65h31v-63h-31q-66 0 -112 -46q-48 -47 -48 -113v-989q0 -65 48 -112q47 -47 112 -47h31v-62h-31q-92 0 -157 65q-64 64 -64 156v989z" />
    <glyph glyph-name="uni207E" unicode="&#x207e;" horiz-adv-x="472" 
d="M362 514q0 -92 -64 -156q-65 -65 -156 -65h-32v62h32q64 0 111 47q48 47 48 112v989q0 66 -48 113q-46 46 -111 46h-32v63h32q91 0 156 -65q64 -66 64 -157v-989z" />
    <glyph glyph-name="uni2080" unicode="&#x2080;" horiz-adv-x="662" 
d="M332 882q91 0 156 -65q64 -66 64 -157v-639q0 -92 -64 -156q-65 -65 -156 -65q-93 0 -158 65q-64 64 -64 156v639q0 91 64 157q65 65 158 65zM492 660q0 66 -48 113q-47 46 -112 46q-67 0 -113 -46q-48 -47 -48 -113v-639q0 -65 48 -112q47 -47 113 -47q65 0 112 47
q48 47 48 112v639z" />
    <glyph glyph-name="uni2081" unicode="&#x2081;" horiz-adv-x="343" 
d="M233 882v-1082h-63v976l-102 -103l-44 43l165 166h44z" />
    <glyph glyph-name="uni2082" unicode="&#x2082;" horiz-adv-x="662" 
d="M331 882q90 0 152 -66q69 -72 69 -192v-29q0 -99 -59 -164q-36 -39 -130 -93q-96 -56 -134 -98q-58 -69 -58 -183v-195h381v-62h-442v257q0 136 72 222q42 49 151 111q83 49 111 79q48 51 48 126v29q0 94 -53 149q-44 46 -108 46t-109 -47q-51 -54 -51 -148v-32h-61v32
q0 120 69 192q62 66 152 66z" />
    <glyph glyph-name="uni2083" unicode="&#x2083;" horiz-adv-x="662" 
d="M331 882q90 0 152 -56q69 -62 69 -166v-129q0 -129 -104 -190q104 -61 104 -191v-129q0 -103 -69 -165q-62 -56 -152 -56q-89 0 -151 56q-70 62 -70 165v31h61v-31q0 -77 51 -121q45 -38 109 -38t108 38q53 44 53 121v129q0 77 -50 121q-45 38 -108 39h-109v61l109 1
q63 1 107 38q51 44 51 121v129q0 77 -53 121q-44 38 -108 38t-109 -38q-51 -44 -51 -121v-30h-61v30q0 104 70 166q62 56 151 56z" />
    <glyph glyph-name="uni2084" unicode="&#x2084;" horiz-adv-x="796" 
d="M576 81h110v-63h-110v-218h-61v218h-399l410 864h50v-801zM515 81v633l-302 -633h302z" />
    <glyph glyph-name="uni2085" unicode="&#x2085;" horiz-adv-x="663" 
d="M110 882h443v-63h-381v-368q64 63 160 63q89 0 151 -55q70 -62 70 -165v-274q0 -103 -70 -165q-62 -55 -151 -55t-152 55q-70 62 -70 165v30h62v-30q0 -77 51 -120q44 -38 109 -38q64 0 108 38q52 43 52 120v274q0 76 -50 119q-45 39 -110 39t-110 -38q-50 -44 -50 -120
h-62v588z" />
    <glyph glyph-name="uni2086" unicode="&#x2086;" horiz-adv-x="662" 
d="M332 882q89 0 151 -56q69 -62 69 -166v-30h-60v30q0 77 -51 121q-45 38 -109 38q-65 0 -110 -38q-51 -44 -51 -121v-211q65 68 161 68q91 0 156 -65q64 -65 64 -156v-275q0 -92 -64 -156q-65 -65 -156 -65q-93 0 -158 65q-64 64 -64 156v639q0 104 70 166q62 56 152 56z
M332 455q-67 0 -113 -46q-48 -48 -48 -113v-275q0 -65 48 -112q47 -47 113 -47q65 0 112 47q48 47 48 112v275q0 65 -48 113q-47 46 -112 46z" />
    <glyph glyph-name="uni2087" unicode="&#x2087;" horiz-adv-x="790" 
d="M203 -200l383 1019h-476v63h566l-408 -1082h-65z" />
    <glyph glyph-name="uni2088" unicode="&#x2088;" horiz-adv-x="663" 
d="M332 882q89 0 151 -56q70 -62 70 -166v-92q0 -130 -105 -191q105 -61 105 -191v-165q0 -103 -70 -165q-62 -56 -151 -56q-90 0 -152 56q-70 62 -70 165v165q0 130 104 191q-104 61 -104 191v92q0 104 70 166q62 56 152 56zM492 186q0 78 -51 122q-44 38 -108 38h-2
q-64 0 -109 -38q-51 -44 -51 -122v-165q0 -77 51 -121q45 -38 110 -38q64 0 109 38q51 44 51 121v165zM492 660q0 77 -51 121q-45 38 -109 38q-65 0 -110 -38q-51 -44 -51 -121v-92q0 -78 51 -122q45 -38 109 -38h2q64 0 108 38q51 44 51 122v92z" />
    <glyph glyph-name="uni2089" unicode="&#x2089;" horiz-adv-x="663" 
d="M332 882q91 0 156 -65q65 -66 65 -157v-639q0 -103 -70 -165q-62 -56 -151 -56q-90 0 -152 56q-70 62 -70 165v31h62v-31q0 -77 50 -121q45 -38 110 -38q64 0 109 38q51 44 51 121v210q-66 -67 -160 -67q-92 0 -158 64q-64 66 -64 158v274q0 91 64 157q66 65 158 65z
M492 660q0 66 -47 113q-48 46 -113 46q-67 0 -113 -46q-47 -47 -47 -113v-274q0 -67 47 -113q46 -47 113 -47q65 0 113 47q47 47 47 113v274z" />
    <glyph glyph-name="uni208A" unicode="&#x208a;" horiz-adv-x="666" 
d="M364 402h192v-62h-192v-340h-61v340h-193v62h193v340h61v-340z" />
    <glyph glyph-name="uni208B" unicode="&#x208b;" horiz-adv-x="666" 
d="M110 552h446v-62h-446v62z" />
    <glyph glyph-name="uni208C" unicode="&#x208c;" horiz-adv-x="666" 
d="M110 642h446v-62h-446v62zM110 292h446v-62h-446v62z" />
    <glyph glyph-name="uni208D" unicode="&#x208d;" horiz-adv-x="472" 
d="M110 510q0 91 64 157q65 65 157 65h31v-63h-31q-66 0 -112 -46q-48 -47 -48 -113v-989q0 -65 48 -112q47 -47 112 -47h31v-62h-31q-92 0 -157 65q-64 64 -64 156v989z" />
    <glyph glyph-name="uni208E" unicode="&#x208e;" horiz-adv-x="472" 
d="M362 -479q0 -92 -64 -156q-65 -65 -156 -65h-32v62h32q64 0 111 47q48 47 48 112v989q0 66 -48 113q-46 46 -111 46h-32v63h32q91 0 156 -65q64 -66 64 -157v-989z" />
  </font>
</defs>
</svg>
