<?xml version="1.0" encoding="UTF-8" standalone="no"?>
<!-- Generator: Adobe Illustrator 16.0.3, SVG Export Plug-In . SVG Version: 6.00 Build 0)  -->

<svg
   xmlns:dc="http://purl.org/dc/elements/1.1/"
   xmlns:cc="http://creativecommons.org/ns#"
   xmlns:rdf="http://www.w3.org/1999/02/22-rdf-syntax-ns#"
   xmlns:svg="http://www.w3.org/2000/svg"
   xmlns="http://www.w3.org/2000/svg"
   xmlns:sodipodi="http://sodipodi.sourceforge.net/DTD/sodipodi-0.dtd"
   xmlns:inkscape="http://www.inkscape.org/namespaces/inkscape"
   version="1.1"
   x="0px"
   y="0px"
   width="792px"
   height="558px"
   viewBox="0 0 792 558"
   enable-background="new 0 0 792 558"
   xml:space="preserve"
   id="svg2"
   inkscape:version="0.48.5 r10040"
   sodipodi:docname="app_back_1.svg"><metadata
     id="metadata1400"><rdf:RDF><cc:Work
         rdf:about=""><dc:format>image/svg+xml</dc:format><dc:type
           rdf:resource="http://purl.org/dc/dcmitype/StillImage" /></cc:Work></rdf:RDF></metadata><defs
     id="defs1398" /><sodipodi:namedview
     pagecolor="#ffffff"
     bordercolor="#666666"
     borderopacity="1"
     objecttolerance="10"
     gridtolerance="10"
     guidetolerance="10"
     inkscape:pageopacity="0"
     inkscape:pageshadow="2"
     inkscape:window-width="1200"
     inkscape:window-height="1854"
     id="namedview1396"
     showgrid="false"
     inkscape:zoom="0.35355339"
     inkscape:cx="272.15985"
     inkscape:cy="221.52788"
     inkscape:window-x="0"
     inkscape:window-y="27"
     inkscape:window-maximized="1"
     inkscape:current-layer="svg2" /><g
     id="Background_xA0_Image_1_" /><g
     id="AP909315351027_xA0_Image_1_" /><g
     id="background_xA0_Image_1_" /><g
     id="buildings_xA0_Image_1_" /><g
     id="lamposts_xA0_Image_1_" /><path
     inkscape:connector-curvature="0"
     style="fill:#9bb38f;fill-rule:evenodd"
     d="m 691.85159,-0.12477778 c -4.085,7.11499998 -6.83975,15.58519978 -6.96875,26.65619978 l 0,9.8125 c 1.762,14.125 7.06,26.647 14.625,36 2.597,3.21 5.38975,6.6303 8.34375,8.9063 3.434,2.645 7.13575,4.6967 11.34375,6.7187 5.411,2.6 11.96075,4.4513 18.96875,5.0313 0.968,0.08 1.832,-0.06 2.875,0 1.363,0.157 3.3475,-0.306 4.3125,0.25 2.558,-0.143 5.74475,0.627 8.09375,0.375 1.197,4.112 -1.92625,11.528698 2.46875,12.093698 2.524,0.325 3.271,-1.6227 3.125,-3.5937 -0.384,-5.196998 0.372,-16.776298 0,-26.406298 0.424,-0.862 5.3728,-0.561 6.9688,-0.25 l 1.1875,0 c 0.637,7.623 -0.05,19.8643 0.25,26.406298 -0.159,4.96 0.31,10.564 -0.25,15.125 l 0,4.3125 c -0.79,-0.01 -1.1913,-0.416 -2.1563,-0.25 l -2.4062,0 c -10.65505,0.865 -20.0718,3.002 -30.9688,3.625 -0.332,0.547 -1.646,0.069 -2.375,0.2187 -2.527,-0.126 -4.56375,0.255 -6.71875,0.5 -0.411,0.55 -1.84825,0.067 -2.65625,0.2188 -6.845,0.713 -21.30575,-0.4228 -24.46875,2.4062 l 0,4.3125 c 0.076,4.332 -0.39,6.6468 0,10.3438 3.029,2.123 7.722,0.2867 12,0.7187 l 0.46875,0 c 0.885,-0.555 2.81075,-0.093 4.09375,-0.25 2.056,0.135 3.659,-0.171 5.5,-0.25 0.568,-0.552 2.159,-0.065 3.125,-0.2187 6.792,0.072 12.49375,-0.9738 19.21875,-0.9688 0.568,-0.552 2.12775,-0.096 3.09375,-0.25 l 1.6875,0 c 5.325,-0.675 10.9805,-1.0195 16.3125,-1.6875 2.14905,0.433 4.56805,-1.303 6.00005,0 -0.62,23.912 0.569,42.0665 0,58.5625 -0.053,1.539 -0.1593,2.8658 1.2187,4.0938 0,0.565 -0.424,0.7045 -0.25,1.4375 -4.123,1.157 -7.30575,3.258 -6.4687,9.375 -6.08605,-1.047 -8.0638,2.0212 -7.2188,7.9062 -6.899,-0.635 -6.129,12.2493 0.25,11.5313 -0.386,1.944 0.007,3.879 -0.25,5.5 -7.917,-1.543 -6.076,12.745 0,12.5 l 0,4.3125 c -6.152,-0.48 -6.6085,10.844 -1.4375,11.75 l 0,2.1562 c -7.684,-0.49 -17.34,0.8285 -20.375,4.5625 -1.1,1.353 -0.99175,7.3768 -0.96875,9.5938 0.056,5.153 2.24475,8.672 6.46875,9.375 5.874,0.978 16.34625,-0.4493 23.03125,0.4687 -0.451,3.127 1.45275,6.081 1.21875,8.875 -0.888,10.555 0,23.1613 0,35.5313 0,33.418 -0.013,58.2682 -0.25,86.6562 -0.063,7.536 -4.208,16.6083 -5.75,23.2813 -10.286,1.257 -21.4935,-0.6628 -31.6875,-1.4688 -6.431,-0.507 -12.64675,-0.9015 -18.96875,-1.4375 -11.539,-0.98 -22.22375,-5.8847 -33.59375,-6.7187 -8.508,-0.624 -16.94425,-0.4165 -25.90625,-0.9375 5.81,1.551 11.971,2.7315 18,4.0625 -9.85,-0.874 -19.3975,-0.1478 -28.8125,-0.9688 -9.514,-0.829 -17.55825,-5.1145 -29.53125,-4.3125 4.785,1.535 9.832,2.8168 15.125,3.8438 -11.768,1.658 -22.775,0.072 -33.125,-1.9063 -5.692,-1.087 -10.96025,-2.987 -17.03125,-3.375 -12.46,-0.796 -24.7505,-0.6645 -37.6875,-1.4375 13.379,3.502 29.31225,4.463 44.40625,6.25 0.288,0.275 0.093,0.5868 0,0.2188 -14.483,-1.516 -30.53725,-1.7103 -43.90625,-4.7813 -3.566,-0.819 -5.83475,-1.9172 -10.34375,-2.1562 -24.598,-1.309 -50.2485,-2.5988 -75.8125,-3.8438 -28.401,-1.384 -59.56025,-0.055 -89.28125,-1.4375 -17.605,-0.818 -35.91025,-0.8275 -53.78125,-1.9375 -20.338,-1.263 -39.9805,-4.1735 -58.5625,-7.1875 0.338,-1.398 2.234,-1.1215 3.125,-1.1875 7.961,-0.591 14.6405,1.9225 22.3125,1.4375 4.8,-0.304 9.835,-1.4407 15.625,-1.2187 -6.933,-2.347 -15.40775,-3.156 -22.09375,-5.75 -9.952,0.896 -22.624,0.629 -32.625,0 -0.2,-46.68 -0.83875,-92.9375 -0.71875,-139.9375 2.019,0.179 3.38125,-0.2788 4.78125,-0.7188 0.639,4.346 -1.34925,12.5183 1.21875,14.4063 0.387,0.068 0.41175,-0.2048 0.71875,-0.2188 0.87,-0.569 0.31875,-2.5537 0.46875,-3.8437 4.941,0.048 9.67425,-3.0003 13.90625,-5.2813 3.205,-1.727 7.67075,-4.2467 10.09375,-6.7187 4.912,-5.011 6.32625,-14.7698 5.28125,-24.9688 -0.171,-1.669 -0.9555,-3.3932 -1.4375,-5.5312 0.01,-0.33 -0.123,-0.5258 -0.25,-0.7188 -0.492,-0.388 -0.61475,-1.1312 -0.96875,-1.6562 -0.004,-1.116 -0.6965,-1.5585 -1.1875,-2.1875 -2.601,-2.919 -5.37375,-5.6375 -9.34375,-7.1875 0.604,-6.6 -8.83925,-8.129 -11.53125,-3.375 -1.591,-0.25 -2.6425,-1.0185 -4.5625,-0.9375 0.057,-1.017 -0.0178,-1.8973 -0.71875,-2.1563 -3.172,0.486 -1.19825,8.8348 -1.90625,12.7188 -1.58,-0.741 -2.6495,-1.9993 -4.8125,-2.1563 0.167,-8.967 -0.252,-17.3845 -0.25,-26.1875 0.278,-0.355 0.278,-0.5825 0,-0.9375 0.053,-10.452 -0.21575,-19.2542 -0.46875,-29.5312 5.325,0.116 9.86725,1.0052 13.90625,2.4062 3.123,0.431 6.471,1.6618 9.625,0.9688 5.352,-1.176 2.5975,-8.937 -2.1875,-9.125 l -5.03125,0 c -1.211,-0.171 -1.737,0.3167 -2.625,0.4687 -3.437,0.482 -6.321,1.5138 -9.625,0.4688 -1.502,-0.475 -2.74625,-3.3728 -4.53125,-3.0938 -0.923,0.144 -2.856,2.8115 -3.125,4.0625 -0.939,4.374 0,9.845 0,15.125 0,15.245 -0.138,31.96 -0.25,45.375 -1.367,0.078 -3.20375,0.9628 -4.09375,0.7188 -0.568,-4.102 1.37575,-11.2658 -1.65625,-12.7188 -1.337,2.619 -1.07775,6.4415 -1.21875,9.8125 -0.296,7.095 0,15.0703 0,23.2813 0,4.147 0.551,8.666 0,12.25 -0.177,1.151 -0.9685,1.832 -0.9375,3.125 0.022,0.92 0.7595,1.707 0.9375,3.125 0.283,2.262 0,5.719 0,9.125 0,1.436 -0.7495,7.5442 1.4375,7.6562 2.486,0.127 1.6875,-5.0565 1.6875,-7.4375 0,-2.829 -0.188,-6.427 0.25,-8.875 l 3.34375,0 0,61.4375 c -3.644,1.083 -2.511,6.6043 -2.625,11.5313 -0.504,21.761 -3.3865,45.3272 -4.5625,65.0312 -12.123,9.876 -29.84725,14.1528 -47.53125,18.4688 9.94,-0.082 19.88925,-0.2508 29.78125,-0.7188 3.106,-0.148 6.36975,-1.345 9.09375,0.25 -1.841,3.494 -6.70725,2.988 -10.53125,3.375 -18.618,1.884 -35.562,1.3075 -48,1.4375 -4.286,0.045 -8.57275,0.8455 -12.96875,1.1875 -8.528,0.664 -17.54225,0.7188 -26.65625,0.7188 -36.366988,-0.001 -74.000488,0.488 -112.31249119,0.25 l 0,59.0312 0,1.1875 0,9.625 0,1.4375 0,52.7813 791.99999119,0.5 0,-24.5 0,-0.9375 0,-86.9063 -10.5625,0 c -6.249,-18.638 -4.3265,-40.579 -4.8125,-62.875 -0.587,-26.937 1.119,-57.769 0,-84 6.187,0.084 9.669,0.3598 15.375,1.2188 l 0,-36.7188 c -2.816,0.575 -4.1797,-1.09 -6.9687,-0.5 0.646,-1.08 0.646,-3.2325 0,-4.3125 1.67,-9.959 0.8877,-20.77 0.9687,-30 0.037,-4.24 0.6558,-8.7827 0.7188,-12.9687 0.059,-3.824 0.6147,-8.4703 -2.4063,-11.0313 -1.437,-0.699 -4.372,0.142 -5.5,-0.25 -0.156,-22.019 0.304,-45.8927 -0.25,-66.7187 3.611,0.797 9.1945,1.6932 13.4375,2.6562 l 0,-15.375 c -3.8,-0.921 -8.3707,-2.3322 -12.9687,-1.6562 -0.666,-11.432 -0.3318,-22.5113 -0.4688,-38.656298 l 0,-8.625 c 2.44,-0.069 5.5278,0.036 6.9688,0.2188 l 0,8.1562 c -0.574,2.238 -0.02,5.7985 0,8.0625 0.05,5.765 -1.0173,11.696298 0.2187,14.281298 2.07,4.327 7.447,-0.1718 6.25,-4.3438 l 0,-102.46869778 -90.25,0 c -3.802,5.39799998 -5.38675,13.00599978 -6.21875,21.37499978 -0.158,2.321 0.308,5.2655 -0.25,7.1875 -1.505,-0.256 -3.2345,-0.2868 -4.3125,-0.9688 0.714,-10.566 2.08175,-20.4496998 6.21875,-27.59369978 -1.76,0 -3.494,-0.001 -5.25,0 z m 60,3.81249998 c 0.5075,-0.027 0.9825,0.01 1.1875,0.2812 0.565,-0.01 0.7045,0.3918 1.4375,0.2188 0.396,0.259 0.396,2.1472 0,2.4062 l 0,19.6874998 c -0.16,3.041 0.309,6.7028 -0.25,9.3438 0.218,4.374 -0.349,8.843 0,12 -0.421,2.62 0.87925,6.9632 -0.71875,8.4062 -0.94,0.42 -2.228,0.5058 -2.875,1.2188 -0.53,-0.03 -0.112,-1.0468 -0.25,-1.4688 -0.551,-0.489 -0.0657,-1.988 -0.21875,-2.875 l 0,-4.7812 c -0.557,-1.363 -0.092,-3.7693 -0.25,-5.5313 0.16,-6.298 -0.108,-17.1775 0,-25.6875 -0.559,-2.881 -0.09,-6.7815 -0.25,-10.0624998 0.486,-0.914 -0.196,-1.585 0,-2.875 0.039,-0.281 0.43575,-0.212 0.71875,-0.25 0.404,0.076 0.96125,0 1.46875,-0.031 z m 6.46875,1.9375 c 2.412,-0.112 6.13505,0.3747 8.87505,0.7187 l 0,15.1249998 c 0.56,8.48 0.091,17.995 0.25,26.875 -0.359,2.064 -0.244,3.89 0,6 -1.855,0.947 -6.4053,0.5 -8.6563,0.25 l 0,-3.3437 c -0.558,-2.641 -0.091,-6.334 -0.25,-9.375 l 0,-12.4688 c -0.558,-2.641 -0.0598,-6.334 -0.21875,-9.375 0.235,-4.547 -0.025,-7.2692 0,-14.4061998 z m 30.21875,0.7187 c 0.041,1.401 -0.3987,2.3048 -0.2187,3.8437998 -0.151,0.729 0.299,2.0732 -0.25,2.4062 l 0,2.875 c -0.158,1.922 0.308,4.478 -0.25,6 0.171,3.933 -0.446,5.9503 0,8.4063 -0.159,4.081 0.3412,8.7877 -0.2188,12.4687 -0.066,5.114 -0.742,8.967 -0.25,12.5 -1.137,0.097 -1.647,-0.438 -2.875,-0.25 -2.002,-0.158 -4.648,0.308 -6.25,-0.25 -0.152,-5.529 0.3303,-11.6502 -0.2187,-16.7812 l 0,-2.875 c 0.223,-1.689 -0.146,-4.5848 0,-6.9688 -0.553,-0.647 -0.095,-2.33 -0.25,-3.375 0.233,-1.788 -0.156,-4.9345 0,-7.4375 -0.555,-0.964 -0.093,-2.9495 -0.25,-4.3125 0.348,-0.896 -0.196,-2.1407 0,-3.5936998 -0.502,-0.287 -0.313,-3.1853 0.25,-2.4063 3.598,-0.083 7.5522,0.201 10.7812,-0.25 z m -97.6875,26.8437998 c 1.19439,0.01 3.04437,0.573 4.34375,0.7812 1.977,14.743 8.016,25.39 14.625,35.5 -1.793,1.793 -3.81275,3.8858 -6.46875,1.2188 -0.983,-0.986 -2.172,-2.6698 -3.125,-4.0938 -4.205,-6.279 -6.41625,-12.9137 -8.15625,-21.3437 -0.806,-3.901 -2.3975,-9.1693 -1.6875,-11.5313 l 0,-0.4687 c 0.141,-0.024 0.29812,-0.063 0.46875,-0.062 z m 23.0625,39.6562 c 1.213,0.467 1.812,1.5403 2.625,2.4063 7.042,4.318 14.90275,7.7997 24.96875,9.0937 0.196,1.636 -0.20275,2.7 -0.96875,3.375 -8.52,-0.252 -17.229,-3.1557 -23.75,-6.9687 -2.157,-1.261 -6.14125,-2.5263 -5.28125,-5.2813 0.657,-1.023 1.75025,-1.602 2.40625,-2.625 z m 36.4375,1.0313 c 0.54921,-0.122 1.84112,1.4076 3.15625,1.125 0.875,0.729 0.55,3.9262 0.25,5.0312 l 0,7.4375 c -1.834,-0.326 -3.785,-0.5237 -6,-0.4687 l -1.4375,0 c 0.073,-0.896 -0.28825,-3.46 0.46875,-2.875 0.985,0.024 1.98425,0.037 2.65625,-0.25 0.288,-0.673 0.24275,-1.641 0.21875,-2.625 0.153,-0.887 -0.301,-2.4173 0.25,-2.9063 l 0,-1.6562 c 0.152,-0.808 -0.3,-2.2453 0.25,-2.6563 0.0453,-0.095 0.10904,-0.1388 0.1875,-0.1562 z m -511.625,154.968698 c 3.427,0.013 6.31525,0.526 7.65625,2.625 3.178,0.781 5.32075,-1.6487 6.96875,-0.2187 0.193,0.127 0.38875,0.2287 0.71875,0.2187 -0.131,0.349 0.271,1.2598 -0.25,1.2188 -4.733,-0.75 -9.372,-0.884 -14.875,-0.5 -0.483,-0.717 -0.11475,-2.2478 -0.21875,-3.3438 z m -16.09375,10.5625 c 0.861,0.499 2.59875,0.1038 3.84375,0.2188 0.036,8.854 -0.31,17.263 -0.25,24.25 l -3.59375,0 0,-24.4688 z m 8.40625,0 c 1.745,0.015 2.84225,0.6478 4.78125,0.4688 0.135,8.025 -0.275,16.615 0.25,24.25 -1.68,0 -2.93425,-0.417 -4.78125,-0.25 0.041,-8.525 0.005,-16.8348 -0.25,-24.4688 z m 547.9063,12.9375 c 0.326,0.074 0.209,0.6098 0.25,0.9688 l -1.9063,0 c 0.257,-0.624 1.3993,-0.3448 1.6563,-0.9688 z m -18.00005,12.7188 c 0.55105,0.489 0.097,2.0192 0.25005,2.9062 -1.44505,0.236 -2.99555,0.3568 -4.56255,0.4688 0.426,-2.135 2.9715,-2.155 4.3125,-3.375 z m 15.90625,2.125 c 1.2129,-0.023 2.0219,0.3836 3.3125,0.2812 0.12,8.44 -1.4597,15.2193 -1.2187,23.7813 l -2.4063,0 c -0.01,-8.272 -0.3597,-14.854 -0.2187,-24 0.1933,-0.023 0.3579,-0.059 0.5312,-0.062 z m -538.125,2.2187 c 4.545,-0.065 8.6025,0.3238 12.9375,0.4688 -3.716,2.524 -8.90475,3.575 -12.71875,6 -0.558,-1.682 -0.0608,-4.3868 -0.21875,-6.4688 z m 57.8125,139.8125 c -1.48391,0 -2.95089,0.015 -4.40625,0.031 -3.32653,0.038 -6.59762,0.1525 -9.75,0.3125 27.203,2.27 57.18475,2.6665 85.21875,1.6875 -23.49128,0.1091 -48.80378,-1.9899 -71.0625,-2.0312 z m -5.75,3.4688 c 14.502,1.778 30.84475,3.1335 46.09375,0.9375 -15.87,0.351 -31.63975,-0.6715 -46.09375,-0.9375 z m 3.40625,6.7187 c -4.43411,-0.01 -8.8835,0.1168 -13.25,0.2188 11.425,0.655 23.1135,2.3575 34.8125,1.9375 -6.81625,-1.7025 -14.17232,-2.1391 -21.5625,-2.1563 z m 55.5625,0.3125 c -10.07381,0.1477 -20.4715,0.9845 -29.6875,0.4063 15.91,3.004 35.672,3.054 54.25,2.875 5.782,-0.055 11.71725,0.354 17.28125,-0.25 0.251,-0.027 0.18,-0.307 -0.25,-0.25 -11.061,-0.028 -21.1465,-2.041 -31.6875,-2.625 -3.229,-0.1788 -6.54831,-0.2055 -9.90625,-0.1563 z m -349.84374119,1.5938 0,7.1875 c 35.38400319,-0.147 72.63575319,0.6215 105.59374119,-1.1875 -33.645988,-3.554 -71.208738,-3.186 -105.59374119,-6 z m 481.56249119,1.9062 c -3.19793,0.029 -6.43625,0.2507 -9.46875,0.25 -16.194,0 -29.212,0.142 -39.125,0.25 -0.186,0.053 -0.494,0.017 -0.5,0.25 22.685,0.433 44.4195,3.072 67.4375,2.375 -4.248,-0.209 -8.80075,-2.396 -12.71875,-2.875 -1.818,-0.2223 -3.70624,-0.2675 -5.625,-0.25 z m 116.28125,0.9688 c -0.514,0.148 -0.453,0.013 0,0.25 4.039,2.113 9.792,3.1545 15.125,4.5625 5.085,1.343 10.9155,3.3647 16.0625,3.8437 6.68,0.622 13.62625,0.1988 20.65625,0.2188 -17.106,-3.134 -34.26175,-6.216 -51.84375,-8.875 z m -9.78125,6.125 c -0.26663,0.018 -0.51925,0.053 -0.78125,0.125 1.569,0.753 4.59175,1.3217 6.71875,0.7187 -2.08163,0.049 -4.07111,-0.9695 -5.9375,-0.8437 z m 32,12.3125 c 0.30027,-0.019 0.58725,0.039 0.5625,0.2812 16.786,0.014 31.60175,2.0348 46.09375,4.3438 -14.872,-0.381 -32.7415,-1.1498 -46.3125,-4.3438 l -0.5,0 c -0.8725,7e-4 -0.3442,-0.2495 0.15625,-0.2812 z m 109.1875,8.0312 c 0.68527,0 1.5865,0.4328 2.5,0.1875 -0.535,1.096 -2.261,0.081 -3.125,0 0.16575,-0.1422 0.39658,-0.1863 0.625,-0.1875 z"
     id="path1120-4" /></svg>