<?xml version="1.0" encoding="UTF-8" standalone="no"?>
<!-- Generator: Adobe Illustrator 16.0.3, SVG Export Plug-In . SVG Version: 6.00 Build 0)  -->

<svg
   xmlns:dc="http://purl.org/dc/elements/1.1/"
   xmlns:cc="http://creativecommons.org/ns#"
   xmlns:rdf="http://www.w3.org/1999/02/22-rdf-syntax-ns#"
   xmlns:svg="http://www.w3.org/2000/svg"
   xmlns="http://www.w3.org/2000/svg"
   xmlns:sodipodi="http://sodipodi.sourceforge.net/DTD/sodipodi-0.dtd"
   xmlns:inkscape="http://www.inkscape.org/namespaces/inkscape"
   version="1.1"
   x="0px"
   y="0px"
   width="792px"
   height="558px"
   viewBox="0 0 792 558"
   enable-background="new 0 0 792 558"
   xml:space="preserve"
   id="svg2"
   inkscape:version="0.48.5 r10040"
   sodipodi:docname="app_back_2.svg"><metadata
     id="metadata1400"><rdf:RDF><cc:Work
         rdf:about=""><dc:format>image/svg+xml</dc:format><dc:type
           rdf:resource="http://purl.org/dc/dcmitype/StillImage" /></cc:Work></rdf:RDF></metadata><defs
     id="defs1398" /><sodipodi:namedview
     pagecolor="#ffffff"
     bordercolor="#666666"
     borderopacity="1"
     objecttolerance="10"
     gridtolerance="10"
     guidetolerance="10"
     inkscape:pageopacity="0"
     inkscape:pageshadow="2"
     inkscape:window-width="1200"
     inkscape:window-height="1854"
     id="namedview1396"
     showgrid="false"
     inkscape:zoom="0.35355339"
     inkscape:cx="272.15985"
     inkscape:cy="221.52788"
     inkscape:window-x="0"
     inkscape:window-y="27"
     inkscape:window-maximized="1"
     inkscape:current-layer="svg2" /><g
     id="Background_xA0_Image_1_" /><g
     id="AP909315351027_xA0_Image_1_" /><g
     id="background_xA0_Image_1_" /><g
     id="buildings_xA0_Image_1_" /><g
     id="lamposts_xA0_Image_1_" /><g
     id="g6648"
     transform="translate(-914.97619,-1176.6256)"><path
       id="rect6579-6"
       d="m 914.97598,1176.6255 792.00002,0 0,558.0001 -792.00002,0 z"
       style="fill:none;stroke:none"
       inkscape:connector-curvature="0" /><path
       id="path1138-5"
       d="m 1299.1014,1625.907 c -1.3689,0.052 -2.8258,0.1932 -3.5938,0.094 0.7494,0.15 2.0385,0.1189 2.5,0.1563 15.309,1.243 32.8138,3.3317 48.7188,3.0937 -13.837,-1.608 -31.4095,-2.4057 -46.0625,-3.3437 -0.4633,-0.03 -1.015,-0.021 -1.5625,0 z m -57.7188,2.625 c 4.566,0.233 8.8598,0.7778 12.9688,1.4688 -1.149,-0.03 -2.2823,-0.027 -2.9063,0.4687 13.126,0.34 25.694,1.1925 39.125,1.1875 -14.595,-1.347 -34.9615,-3.026 -49.1875,-3.125 z m 125.5625,0.125 c -1.5401,0.04 -3.0671,0.1684 -4.5937,0.375 3.818,0.76 7.9997,0.3058 12.2187,0.2188 0.408,0.054 0.594,-0.2498 0,-0.2188 -2.4987,-0.2831 -5.058,-0.441 -7.625,-0.375 z m -44.5312,1.2813 c -0.1706,-0.01 -0.331,0 -0.4688,0.031 -0.1836,0.036 -0.323,0.1132 -0.4062,0.25 0.729,-0.151 2.0732,0.3272 2.4062,-0.2188 -0.41,0.084 -1.0194,-0.043 -1.5312,-0.062 z m 61.4062,0.4687 c -1.3359,-0.017 -2.6185,0.1068 -3.7187,0.5313 3.532,-0.345 7.4035,1.295 10.3125,0 -1.9919,-0.082 -4.3672,-0.5029 -6.5938,-0.5313 z m -59.6562,0.062 c 14.66,1.306 24.9582,2.1375 38.6562,1.1875 -12.387,-0.733 -26.9612,-0.5625 -38.6562,-1.1875 z m -159.3125,0.4375 c -5.055,-0.043 -10.3488,0.3613 -15.875,0.2813 l -7.4375,0 -3.5938,0 c -2.146,-0.108 -1.0482,0.438 0.4688,0.25 l 7.4375,0 c 9.069,0.052 18.6237,0.7597 27.8437,0.2187 -2.8713,-0.5456 -5.8107,-0.724 -8.8437,-0.75 z m -19.9688,4.5938 c 23.284,2.918 48.2028,4.0947 73.4688,4.0937 25.329,-10e-4 50.8797,1.9273 75.5937,2.1563 25.006,0.233 49.8943,1.342 74.4063,2.625 24.672,1.292 48.8965,4.2917 73.1875,4.0937 -23.898,-3.123 -48.5905,-3.7655 -73.4375,-4.8125 -73.229,-3.087 -149.6668,-6.7662 -223.2188,-8.1562 z m -19.6562,3.375 c 1.908,1.031 8.1747,0.9137 9.3437,0.7187 0.702,-0.116 0.735,-0.131 0,-0.25 -3.186,-0.512 -5.6527,-0.3897 -9.3437,-0.4687 z m 13.0312,1.5625 c -1.3102,0.012 -2.6101,0.038 -3.9062,0.094 0.73,0.23 1.6232,0.2917 1.9062,0.9687 0.14,0.544 -1.6497,0.8808 -0.4687,0.9688 7.249,0.243 20.915,0.6902 30,-0.7188 -8.8988,-0.4812 -18.3593,-1.3949 -27.5313,-1.3125 z m -203.12498,2.0312 c -6.59,0.29 -13.8135,-0.036 -19.6875,0.9688 4.691,-0.11 10.392,0.2187 15.125,0.2187 1.611,0 4.1575,0.6845 4.5625,-1.1875 z m 240.56248,0.1875 c -0.2592,-0.01 -0.5222,0 -0.75,0.031 -0.3036,0.036 -0.58,0.1113 -0.7812,0.25 2.481,-0.159 5.6055,0.3403 7.6875,-0.2187 l -3.8438,0 c -0.6772,0.088 -1.5347,-0.042 -2.3125,-0.062 z m -209.09368,0.125 c -2.2292,0.016 -4.487,0.066 -6.75,0.1563 16.596,1.267 35.9572,2.2425 53.03118,1.4375 -15.80678,-0.1943 -30.67678,-1.7043 -46.28118,-1.5938 z m -29.2188,0.3438 c -0.4761,0.022 -0.9332,0.1626 -1.2812,0.5312 1.6,-0.032 5.084,0.1483 3.125,-0.2187 -0.2294,-0.043 -1.0503,-0.349 -1.8438,-0.3125 z m 286.71878,1.25 c 5.268,1.213 12.2812,0.6772 17.2812,2.1562 -37.915,2.229 -84.0147,2.6175 -115.2187,2.1875 9.205,3.755 21.9465,3.9998 32.1875,6.7188 -10.137,1.151 -20.0323,-2.587 -29.7813,-3.375 -7.162,-0.58 -14.4027,-0.6925 -21.5937,-1.4375 -6.959,-0.722 -13.862,-1.5963 -20.875,-2.1563 -14.495,-1.155 -29.3823,-0.646 -44.4063,-0.25 5.344,1.296 12.7223,0.5753 17.5313,2.4063 -11.07,-0.307 -22.253,-2.1715 -33.125,-1.1875 3.957,0.714 8.4427,0.1125 12.7187,0.9375 1.191,0.23 2.1708,0.9767 3.3438,1.2187 3.592,0.741 8.006,0.5158 12.25,0.7188 28.64,1.375 58.8747,2.225 87.5937,3.125 8.427,0.265 16.6788,0.9385 24.9688,0.9375 24.943,0 50.502,-2.216 75.125,-2.625 1.284,0.156 3.1775,-0.306 4.0625,0.25 -20.483,1.036 -40.0438,2.9675 -60.7188,3.8125 3.564,0.436 7.4633,0.5377 11.2813,0.7187 0.491,0 0.7389,0.058 0.8125,0.094 -0.1105,0.106 -1.1489,0.2619 -1.75,0.1563 -43.294,0.584 -86.5563,0.029 -128.9063,-1.4375 -13.978,-0.484 -27.808,-2.2628 -41.5,-0.7188 40.003,2.954 81.9998,2.8478 123.5938,3.8438 10.166,0.244 20.4327,1.2095 30.7187,1.6875 31.261,1.454 62.7225,0.767 91.4375,5.5 -11.344,0.583 -22.5877,-0.8023 -33.8437,-1.6563 -11.173,-0.849 -22.4118,-1.0525 -33.8438,-1.9375 -7.866,-0.61 -15.894,0.25 -24,0.25 -24.317,0 -49.3812,1.3095 -73.6562,1.1875 8.764,1.108 17.8797,2.324 27.3437,3.375 28.014,3.11 60.311,-0.075 89.75,1.9063 1.608,-0.138 8.2393,0.191 2.9063,0.25 -24.309,0.268 -50.1015,1.1047 -73.9375,0.9687 11.895,0.745 24.318,0.9795 36.5,1.4375 -0.51,0.534 -4.0793,0.078 -5.7813,0.2188 11.54,0.669 23.2123,0.8325 35.0313,1.6875 1.416,0.102 5.0615,0.4687 5.0625,0.4687 -5.825,0.985 -12.8688,-0.2007 -19.2188,-0.4687 -18.477,-0.778 -38.021,-1.3163 -56.375,-2.1563 -25.753,-1.178 -51.139,-2.8125 -75.375,-1.6875 1.302,-3.185 9.1603,-1.8662 14.1563,-2.1562 -2.016,-0.544 -4.8038,-0.3228 -6.7188,-0.9688 6.906,0.37 14.088,1.4998 21.375,0.7188 -3.363,-0.703 -6.9855,-1.0063 -10.5625,-1.6563 -3.472,-0.63 -6.7057,-1.9652 -9.8437,-2.4062 -0.153,-0.021 -0.346,0 -0.5,0 -7.802,-10e-4 -15.934,-1.5938 -24,-1.2188 -23.123,1.075 -49.054,1.6098 -74.37498,1.2188 27.14098,2.459 54.63148,4.5487 82.06248,6.7187 -49.515,-0.8859 -95.19948,-7.6619 -148.31248,-5.7499 0,1.12 -10e-4,2.2247 0,3.3437 28.161,1.839 57.6262,2.405 86.65618,3.375 -28.68398,0.779 -59.67618,-0.2865 -86.65618,-2.1875 l 0,9.625 c 21.261,0.9 43.8642,0.4435 65.0312,1.4375 -21.459,0.238 -43.7792,1.002 -65.0312,0 l 0,53.0313 791.99998,0 0,-24.25 c -17.95,-0.819 -36.3227,-2.064 -54.9688,-3.125 -9.439,-0.536 -18.9935,-0.2398 -28.5625,-0.4688 -47.479,-1.139 -94.955,-2.1722 -137.5,-8.1562 8.722,-0.436 17.5103,0.7425 26.4063,1.4375 8.98,0.701 18.1447,1.2835 27.3437,1.6875 56.194,2.471 113.2603,3.7285 167.2813,7.6875 l 0,-4.8125 c -20.046,-2.611 -39.963,-5.2013 -60.25,-7.9063 -7.004,-0.934 -14.1638,-0.7187 -21.8438,-0.7187 -28.383,0 -56.0285,-0.2703 -82.0625,-2.9063 -1.341,-0.136 -3.2995,0.015 -4.3125,-1.1875 25.805,2.196 56.0055,2.0373 84.9375,1.9063 -16.601,-2.479 -33.0932,-4.9245 -50.1562,-7.4375 -8.435,-1.243 -17.3183,-3.026 -26.1563,-2.625 -27.224,1.237 -56.1047,0.9667 -84.7187,0.9687 -14.424,10e-4 -28.5138,-0.1767 -42.4688,-0.7187 -4.293,-0.167 -8.8567,0.043 -12.9687,-1.2188 38.031,0.223 76.907,0.241 116.875,-0.25 -33.301,-3.979 -71.0353,-3.4972 -107.2813,-4.5312 0.128,-0.2725 0.5109,-0.3079 0.9375,-0.2813 -40.3282,-0.8563 -76.7978,-5.5497 -113,-10.5312 9.705,-0.167 19.3713,1.1752 29.0313,2.1562 4.914,0.5 9.867,0.1468 14.875,0.4688 24.35,1.566 49.1192,3.9277 74.6562,4.3437 -18.31,-1.931 -36.1187,-4.36 -54.7187,-6 38.38,0.637 75.4662,6.4718 115.6562,6.4688 13.232,-10e-4 26.6978,0.1777 39.8438,0.9687 -9.58,-2.1 -20.011,-3.3725 -30,-5.0625 30.234,0.407 59.03,4.3425 87.125,7.6875 -19.327,-3.07 -38.2623,-7.279 -59.5313,-8.625 -21,-1.328 -42.504,-2.1092 -62.875,-5.2812 -9.976,-1.553 -20.9842,-1.3433 -31.9062,-2.1563 -5.107,-0.378 -10.4408,-0.8075 -15.5938,-1.4375 -5.216,-0.638 -10.179,-1.9375 -15.125,-1.9375 -22.468,10e-4 -44.1747,0.9338 -67.2187,0.7188 -0.428,0.068 -0.4708,-0.236 -0.2188,-0.25 33.556,-1.005 67.504,-1.5933 102,-1.6563 -19.934,-1.666 -40.2357,-2.9767 -60.7187,-4.0937 2.445,0.436 5.0922,0.6547 7.9062,0.7187 0.432,-0.045 0.498,0.208 0.25,0.25 -3.48,0.589 -7.5112,-0.099 -11.2812,-0.25 -21.637,-0.864 -41.804,-3.5682 -63.125,-4.7812 -4.635,-0.263 -10.2665,0.3532 -13.1875,-1.2188 -21.853,-1.657 -43.649,-3.5887 -66.25,-3.8437 z m 71.5312,1.6875 c 49.459,1.501 96.9875,4.9265 144.9375,7.9375 -0.139,-0.37 -0.709,-0.6498 0.5,-0.9688 2.802,-0.743 7.3635,0.8875 10.3125,1.4375 10.124,1.886 23.122,1.8513 32.625,2.4063 -8.453,-0.739 -16.7067,-4.2155 -24.7187,-5.0625 -6.533,-0.69 -13.6303,-0.3708 -20.4063,-0.4688 -48.747,-0.698 -96.988,-5.2182 -143.25,-5.2812 z m -343.90618,0.1562 c -1.676,0.01 -3.3295,0.04 -4.8438,0.094 6.44,0.2 13.2808,1.2845 19.4688,0.9375 -4.1318,-0.8482 -9.5969,-1.0567 -14.625,-1.0312 z m -36.75,8 0,0.7188 c 1.911,-0.089 3.7922,-0.2068 5.5312,-0.4688 0.399,-0.028 2.1715,0.121 1.4375,-0.25 l -2.1562,0 -4.8125,0 z m 28.8125,0.8125 c -3.8427,0.049 -7.845,0.5669 -11.7813,0.625 4.644,0.397 13.057,0.402 18.5,0 -2.1491,-0.5242 -4.4131,-0.6545 -6.7187,-0.625 z m 9.4375,3.4063 c -8.4934,0.054 -17.1543,0.2952 -25.7813,0.3437 30.851,3.406 66.4978,2.7243 100.34378,2.4063 -17.059,-0.32 -33.32148,-0.4185 -49.68748,-1.9375 -8.0395,-0.7455 -16.3816,-0.867 -24.875,-0.8125 z m -38.25,1.3125 0,3.3437 c 8.731,-0.069 17.7872,0.2123 26.1562,-0.2187 0.369,-0.127 0.01,-0.261 -0.25,-0.25 -9.117,-0.483 -17.5352,-1.646 -25.9062,-2.875 z m 357.31248,1.625 c 1.0635,-0.027 2.6127,0.017 3.4062,0.062 23.6,1.342 51.6983,1.103 74.6563,2.375 0.424,0.024 0.4747,0.167 0.2187,0.25 -26.018,-0.527 -53.9877,1.1987 -78.7187,-2.4063 -1.2075,-0.176 -0.626,-0.254 0.4375,-0.2812 z m 324.125,0.5937 c -0.7554,0.013 -1.5055,0.077 -2.25,0.1875 6.064,0.737 11.8602,1.746 17.7812,2.625 0.186,-0.053 0.4618,-0.017 0.4688,-0.25 -5.187,-0.6239 -10.7123,-2.6514 -16,-2.5625 z m -553.3125,0.1563 c -1.8911,0 -3.7484,0.067 -5.5,0.25 -1.408,0.148 -4.2165,0.328 -1.1875,0.5 3.716,0.211 12.2615,0.128 16.5625,0 -3.4138,-0.4963 -6.7232,-0.7484 -9.875,-0.75 z m 474.875,2.2812 c -0.5122,0 -1.0422,0.013 -1.5625,0.031 -0.5551,0.02 -1.122,0.048 -1.6875,0.094 8.636,0.484 16.3945,3.1293 25.4375,2.4063 -7.7001,-0.3156 -14.505,-2.5026 -22.1875,-2.5313 z m -432,1.0625 c -0.9898,-0.01 -1.998,0.01 -3,0.031 13.734,2.747 29.7367,4.5198 46.0937,3.8438 -14.6878,-0.7622 -28.2464,-3.7909 -43.0937,-3.875 z m 490.1875,7 c 31.121,6.078 65.4165,10.2773 100.8125,11.2813 -32.792,-4.408 -64.8305,-10.8643 -100.8125,-11.2813 z m -52.8438,3.5313 c -2.5803,-0.017 -5.0627,0.084 -6.6562,0.3125 4.808,-0.326 9.6652,0.562 13.9062,0 -2.005,-0.159 -4.6696,-0.2953 -7.25,-0.3125 z m 122.4688,0.062 c 19.953,2.768 39.5895,5.8457 58.5625,9.5937 0.293,1.218 1.083,1.5345 2.625,1.9375 l 0,-6.7187 c -20.215,-2.074 -39.6945,-4.7465 -61.1875,-4.8125 z m -116.0938,0.9062 c -7.3715,-0.057 -15.1537,0.5006 -22.625,0.5313 -0.253,0.013 -0.2112,0.317 0.2188,0.25 11.013,0.587 23.7705,0.741 35.0625,0.25 -3.9394,-0.7185 -8.2334,-0.997 -12.6563,-1.0313 z m -112.1562,0.75 c 0.4187,0.028 0.8697,0.1035 1.1875,0.031 -0.399,-0.01 -0.7893,-0.023 -1.1875,-0.031 z m 40.7812,0 c -0.8291,-0.029 -1.6342,0 -2.1562,0.2813 3.04,-0.159 6.734,0.309 9.375,-0.25 l -4.8125,0 c -0.7215,0.079 -1.5771,0 -2.4063,-0.031 z m 97.75,2.625 c -0.5432,0.036 -1.0487,0.131 -1.5,0.2813 2.308,-0.306 4.79,0.507 6.5,0 -1.4295,-0.072 -3.3704,-0.3883 -5,-0.2813 z m -243.4062,1.7188 c 27.552,1.389 57.1377,4.3125 87.5937,4.3125 33.869,0 69.765,0.026 102.25,0 -0.712,1.61 -3.2245,1.1687 -4.5625,1.2187 -13.157,0.493 -28.6147,0 -42.7187,0 -49.66,0 -98.6645,-0.1642 -142.5625,-5.5312 z m 272.4062,3.8437 c 10.062,1.072 19.706,2.7038 29.5,4.0938 12.511,1.777 25.069,4.0137 38.875,3.5937 -23.244,-1.956 -43.927,-7.7365 -68.375,-7.6875 z m -258.5,0.9688 c 23.846,0.222 50.2215,1.6737 73.6875,3.5937 0.42,0.034 0.51,0.158 0.25,0.25 -24.947,-0.974 -48.9995,-2.8617 -73.9375,-3.8437 z m 346.1251,3.2187 c -1.0749,0.02 -2.1176,0.045 -3.1563,0.125 12.458,0.903 23.9685,2.7643 37.4375,2.6563 l 0,-1.4375 c -2.718,-1.024 -7.6772,-1.5818 -11.0312,-1.2188 -7.4095,0.8024 -15.7262,-0.2668 -23.25,-0.125 z m -612.9688,1.25 c 30.2156,-0.046 59.6981,0.6623 89.9687,0.5625 l 2.1563,0 c 1.25,0.144 -0.4928,0.355 -0.9688,0.25 l -4.3125,0 -8.625,0 c -29.348,0.146 -61.4317,1.176 -91.2187,0 -0.408,0.088 -0.4418,-0.208 -0.4688,-0.5 0.195,-0.046 0.2278,-0.2197 0.4688,-0.2187 4.3512,-0.041 8.6835,-0.087 13,-0.094 z m 608.125,4.6563 c -1.9029,0.024 -3.8066,0.083 -5.75,0.2187 10.889,1.592 22.2043,2.7543 34.7813,2.6563 -4.4,0.159 -9.4375,-0.3413 -13.4375,0.2187 8.096,0.864 15.7652,2.181 23.5312,3.375 l 0,-3.8437 c -13.3411,-0.5285 -25.8049,-2.7927 -39.125,-2.625 z m -697.43748,5.25 c 117.15298,3.374 236.68148,-1.2223 355.93748,1.2187 l 5.75,0 2.875,0 1.4375,0 c 0.865,-0.098 0.318,0.448 -0.25,0.25 -60.581,0.114 -122.3035,0.9365 -184.3125,0.9375 -52.841,0 -106.9848,2.0003 -159.59378,-0.2187 -7.502,-0.316 -14.9167,-0.8765 -21.8437,-1.4375 -0.194,-0.046 -0.2278,-0.25 -0.4688,-0.25 0.106,-0.213 0.1998,-0.449 0.4688,-0.5 z"
       style="fill:#6c543e;fill-rule:evenodd"
       inkscape:connector-curvature="0" /></g></svg>